<?xml version="1.0" encoding="utf-8"?>
<!-- Generator: Adobe Illustrator 18.1.1, SVG Export Plug-In . SVG Version: 6.00 Build 0)  -->
<svg version="1.1" id="Layer_1" xmlns="http://www.w3.org/2000/svg" xmlns:xlink="http://www.w3.org/1999/xlink" x="0px" y="0px"
	 viewBox="0 0 112.8 111.9" enable-background="new 0 0 112.8 111.9" xml:space="preserve">
<g>
	<path fill="none" d="M62.5,23.9c-3.5,0.2-6.9,0.3-10.2,0.3c-3.9,0-7.8,0-11.4-0.2c-3.7-0.1-7.2-0.4-10.4-0.7
		c-3.3-0.3-6.2-0.7-8.7-1.2c-0.1,0-0.2,0-0.3-0.1c-0.3,0.6-0.6,1.3-0.9,1.9c-0.5,1.2-1,2.4-1.5,3.7c2.6,0.4,5.7,0.8,9,1
		c3.5,0.3,7.4,0.5,11.4,0.6c4,0.1,8.2,0.2,12.5,0.1c3.6,0,7.2-0.1,10.9-0.3c-0.1-1-0.1-1.9-0.2-2.9C62.6,25.5,62.6,24.7,62.5,23.9z"
		/>
	<path fill="#8FA6C6" d="M89.3,9.6c-0.5-0.3-1.1-0.8-1.6-1.1c0,0-0.1,0-0.1-0.1c0.6,0.4,1.3,0.9,2.1,1.5C89.6,9.8,89.5,9.7,89.3,9.6
		z"/>
	<path fill="#8FA6C6" d="M86.7,7.9C87,8,87.3,8.2,87.6,8.4C87.3,8.2,87,8.1,86.7,7.9z"/>
	<path fill="#8FA6C6" d="M38.6,2.3C39,2.2,39.4,2,39.8,1.9C39.4,2,39,2.2,38.6,2.3z"/>
	<path fill="#8FA6C6" d="M93.9,13.2c0.4,0.3,0.7,0.6,1.1,1C94.7,13.9,94.3,13.5,93.9,13.2z"/>
	<path fill="#8FA6C6" d="M92.3,11.9c-0.7-0.5-0.9-0.8-1.7-1.3C91.2,11,91.8,11.4,92.3,11.9C92.4,11.9,92.4,11.9,92.3,11.9z"/>
	<path fill="#8FA6C6" d="M34.7,3.8c0.3-0.1,0.6-0.3,1-0.4C35.3,3.5,35,3.6,34.7,3.8z"/>
	<path fill="#8FA6C6" d="M85.7,7.3c0.1,0,0.1,0.1,0.2,0.1C85.9,7.4,85.8,7.3,85.7,7.3z"/>
	<path fill="#8FA6C6" d="M92.8,12.2c0.3,0.3,0.7,0.6,1.1,0.9C93.5,12.8,93.2,12.5,92.8,12.2z"/>
	<path fill="#8FA6C6" d="M36.8,2.9c0.3-0.1,0.6-0.2,1-0.4C37.4,2.7,37.1,2.8,36.8,2.9z"/>
	<path fill="#8FA6C6" d="M83.4,6c0,0,0.1,0,0.1,0.1C83.5,6,83.5,6,83.4,6z"/>
	<path fill="#8FA6C6" d="M71.2,1.2c1.6,0.4,3.3,1,5.1,1.6C75,2.3,73.3,1.8,71.2,1.2z"/>
	<path fill="#8FA6C6" d="M58.2-0.6c0.1,0,0.2,0,0.4,0C58.4-0.6,58.3-0.6,58.2-0.6z"/>
	<path fill="#8FA6C6" d="M69.6,0.8c0.2,0.1,0.4,0.1,0.7,0.2C70.1,0.9,69.8,0.9,69.6,0.8z"/>
	<path fill="#8FA6C6" d="M56.5-0.6C56.5-0.6,56.5-0.6,56.5-0.6C56.4-0.6,56.4-0.6,56.5-0.6c-0.1,0-0.1,0-0.1,0c0.1,0,0.3,0,0.4,0
		C56.7-0.6,56.6-0.6,56.5-0.6C56.5-0.6,56.5-0.6,56.5-0.6z"/>
	<path fill="#8FA6C6" d="M65.2,0c0.3,0,0.6,0.1,0.9,0.1C65.9,0.1,65.6,0,65.2,0z"/>
	<path fill="#8FA6C6" d="M76.7,3c0.4,0.2,0.9,0.3,1.3,0.5C77.6,3.3,77.2,3.2,76.7,3z"/>
	<path fill="#8FA6C6" d="M79,3.9c-0.1,0-0.1,0-0.2-0.1c1.3,0.5,2.7,1.2,4,1.9C81.4,5,80.1,4.3,79,3.9z"/>
	<path fill="#8FA6C6" d="M95.7,14.8c0.4,0.3,0.7,0.7,1.1,1C96.4,15.4,96,15.1,95.7,14.8z"/>
	<path fill="#8FA6C6" d="M67.7,0.4c-0.4-0.1-0.9-0.2-1.4-0.3C66.8,0.3,67.3,0.3,67.7,0.4C67.8,0.4,67.8,0.4,67.7,0.4z"/>
	<path fill="#8FA6C6" d="M40.5,1.7c0.4-0.1,0.9-0.3,1.4-0.4C41.4,1.4,41,1.6,40.5,1.7z"/>
	<path fill="#8FA6C6" d="M42.5,1.2c0.6-0.2,1.3-0.3,1.9-0.5C43.8,0.8,43.1,1,42.5,1.2z"/>
	<path fill="#8FA6C6" d="M22.9,10.5c0.4-0.3,0.9-0.7,1.4-1C23.7,9.8,23.3,10.2,22.9,10.5z"/>
	<path fill="#8FA6C6" d="M22.3,10.9c0.1-0.1,0.3-0.2,0.4-0.3C22.6,10.7,22.5,10.8,22.3,10.9z"/>
	<path fill="#8FA6C6" d="M25.6,8.5c0.1-0.1,0.2-0.1,0.3-0.2C25.8,8.4,25.7,8.5,25.6,8.5z"/>
	<path fill="#8FA6C6" d="M24.4,9.4c0.2-0.2,0.4-0.3,0.7-0.5C24.8,9.1,24.6,9.2,24.4,9.4z"/>
	<path fill="#8FA6C6" d="M21.8,11.3C21.8,11.3,21.8,11.3,21.8,11.3c0.1-0.1,0.2-0.2,0.3-0.3C22,11.1,21.9,11.2,21.8,11.3z"/>
	<path fill="#8FA6C6" d="M14.9,17.7c0.5-0.5,0.9-0.9,1.2-1.2C15.7,16.8,15.3,17.2,14.9,17.7z"/>
	<path fill="#8FA6C6" d="M17.8,14.7c0.5-0.5,0.9-0.8,1.3-1.1C18.6,13.9,18.2,14.3,17.8,14.7z"/>
	<path fill="#8FA6C6" d="M20.3,12.5c0.3-0.3,0.7-0.6,1.2-1C21.1,11.8,20.7,12.1,20.3,12.5z"/>
	<path fill="#8FA6C6" d="M22.6,19.7c-0.4,0.8-0.8,1.5-1.2,2.3c0.1,0,0.2,0,0.3,0.1c2.5,0.5,5.4,0.9,8.7,1.2
		c3.2,0.3,6.7,0.5,10.4,0.7c3.6,0.1,7.5,0.2,11.4,0.2c3.3,0,6.8-0.1,10.2-0.3c-0.1-0.8-0.2-1.6-0.2-2.4c-0.2-1.5-0.3-3-0.5-4.4
		c5.6,0,10.9,0.1,15.7,0.3c4.7,0.2,8.9,0.6,12.5,1c1.6,0.2,3.1,0.4,4.4,0.7c1.3-0.6,2.2-1.1,2.6-1.7c0.1-0.1,0.2-0.3,0.2-0.4
		c0-0.1,0-0.3,0-0.4c0-0.1-0.1-0.3-0.1-0.4c-0.1-0.1-0.2-0.3-0.3-0.4c-0.6-0.6-1.9-1.2-3.8-1.8c-1.9-0.6-4.5-1.1-7.5-1.5
		c-3.1-0.4-6.8-0.8-10.9-1c-4.1-0.2-8.7-0.4-13.5-0.3c-0.3-2-0.7-3.7-1-5.2c-0.1-0.6-0.3-1.2-0.5-1.7c-0.5,0.1-1.1,0.1-1.6,0.2
		c-1.3,0.1-2.5,0.2-3.8,0.2c-1.2,0-2.4,0-3.6-0.1c-1.1-0.1-2.2-0.2-3.1-0.3c-0.9-0.2-1.8-0.4-2.4-0.6c-0.7-0.2-1.1-0.5-1.3-0.8
		c-0.2-0.3-0.2-0.6,0-0.9C43.9,1.6,44.3,1.3,45,1c0.7-0.3,1.5-0.5,2.6-0.8c-0.3,0-0.5,0-0.8,0.1S46.2,0.4,46,0.4
		c-0.3,0-0.5,0.1-0.8,0.1c-0.3,0-0.5,0.1-0.8,0.2c-1.6,0.4-3.2,0.9-4.8,1.6C38,3.1,36.4,4,34.9,5.1c-1.5,1.1-3,2.4-4.5,3.8
		c-1.4,1.5-2.8,3.1-4.1,4.9c-1.6,0.3-3.1,0.6-4.4,0.9c-1.3,0.3-2.4,0.6-3.4,1c-0.9,0.3-1.7,0.7-2.3,1c-0.6,0.3-1.1,0.6-1.3,1
		c-0.4,0.4-0.5,0.8-0.4,1.3c0.1,0.4,0.5,0.8,1.1,1.2c0.4,0.2,0.9,0.5,1.4,0.7c0.2,0,0.3-0.1,0.5-0.1C19,20.4,20.7,20,22.6,19.7z"/>
	<path fill="#8FA6C6" d="M28.3,6.9c-0.1,0-0.1,0.1-0.2,0.1c0.3-0.2,0.6-0.3,0.9-0.5C28.8,6.6,28.6,6.8,28.3,6.9z"/>
	<path fill="#8FA6C6" d="M32.5,4.8c0.4-0.2,0.8-0.4,1.1-0.5C33.2,4.4,32.8,4.6,32.5,4.8z"/>
	<path fill="#8FA6C6" d="M30.3,5.8c0.4-0.2,0.8-0.4,1.3-0.6C31.1,5.4,30.7,5.6,30.3,5.8z"/>
	<path fill="#3D6C98" d="M22.1,11c0.1,0,0.1-0.1,0.2-0.2C22.3,10.9,22.2,11,22.1,11z"/>
	<path fill="#3D6C98" d="M35.6,3.4c0.4-0.2,0.7-0.3,1.1-0.4C36.4,3.1,36,3.2,35.6,3.4z"/>
	<path fill="#3D6C98" d="M37.7,2.6c0.3-0.1,0.6-0.2,0.9-0.3C38.3,2.4,38,2.5,37.7,2.6z"/>
	<path fill="#3D6C98" d="M31.5,5.2c0.3-0.2,0.6-0.3,0.9-0.5C32.1,4.9,31.8,5.1,31.5,5.2z"/>
	<path fill="#3D6C98" d="M19,13.6c0.5-0.4,0.9-0.8,1.3-1.1C19.8,12.9,19.4,13.2,19,13.6z"/>
	<path fill="#3D6C98" d="M21.7,11.3c-0.1,0.1-0.2,0.1-0.2,0.2C21.6,11.4,21.7,11.4,21.7,11.3C21.8,11.3,21.8,11.3,21.7,11.3z"/>
	<path fill="#3D6C98" d="M28,7.1c-0.7,0.4-1.4,0.9-2.1,1.3c0.7-0.4,1.4-0.9,2.2-1.4C28.1,7,28.1,7,28,7.1z"/>
	<path fill="#3D6C98" d="M25.1,8.9c0.2-0.1,0.4-0.2,0.6-0.4C25.4,8.7,25.2,8.8,25.1,8.9z"/>
	<path fill="#3D6C98" d="M33.6,4.2c0.4-0.2,0.7-0.3,1.1-0.5C34.3,3.9,34,4.1,33.6,4.2z"/>
	<path fill="#3D6C98" d="M24.3,9.4C24.3,9.4,24.4,9.4,24.3,9.4C24.4,9.4,24.3,9.4,24.3,9.4z"/>
	<path fill="#3D6C98" d="M22.8,10.5C22.8,10.5,22.8,10.5,22.8,10.5C22.8,10.5,22.8,10.5,22.8,10.5z"/>
	<path fill="#3D6C98" d="M41.9,1.3c0.2-0.1,0.4-0.1,0.6-0.2C42.3,1.2,42.1,1.3,41.9,1.3z"/>
	<path fill="#3D6C98" d="M29,6.5c0.4-0.2,0.8-0.5,1.2-0.7C29.9,6.1,29.5,6.3,29,6.5z"/>
	<path fill="#3D6C98" d="M39.8,1.9c0.2-0.1,0.5-0.1,0.7-0.2C40.3,1.8,40,1.8,39.8,1.9z"/>
	<path fill="#3D6C98" d="M17.8,14.7c0,0-0.1,0.1-0.1,0.1c-0.6,0.5-0.9,0.9-1.6,1.6C16.6,15.8,17.2,15.2,17.8,14.7z"/>
	<path fill="#8FA6C6" d="M18.5,15.7c1-0.3,2.1-0.7,3.4-1c1.3-0.3,2.8-0.6,4.4-0.9c1.3-1.8,2.7-3.4,4.1-4.9c1.4-1.5,2.9-2.7,4.5-3.8
		c1.5-1.1,3.1-2,4.7-2.7c1.6-0.7,3.2-1.3,4.8-1.6c-0.7,0.1-1.3,0.3-1.9,0.5c-0.2,0.1-0.4,0.1-0.6,0.2c-0.5,0.1-0.9,0.2-1.4,0.4
		c-0.2,0.1-0.5,0.1-0.7,0.2C39.4,2,39,2.2,38.6,2.3c-0.3,0.1-0.6,0.2-0.9,0.3c-0.3,0.1-0.6,0.2-1,0.4c-0.4,0.1-0.7,0.3-1.1,0.4
		c-0.3,0.1-0.6,0.3-1,0.4c-0.4,0.1-0.7,0.3-1.1,0.5c-0.4,0.2-0.8,0.3-1.1,0.5c-0.3,0.1-0.6,0.3-0.9,0.5c-0.4,0.2-0.8,0.4-1.3,0.6
		c-0.4,0.2-0.8,0.4-1.2,0.7c-0.3,0.2-0.6,0.3-0.9,0.5c-0.8,0.5-1.5,0.9-2.2,1.4c-0.1,0.1-0.2,0.1-0.3,0.2c-0.2,0.1-0.4,0.3-0.6,0.4
		c-0.2,0.2-0.5,0.3-0.7,0.5c0,0-0.1,0-0.1,0.1c-0.5,0.4-1,0.7-1.4,1c0,0-0.1,0-0.1,0.1c-0.2,0.1-0.3,0.2-0.4,0.3
		c-0.1,0.1-0.1,0.1-0.2,0.2c-0.1,0.1-0.2,0.2-0.3,0.3c-0.1,0.1-0.2,0.2-0.3,0.2c-0.5,0.4-0.9,0.7-1.2,1c-0.4,0.3-0.8,0.7-1.3,1.1
		c-0.4,0.3-0.7,0.7-1.3,1.1c-0.5,0.5-1.1,1.1-1.7,1.7c-0.3,0.3-0.7,0.7-1.2,1.2c0.3-0.3,0.7-0.6,1.3-1C16.8,16.4,17.6,16,18.5,15.7z
		"/>
	<path fill="#FFFFFF" d="M18.5,15.7c1-0.3,2.1-0.7,3.4-1c1.3-0.3,2.8-0.6,4.4-0.9c1.3-1.8,2.7-3.4,4.1-4.9c1.4-1.5,2.9-2.7,4.5-3.8
		c1.5-1.1,3.1-2,4.7-2.7c1.6-0.7,3.2-1.3,4.8-1.6c-0.7,0.1-1.3,0.3-1.9,0.5c-0.2,0.1-0.4,0.1-0.6,0.2c-0.5,0.1-0.9,0.2-1.4,0.4
		c-0.2,0.1-0.5,0.1-0.7,0.2C39.4,2,39,2.2,38.6,2.3c-0.3,0.1-0.6,0.2-0.9,0.3c-0.3,0.1-0.6,0.2-1,0.4c-0.4,0.1-0.7,0.3-1.1,0.4
		c-0.3,0.1-0.6,0.3-1,0.4c-0.4,0.1-0.7,0.3-1.1,0.5c-0.4,0.2-0.8,0.3-1.1,0.5c-0.3,0.1-0.6,0.3-0.9,0.5c-0.4,0.2-0.8,0.4-1.3,0.6
		c-0.4,0.2-0.8,0.4-1.2,0.7c-0.3,0.2-0.6,0.3-0.9,0.5c-0.8,0.5-1.5,0.9-2.2,1.4c-0.1,0.1-0.2,0.1-0.3,0.2c-0.2,0.1-0.4,0.3-0.6,0.4
		c-0.2,0.2-0.5,0.3-0.7,0.5c0,0-0.1,0-0.1,0.1c-0.5,0.4-1,0.7-1.4,1c0,0-0.1,0-0.1,0.1c-0.2,0.1-0.3,0.2-0.4,0.3
		c-0.1,0.1-0.1,0.1-0.2,0.2c-0.1,0.1-0.2,0.2-0.3,0.3c-0.1,0.1-0.2,0.2-0.3,0.2c-0.5,0.4-0.9,0.7-1.2,1c-0.4,0.3-0.8,0.7-1.3,1.1
		c-0.4,0.3-0.7,0.7-1.3,1.1c-0.5,0.5-1.1,1.1-1.7,1.7c-0.3,0.3-0.7,0.7-1.2,1.2c0.3-0.3,0.7-0.6,1.3-1C16.8,16.4,17.6,16,18.5,15.7z
		"/>
	<path fill="#3D6C98" d="M89.8,9.9c0.4,0.3,0.7,0.5,0.9,0.7C90.4,10.4,90.1,10.1,89.8,9.9z"/>
	<path fill="#3D6C98" d="M92.4,11.9c0.1,0.1,0.2,0.2,0.3,0.3C92.7,12.1,92.6,12,92.4,11.9z"/>
	<path fill="#3D6C98" d="M87.6,8.5C87.6,8.4,87.6,8.4,87.6,8.5C87.6,8.4,87.6,8.4,87.6,8.5C87.6,8.5,87.6,8.5,87.6,8.5z"/>
	<path fill="#3D6C98" d="M85.9,7.4c0.3,0.2,0.5,0.3,0.8,0.5C86.4,7.7,86.2,7.6,85.9,7.4z"/>
	<path fill="#3D6C98" d="M93.8,13.1c0,0,0.1,0.1,0.1,0.1C93.9,13.2,93.9,13.1,93.8,13.1z"/>
	<path fill="#3D6C98" d="M66.2,0.1c0.1,0,0.1,0,0.2,0C66.3,0.2,66.2,0.2,66.2,0.1z"/>
	<path fill="#3D6C98" d="M95.1,14.2c0.2,0.2,0.4,0.4,0.6,0.6C95.5,14.6,95.3,14.4,95.1,14.2z"/>
	<path fill="#3D6C98" d="M67.8,0.4c0.6,0.1,1.2,0.3,1.8,0.4C69,0.7,68.4,0.6,67.8,0.4z"/>
	<path fill="#3D6C98" d="M70.3,1c0.3,0.1,0.7,0.2,1,0.2C70.9,1.2,70.6,1.1,70.3,1z"/>
	<path fill="#3D6C98" d="M56.5-0.6c0.6,0,1.1,0,1.7,0C57.6-0.6,57-0.6,56.5-0.6z"/>
	<path fill="#3D6C98" d="M58.6-0.6c2.6,0.1,4.9,0.3,6.7,0.6C62.5-0.4,60.3-0.6,58.6-0.6z"/>
	<path fill="#3D6C98" d="M64,3.3c0.8-0.2,1.4-0.5,1.8-0.8c0.4-0.3,0.6-0.6,0.6-0.9c0-0.3-0.3-0.6-0.8-0.9c-0.5-0.3-1.2-0.5-2.1-0.7
		c-0.9-0.2-2-0.4-3.2-0.5c-1.1-0.1-2.3-0.1-3.6-0.2c0.3,0.1,0.6,0.3,0.9,0.7c0.4,0.5,0.8,1.2,1.1,2.2c0.2,0.6,0.4,1.2,0.6,2
		c0.7-0.1,1.3-0.2,1.9-0.3C62.4,3.7,63.3,3.5,64,3.3z"/>
	<path fill="#3D6C98" d="M82.8,5.7C83,5.8,83.2,5.9,83.4,6C83.2,5.9,83,5.8,82.8,5.7z"/>
	<path fill="#3D6C98" d="M78.4,3.6c-0.1-0.1-0.2-0.1-0.4-0.1c0.3,0.1,0.5,0.2,0.7,0.3C78.7,3.7,78.5,3.7,78.4,3.6z"/>
	<path fill="#3D6C98" d="M83.5,6.1c0.8,0.4,1.5,0.8,2.2,1.2C85,6.9,84.3,6.5,83.5,6.1z"/>
	<path fill="#3D6C98" d="M76.4,2.8c0.1,0,0.2,0.1,0.4,0.1C76.6,2.9,76.5,2.9,76.4,2.8z"/>
	<path fill="#8FA6C6" d="M60.9,11.2c4.8,0,9.4,0.1,13.5,0.3c4.1,0.2,7.8,0.6,10.9,1c3.1,0.4,5.6,0.9,7.5,1.5
		c1.9,0.5,3.2,1.2,3.8,1.8c-0.4-0.4-0.7-0.7-1.1-1c-0.2-0.2-0.4-0.4-0.6-0.6c-0.4-0.3-0.8-0.7-1.1-1c0,0-0.1-0.1-0.1-0.1
		c-0.4-0.3-0.7-0.6-1.1-0.9c-0.1-0.1-0.2-0.2-0.3-0.3c-0.6-0.5-1.2-0.9-1.7-1.3c-0.2-0.2-0.5-0.4-0.9-0.7c-0.8-0.6-1.5-1.1-2.1-1.5
		c0,0,0,0-0.1,0C87.3,8.2,87,8,86.7,7.9c-0.2-0.2-0.5-0.3-0.8-0.5c-0.1,0-0.1-0.1-0.2-0.1c-0.7-0.4-1.4-0.8-2.2-1.2
		c0,0-0.1,0-0.1-0.1c-0.2-0.1-0.4-0.2-0.6-0.3c-1.3-0.7-2.7-1.3-4-1.9c-0.2-0.1-0.5-0.2-0.7-0.3c-0.4-0.2-0.9-0.4-1.3-0.5
		c-0.1,0-0.2-0.1-0.4-0.1c-1.8-0.7-3.5-1.2-5.1-1.6c-0.3-0.1-0.6-0.2-1-0.2c-0.2-0.1-0.4-0.1-0.7-0.2c-0.6-0.1-1.2-0.3-1.8-0.4
		c-0.5-0.1-1-0.2-1.4-0.3c-0.1,0-0.1,0-0.2,0C65.9,0.1,65.6,0,65.2,0c-1.8-0.3-4.1-0.5-6.7-0.6c-0.1,0-0.2,0-0.4,0
		c-0.5,0-1.1,0-1.7,0c0.1,0,0.1,0,0.2,0c1.3,0,2.5,0.1,3.6,0.2c1.2,0.1,2.3,0.3,3.2,0.5c0.9,0.2,1.6,0.4,2.1,0.7
		c0.5,0.3,0.8,0.6,0.8,0.9c0,0.3-0.2,0.6-0.6,0.9c-0.4,0.3-1,0.6-1.8,0.8c-0.8,0.2-1.7,0.5-2.7,0.7c-0.6,0.1-1.2,0.2-1.9,0.3
		c0.2,0.5,0.3,1.1,0.5,1.7C60.3,7.4,60.6,9.2,60.9,11.2z"/>
	<path fill="#FFFFFF" d="M60.9,11.2c4.8,0,9.4,0.1,13.5,0.3c4.1,0.2,7.8,0.6,10.9,1c3.1,0.4,5.6,0.9,7.5,1.5
		c1.9,0.5,3.2,1.2,3.8,1.8c-0.4-0.4-0.7-0.7-1.1-1c-0.2-0.2-0.4-0.4-0.6-0.6c-0.4-0.3-0.8-0.7-1.1-1c0,0-0.1-0.1-0.1-0.1
		c-0.4-0.3-0.7-0.6-1.1-0.9c-0.1-0.1-0.2-0.2-0.3-0.3c-0.6-0.5-1.2-0.9-1.7-1.3c-0.2-0.2-0.5-0.4-0.9-0.7c-0.8-0.6-1.5-1.1-2.1-1.5
		c0,0,0,0-0.1,0C87.3,8.2,87,8,86.7,7.9c-0.2-0.2-0.5-0.3-0.8-0.5c-0.1,0-0.1-0.1-0.2-0.1c-0.7-0.4-1.4-0.8-2.2-1.2
		c0,0-0.1,0-0.1-0.1c-0.2-0.1-0.4-0.2-0.6-0.3c-1.3-0.7-2.7-1.3-4-1.9c-0.2-0.1-0.5-0.2-0.7-0.3c-0.4-0.2-0.9-0.4-1.3-0.5
		c-0.1,0-0.2-0.1-0.4-0.1c-1.8-0.7-3.5-1.2-5.1-1.6c-0.3-0.1-0.6-0.2-1-0.2c-0.2-0.1-0.4-0.1-0.7-0.2c-0.6-0.1-1.2-0.3-1.8-0.4
		c-0.5-0.1-1-0.2-1.4-0.3c-0.1,0-0.1,0-0.2,0C65.9,0.1,65.6,0,65.2,0c-1.8-0.3-4.1-0.5-6.7-0.6c-0.1,0-0.2,0-0.4,0
		c-0.5,0-1.1,0-1.7,0c0.1,0,0.1,0,0.2,0c1.3,0,2.5,0.1,3.6,0.2c1.2,0.1,2.3,0.3,3.2,0.5c0.9,0.2,1.6,0.4,2.1,0.7
		c0.5,0.3,0.8,0.6,0.8,0.9c0,0.3-0.2,0.6-0.6,0.9c-0.4,0.3-1,0.6-1.8,0.8c-0.8,0.2-1.7,0.5-2.7,0.7c-0.6,0.1-1.2,0.2-1.9,0.3
		c0.2,0.5,0.3,1.1,0.5,1.7C60.3,7.4,60.6,9.2,60.9,11.2z"/>
	<path fill="#8FA6C6" d="M2.2,40c0,0.1-0.1,0.3-0.1,0.4c0.2-0.5,0.3-1.1,0.4-1.5C2.4,39.6,2.3,39.7,2.2,40z"/>
	<path fill="#8FA6C6" d="M6.1,30.2c1.2-2.3,2.3-4.1,3.1-5.3C8.4,26.1,7.3,27.9,6.1,30.2z"/>
	<path fill="#8FA6C6" d="M104.6,25.5c0,0.1,0.1,0.1,0.1,0.2C104.7,25.7,104.7,25.6,104.6,25.5z"/>
	<path fill="#8FA6C6" d="M107.8,38.7c-2.1-0.3-5.3-0.6-9.4-0.9c-4.2-0.3-9.3-0.5-15.2-0.6c-6-0.1-12.7-0.2-19.8-0.2
		c-0.1-1.9-0.2-3.8-0.3-5.6c-0.1-0.8-0.1-1.6-0.2-2.3c-3.7,0.1-7.3,0.2-10.9,0.3c-4.3,0-8.5,0-12.5-0.1c-4-0.1-7.9-0.3-11.4-0.6
		c-3.3-0.3-6.3-0.6-9-1c-0.1,0.3-0.2,0.6-0.3,0.9c-0.6,1.6-1.1,3.2-1.5,4.9c-0.5,1.7-0.9,3.4-1.2,5.2c-2.4,0.2-4.5,0.4-6.3,0.6
		c-1.7,0.2-3.2,0.4-4.3,0.6c-1.1,0.2-2,0.4-2.5,0.6C2.3,40.6,2,40.8,2,41c-0.1,0.2,0.2,0.4,0.6,0.6c0.5,0.2,1.2,0.3,2.1,0.5
		c0.9,0.2,2.1,0.3,3.5,0.5c1.3,0.1,2.9,0.3,4.7,0.4c3.3,0.2,7.2,0.4,11.3,0.6c4.1,0.1,8.5,0.2,13.1,0.3c4.6,0.1,9.4,0.1,14.3,0
		c4.9,0,10-0.1,15.1-0.2c5.2-0.1,10.1-0.3,14.7-0.5c4.7-0.2,9-0.4,12.8-0.7c4-0.3,7.4-0.6,10.2-0.9c2.9-0.3,5-0.7,6-1.1
		c0.1,0,0.2-0.1,0.3-0.1c0.1,0,0.2-0.1,0.2-0.1c0.1,0,0.1-0.1,0.1-0.1c0,0,0-0.1,0-0.1C111,39.4,109.9,39.1,107.8,38.7z"/>
	<path fill="#8FA6C6" d="M3.5,36.1c0,0.1-0.1,0.2-0.1,0.2c-0.1,0.1-0.3,0.8-0.5,1.4C3,37.6,3,37.4,3.1,37.3
		C3.2,36.9,3.4,36.5,3.5,36.1z"/>
	<path fill="#3D6C98" d="M10.1,24.7c0.2,0.4,0.7,0.7,1.5,1c0.7,0.3,1.7,0.6,2.8,0.9c1.1,0.3,2.5,0.6,4.1,0.8c0.2,0,0.5,0.1,0.7,0.1
		c0.5-1.3,1-2.5,1.5-3.7c0.3-0.6,0.6-1.3,0.9-1.9c-1.3-0.3-2.5-0.6-3.4-0.9c-0.4-0.1-0.7-0.2-1-0.4c-1.2,0.3-2.3,0.6-3.2,0.9
		c-1,0.3-1.8,0.7-2.4,1c-0.6,0.3-1,0.6-1.2,1C9.8,24,9.8,24.4,10.1,24.7z"/>
	<path fill="#8FA6C6" d="M21.5,22.1c0.4-0.8,0.8-1.6,1.2-2.3c-1.9,0.3-3.6,0.6-5.1,1c-0.2,0-0.3,0.1-0.5,0.1c0.3,0.1,0.7,0.3,1,0.4
		C19,21.5,20.1,21.8,21.5,22.1z"/>
	<path fill="#FFFFFF" d="M21.5,22.1c0.4-0.8,0.8-1.6,1.2-2.3c-1.9,0.3-3.6,0.6-5.1,1c-0.2,0-0.3,0.1-0.5,0.1c0.3,0.1,0.7,0.3,1,0.4
		C19,21.5,20.1,21.8,21.5,22.1z"/>
	<path fill="#3D6C98" d="M5.9,30.6c-0.2,0.4-0.4,0.9-0.7,1.4c-0.3,0.6-0.5,1.2-0.8,1.8c0,0.1-0.1,0.2-0.1,0.3c0.3-0.7,0.6-1.3,0.9-2
		C5.5,31.5,5.7,31,5.9,30.6z"/>
	<path fill="#3D6C98" d="M2.9,37.7c-0.1,0.3-0.2,0.7-0.4,1.2c0.1-0.2,0.1-0.4,0.2-0.7C2.8,38.1,2.9,37.9,2.9,37.7z"/>
	<path fill="#3D6C98" d="M3.8,35.5c-0.1,0.2-0.2,0.4-0.2,0.7c0.2-0.5,0.4-1,0.6-1.6C4,34.9,3.9,35.2,3.8,35.5z"/>
	<path fill="#8FA6C6" d="M2.9,40.4c0.6-0.2,1.4-0.4,2.5-0.6c1.1-0.2,2.6-0.4,4.3-0.6c1.8-0.2,3.9-0.4,6.3-0.6
		c0.4-1.8,0.8-3.5,1.2-5.2c0.5-1.7,1-3.3,1.5-4.9c0.1-0.3,0.2-0.6,0.3-0.9c-0.2,0-0.5-0.1-0.7-0.1c-1.6-0.3-2.9-0.5-4.1-0.8
		c-1.2-0.3-2.1-0.6-2.8-0.9c-0.7-0.3-1.2-0.7-1.5-1c-0.3-0.4-0.3-0.7,0-1.1C10,23.8,9.8,24,9.7,24.2c-0.1,0.1-0.2,0.2-0.2,0.3
		c-0.1,0.1-0.1,0.2-0.2,0.3c-0.8,1.2-1.9,3.1-3.1,5.3c0,0.1-0.1,0.2-0.1,0.3c0,0,0,0.1-0.1,0.1c-0.2,0.4-0.4,0.9-0.7,1.4
		c-0.3,0.7-0.6,1.4-0.9,2c-0.1,0.2-0.2,0.4-0.3,0.6c-0.2,0.5-0.4,1-0.6,1.6c-0.1,0.4-0.3,0.8-0.4,1.1c0,0.1-0.1,0.3-0.2,0.5
		c-0.1,0.2-0.1,0.3-0.2,0.5c-0.1,0.3-0.2,0.6-0.2,0.7c-0.1,0.4-0.3,1-0.4,1.5C2.1,40.6,2,40.8,2,41C2,40.8,2.3,40.6,2.9,40.4z"/>
	<path fill="#FFFFFF" d="M2.9,40.4c0.6-0.2,1.4-0.4,2.5-0.6c1.2-0.2,2.6-0.4,4.4-0.6c1.8-0.2,3.9-0.4,6.4-0.6
		c0.4-1.8,0.8-3.5,1.2-5.2c0.5-1.7,1-3.3,1.5-4.9c0.1-0.3,0.2-0.6,0.3-0.9c-0.2,0-0.5-0.1-0.7-0.1c-1.6-0.3-2.9-0.5-4.1-0.8
		c-1.2-0.3-2.1-0.6-2.8-0.9c-0.7-0.3-1.2-0.7-1.5-1c-0.3-0.4-0.3-0.7,0-1.1C10,23.8,9.9,24,9.7,24.2c-0.1,0.1-0.2,0.2-0.2,0.3
		c-0.1,0.1-0.1,0.2-0.2,0.3c-0.8,1.2-2,3.1-3.1,5.3c0,0.1-0.1,0.2-0.1,0.3c0,0,0,0.1-0.1,0.1c-0.2,0.4-0.4,0.9-0.7,1.4
		c-0.3,0.7-0.6,1.4-0.9,2c-0.1,0.2-0.2,0.4-0.3,0.6c-0.2,0.5-0.4,1-0.6,1.6c-0.1,0.4-0.3,0.8-0.4,1.1c0,0.1-0.1,0.3-0.2,0.5
		c-0.1,0.2-0.1,0.3-0.2,0.5c-0.1,0.3-0.2,0.6-0.2,0.7c-0.1,0.4-0.3,1-0.4,1.5C2.1,40.6,2,40.8,2,41C2,40.8,2.3,40.6,2.9,40.4z"/>
	<path fill="#3D6C98" d="M109.6,35.2c0.8,2,1.3,3.6,1.6,4.5C111.1,39.8,110.6,37.9,109.6,35.2z"/>
	<path fill="#3D6C98" d="M107.4,30.3c-0.1-0.1-0.1-0.2-0.2-0.3c0.3,0.5,0.5,1,0.7,1.5C107.7,31.1,107.6,30.7,107.4,30.3z"/>
	<path fill="#3D6C98" d="M102,21.8c0.2,0.3,0.4,0.6,0.6,0.8C102.4,22.3,102.2,22,102,21.8z"/>
	<path fill="#3D6C98" d="M85.8,21.5c-2.9,0.5-6.2,1-9.8,1.4c-3.6,0.4-7.4,0.7-11.6,0.9c-0.6,0-1.2,0.1-1.8,0.1
		c0.1,0.8,0.1,1.6,0.2,2.4c0.1,0.9,0.1,1.9,0.2,2.9c0.8,0,1.5,0,2.3-0.1c4.5-0.2,8.8-0.5,12.7-0.9c4-0.4,7.7-0.8,10.9-1.3
		c3.3-0.5,6.2-1.1,8.4-1.7c2.3-0.6,3.9-1.4,4.6-2.1c0.1-0.1,0.2-0.2,0.2-0.3c0.1-0.1,0.1-0.2,0.1-0.3c0-0.1,0-0.2,0-0.3
		s-0.1-0.2-0.2-0.3c-0.5-0.6-1.7-1.2-3.7-1.8c-1.1-0.3-2.4-0.6-3.9-0.8c-0.4,0.2-0.8,0.3-1.3,0.5C91.3,20.3,88.7,20.9,85.8,21.5z"/>
	<path fill="#8FA6C6" d="M77.5,17.5c-4.8-0.2-10.1-0.4-15.7-0.3c0.2,1.4,0.3,2.8,0.5,4.4c0.1,0.8,0.2,1.6,0.2,2.4
		c0.6,0,1.2,0,1.8-0.1c4.1-0.2,8-0.5,11.6-0.9c3.6-0.4,7-0.9,9.8-1.4c3-0.6,5.5-1.2,7.4-1.8c0.5-0.2,0.9-0.3,1.3-0.5
		c-1.3-0.2-2.8-0.5-4.4-0.7C86.5,18.1,82.3,17.7,77.5,17.5z"/>
	<path fill="#FFFFFF" d="M77.5,17.5c-4.8-0.2-10.1-0.4-15.7-0.3c0.2,1.4,0.3,2.8,0.5,4.4c0.1,0.8,0.2,1.6,0.2,2.4
		c0.6,0,1.2,0,1.8-0.1c4.1-0.2,8-0.5,11.6-0.9c3.6-0.4,7-0.9,9.8-1.4c3-0.6,5.5-1.2,7.4-1.8c0.5-0.2,0.9-0.3,1.3-0.5
		c-1.3-0.2-2.8-0.5-4.4-0.7C86.5,18.1,82.3,17.7,77.5,17.5z"/>
	<path fill="#8FA6C6" d="M102.2,22.5c0,0.1,0,0.2-0.1,0.3c-0.1,0.1-0.1,0.2-0.2,0.3c-0.7,0.7-2.3,1.4-4.6,2.1
		c-2.2,0.6-5.1,1.2-8.4,1.7c-3.2,0.5-6.9,0.9-10.9,1.3c-3.9,0.4-8.2,0.6-12.7,0.9c-0.8,0-1.5,0.1-2.3,0.1c0.1,0.8,0.1,1.5,0.2,2.3
		c0.1,1.8,0.2,3.7,0.3,5.6c7.2,0,13.8,0,19.8,0.2c5.9,0.1,11,0.3,15.2,0.6c4.1,0.3,7.2,0.5,9.4,0.9c2.1,0.3,3.2,0.7,3.3,1
		c-0.3-0.9-0.8-2.5-1.6-4.5c0-0.1-0.1-0.2-0.1-0.4c-0.1-0.2-0.1-0.3-0.2-0.5c-0.1-0.2-0.2-0.5-0.3-0.8c-0.1-0.2-0.2-0.4-0.3-0.6
		c-0.1-0.1-0.1-0.3-0.2-0.4c-0.1-0.3-0.2-0.5-0.4-0.8c0-0.1-0.1-0.2-0.1-0.3c-0.2-0.5-0.5-1-0.7-1.5c-0.2-0.4-0.4-0.8-0.6-1.1
		c-0.1-0.2-0.2-0.4-0.3-0.5c-0.2-0.3-0.3-0.6-0.5-0.9c0-0.1-0.1-0.2-0.1-0.2c-0.3-0.5-0.6-1-0.9-1.4c0-0.1-0.1-0.1-0.1-0.2
		c-0.3-0.5-0.7-1-1-1.6c0,0,0,0,0,0c-0.3-0.5-0.6-0.9-1-1.4c-0.2-0.3-0.4-0.6-0.6-0.8c0.1,0.1,0.1,0.2,0.2,0.3
		S102.2,22.3,102.2,22.5z"/>
	<path fill="#FFFFFF" d="M102.2,22.5c0,0.1,0,0.2-0.1,0.3c-0.1,0.1-0.1,0.2-0.2,0.3c-0.7,0.7-2.3,1.4-4.6,2.1
		c-2.2,0.6-5.1,1.2-8.4,1.7c-3.2,0.5-6.9,0.9-10.9,1.3c-3.9,0.4-8.2,0.6-12.7,0.9c-0.8,0-1.5,0.1-2.3,0.1c0.1,0.8,0.1,1.5,0.2,2.3
		c0.1,1.8,0.2,3.7,0.3,5.6c7.2,0,13.8,0,19.8,0.2c5.9,0.1,11,0.3,15.2,0.6c4.1,0.3,7.2,0.5,9.4,0.9c2.1,0.3,3.2,0.7,3.3,1
		c-0.3-0.9-0.8-2.5-1.6-4.5c0-0.1-0.1-0.2-0.1-0.4c-0.1-0.2-0.1-0.3-0.2-0.5c-0.1-0.2-0.2-0.5-0.3-0.8c-0.1-0.2-0.2-0.4-0.3-0.6
		c-0.1-0.1-0.1-0.3-0.2-0.4c-0.1-0.3-0.2-0.5-0.4-0.8c0-0.1-0.1-0.2-0.1-0.3c-0.2-0.5-0.5-1-0.7-1.5c-0.2-0.4-0.4-0.8-0.6-1.1
		c-0.1-0.2-0.2-0.4-0.3-0.5c-0.2-0.3-0.3-0.6-0.5-0.9c0-0.1-0.1-0.2-0.1-0.2c-0.3-0.5-0.6-1-0.9-1.4c0-0.1-0.1-0.1-0.1-0.2
		c-0.3-0.5-0.7-1-1-1.6c0,0,0,0,0,0c-0.3-0.5-0.6-0.9-1-1.4c-0.2-0.3-0.4-0.6-0.6-0.8c0.1,0.1,0.1,0.2,0.2,0.3
		S102.2,22.3,102.2,22.5z"/>
	<path fill="#8FA6C6" d="M102.6,22.6c0.3,0.5,0.7,0.9,1,1.4C103.2,23.5,102.9,23,102.6,22.6z"/>
	<path fill="#8FA6C6" d="M102.6,22.6c0.3,0.5,0.7,0.9,1,1.4C103.2,23.5,102.9,23,102.6,22.6z"/>
	<path fill="#3D6C98" d="M102.6,22.6c0.3,0.5,0.7,0.9,1,1.4C103.2,23.5,102.9,23,102.6,22.6z"/>
	<path fill="#8FA6C6" d="M103.6,24c0.4,0.5,0.7,1,1,1.6C104.3,25,103.9,24.5,103.6,24z"/>
	<path fill="#8FA6C6" d="M103.6,24c0.4,0.5,0.7,1,1,1.6C104.3,25,103.9,24.5,103.6,24z"/>
	<path fill="#3D6C98" d="M103.6,24c0.4,0.5,0.7,1,1,1.6C104.3,25,103.9,24.5,103.6,24z"/>
	<path fill="#8FA6C6" d="M104.7,25.7c0.3,0.5,0.6,1,0.9,1.4C105.3,26.7,105,26.2,104.7,25.7z"/>
	<path fill="#8FA6C6" d="M104.7,25.7c0.3,0.5,0.6,1,0.9,1.4C105.3,26.7,105,26.2,104.7,25.7z"/>
	<path fill="#3D6C98" d="M104.7,25.7c0.3,0.5,0.6,1,0.9,1.4C105.3,26.7,105,26.2,104.7,25.7z"/>
</g>
<g>
	<path fill="none" d="M39.5,81.2c-4.1,0.2-8,0.4-11.5,0.7c-3.3,0.3-6.4,0.7-9.1,1.1c0.5,1.3,1,2.6,1.5,3.8c0.3,0.6,0.5,1.2,0.8,1.7
		c0.1,0,0.2,0,0.3-0.1c2.5-0.5,5.5-1,8.8-1.3c3.2-0.3,6.8-0.6,10.5-0.8c3.7-0.2,7.6-0.3,11.6-0.2c3.4,0,6.9,0.1,10.4,0.2
		c0.1-0.7,0.1-1.4,0.2-2.2c0.1-1,0.1-2,0.2-3.1c-3.7-0.1-7.4-0.2-11-0.2C47.8,80.9,43.6,81,39.5,81.2z"/>
	<path fill="#8FA6C6" d="M69.5,110.5c-1,0.2-2.1,0.4-3.2,0.6C67.2,111,68.3,110.8,69.5,110.5z"/>
	<path fill="#8FA6C6" d="M66.1,111.2c-0.4,0.1-0.9,0.1-1.4,0.2C65.1,111.3,65.6,111.2,66.1,111.2z"/>
	<path fill="#8FA6C6" d="M64.3,111.4c-0.6,0.1-1.1,0.1-1.7,0.2C63,111.6,63.6,111.5,64.3,111.4z"/>
	<path fill="#8FA6C6" d="M71,110.1c-0.4,0.1-0.7,0.2-1.1,0.3C70.3,110.3,70.6,110.2,71,110.1z"/>
	<path fill="#8FA6C6" d="M75.6,108.7c-0.1,0-0.1,0-0.2,0.1C75.5,108.7,75.6,108.7,75.6,108.7z"/>
	<path fill="#8FA6C6" d="M72.5,109.7c0,0,0.1,0,0.1,0c-0.1,0-0.2,0-0.3,0.1C72.4,109.7,72.5,109.7,72.5,109.7z"/>
	<path fill="#8FA6C6" d="M74.3,109.2c-0.1,0-0.2,0.1-0.3,0.1C74.1,109.2,74.2,109.2,74.3,109.2z"/>
	<path fill="#8FA6C6" d="M36.2,108.1c1.6,0.6,4.1,1.5,7.5,2.3c-1.7-0.4-4.4-1.1-7.7-2.4C36,108,36.1,108.1,36.2,108.1z"/>
	<path fill="#8FA6C6" d="M28.5,104.4c0.1,0.1,0.3,0.2,0.5,0.3c-0.3-0.2-0.5-0.3-0.8-0.5C28.2,104.3,28.4,104.4,28.5,104.4z"/>
	<path fill="#8FA6C6" d="M22.2,100.3c-0.1,0-0.1-0.1-0.2-0.1C22.1,100.2,22.2,100.3,22.2,100.3z"/>
	<path fill="#8FA6C6" d="M29.8,105.2c-0.1-0.1-0.3-0.1-0.4-0.2C29.5,105,29.6,105.1,29.8,105.2z"/>
	<path fill="#8FA6C6" d="M35.4,107.8c-0.2-0.1-0.5-0.2-0.7-0.3C34.9,107.6,35.1,107.7,35.4,107.8z"/>
	<path fill="#8FA6C6" d="M33.5,107C33.5,107,33.5,107,33.5,107C33.5,107,33.5,107,33.5,107z"/>
	<path fill="#8FA6C6" d="M95.9,96.3c-0.2,0.2-0.3,0.3-0.5,0.5C95.5,96.7,95.7,96.5,95.9,96.3z"/>
	<path fill="#8FA6C6" d="M76.8,108.3C76.8,108.3,76.8,108.3,76.8,108.3C76.8,108.3,76.8,108.3,76.8,108.3z"/>
	<path fill="#8FA6C6" d="M21.3,99.6c-0.1-0.1-0.1-0.1-0.2-0.2C21.2,99.5,21.3,99.6,21.3,99.6z"/>
	<path fill="#8FA6C6" d="M78.2,93c-4.9,0.3-10.3,0.4-16,0.5c0.2-1.4,0.3-2.9,0.4-4.4c0.1-0.9,0.1-1.7,0.2-2.6
		c-3.5-0.1-7-0.2-10.4-0.2c-4,0-7.9,0.1-11.6,0.2c-3.7,0.2-7.3,0.4-10.5,0.8C27,87.5,24,88,21.5,88.5c-0.1,0-0.2,0-0.3,0.1
		c0.4,0.9,0.8,1.7,1.2,2.5c-2-0.3-3.7-0.6-5.2-0.9c-0.3-0.1-0.5-0.1-0.8-0.2c-0.5,0.2-1,0.4-1.3,0.7c-0.6,0.4-1,0.8-1.1,1.2
		c-0.1,0.4,0,0.9,0.4,1.3c0.3,0.3,0.7,0.7,1.4,1c0.6,0.3,1.4,0.7,2.4,1c1,0.3,2.1,0.7,3.4,1c1.3,0.3,2.8,0.6,4.5,0.9
		c0.7,1,1.4,2,2.2,2.9c0.7,0.9,1.5,1.7,2.3,2.5c0.8,0.8,1.6,1.5,2.4,2.2c0.8,0.7,1.6,1.3,2.5,1.9c0.7,0.5,1.5,1,2.2,1.4
		c0.8,0.4,1.5,0.8,2.3,1.2c0.8,0.3,1.5,0.6,2.3,0.9c0.8,0.3,1.6,0.5,2.3,0.6c0.1,0,0.2,0,0.3,0.1c0.1,0,0.2,0,0.3,0.1
		c0.1,0,0.2,0,0.3,0.1c0.1,0,0.2,0,0.3,0.1c-1.4-0.3-2.5-0.6-3.3-1c-0.8-0.4-1.4-0.7-1.6-1.1c-0.3-0.4-0.2-0.8,0-1.1
		c0.3-0.4,0.9-0.7,1.7-1c0.8-0.3,1.9-0.6,3.1-0.8c1.2-0.2,2.5-0.4,4-0.5c1.4-0.1,3-0.2,4.5-0.1c1.6,0,3.2,0.1,4.8,0.2
		c0.4,0,0.8,0.1,1.3,0.1c0.1-0.3,0.1-0.5,0.2-0.8c0.2-0.8,0.3-1.6,0.5-2.5c0.2-0.9,0.3-1.8,0.5-2.8c4.9,0,9.6-0.2,13.8-0.4
		c4.2-0.3,7.9-0.6,11.1-1.1c3.1-0.5,5.7-1,7.7-1.6c1.9-0.6,3.2-1.2,3.8-1.9c0.1-0.1,0.2-0.3,0.3-0.4c0.1-0.1,0.1-0.3,0.1-0.4
		c0-0.1,0-0.3,0-0.4c0-0.1-0.1-0.3-0.2-0.4c-0.4-0.6-1.2-1.1-2.5-1.7c-1.4,0.3-3,0.5-4.7,0.8C87.2,92.3,83,92.7,78.2,93z"/>
	<path fill="#8FA6C6" d="M91.6,100c-0.2,0.2-0.4,0.3-0.7,0.5C91.1,100.4,91.4,100.2,91.6,100z"/>
	<path fill="#8FA6C6" d="M93.8,98.2c-0.2,0.2-0.4,0.3-0.5,0.5C93.4,98.5,93.6,98.4,93.8,98.2z"/>
	<path fill="#8FA6C6" d="M89.8,101.3c-0.5,0.4-1,0.7-1.5,1C88.8,102,89.3,101.7,89.8,101.3z"/>
	<path fill="#8FA6C6" d="M85.7,104c-0.3,0.2-0.5,0.3-0.8,0.5C85.1,104.3,85.4,104.2,85.7,104z"/>
	<path fill="#8FA6C6" d="M87.8,102.7c-0.7,0.5-1.4,0.9-2.1,1.3C86.5,103.6,87.1,103.1,87.8,102.7z"/>
	<path fill="#8FA6C6" d="M83.6,105.2c-0.1,0.1-0.2,0.1-0.3,0.1C83.4,105.3,83.5,105.2,83.6,105.2z"/>
	<path fill="#8FA6C6" d="M108,79.8c-0.3,0.7-0.7,1.4-1.1,2.1C107.3,81.2,107.6,80.5,108,79.8z"/>
	<path fill="#8FA6C6" d="M109,77.4C109,77.4,109,77.4,109,77.4C109,77.4,109,77.4,109,77.4z"/>
	<path fill="#8FA6C6" d="M106.8,82c-0.8,1.4-1.6,2.9-2.5,4.2C105,85.2,105.9,83.7,106.8,82z"/>
	<path fill="#8FA6C6" d="M104.2,86.5c-0.4,0.7-0.9,1.3-1.3,1.9C103.2,87.9,103.6,87.3,104.2,86.5z"/>
	<path fill="#8FA6C6" d="M6.2,81.2c-0.1-0.1-0.1-0.2-0.2-0.4C6.1,80.9,6.1,81.1,6.2,81.2z"/>
	<path fill="#8FA6C6" d="M110.7,72.8c0,0.1-0.1,0.3-0.1,0.4C110.6,73.1,110.7,73,110.7,72.8z"/>
	<path fill="#8FA6C6" d="M1.8,69.8c0.1,0.6,0.4,1.3,0.5,1.9c-0.1-0.3-0.2-0.6-0.3-0.9C2,70.5,1.9,70.1,1.8,69.8z"/>
	<path fill="#8FA6C6" d="M7.2,83.1c0.2,0.3,0.3,0.6,0.5,0.9C7.5,83.7,7.4,83.4,7.2,83.1C7.2,83.1,7.2,83.1,7.2,83.1z"/>
	<path fill="#8FA6C6" d="M8.2,84.9c-0.1-0.2-0.2-0.4-0.3-0.6C8,84.5,8.1,84.7,8.2,84.9z"/>
	<path fill="#8FA6C6" d="M2.7,70.4c0.6,0.2,1.4,0.4,2.5,0.6c1.2,0.2,2.6,0.4,4.4,0.6c1.8,0.2,3.9,0.4,6.3,0.5
		c0.3,1.8,0.8,3.5,1.2,5.2c0.5,1.7,1,3.3,1.5,4.9c0.1,0.3,0.2,0.5,0.3,0.8c2.7-0.4,5.7-0.8,9.1-1.1c3.6-0.3,7.5-0.6,11.5-0.7
		c4-0.2,8.3-0.2,12.6-0.2c3.6,0,7.3,0.1,11,0.2c0-0.7,0.1-1.4,0.1-2.2c0.1-1.8,0.2-3.7,0.3-5.6c7.2,0,13.9-0.1,19.9-0.3
		c5.9-0.2,11.1-0.4,15.3-0.7c4.1-0.3,7.3-0.6,9.4-1c2.1-0.3,3.2-0.7,3.3-1.1c0,0,0-0.1,0-0.2c0,0-0.1-0.1-0.1-0.1s-0.1-0.1-0.2-0.1
		c-0.1,0-0.2-0.1-0.3-0.1c-1-0.4-3.1-0.8-6-1.1c-2.8-0.3-6.2-0.6-10.2-0.9c-3.8-0.2-8.2-0.4-12.9-0.6c-4.6-0.2-9.5-0.3-14.7-0.4
		c-5.1-0.1-10.2-0.1-15.2-0.1c-4.9,0-9.8,0.1-14.4,0.1c-4.6,0.1-9.1,0.2-13.2,0.4c-4.2,0.2-8.1,0.4-11.4,0.6
		C11,68,9.4,68.1,8.1,68.2c-1.4,0.2-2.5,0.3-3.5,0.5c-1,0.2-1.7,0.4-2.1,0.5c-0.5,0.2-0.7,0.4-0.7,0.6C1.9,70,2.2,70.2,2.7,70.4z"/>
	<path fill="#8FA6C6" d="M109.9,75.1c0.3-0.7,0.4-1.2,0.6-1.7c-0.2,0.6-0.4,1.3-0.7,2C109.9,75.3,109.9,75.2,109.9,75.1z"/>
	<path fill="#8FA6C6" d="M3,73.8c0.1,0.3,0.2,0.5,0.2,0.6c0,0,0,0,0,0.1c0,0,0,0,0-0.1C3.2,74.2,3.1,74,3,73.8z"/>
	<path fill="#8FA6C6" d="M110.8,72.6c0-0.1,0.1-0.3,0.1-0.4c0.1-0.3,0.2-0.7,0.3-1c0-0.1,0.1-0.2,0.1-0.3
		C111.1,71.6,110.9,72.1,110.8,72.6z"/>
	<path fill="#8FA6C6" d="M9.7,87.2c-0.3-0.5-0.8-1.2-1.3-2C9.2,86.3,9.7,87.1,9.7,87.2z"/>
	<path fill="#3D6C98" d="M44.6,110.6c-0.3-0.1-0.6-0.1-1-0.2C44,110.5,44.3,110.6,44.6,110.6z"/>
	<path fill="#3D6C98" d="M14.4,93.1c1,1.2,3.2,3.5,6.1,5.9c0.2,0.2,0.4,0.3,0.6,0.5C19,97.7,16.7,95.7,14.4,93.1z"/>
	<path fill="#3D6C98" d="M27.7,104c0.1,0.1,0.3,0.2,0.4,0.2c-1.6-1-3.6-2.2-5.9-3.9C24.4,102,26.2,103.1,27.7,104z"/>
	<path fill="#3D6C98" d="M33.5,107c-1.5-0.7-2.8-1.3-3.7-1.8C31,105.8,32.3,106.5,33.5,107z"/>
	<path fill="#3D6C98" d="M34.6,107.5c-0.4-0.2-0.7-0.3-1.1-0.5C33.9,107.2,34.3,107.3,34.6,107.5z"/>
	<path fill="#3D6C98" d="M22.1,100.2c-0.2-0.2-0.5-0.4-0.7-0.6C21.6,99.8,21.8,100,22.1,100.2z"/>
	<path fill="#3D6C98" d="M29.4,105c-0.2-0.1-0.3-0.2-0.5-0.3C29.1,104.8,29.2,104.9,29.4,105z"/>
	<path fill="#3D6C98" d="M35.9,108c-0.2-0.1-0.4-0.1-0.5-0.2C35.5,107.8,35.7,107.9,35.9,108z"/>
	<path fill="#8FA6C6" d="M39.9,109.1c-0.8-0.3-1.5-0.7-2.3-1.2c-0.8-0.4-1.5-0.9-2.2-1.4c-0.8-0.6-1.7-1.2-2.5-1.9
		c-0.8-0.7-1.6-1.4-2.4-2.2c-0.8-0.8-1.6-1.6-2.3-2.5C27.5,98.9,26.7,98,26,97c-1.7-0.3-3.2-0.6-4.5-0.9c-1.3-0.3-2.4-0.6-3.4-1
		c-0.9-0.3-1.7-0.7-2.4-1c-0.6-0.3-1.1-0.7-1.4-1c2.3,2.6,4.6,4.7,6.7,6.4c0.1,0.1,0.1,0.1,0.2,0.2c0.2,0.2,0.5,0.4,0.7,0.6
		c0.1,0,0.1,0.1,0.2,0.1c2.2,1.7,4.2,2.9,5.9,3.9c0.3,0.2,0.5,0.3,0.8,0.5c0.1,0.1,0.3,0.2,0.5,0.3c0.1,0.1,0.3,0.1,0.4,0.2
		c0.9,0.5,2.2,1.1,3.7,1.8c0,0,0,0,0.1,0c0.3,0.2,0.7,0.3,1.1,0.5c0.2,0.1,0.5,0.2,0.7,0.3c0.2,0.1,0.3,0.1,0.5,0.2
		c3.3,1.3,6.1,2,7.7,2.4c0.3,0.1,0.6,0.1,1,0.2c-0.8-0.2-1.6-0.4-2.3-0.6C41.5,109.7,40.7,109.4,39.9,109.1z"/>
	<path fill="#FFFFFF" d="M39.9,109.1c-0.8-0.3-1.5-0.7-2.3-1.2c-0.8-0.4-1.5-0.9-2.2-1.4c-0.8-0.6-1.7-1.2-2.5-1.9
		c-0.8-0.7-1.6-1.4-2.4-2.2c-0.8-0.8-1.6-1.6-2.3-2.5C27.5,98.9,26.7,98,26,97c-1.7-0.3-3.2-0.6-4.5-0.9c-1.3-0.3-2.4-0.6-3.4-1
		c-0.9-0.3-1.7-0.7-2.4-1c-0.6-0.3-1.1-0.7-1.4-1c2.3,2.6,4.6,4.7,6.7,6.4c0.1,0.1,0.1,0.1,0.2,0.2c0.2,0.2,0.5,0.4,0.7,0.6
		c0.1,0,0.1,0.1,0.2,0.1c2.2,1.7,4.2,2.9,5.9,3.9c0.3,0.2,0.5,0.3,0.8,0.5c0.1,0.1,0.3,0.2,0.5,0.3c0.1,0.1,0.3,0.1,0.4,0.2
		c0.9,0.5,2.2,1.1,3.7,1.8c0,0,0,0,0.1,0c0.3,0.2,0.7,0.3,1.1,0.5c0.2,0.1,0.5,0.2,0.7,0.3c0.2,0.1,0.3,0.1,0.5,0.2
		c3.3,1.3,6.1,2,7.7,2.4c0.3,0.1,0.6,0.1,1,0.2c-0.8-0.2-1.6-0.4-2.3-0.6C41.5,109.7,40.7,109.4,39.9,109.1z"/>
	<path fill="#3D6C98" d="M76.8,108.3c-0.4,0.1-0.8,0.3-1.2,0.4C76.1,108.6,76.5,108.4,76.8,108.3z"/>
	<path fill="#3D6C98" d="M84.9,104.5c-0.4,0.2-0.8,0.5-1.2,0.7C84,105,84.4,104.7,84.9,104.5z"/>
	<path fill="#3D6C98" d="M93.2,98.7c-0.6,0.5-1.1,0.9-1.7,1.3C92.2,99.6,92.7,99.1,93.2,98.7z"/>
	<path fill="#3D6C98" d="M64.7,111.4c-0.1,0-0.3,0-0.4,0.1C64.4,111.4,64.6,111.4,64.7,111.4z"/>
	<path fill="#3D6C98" d="M68.1,110.5c0.7-0.2,1.2-0.5,1.5-0.8c0.3-0.3,0.5-0.6,0.5-0.9c0-0.4-0.3-0.8-0.8-1.2
		c-0.5-0.4-1.3-0.7-2.3-1c-1-0.3-2.2-0.6-3.5-0.8c-1-0.2-2.1-0.3-3.2-0.4c-0.1,0.5-0.2,0.9-0.3,1.3c-0.2,0.6-0.3,1.2-0.5,1.7
		c-0.2,0.5-0.4,1-0.5,1.4c-0.2,0.4-0.4,0.7-0.5,1c-0.2,0.3-0.4,0.5-0.5,0.7c-0.2,0.2-0.4,0.3-0.5,0.3c0.5,0,1,0,1.4,0
		c0.5,0,0.9,0,1.4-0.1c0.5,0,0.9-0.1,1.3-0.1c0.4,0,0.8-0.1,1.3-0.1c1.1-0.1,2.2-0.3,3.1-0.5C66.6,111,67.4,110.8,68.1,110.5z"/>
	<path fill="#3D6C98" d="M90.5,100.8c0.1-0.1,0.3-0.2,0.4-0.3c-0.4,0.3-0.7,0.5-1.1,0.8C90.1,101.1,90.3,101,90.5,100.8z"/>
	<path fill="#3D6C98" d="M88.3,102.4c-0.2,0.1-0.3,0.2-0.5,0.3C88,102.6,88.2,102.5,88.3,102.4z"/>
	<path fill="#3D6C98" d="M85.8,104c0,0-0.1,0.1-0.1,0.1C85.7,104,85.8,104,85.8,104z"/>
	<path fill="#3D6C98" d="M95.4,96.8c-0.5,0.5-1,1-1.6,1.4C94.4,97.7,94.9,97.3,95.4,96.8z"/>
	<path fill="#3D6C98" d="M76.8,108.3c2.4-0.9,4.2-1.8,5.1-2.2c0.4-0.2,0.9-0.4,1.4-0.7c-0.5,0.3-1,0.5-1.4,0.7
		C80.7,106.7,79,107.5,76.8,108.3z"/>
	<path fill="#3D6C98" d="M72.4,109.7c-0.5,0.1-0.9,0.3-1.4,0.4C71.5,110,71.9,109.9,72.4,109.7z"/>
	<path fill="#3D6C98" d="M97.8,94.4c-0.6,0.7-1.3,1.3-1.9,1.9C96.8,95.5,97.4,94.8,97.8,94.4z"/>
	<path fill="#3D6C98" d="M69.9,110.4c-0.1,0-0.3,0.1-0.4,0.1C69.6,110.4,69.8,110.4,69.9,110.4z"/>
	<path fill="#3D6C98" d="M66.3,111.1c-0.1,0-0.1,0-0.2,0C66.1,111.1,66.2,111.1,66.3,111.1z"/>
	<path fill="#3D6C98" d="M75.5,108.8c-0.4,0.1-0.8,0.3-1.2,0.4C74.7,109,75.1,108.9,75.5,108.8z"/>
	<path fill="#3D6C98" d="M74,109.2c-0.4,0.1-0.9,0.3-1.4,0.4C73.1,109.5,73.6,109.4,74,109.2z"/>
	<path fill="#8FA6C6" d="M86.3,97.9c-3.2,0.5-6.9,0.8-11.1,1.1c-4.2,0.3-8.9,0.4-13.8,0.4c-0.2,1-0.3,1.9-0.5,2.8
		c-0.2,0.9-0.3,1.7-0.5,2.5c-0.1,0.3-0.1,0.5-0.2,0.8c1.1,0.1,2.2,0.3,3.2,0.4c1.4,0.2,2.5,0.5,3.5,0.8c1,0.3,1.8,0.7,2.3,1
		c0.6,0.4,0.8,0.8,0.8,1.2c0,0.3-0.2,0.6-0.5,0.9c-0.4,0.3-0.9,0.5-1.5,0.8c-0.7,0.2-1.5,0.4-2.4,0.6c-0.9,0.2-2,0.3-3.1,0.5
		c0.6-0.1,1.1-0.1,1.7-0.2c0.1,0,0.3,0,0.4-0.1c0.5-0.1,0.9-0.1,1.4-0.2c0.1,0,0.1,0,0.2,0c1.1-0.2,2.2-0.4,3.2-0.6
		c0.1,0,0.3-0.1,0.4-0.1c0.4-0.1,0.7-0.2,1.1-0.3c0.5-0.1,0.9-0.2,1.4-0.4c0.1,0,0.2,0,0.3-0.1c0.5-0.1,0.9-0.3,1.4-0.4
		c0.1,0,0.2-0.1,0.3-0.1c0.4-0.1,0.8-0.3,1.2-0.4c0.1,0,0.1,0,0.2-0.1c0.4-0.1,0.8-0.3,1.2-0.4c0,0,0,0,0,0c2.1-0.8,3.8-1.6,5.1-2.2
		c0.4-0.2,0.9-0.5,1.4-0.7c0.1-0.1,0.2-0.1,0.3-0.1c0.4-0.2,0.8-0.4,1.2-0.7c0.3-0.1,0.5-0.3,0.8-0.5c0,0,0.1-0.1,0.1-0.1
		c0.6-0.4,1.3-0.8,2.1-1.3c0.2-0.1,0.3-0.2,0.5-0.3c0.5-0.3,1-0.7,1.5-1c0.4-0.3,0.7-0.5,1.1-0.8c0.2-0.2,0.5-0.3,0.7-0.5
		c0.5-0.4,1.1-0.9,1.7-1.3c0.2-0.2,0.4-0.3,0.5-0.5c0.5-0.4,1-0.9,1.6-1.4c0.2-0.2,0.4-0.3,0.5-0.5c0.6-0.6,1.3-1.2,1.9-1.9
		c-0.6,0.7-1.9,1.3-3.8,1.9C92,96.9,89.5,97.4,86.3,97.9z"/>
	<path fill="#FFFFFF" d="M86.3,97.9c-3.2,0.5-6.9,0.8-11.1,1.1c-4.2,0.3-8.9,0.4-13.8,0.4c-0.2,1-0.3,1.9-0.5,2.8
		c-0.2,0.9-0.3,1.7-0.5,2.5c-0.1,0.3-0.1,0.5-0.2,0.8c1.1,0.1,2.2,0.3,3.2,0.4c1.4,0.2,2.5,0.5,3.5,0.8c1,0.3,1.8,0.7,2.3,1
		c0.6,0.4,0.8,0.8,0.8,1.2c0,0.3-0.2,0.6-0.5,0.9c-0.4,0.3-0.9,0.5-1.5,0.8c-0.7,0.2-1.5,0.4-2.4,0.6c-0.9,0.2-2,0.3-3.1,0.5
		c0.6-0.1,1.1-0.1,1.7-0.2c0.1,0,0.3,0,0.4-0.1c0.5-0.1,0.9-0.1,1.4-0.2c0.1,0,0.1,0,0.2,0c1.1-0.2,2.2-0.4,3.2-0.6
		c0.1,0,0.3-0.1,0.4-0.1c0.4-0.1,0.7-0.2,1.1-0.3c0.5-0.1,0.9-0.2,1.4-0.4c0.1,0,0.2,0,0.3-0.1c0.5-0.1,0.9-0.3,1.4-0.4
		c0.1,0,0.2-0.1,0.3-0.1c0.4-0.1,0.8-0.3,1.2-0.4c0.1,0,0.1,0,0.2-0.1c0.4-0.1,0.8-0.3,1.2-0.4c0,0,0,0,0,0c2.1-0.8,3.8-1.6,5.1-2.2
		c0.4-0.2,0.9-0.5,1.4-0.7c0.1-0.1,0.2-0.1,0.3-0.1c0.4-0.2,0.8-0.4,1.2-0.7c0.3-0.1,0.5-0.3,0.8-0.5c0,0,0.1-0.1,0.1-0.1
		c0.6-0.4,1.3-0.8,2.1-1.3c0.2-0.1,0.3-0.2,0.5-0.3c0.5-0.3,1-0.7,1.5-1c0.4-0.3,0.7-0.5,1.1-0.8c0.2-0.2,0.5-0.3,0.7-0.5
		c0.5-0.4,1.1-0.9,1.7-1.3c0.2-0.2,0.4-0.3,0.5-0.5c0.5-0.4,1-0.9,1.6-1.4c0.2-0.2,0.4-0.3,0.5-0.5c0.6-0.6,1.3-1.2,1.9-1.9
		c-0.6,0.7-1.9,1.3-3.8,1.9C92,96.9,89.5,97.4,86.3,97.9z"/>
	<path fill="#3D6C98" d="M7.2,83.1c-0.3-0.6-0.7-1.2-1-1.9C6.5,81.8,6.9,82.5,7.2,83.1z"/>
	<path fill="#3D6C98" d="M6,80.8c-0.3-0.7-0.6-1.3-0.9-2C5.4,79.6,5.7,80.2,6,80.8z"/>
	<path fill="#3D6C98" d="M7.9,84.3c-0.1-0.1-0.1-0.2-0.2-0.3C7.8,84.1,7.8,84.2,7.9,84.3z"/>
	<path fill="#3D6C98" d="M5,78.9c-0.7-1.4-1.3-2.9-1.8-4.4C4.1,76.7,4.8,78.3,5,78.9z"/>
	<path fill="#3D6C98" d="M8.4,85.2c-0.1-0.1-0.1-0.2-0.2-0.3C8.3,85,8.4,85.1,8.4,85.2z"/>
	<path fill="#3D6C98" d="M21.2,88.5c-0.3-0.6-0.5-1.2-0.8-1.7c-0.5-1.2-1-2.5-1.5-3.8c-0.2,0-0.5,0.1-0.7,0.1
		c-1.6,0.3-3,0.6-4.1,0.9c-1.2,0.3-2.1,0.6-2.9,1c-0.7,0.3-1.2,0.7-1.5,1.1c-0.3,0.4-0.3,0.8,0,1.1c0.2,0.3,0.6,0.7,1.2,1
		c0.6,0.3,1.4,0.7,2.5,1c0.9,0.3,1.9,0.5,3,0.8c0.4-0.2,0.8-0.3,1.2-0.5C18.7,89.2,19.8,88.8,21.2,88.5z"/>
	<path fill="#3D6C98" d="M3,73.8c-0.2-0.5-0.4-1.1-0.7-2.1C2.6,72.5,2.8,73.1,3,73.8z"/>
	<path fill="#8FA6C6" d="M22.4,91c-0.4-0.8-0.8-1.6-1.2-2.5c-1.4,0.3-2.6,0.6-3.5,0.9c-0.4,0.1-0.8,0.3-1.2,0.5
		c0.3,0.1,0.5,0.1,0.8,0.2C18.7,90.4,20.5,90.7,22.4,91z"/>
	<path fill="#FFFFFF" d="M22.4,91c-0.4-0.8-0.8-1.6-1.2-2.5c-1.4,0.3-2.6,0.6-3.5,0.9c-0.4,0.1-0.8,0.3-1.2,0.5
		c0.3,0.1,0.5,0.1,0.8,0.2C18.7,90.4,20.5,90.7,22.4,91z"/>
	<path fill="#8FA6C6" d="M9.7,86c0.3-0.4,0.8-0.7,1.5-1.1c0.7-0.3,1.7-0.7,2.9-1c1.2-0.3,2.5-0.6,4.1-0.9c0.2,0,0.5-0.1,0.7-0.1
		c-0.1-0.3-0.2-0.5-0.3-0.8c-0.5-1.6-1-3.2-1.5-4.9c-0.5-1.7-0.9-3.4-1.2-5.2c-2.4-0.2-4.5-0.4-6.3-0.5c-1.8-0.2-3.2-0.4-4.4-0.6
		c-1.1-0.2-2-0.4-2.5-0.6c-0.6-0.2-0.9-0.4-0.9-0.6c0.1,0.3,0.2,0.7,0.3,0.9c0.1,0.3,0.2,0.6,0.3,0.9c0.3,1,0.5,1.7,0.7,2.1
		c0.1,0.2,0.1,0.4,0.2,0.6c0,0,0,0,0,0.1C3.8,76,4.4,77.4,5,78.9c0.3,0.7,0.6,1.3,0.9,2c0.1,0.1,0.1,0.2,0.2,0.4
		c0.3,0.6,0.7,1.3,1,1.9c0.2,0.3,0.4,0.6,0.5,0.9c0.1,0.1,0.1,0.2,0.2,0.3c0.1,0.2,0.2,0.4,0.3,0.6c0.1,0.1,0.1,0.2,0.2,0.3
		c0.5,0.8,1,1.5,1.3,2C9.5,86.8,9.5,86.4,9.7,86z"/>
	<path fill="#FFFFFF" d="M9.7,86c0.3-0.4,0.8-0.7,1.5-1.1c0.7-0.3,1.7-0.7,2.9-1c1.2-0.3,2.5-0.6,4.1-0.9c0.2,0,0.5-0.1,0.7-0.1
		c-0.1-0.3-0.2-0.5-0.3-0.8c-0.5-1.6-1-3.2-1.5-4.9c-0.5-1.7-0.9-3.4-1.2-5.2c-2.4-0.2-4.5-0.4-6.3-0.5c-1.8-0.2-3.2-0.4-4.4-0.6
		c-1.1-0.2-2-0.4-2.5-0.6c-0.6-0.2-0.9-0.4-0.9-0.6c0.1,0.3,0.2,0.7,0.3,0.9c0.1,0.3,0.2,0.6,0.3,0.9c0.3,1,0.5,1.7,0.7,2.1
		c0.1,0.2,0.1,0.4,0.2,0.6c0,0,0,0,0,0.1C3.8,76,4.4,77.4,5,78.9c0.3,0.7,0.6,1.3,0.9,2c0.1,0.1,0.1,0.2,0.2,0.4
		c0.3,0.6,0.7,1.3,1,1.9c0.2,0.3,0.4,0.6,0.5,0.9c0.1,0.1,0.1,0.2,0.2,0.3c0.1,0.2,0.2,0.4,0.3,0.6c0.1,0.1,0.1,0.2,0.2,0.3
		c0.5,0.8,1,1.5,1.3,2C9.5,86.8,9.5,86.4,9.7,86z"/>
	<path fill="#3D6C98" d="M110.8,72.6c0,0.1,0,0.1-0.1,0.2C110.8,72.8,110.8,72.7,110.8,72.6z"/>
	<path fill="#3D6C98" d="M109.6,76.1c0.1-0.2,0.2-0.5,0.3-0.7c-0.3,0.7-0.5,1.4-0.8,2.1C109.4,76.6,109.6,76.1,109.6,76.1z"/>
	<path fill="#3D6C98" d="M109,77.5c-0.3,0.8-0.7,1.5-1,2.3C108.4,78.9,108.7,78.1,109,77.5z"/>
	<path fill="#3D6C98" d="M110.6,73.2c0,0,0,0.1,0,0.1C110.6,73.3,110.6,73.3,110.6,73.2z"/>
	<path fill="#3D6C98" d="M111.5,70.3c-0.1,0.2-0.1,0.5-0.2,0.7C111.4,70.8,111.4,70.5,111.5,70.3z"/>
	<path fill="#3D6C98" d="M103.1,87.7c0-0.1-0.1-0.2-0.1-0.3c-0.1-0.1-0.1-0.2-0.3-0.3c-0.7-0.7-2.3-1.4-4.7-2.1
		c-2.2-0.6-5.1-1.2-8.5-1.7c-3.3-0.5-7-0.9-11.1-1.2c-4-0.3-8.3-0.6-12.9-0.8c-0.8,0-1.6,0-2.3-0.1c-0.1,1-0.1,2.1-0.2,3.1
		c-0.1,0.7-0.1,1.5-0.2,2.2c0.6,0,1.3,0,1.9,0.1c4.2,0.2,8.1,0.5,11.8,0.9c3.7,0.4,7.1,0.8,10,1.4c3,0.5,5.6,1.2,7.6,1.8
		c0.5,0.2,1,0.4,1.5,0.6c1.4-0.3,2.6-0.6,3.6-0.8c2-0.6,3.2-1.2,3.7-1.9c0.1-0.1,0.1-0.2,0.2-0.3C103.1,87.9,103.1,87.8,103.1,87.7z
		"/>
	<path fill="#3D6C98" d="M104.3,86.3c0,0.1-0.1,0.1-0.1,0.2C104.2,86.4,104.2,86.3,104.3,86.3z"/>
	<path fill="#3D6C98" d="M106.9,81.9c0,0.1-0.1,0.1-0.1,0.2C106.8,82,106.9,81.9,106.9,81.9z"/>
	<path fill="#8FA6C6" d="M86.5,88.7c-2.9-0.5-6.3-1-10-1.4c-3.6-0.4-7.6-0.7-11.8-0.9c-0.6,0-1.3,0-1.9-0.1
		c-0.1,0.9-0.1,1.8-0.2,2.6c-0.1,1.5-0.3,3-0.4,4.4c5.7,0,11.1-0.2,16-0.5c4.8-0.3,9.1-0.7,12.6-1.1c1.8-0.2,3.3-0.5,4.7-0.8
		c-0.4-0.2-0.9-0.4-1.5-0.6C92.1,89.8,89.5,89.2,86.5,88.7z"/>
	<path fill="#FFFFFF" d="M86.5,88.7c-2.9-0.5-6.3-1-10-1.4c-3.6-0.4-7.6-0.7-11.8-0.9c-0.6,0-1.3,0-1.9-0.1
		c-0.1,0.9-0.1,1.8-0.2,2.6c-0.1,1.5-0.3,3-0.4,4.4c5.7,0,11.1-0.2,16-0.5c4.8-0.3,9.1-0.7,12.6-1.1c1.8-0.2,3.3-0.5,4.7-0.8
		c-0.4-0.2-0.9-0.4-1.5-0.6C92.1,89.8,89.5,89.2,86.5,88.7z"/>
	<path fill="#8FA6C6" d="M111.5,70.3c-0.1,0.4-1.2,0.7-3.3,1.1c-2.2,0.4-5.3,0.7-9.4,1c-4.2,0.3-9.4,0.5-15.3,0.7
		c-6,0.2-12.8,0.3-19.9,0.3c-0.1,1.9-0.2,3.8-0.3,5.6c0,0.7-0.1,1.4-0.1,2.2c0.8,0,1.6,0,2.3,0.1c4.6,0.2,8.9,0.4,12.9,0.8
		c4.1,0.3,7.8,0.8,11.1,1.2c3.4,0.5,6.3,1.1,8.5,1.7c2.3,0.6,4,1.4,4.7,2.1c0.1,0.1,0.2,0.2,0.3,0.3c0.1,0.1,0.1,0.2,0.1,0.3
		c0,0.1,0,0.2,0,0.3c0,0.1-0.1,0.2-0.2,0.3c0.4-0.6,0.9-1.2,1.3-1.9c0-0.1,0.1-0.1,0.1-0.2c0.9-1.4,1.7-2.8,2.5-4.2
		c0-0.1,0.1-0.1,0.1-0.2c0.4-0.7,0.7-1.4,1.1-2.1c0.4-0.8,0.7-1.5,1-2.3c0,0,0,0,0,0c0.3-0.7,0.6-1.4,0.8-2.1c0.3-0.7,0.5-1.3,0.7-2
		c0,0,0-0.1,0-0.1c0-0.1,0.1-0.3,0.1-0.4c0-0.1,0-0.1,0.1-0.2c0.2-0.5,0.3-1,0.5-1.7C111.4,70.7,111.4,70.5,111.5,70.3z"/>
	<path fill="#FFFFFF" d="M111.5,70.3c-0.1,0.4-1.2,0.7-3.3,1.1c-2.2,0.4-5.3,0.7-9.4,1c-4.2,0.3-9.4,0.5-15.3,0.7
		c-6,0.2-12.8,0.3-19.9,0.3c-0.1,1.9-0.2,3.8-0.3,5.6c0,0.7-0.1,1.4-0.1,2.2c0.8,0,1.6,0,2.3,0.1c4.6,0.2,8.9,0.4,12.9,0.8
		c4.1,0.3,7.8,0.8,11.1,1.2c3.4,0.5,6.3,1.1,8.5,1.7c2.3,0.6,4,1.4,4.7,2.1c0.1,0.1,0.2,0.2,0.3,0.3c0.1,0.1,0.1,0.2,0.1,0.3
		c0,0.1,0,0.2,0,0.3c0,0.1-0.1,0.2-0.2,0.3c0.4-0.6,0.9-1.2,1.3-1.9c0-0.1,0.1-0.1,0.1-0.2c0.9-1.4,1.7-2.8,2.5-4.2
		c0-0.1,0.1-0.1,0.1-0.2c0.4-0.7,0.7-1.4,1.1-2.1c0.4-0.8,0.7-1.5,1-2.3c0,0,0,0,0,0c0.3-0.7,0.6-1.4,0.8-2.1c0.3-0.7,0.5-1.3,0.7-2
		c0,0,0-0.1,0-0.1c0-0.1,0.1-0.3,0.1-0.4c0-0.1,0-0.1,0.1-0.2c0.2-0.5,0.3-1,0.5-1.7C111.4,70.7,111.4,70.5,111.5,70.3z"/>
</g>
<g>
	<path fill="#8FA6C6" d="M112.6,45.9c0.5,3.1,0.8,6.1,0.8,9.1C113.4,52,113.1,49,112.6,45.9z"/>
	<path fill="#8FA6C6" d="M0.3,61.7c0-0.1,0-0.3,0-0.4C0.3,61.5,0.3,61.6,0.3,61.7z"/>
	<path fill="#8FA6C6" d="M0.1,59C0.1,59,0.1,59,0.1,59C0.1,59,0.1,59,0.1,59z"/>
	<path fill="#8FA6C6" d="M0.2,60.8c0,0,0,0.1,0,0.1c0-0.1,0-0.2,0-0.3C0.2,60.7,0.2,60.7,0.2,60.8z"/>
	<path fill="#8FA6C6" d="M0.2,50.5c0,0,0-0.1,0-0.1C0.2,50.4,0.2,50.4,0.2,50.5z"/>
	<path fill="#8FA6C6" d="M0.5,63.2c0-0.1,0-0.1,0-0.2C0.5,63.1,0.5,63.2,0.5,63.2z"/>
	<path fill="#8FA6C6" d="M0.1,52.5c0-0.3,0-0.5,0-0.7C0.1,52,0.1,52.2,0.1,52.5z"/>
	<path fill="#8FA6C6" d="M0,55.7c0-0.3,0-0.7,0-1C0,55,0,55.4,0,55.7z"/>
	<path fill="#8FA6C6" d="M0.4,62.6c0-0.1,0-0.2,0-0.3C0.4,62.3,0.4,62.5,0.4,62.6z"/>
	<path fill="#8FA6C6" d="M63.9,58.4c0-0.9,0-1.8,0-2.6c0-1,0-1.9,0-2.9c0-1,0-1.9,0-2.9c0-0.6,0-1.1,0-1.6
		c-4.1,0.1-8.2,0.1-12.2,0.1c-5,0-9.9,0-14.6,0c-4.7,0-9.3-0.1-13.4-0.2c-3.2-0.1-6.2-0.1-8.9-0.2c-0.1,0.8-0.1,1.7-0.2,2.5
		c0,0.9-0.1,1.8-0.1,2.6c0,0.9,0,1.8,0,2.7c0,0.8,0,1.6,0,2.4c0,0.8,0.1,1.6,0.1,2.4c0,0.7,0.1,1.3,0.1,2c2.7-0.1,5.7-0.2,8.9-0.3
		c4.2-0.1,8.7-0.2,13.4-0.3C41.7,62,46.6,62,51.7,62c4,0,8.1,0,12.2,0c0-0.3,0-0.7,0-1C63.9,60.1,63.9,59.3,63.9,58.4z"/>
	<path fill="#8FA6C6" d="M0,54.1c0-0.3,0-0.7,0-1C0,53.5,0,53.8,0,54.1z"/>
	<path fill="#3D6C98" d="M0.2,60.6c0-0.5-0.1-1.1-0.1-1.6C0.1,59.6,0.2,60.1,0.2,60.6z"/>
	<path fill="#3D6C98" d="M0,55.8C0,57,0,58,0.1,59C0,57.9,0,56.8,0,55.7C0,55.8,0,55.8,0,55.8z"/>
	<path fill="#3D6C98" d="M0.6,64c0-0.3-0.1-0.5-0.1-0.8C0.6,63.5,0.6,63.8,0.6,64z"/>
	<path fill="#3D6C98" d="M0.5,63.1c0-0.2,0-0.4-0.1-0.5C0.5,62.8,0.5,62.9,0.5,63.1z"/>
	<path fill="#3D6C98" d="M0.4,62.2c0-0.2,0-0.3-0.1-0.5C0.4,61.9,0.4,62.1,0.4,62.2z"/>
	<path fill="#3D6C98" d="M0.3,61.3c0-0.1,0-0.3,0-0.5C0.3,61.1,0.3,61.2,0.3,61.3z"/>
	<path fill="#3D6C98" d="M0,54.7c0-0.2,0-0.4,0-0.6C0,54.3,0,54.5,0,54.7z"/>
	<path fill="#3D6C98" d="M0.1,53.2c0-0.2,0-0.4,0-0.7C0.1,52.7,0.1,52.9,0.1,53.2z"/>
	<path fill="#3D6C98" d="M7.2,63c-1.4,0.1-2.6,0.2-3.6,0.3c-1,0.1-1.7,0.2-2.2,0.3c-0.5,0.1-0.8,0.2-0.8,0.3c0,0.1,0.3,0.2,0.8,0.3
		C2,64.5,2.9,64.6,4,64.7c1.2,0.1,2.6,0.2,4.4,0.3c1.8,0.1,4,0.2,6.5,0.3c-0.1-0.8-0.2-1.6-0.2-2.3c0-0.1,0-0.3,0-0.4
		c-0.9,0-1.8,0.1-2.7,0.1C10.2,62.9,8.6,62.9,7.2,63z"/>
	<path fill="#3D6C98" d="M1.4,47.2c0.5,0.1,1.2,0.2,2.2,0.3c1,0.1,2.2,0.2,3.6,0.3c1.4,0.1,3,0.2,4.8,0.2c0.9,0,1.8,0.1,2.7,0.1
		c0,0,0-0.1,0-0.1c0.1-0.9,0.2-1.7,0.3-2.6c-2.5,0.1-4.7,0.2-6.5,0.4c-1.8,0.1-3.3,0.2-4.4,0.4c-1.1,0.1-2,0.2-2.5,0.4
		c-0.5,0.1-0.8,0.2-0.8,0.3C0.7,46.9,0.9,47,1.4,47.2z"/>
	<path fill="#3D6C98" d="M0.1,51.7c0-0.4,0.1-0.9,0.1-1.3C0.2,50.9,0.2,51.3,0.1,51.7z"/>
	<path fill="#3D6C98" d="M0.3,50.3c0.1-1.2,0.3-2.3,0.4-3.5C0.6,47.5,0.4,48.7,0.3,50.3z"/>
	<path fill="#8FA6C6" d="M14.4,58.3c0-0.8,0-1.6,0-2.4c0-0.9,0-1.8,0-2.7c0-0.9,0.1-1.8,0.1-2.6c0-0.8,0.1-1.7,0.2-2.5
		C13.8,48,12.9,48,12,48c-1.8-0.1-3.4-0.1-4.8-0.2c-1.4-0.1-2.6-0.2-3.6-0.3c-1-0.1-1.7-0.2-2.2-0.3c-0.5-0.1-0.8-0.2-0.7-0.3
		c-0.2,1.2-0.3,2.4-0.4,3.5c0,0,0,0.1,0,0.1c0,0.4-0.1,0.9-0.1,1.3c0,0.2,0,0.5,0,0.7c0,0.2,0,0.4,0,0.7c0,0.3,0,0.6,0,1
		c0,0.2,0,0.4,0,0.6c0,0.3,0,0.7,0,1c0,1.1,0,2.2,0.1,3.3c0,0,0,0,0,0c0,0.5,0.1,1.1,0.1,1.6c0,0.1,0,0.2,0,0.3c0,0.2,0,0.3,0,0.5
		c0,0.1,0,0.3,0,0.4c0,0.2,0,0.3,0.1,0.5c0,0.1,0,0.2,0,0.3c0,0.2,0,0.3,0.1,0.5c0,0.1,0,0.1,0,0.2c0,0.2,0.1,0.5,0.1,0.8
		c0-0.1,0.2-0.2,0.8-0.3c0.5-0.1,1.3-0.2,2.2-0.3c1-0.1,2.2-0.2,3.6-0.3c1.4-0.1,3-0.2,4.8-0.3c0.9,0,1.8-0.1,2.7-0.1
		c-0.1-0.7-0.1-1.3-0.1-2C14.5,59.9,14.4,59.1,14.4,58.3z"/>
	<path fill="#FFFFFF" d="M14.4,58.3c0-0.8,0-1.6,0-2.4c0-0.9,0-1.8,0-2.7c0-0.9,0.1-1.8,0.1-2.6c0-0.8,0.1-1.7,0.2-2.5
		C13.8,48,12.9,48,12,48c-1.8-0.1-3.4-0.1-4.8-0.2c-1.4-0.1-2.6-0.2-3.6-0.3c-1-0.1-1.7-0.2-2.2-0.3c-0.5-0.1-0.8-0.2-0.7-0.3
		c-0.2,1.2-0.3,2.4-0.4,3.5c0,0,0,0.1,0,0.1c0,0.4-0.1,0.9-0.1,1.3c0,0.2,0,0.5,0,0.7c0,0.2,0,0.4,0,0.7c0,0.3,0,0.6,0,1
		c0,0.2,0,0.4,0,0.6c0,0.3,0,0.7,0,1c0,1.1,0,2.2,0.1,3.3c0,0,0,0,0,0c0,0.5,0.1,1.1,0.1,1.6c0,0.1,0,0.2,0,0.3c0,0.2,0,0.3,0,0.5
		c0,0.1,0,0.3,0,0.4c0,0.2,0,0.3,0.1,0.5c0,0.1,0,0.2,0,0.3c0,0.2,0,0.3,0.1,0.5c0,0.1,0,0.1,0,0.2c0,0.2,0.1,0.5,0.1,0.8
		c0-0.1,0.2-0.2,0.8-0.3c0.5-0.1,1.3-0.2,2.2-0.3c1-0.1,2.2-0.2,3.6-0.3c1.4-0.1,3-0.2,4.8-0.3c0.9,0,1.8-0.1,2.7-0.1
		c-0.1-0.7-0.1-1.3-0.1-2C14.5,59.9,14.4,59.1,14.4,58.3z"/>
	<path fill="#3D6C98" d="M112.8,64.1c0.5-3.1,0.7-6.1,0.6-9.1C113.4,58,113.2,61,112.8,64.1z"/>
	<path fill="#3D6C98" d="M112.6,63.9c-0.1,0-0.1-0.1-0.2-0.1c-0.1,0-0.2-0.1-0.3-0.1c-1.1-0.2-3.3-0.5-6.2-0.7
		c-2.8-0.2-6.4-0.4-10.5-0.5c-3.9-0.1-8.4-0.3-13.2-0.4c-4.7-0.1-9.7-0.2-15-0.2c-1.1,0-2.2,0-3.2,0c0,0.5,0,1,0,1.6
		c0,0.9,0,1.7,0,2.5c7.4,0,14.4-0.1,20.6-0.2c6.1-0.1,11.4-0.3,15.7-0.5c4.2-0.2,7.4-0.4,9.6-0.6c2.1-0.2,3.1-0.4,3.2-0.7
		c0,0,0-0.1,0-0.1C112.7,64,112.7,64,112.6,63.9z"/>
	<path fill="#3D6C98" d="M82,48c4.8-0.1,9.2-0.3,13.1-0.4c4.1-0.2,7.7-0.4,10.5-0.6c3-0.2,5.1-0.5,6.2-0.7c0.1,0,0.2-0.1,0.3-0.1
		c0.1,0,0.2-0.1,0.2-0.1c0.1,0,0.1-0.1,0.1-0.1c0,0,0-0.1,0-0.1c0-0.2-1.1-0.4-3.2-0.6c-2.2-0.2-5.4-0.4-9.5-0.5
		c-4.3-0.2-9.6-0.3-15.7-0.3c-6.2-0.1-13.1-0.1-20.5-0.1c0,0.9,0.1,1.9,0.1,2.8c0,0.4,0,0.8,0,1.2c1.1,0,2.2,0,3.2,0
		C72.3,48.2,77.3,48.1,82,48z"/>
	<path fill="#8FA6C6" d="M112.6,45.9C112.6,46,112.6,46,112.6,45.9c-0.1,0.1-0.1,0.1-0.2,0.2c-0.1,0-0.1,0.1-0.2,0.1
		c-0.1,0-0.2,0.1-0.3,0.1c-1.1,0.2-3.2,0.5-6.2,0.7c-2.8,0.2-6.4,0.4-10.5,0.6c-3.9,0.2-8.4,0.3-13.1,0.4c-4.6,0.1-9.7,0.2-15,0.3
		c-1.1,0-2.2,0-3.2,0c0,0.5,0,1.1,0,1.6c0,1,0,1.9,0,2.9c0,1,0,1.9,0,2.9c0,0.9,0,1.8,0,2.6c0,0.9,0,1.7,0,2.6c0,0.3,0,0.7,0,1
		c1.1,0,2.2,0,3.2,0c5.3,0,10.3,0.1,15,0.2c4.8,0.1,9.2,0.2,13.2,0.4c4.1,0.1,7.7,0.3,10.5,0.5c3,0.2,5.2,0.4,6.2,0.7
		c0.1,0,0.2,0.1,0.3,0.1c0.1,0,0.2,0.1,0.2,0.1c0.1,0,0.1,0.1,0.1,0.1c0,0,0,0.1,0,0.1c0.5-3.1,0.7-6.1,0.6-9.1
		C113.4,52,113.1,49,112.6,45.9z"/>
	<path fill="#FFFFFF" d="M112.6,45.9C112.6,46,112.6,46,112.6,45.9c-0.1,0.1-0.1,0.1-0.2,0.2c-0.1,0-0.1,0.1-0.2,0.1
		c-0.1,0-0.2,0.1-0.3,0.1c-1.1,0.2-3.2,0.5-6.2,0.7c-2.8,0.2-6.4,0.4-10.5,0.6c-3.9,0.2-8.4,0.3-13.1,0.4c-4.6,0.1-9.7,0.2-15,0.3
		c-1.1,0-2.2,0-3.2,0c0,0.5,0,1.1,0,1.6c0,1,0,1.9,0,2.9c0,1,0,1.9,0,2.9c0,0.9,0,1.8,0,2.6c0,0.9,0,1.7,0,2.6c0,0.3,0,0.7,0,1
		c1.1,0,2.2,0,3.2,0c5.3,0,10.3,0.1,15,0.2c4.8,0.1,9.2,0.2,13.2,0.4c4.1,0.1,7.7,0.3,10.5,0.5c3,0.2,5.2,0.4,6.2,0.7
		c0.1,0,0.2,0.1,0.3,0.1c0.1,0,0.2,0.1,0.2,0.1c0.1,0,0.1,0.1,0.1,0.1c0,0,0,0.1,0,0.1c0.5-3.1,0.7-6.1,0.6-9.1
		C113.4,52,113.1,49,112.6,45.9z"/>
</g>
<g>
	<g>
		<path fill="#BA141A" d="M46.7,89.6C46.7,89.6,46.7,89.6,46.7,89.6c3.5-4.1,6.7-7.6,7.8-13c0.8-4.2-0.1-7.8-1.9-11v0h0
			c-2-3.4-5.2-6.3-8.5-8.8c6-4.2,11.4-8.3,10.6-17.2c-0.4-4.7-3-8.7-6-12.2c-0.8-1-1.6-1.9-2.4-2.9c4.5-3.2,8.3-6.8,8.5-13.2
			c0.1-1.5-4-3.1-4-4c0,1.1-0.2,2.2-0.5,3.2h-6.1v1.9h5.4c-1.3,3.1-3.7,5.4-6.5,7.6c-0.5-1-1-2.1-1.4-3.2h2.4v-1.9h-2.9
			c-0.2-1.1-0.4-2.2-0.4-3.5c0-1.6-3.9-3-4-4c0.1,4.7,1.5,8.9,4.4,12.6c0.2,0.3,0.4,0.6,0.7,0.8c-3,2.2-6.3,4.2-9.1,6.5
			c-7.5,6.4-6.1,15.4,0,22.1c1.6,1.8,3.4,3.3,5.3,4.7c-1.1,0.8-2.2,1.5-3.2,2.3C27.4,62,25.3,71,31.6,78.6c2.7,3.2,5.9,5.8,9.3,8.2
			c0.2,0.1,0.4,0.3,0.6,0.4c-2.8,3.7-4.3,7.6-4.5,12.5c0,1.5,4,3.1,4,4c0-1.2,0.2-2.4,0.4-3.5H51c0.7,1.4,3.8,2.6,3.8,3.5
			C54.6,97.8,51,93.3,46.7,89.6z M31.7,72.8c0-0.1,0-0.3,0-0.4h18.9c-0.2,1.1-0.5,2.2-0.8,3.2H32C31.8,74.7,31.7,73.8,31.7,72.8z
			 M32.8,67.4h17.9c0.1,1,0.1,2.1,0,3.1H31.8C32,69.4,32.4,68.4,32.8,67.4z M33.9,65.6c0.7-1,1.5-1.9,2.3-2.8h13.1c0,0,0,0,0,0
			c0.5,0.9,0.8,1.8,1.1,2.8H33.9z M47.8,60.9h-9.5c0,0,0,0,0,0c1.5-1.2,3.1-2.4,4.7-3.5C44.7,58.5,46.4,59.5,47.8,60.9z M32.2,45.7
			c-0.1-0.2-0.1-0.4-0.2-0.6h16.6c-0.6,0.9-1.4,1.8-2.2,2.6H33.1C32.7,47.1,32.4,46.4,32.2,45.7z M36.3,31.8c0.5-0.5,1-0.9,1.5-1.3
			h5.9v-1.9h-3.5c1.8-1.3,3.6-2.5,5.4-3.7c2,2.5,3.8,5.1,4.7,8.4c0,0.1,0.1,0.3,0.1,0.4h-8.5v1.9h8.8c0.4,2.9-0.1,5.4-1.1,7.5h-18
			c-0.1-0.9-0.1-1.8,0.1-2.7h13.9v-1.9H32.1C32.9,36.1,34.4,33.8,36.3,31.8z M34.4,49.6h9.9c-1.6,1.4-3.3,2.6-5.1,3.9
			C37.5,52.3,35.8,51.1,34.4,49.6z M32.7,77.5h16.2c-0.5,1-1.1,1.9-1.7,2.8H34.5C33.8,79.4,33.2,78.5,32.7,77.5z M40.8,85.2
			c-1.5-1-3-2-4.3-3.1h9.2c-0.8,1-1.6,1.9-2.4,2.8c-0.4,0.4-0.7,0.8-1.1,1.3C41.8,85.9,41.3,85.5,40.8,85.2z M49.2,93.9h-5.5
			c0.7-1.2,1.5-2.3,2.4-3.5C47.3,91.4,48.4,92.6,49.2,93.9z M42.7,95.8h7.4c0.3,0.8,0.5,1.6,0.6,2.5h-8.9
			C42.1,97.4,42.4,96.6,42.7,95.8z"/>
	</g>
</g>
</svg>
