<?xml version="1.0" encoding="utf-8"?>
<!-- Generator: Adobe Illustrator 18.1.1, SVG Export Plug-In . SVG Version: 6.00 Build 0)  -->
<svg version="1.1" id="Layer_1" xmlns="http://www.w3.org/2000/svg" xmlns:xlink="http://www.w3.org/1999/xlink" x="0px" y="0px"
	 viewBox="0 0 100 100" enable-background="new 0 0 100 100" xml:space="preserve">
<g opacity="0.8">
	<g>
		<path fill="none" d="M55.1,22c-3.1,0.2-6.1,0.3-9,0.3c-3.4,0-6.9,0-10.1-0.2c-3.3-0.1-6.3-0.4-9.2-0.6c-2.9-0.3-5.5-0.6-7.7-1.1
			c-0.1,0-0.2,0-0.3-0.1c-0.3,0.5-0.5,1.1-0.8,1.7c-0.4,1.1-0.9,2.1-1.3,3.3c2.3,0.4,5,0.7,7.9,0.9c3.1,0.3,6.5,0.4,10.1,0.5
			c3.5,0.1,7.2,0.2,11,0.1c3.2,0,6.3-0.1,9.6-0.3c-0.1-0.9-0.1-1.7-0.2-2.6C55.2,23.4,55.2,22.7,55.1,22z"/>
		<path fill="#8FA6C6" d="M78.7,9.4c-0.4-0.3-1-0.7-1.4-1c0,0-0.1,0-0.1-0.1c0.5,0.4,1.1,0.8,1.9,1.3C79,9.6,78.9,9.5,78.7,9.4z"/>
		<path fill="#8FA6C6" d="M76.5,7.9c0.3,0.2,0.5,0.4,0.8,0.4C77,8.2,76.7,8.1,76.5,7.9z"/>
		<path fill="#8FA6C6" d="M34,3c0.4-0.1,0.7-0.3,1-0.4C34.7,2.8,34.4,2.9,34,3z"/>
		<path fill="#8FA6C6" d="M82.8,12.6c0.4,0.3,0.6,0.5,1,0.9C83.5,13.2,83.2,12.9,82.8,12.6z"/>
		<path fill="#8FA6C6" d="M81.4,11.4c-0.6-0.4-0.8-0.7-1.5-1.1C80.4,10.6,81,11.1,81.4,11.4C81.5,11.4,81.5,11.4,81.4,11.4z"/>
		<path fill="#8FA6C6" d="M30.6,4.3c0.3-0.1,0.5-0.3,0.9-0.4C31.1,4,30.9,4.2,30.6,4.3z"/>
		<path fill="#8FA6C6" d="M75.6,7.4c0.1,0,0.1,0.1,0.2,0.1C75.7,7.5,75.7,7.4,75.6,7.4z"/>
		<path fill="#8FA6C6" d="M81.8,11.7c0.3,0.3,0.6,0.5,1,0.8C82.5,12.3,82.2,12,81.8,11.7z"/>
		<path fill="#8FA6C6" d="M32.5,3.6c0.3-0.1,0.5-0.2,0.9-0.4C33,3.3,32.7,3.5,32.5,3.6z"/>
		<path fill="#8FA6C6" d="M73.5,6.2C73.5,6.2,73.6,6.2,73.5,6.2C73.6,6.3,73.6,6.2,73.5,6.2z"/>
		<path fill="#8FA6C6" d="M62.8,2.1c1.4,0.4,2.9,0.9,4.5,1.4C66.1,3,64.6,2.5,62.8,2.1z"/>
		<path fill="#8FA6C6" d="M51.3,0.4c0.1,0,0.2,0,0.4,0C51.5,0.4,51.4,0.4,51.3,0.4z"/>
		<path fill="#8FA6C6" d="M61.4,1.7c0.2,0.1,0.4,0.1,0.6,0.2C61.8,1.8,61.6,1.7,61.4,1.7z"/>
		<path fill="#8FA6C6" d="M49.8,0.4L49.8,0.4C49.7,0.4,49.7,0.4,49.8,0.4C49.7,0.4,49.7,0.4,49.8,0.4c0,0,0.2,0,0.3,0
			C50,0.4,49.9,0.4,49.8,0.4L49.8,0.4z"/>
		<path fill="#8FA6C6" d="M57.5,0.9C57.8,0.9,58,1,58.3,1C58.1,1,57.8,1,57.5,0.9z"/>
		<path fill="#8FA6C6" d="M67.6,3.6C68,3.7,68.4,3.8,68.8,4C68.4,3.9,68.1,3.7,67.6,3.6z"/>
		<path fill="#8FA6C6" d="M69.7,4.4c-0.1,0-0.1,0-0.2-0.1C70.6,4.7,71.9,5.3,73,6C71.8,5.3,70.6,4.7,69.7,4.4z"/>
		<path fill="#8FA6C6" d="M84.4,14c0.4,0.3,0.6,0.6,1,0.9C85,14.5,84.7,14.2,84.4,14z"/>
		<path fill="#8FA6C6" d="M59.7,1.3c-0.4-0.1-0.8-0.2-1.2-0.3C58.9,1.2,59.3,1.3,59.7,1.3C59.8,1.4,59.8,1.4,59.7,1.3z"/>
		<path fill="#8FA6C6" d="M35.7,2.4c0.4-0.1,0.8-0.3,1.2-0.4C36.5,2.2,36.2,2.3,35.7,2.4z"/>
		<path fill="#8FA6C6" d="M37.5,2c0.5-0.2,1.1-0.3,1.7-0.4C38.6,1.6,38,1.8,37.5,2z"/>
		<path fill="#8FA6C6" d="M20.2,10.2c0.4-0.3,0.8-0.6,1.2-0.9C20.9,9.7,20.5,9.9,20.2,10.2z"/>
		<path fill="#8FA6C6" d="M19.7,10.5c0.1-0.1,0.3-0.2,0.4-0.3C19.9,10.4,19.8,10.4,19.7,10.5z"/>
		<path fill="#8FA6C6" d="M22.6,8.5c0.1-0.1,0.2-0.2,0.3-0.2C22.8,8.3,22.7,8.4,22.6,8.5z"/>
		<path fill="#8FA6C6" d="M21.5,9.2C21.7,9,21.9,9,22.1,8.8C21.9,9,21.7,9.1,21.5,9.2z"/>
		<path fill="#8FA6C6" d="M19.2,10.9L19.2,10.9c0.1-0.1,0.2-0.2,0.3-0.3C19.4,10.8,19.3,10.9,19.2,10.9z"/>
		<path fill="#8FA6C6" d="M13.1,16.5c0.4-0.4,0.8-0.8,1.1-1.1C13.8,15.7,13.5,16.1,13.1,16.5z"/>
		<path fill="#8FA6C6" d="M15.7,14c0.4-0.4,0.8-0.7,1.1-1C16.4,13.3,16,13.5,15.7,14z"/>
		<path fill="#8FA6C6" d="M17.9,11.9c0.3-0.3,0.6-0.5,1.1-0.9C18.6,11.3,18.3,11.7,17.9,11.9z"/>
		<path fill="#CFE0F4" d="M19.9,18.4c-0.4,0.7-0.7,1.3-1.1,2c0.1,0,0.2,0,0.3,0.1c2.2,0.4,4.8,0.8,7.7,1.1c2.8,0.3,5.9,0.4,9.2,0.6
			c3.2,0.1,6.6,0.2,10.1,0.2c2.9,0,6-0.1,9-0.3c-0.1-0.7-0.2-1.4-0.2-2.1c-0.2-1.3-0.3-2.6-0.4-3.9c4.9,0,9.6,0.1,13.8,0.3
			c4.1,0.2,7.8,0.5,11,0.9c1.4,0.2,2.7,0.4,3.9,0.6c1.1-0.5,1.9-1,2.3-1.5c0.1-0.1,0.2-0.3,0.2-0.4c0-0.1,0-0.3,0-0.4
			s-0.1-0.3-0.1-0.4c-0.1-0.1-0.2-0.3-0.3-0.4c-0.5-0.5-1.7-1.1-3.4-1.6c-1.7-0.5-4-1-6.6-1.3c-2.7-0.4-6-0.7-9.6-0.9
			c-3.6-0.2-7.7-0.4-11.9-0.3c-0.3-1.8-0.6-3.3-0.9-4.6c-0.1-0.5-0.3-1.1-0.4-1.5c-0.5-0.1-1,0-1.5,0C49.8,4.9,48.8,5,47.6,5
			c-1.1,0-2.1,0-3.2-0.1c-1-0.1-1.9-0.2-2.7-0.3c-0.8-0.2-1.6-0.4-2.1-0.5c-0.6-0.2-1-0.4-1.1-0.7c-0.2-0.3-0.2-0.5,0-0.8
			c0.2-0.3,0.6-0.5,1.1-0.8c0.6-0.3,1.3-0.4,2.3-0.7c-0.3,0-0.4,0-0.7,0.1c-0.3,0.1-0.4,0.1-0.6,0.1s-0.4,0.1-0.7,0.1
			s-0.4,0.1-0.7,0.2c-1.4,0.4-2.8,0.8-4.2,1.4c-1.4,0.6-2.8,1.4-4.1,2.4c-1.3,1-2.6,2.1-4,3.4c-1.2,1.3-2.5,2.7-3.6,4.3
			c-1.4,0.3-2.7,0.5-3.9,0.8c-1.1,0.3-2.1,0.5-3,0.9c-0.8,0.3-1.5,0.6-2,0.9c-0.5,0.3-1,0.5-1.1,0.9c-0.4,0.4-0.4,0.7-0.4,1.1
			c0.1,0.4,0.4,0.7,1,1.1c0.4,0.2,0.8,0.4,1.2,0.6c0.2,0,0.3-0.1,0.4-0.1C16.8,18.9,18.3,18.7,19.9,18.4z"/>
		<path fill="#8FA6C6" d="M25,7c-0.1,0-0.1,0.1-0.2,0.1c0.3-0.2,0.5-0.3,0.8-0.4C25.4,6.8,25.2,6.9,25,7z"/>
		<path fill="#8FA6C6" d="M28.7,5.2c0.4-0.2,0.7-0.4,1-0.4C29.3,4.8,28.9,5,28.7,5.2z"/>
		<path fill="#8FA6C6" d="M26.7,6.1c0.4-0.2,0.7-0.4,1.1-0.5C27.4,5.7,27.1,5.9,26.7,6.1z"/>
		<path fill="#3D6C98" d="M19.5,10.6c0.1,0,0.1-0.1,0.2-0.2C19.7,10.5,19.6,10.6,19.5,10.6z"/>
		<path fill="#3D6C98" d="M31.4,3.9c0.4-0.2,0.6-0.3,1-0.4C32.1,3.7,31.7,3.7,31.4,3.9z"/>
		<path fill="#3D6C98" d="M33.2,3.2C33.5,3.1,33.8,3,34,3C33.8,3,33.5,3.1,33.2,3.2z"/>
		<path fill="#3D6C98" d="M27.8,5.5c0.3-0.2,0.5-0.3,0.8-0.4C28.3,5.2,28,5.4,27.8,5.5z"/>
		<path fill="#3D6C98" d="M16.8,12.9c0.4-0.4,0.8-0.7,1.1-1C17.5,12.3,17.1,12.6,16.8,12.9z"/>
		<path fill="#3D6C98" d="M19.1,11C19,11.1,19,11.1,19,11.2C19,11.1,19.1,11,19.1,11C19.2,10.9,19.2,10.9,19.1,11z"/>
		<path fill="#3D6C98" d="M24.7,7.2c-0.6,0.4-1.2,0.8-1.9,1.1C23.5,8,24.1,7.5,24.7,7.2C24.8,7.2,24.8,7.2,24.7,7.2z"/>
		<path fill="#3D6C98" d="M22.1,8.8c0.2-0.1,0.4-0.2,0.5-0.4C22.4,8.6,22.2,8.7,22.1,8.8z"/>
		<path fill="#3D6C98" d="M29.6,4.7c0.4-0.2,0.6-0.3,1-0.4C30.2,4.4,30,4.5,29.6,4.7z"/>
		<path fill="#3D6C98" d="M21.4,9.3C21.4,9.2,21.5,9.2,21.4,9.3C21.5,9.2,21.4,9.2,21.4,9.3z"/>
		<path fill="#3D6C98" d="M20.1,10.3C20.1,10.2,20.1,10.2,20.1,10.3C20.1,10.2,20.1,10.2,20.1,10.3z"/>
		<path fill="#3D6C98" d="M36.9,2.1C37.1,2,37.3,2,37.5,1.9C37.3,2,37.1,2.1,36.9,2.1z"/>
		<path fill="#3D6C98" d="M25.6,6.7c0.4-0.2,0.7-0.4,1.1-0.6C26.4,6.3,26,6.5,25.6,6.7z"/>
		<path fill="#3D6C98" d="M35.1,2.6c0.2-0.1,0.4-0.1,0.6-0.2C35.5,2.5,35.3,2.6,35.1,2.6z"/>
		<path fill="#3D6C98" d="M15.7,14L15.7,14c-0.6,0.5-1,0.9-1.6,1.4C14.6,14.9,15.2,14.4,15.7,14z"/>
		<path fill="#8FA6C6" d="M16.3,14.8c0.9-0.3,1.9-0.6,3-0.9c1.1-0.3,2.5-0.5,3.9-0.8c1.1-1.6,2.4-3,3.6-4.3s2.6-2.4,4-3.4
			c1.3-1,2.7-1.8,4.1-2.4s2.8-1.1,4.2-1.4c-0.6,0.1-1.1,0.3-1.7,0.4c-0.2,0.1-0.4,0.1-0.5,0.2c-0.4,0.1-0.8,0.2-1.2,0.4
			c-0.2,0.1-0.4,0.1-0.6,0.2c-0.4,0.1-0.7,0.2-1,0.4c-0.4-0.1-0.6,0-0.9,0.1c-0.3,0.1-0.5,0.2-0.9,0.4c-0.3,0.1-0.6,0.2-1,0.4
			c-0.3,0.1-0.5,0.3-0.9,0.4c-0.4,0.1-0.6,0.3-1,0.4c-0.4,0.2-0.7,0.3-1,0.4c-0.3,0.1-0.5,0.3-0.8,0.4c-0.4,0.2-0.7,0.4-1.1,0.5
			c-0.4,0.2-0.7,0.4-1.1,0.6C25.3,6.9,25,7,24.8,7.2c-0.7,0.4-1.3,0.8-1.9,1.2c-0.1,0.1-0.2,0.1-0.3,0.2C22.4,8.7,22.2,8.9,22,9
			c-0.2,0.2-0.4,0.3-0.6,0.4c0,0-0.1,0-0.1,0.1c-0.4,0.4-0.9,0.6-1.2,0.9c0,0-0.1,0-0.1,0.1c-0.2,0.1-0.3,0.2-0.4,0.3
			s-0.1,0.1-0.2,0.2c-0.1,0.1-0.2,0.2-0.3,0.3c-0.1,0.1-0.2,0.2-0.3,0.2c-0.4,0.4-0.8,0.6-1.1,0.9c-0.4,0.3-0.7,0.6-1.1,1
			c-0.4,0.3-0.6,0.6-1.1,1c-0.4,0.4-1,1-1.5,1.5c-0.3,0.3-0.6,0.6-1.1,1.1c0.3-0.3,0.6-0.5,1.1-0.9C14.8,15.4,15.5,15.1,16.3,14.8z"
			/>
		<path fill="#C8DAEE" d="M16.3,14.8c0.9-0.3,1.9-0.6,3-0.9c1.1-0.3,2.5-0.5,3.9-0.8c1.1-1.6,2.4-3,3.6-4.3s2.6-2.4,4-3.4
			c1.3-1,2.7-1.8,4.1-2.4s2.8-1.1,4.2-1.4c-0.6,0.1-1.1,0.3-1.7,0.4c-0.2,0.1-0.4,0.1-0.5,0.2c-0.4,0.1-0.8,0.2-1.2,0.4
			c-0.2,0.1-0.4,0.1-0.6,0.2c-0.4,0.1-0.7,0.2-1,0.4c-0.4-0.1-0.6,0-0.9,0.1c-0.3,0.1-0.5,0.2-0.9,0.4c-0.3,0.1-0.6,0.2-1,0.4
			c-0.3,0.1-0.5,0.3-0.9,0.4c-0.4,0.1-0.6,0.3-1,0.4c-0.4,0.2-0.7,0.3-1,0.4c-0.3,0.1-0.5,0.3-0.8,0.4c-0.4,0.2-0.7,0.4-1.1,0.5
			c-0.4,0.2-0.7,0.4-1.1,0.6C25.3,6.9,25,7,24.8,7.2c-0.7,0.4-1.3,0.8-1.9,1.2c-0.1,0.1-0.2,0.1-0.3,0.2C22.4,8.7,22.2,8.9,22,9
			c-0.2,0.2-0.4,0.3-0.6,0.4c0,0-0.1,0-0.1,0.1c-0.4,0.4-0.9,0.6-1.2,0.9c0,0-0.1,0-0.1,0.1c-0.2,0.1-0.3,0.2-0.4,0.3
			s-0.1,0.1-0.2,0.2c-0.1,0.1-0.2,0.2-0.3,0.3c-0.1,0.1-0.2,0.2-0.3,0.2c-0.4,0.4-0.8,0.6-1.1,0.9c-0.4,0.3-0.7,0.6-1.1,1
			c-0.4,0.3-0.6,0.6-1.1,1c-0.4,0.4-1,1-1.5,1.5c-0.3,0.3-0.6,0.6-1.1,1.1c0.3-0.3,0.6-0.5,1.1-0.9C14.8,15.4,15.5,15.1,16.3,14.8z"
			/>
		<path fill="#3D6C98" d="M79.2,9.7c0.4,0.3,0.6,0.4,0.8,0.6C79.7,10.1,79.5,9.9,79.2,9.7z"/>
		<path fill="#3D6C98" d="M81.5,11.5c0.1,0.1,0.2,0.2,0.3,0.3C81.7,11.7,81.7,11.6,81.5,11.5z"/>
		<path fill="#3D6C98" d="M77.2,8.4L77.2,8.4L77.2,8.4L77.2,8.4z"/>
		<path fill="#3D6C98" d="M75.7,7.5c0.3,0.2,0.4,0.3,0.7,0.4C76.2,7.7,76,7.6,75.7,7.5z"/>
		<path fill="#3D6C98" d="M82.7,12.5L82.7,12.5C82.8,12.6,82.8,12.6,82.7,12.5z"/>
		<path fill="#3D6C98" d="M58.4,1.1c0.1,0,0.1,0,0.2,0C58.5,1.1,58.4,1.1,58.4,1.1z"/>
		<path fill="#3D6C98" d="M83.9,13.4c0.2,0.2,0.4,0.4,0.5,0.5C84.2,13.8,84,13.6,83.9,13.4z"/>
		<path fill="#3D6C98" d="M59.8,1.4c0.5,0.1,1.1,0.3,1.6,0.4C60.8,1.5,60.3,1.5,59.8,1.4z"/>
		<path fill="#3D6C98" d="M62,1.8C62.3,1.9,62.6,2,62.9,2C62.5,2,62.3,1.9,62,1.8z"/>
		<path fill="#3D6C98" d="M49.8,0.4c0.5,0,1,0,1.5,0C50.8,0.4,50.3,0.4,49.8,0.4z"/>
		<path fill="#3D6C98" d="M51.7,0.4C54,0.5,56,0.7,57.6,0.9C55.1,0.6,53.2,0.5,51.7,0.4z"/>
		<path fill="#CFE0F4" d="M56.4,3.8c0.7-0.2,1.2-0.4,1.6-0.7c0.4-0.3,0.5-0.5,0.5-0.8s-0.3-0.5-0.7-0.8c-0.4-0.3-1.1-0.4-1.9-0.6
			s-1.8-0.4-2.8-0.4c-1,0-2-0.1-3.2-0.1c0.3,0.1,0.5,0.3,0.8,0.6c0.4,0.4,0.7,1.1,1,1.9c0.2,0.5,0.4,1.1,0.5,1.8
			c0.6-0.1,1.1-0.2,1.7-0.3C55,4.3,55.8,4,56.4,3.8z"/>
		<path fill="#3D6C98" d="M73,6c0.2,0.1,0.4,0.2,0.5,0.3C73.4,6.1,73.2,6,73,6z"/>
		<path fill="#3D6C98" d="M69.1,4.2C69,4.1,69,4.1,68.8,4.1c0.3,0.1,0.4,0.2,0.6,0.3C69.4,4.3,69.2,4.2,69.1,4.2z"/>
		<path fill="#3D6C98" d="M73.6,6.3C74.3,6.7,75,7,75.6,7.4C75,7,74.3,6.7,73.6,6.3z"/>
		<path fill="#3D6C98" d="M67.4,3.5c0.1,0,0.2,0.1,0.4,0.1C67.5,3.6,67.5,3.5,67.4,3.5z"/>
		<path fill="#8FA6C6" d="M53.7,10.8c4.2,0,8.3,0.1,11.9,0.3c3.6,0.2,6.9,0.5,9.6,0.9c2.7,0.4,4.9,0.8,6.6,1.3
			c1.7,0.4,2.8,1.1,3.4,1.6c-0.4-0.4-0.6-0.6-1-0.9c-0.2-0.2-0.4-0.4-0.5-0.5c-0.4-0.3-0.7-0.6-1-0.9l-0.1-0.1
			c-0.4-0.3-0.6-0.5-1-0.8c-0.1-0.1-0.2-0.2-0.3-0.3c-0.5-0.4-1.1-0.8-1.5-1.1c-0.2-0.2-0.4-0.4-0.8-0.6c-0.7-0.5-1.3-1-1.9-1.3
			c0,0,0,0-0.1,0c-0.3-0.2-0.5-0.4-0.8-0.5c-0.2-0.2-0.4-0.3-0.7-0.4c-0.1,0-0.1-0.1-0.2-0.1c-0.6-0.4-1.2-0.7-1.9-1.1
			c0,0-0.1,0-0.1-0.1C73.3,6,73.1,6,72.9,5.9c-1.1-0.6-2.4-1.1-3.5-1.7C69.2,4.1,69,4,68.8,3.9c-0.4-0.2-0.8-0.4-1.1-0.4
			c-0.1,0-0.2-0.1-0.4-0.1c-1.6-0.6-3.1-1.1-4.5-1.4c-0.3-0.1-0.5-0.2-0.9-0.2c-0.2-0.1-0.4-0.1-0.6-0.2c-0.5-0.1-1.1-0.3-1.6-0.4
			c-0.4-0.1-0.9-0.2-1.2-0.3c-0.1,0-0.1,0-0.2,0c-0.3-0.1-0.5-0.1-0.8-0.1c-1.6-0.3-3.6-0.4-5.9-0.5c-0.1,0-0.2,0-0.4,0
			c-0.4,0-1,0-1.5,0c0.1,0,0.1,0,0.2,0c1.1,0,2.2,0.1,3.2,0.2c1.1,0.1,2,0.3,2.8,0.4s1.4,0.4,1.9,0.6s0.7,0.5,0.7,0.8
			S58.3,3,57.9,3.2c-0.4,0.3-0.9,0.5-1.6,0.7c-0.7,0.2-1.5,0.4-2.4,0.6c-0.5,0.1-1.1,0.2-1.7,0.3c0.2,0.4,0.3,1,0.4,1.5
			C53.2,7.5,53.4,9,53.7,10.8z"/>
		<path fill="#C8DAEE" d="M53.7,10.8c4.2,0,8.3,0.1,11.9,0.3c3.6,0.2,6.9,0.5,9.6,0.9c2.7,0.4,4.9,0.8,6.6,1.3
			c1.7,0.4,2.8,1.1,3.4,1.6c-0.4-0.4-0.6-0.6-1-0.9c-0.2-0.2-0.4-0.4-0.5-0.5c-0.4-0.3-0.7-0.6-1-0.9l-0.1-0.1
			c-0.4-0.3-0.6-0.5-1-0.8c-0.1-0.1-0.2-0.2-0.3-0.3c-0.5-0.4-1.1-0.8-1.5-1.1c-0.2-0.2-0.4-0.4-0.8-0.6c-0.7-0.5-1.3-1-1.9-1.3
			c0,0,0,0-0.1,0c-0.3-0.2-0.5-0.4-0.8-0.5c-0.2-0.2-0.4-0.3-0.7-0.4c-0.1,0-0.1-0.1-0.2-0.1c-0.6-0.4-1.2-0.7-1.9-1.1
			c0,0-0.1,0-0.1-0.1C73.3,6,73.1,6,72.9,5.9c-1.1-0.6-2.4-1.1-3.5-1.7C69.2,4.1,69,4,68.8,3.9c-0.4-0.2-0.8-0.4-1.1-0.4
			c-0.1,0-0.2-0.1-0.4-0.1c-1.6-0.6-3.1-1.1-4.5-1.4c-0.3-0.1-0.5-0.2-0.9-0.2c-0.2-0.1-0.4-0.1-0.6-0.2c-0.5-0.1-1.1-0.3-1.6-0.4
			c-0.4-0.1-0.9-0.2-1.2-0.3c-0.1,0-0.1,0-0.2,0c-0.3-0.1-0.5-0.1-0.8-0.1c-1.6-0.3-3.6-0.4-5.9-0.5c-0.1,0-0.2,0-0.4,0
			c-0.4,0-1,0-1.5,0c0.1,0,0.1,0,0.2,0c1.1,0,2.2,0.1,3.2,0.2c1.1,0.1,2,0.3,2.8,0.4s1.4,0.4,1.9,0.6s0.7,0.5,0.7,0.8
			S58.3,3,57.9,3.2c-0.4,0.3-0.9,0.5-1.6,0.7c-0.7,0.2-1.5,0.4-2.4,0.6c-0.5,0.1-1.1,0.2-1.7,0.3c0.2,0.4,0.3,1,0.4,1.5
			C53.2,7.5,53.4,9,53.7,10.8z"/>
		<path fill="#8FA6C6" d="M1.9,36.3c0,0.1-0.1,0.3-0.1,0.4c0.2-0.4,0.3-1,0.4-1.3C2.1,35.8,2,35.9,1.9,36.3z"/>
		<path fill="#8FA6C6" d="M5.4,27.6c1.1-2,2-3.6,2.7-4.7C7.4,24,6.4,25.6,5.4,27.6z"/>
		<path fill="#8FA6C6" d="M92.2,23.5c0,0.1,0.1,0.1,0.1,0.2C92.3,23.6,92.3,23.5,92.2,23.5z"/>
		<path fill="#CFE0F4" d="M95.1,35.1c-1.9-0.3-4.7-0.5-8.3-0.8c-3.7-0.3-8.2-0.4-13.4-0.5c-5.3-0.1-11.2-0.2-17.5-0.2
			c-0.1-1.7-0.2-3.4-0.3-4.9c-0.1-0.7-0.1-1.4-0.2-2c-3.3,0.1-6.4,0.2-9.6,0.3c-3.8,0-7.5,0-11-0.1c-3.5-0.1-7-0.3-10.1-0.5
			c-2.9-0.3-5.6-0.5-7.9-0.9c-0.1,0.3-0.2,0.5-0.3,0.8c-0.5,1.4-1,2.8-1.3,4.3c-0.4,1.5-0.8,3-1.1,4.6c-2.1,0.2-4,0.4-5.6,0.5
			c-1.5,0.2-2.8,0.4-3.8,0.5c-1,0.2-1.8,0.4-2.2,0.5c-0.6,0-0.9,0.2-0.9,0.4c-0.1,0.2,0.2,0.4,0.5,0.5c0.4,0.2,1.1,0.3,1.9,0.4
			c0.8,0.2,1.9,0.3,3.1,0.4c1.1,0.1,2.6,0.3,4.1,0.4c2.9,0.2,6.3,0.4,10,0.5c3.6,0.1,7.5,0.2,11.6,0.3s8.3,0.1,12.6,0
			c4.3,0,8.8-0.1,13.3-0.2c4.6-0.1,8.9-0.3,13-0.4c4.1-0.2,7.9-0.4,11.3-0.6c3.5-0.3,6.5-0.5,9-0.8c2.6-0.3,4.4-0.6,5.3-1
			c0.1,0,0.2-0.1,0.3-0.1c0.1,0,0.2-0.1,0.2-0.1c0.1,0,0.1-0.1,0.1-0.1v-0.1C97.9,35.7,96.9,35.4,95.1,35.1z"/>
		<path fill="#8FA6C6" d="M3.1,32.8C3.1,32.9,3,33,3,33c-0.1,0.1-0.3,0.7-0.4,1.2c0.1-0.2,0.1-0.4,0.2-0.4C2.8,33.6,3,33.2,3.1,32.8
			z"/>
		<path fill="#CFE0F4" d="M8.9,22.8c0.2,0.4,0.6,0.6,1.3,0.9c0.6,0.3,1.5,0.5,2.5,0.8s2.2,0.5,3.6,0.7c0.2,0,0.4,0.1,0.6,0.1
			c0.4-1.1,0.9-2.2,1.3-3.3c0.3-0.5,0.5-1.1,0.8-1.7c-1.1-0.3-2.2-0.5-3-0.8c-0.4-0.1-0.6-0.2-0.9-0.4c-1.1,0.3-2,0.5-2.8,0.8
			c-0.9,0.3-1.6,0.6-2.1,0.9c-0.5,0.3-0.9,0.5-1.1,0.9C8.6,22.1,8.6,22.4,8.9,22.8z"/>
		<path fill="#8FA6C6" d="M19,20.4c0.4-0.7,0.7-1.4,1.1-2c-1.7,0.3-3.2,0.5-4.5,0.9c-0.2,0-0.3,0.1-0.4,0.1c0.3,0.1,0.6,0.3,0.9,0.4
			C16.8,19.9,17.7,20.1,19,20.4z"/>
		<path fill="#C8DAEE" d="M19,20.4c0.4-0.7,0.7-1.4,1.1-2c-1.7,0.3-3.2,0.5-4.5,0.9c-0.2,0-0.3,0.1-0.4,0.1c0.3,0.1,0.6,0.3,0.9,0.4
			C16.8,19.9,17.7,20.1,19,20.4z"/>
		<path fill="#3D6C98" d="M5.2,27.9c-0.2,0.4-0.4,0.8-0.6,1.2c-0.3,0.5-0.4,1.1-0.7,1.6c0,0.1-0.1,0.2-0.1,0.3
			c0.3-0.6,0.5-1.1,0.8-1.8C4.9,28.7,5,28.3,5.2,27.9z"/>
		<path fill="#3D6C98" d="M2.6,34.3c-0.1,0.3-0.2,0.6-0.4,1.1c0.1-0.2,0.1-0.4,0.2-0.6C2.5,34.5,2.6,34.3,2.6,34.3z"/>
		<path fill="#3D6C98" d="M3.4,32.2c-0.1,0.2-0.2,0.4-0.2,0.6c0.2-0.4,0.4-0.9,0.5-1.4C3.5,31.7,3.4,32,3.4,32.2z"/>
		<path fill="#8FA6C6" d="M2.6,36.6c0.5-0.2,1.2-0.4,2.2-0.5s2.3-0.4,3.8-0.5c1.6-0.2,3.4-0.4,5.6-0.5c0.4-1.6,0.7-3.1,1.1-4.6
			c0.4-1.5,0.9-2.9,1.3-4.3c0.1-0.3,0.2-0.5,0.3-0.8c-0.2,0-0.4-0.1-0.6-0.1c-1.4-0.3-2.6-0.4-3.6-0.7c-1.1-0.3-1.9-0.5-2.5-0.8
			S9,23.1,8.7,22.8c-0.3-0.4-0.3-0.6,0-1c-0.1,0.2-0.2,0.4-0.4,0.5c-0.1,0.1-0.2,0.2-0.2,0.3c-0.1,0.1-0.1,0.2-0.2,0.3
			c-0.7,1.1-1.7,2.7-2.7,4.7c0.1,0.1,0,0.2,0,0.3c0,0,0,0.1-0.1,0.1c-0.2,0.4-0.4,0.8-0.6,1.2c-0.3,0.6-0.5,1.2-0.8,1.8
			c-0.1,0.2-0.2,0.4-0.3,0.5c-0.2,0.4-0.4,0.9-0.5,1.4c-0.1,0.4-0.3,0.7-0.4,1c0,0.1,0,0.3-0.1,0.4c-0.1,0.2-0.1,0.3-0.2,0.4
			c-0.1,0.3-0.2,0.5-0.2,0.6c-0.1,0.4-0.3,0.9-0.4,1.3c0,0.2-0.1,0.3-0.1,0.4C1.8,36.9,2,36.7,2.6,36.6z"/>
		<path fill="#C8DAEE" d="M2.6,36.6c0.5-0.2,1.2-0.4,2.2-0.5c1.1-0.2,2.3-0.4,3.9-0.5c1.6-0.2,3.4-0.4,5.6-0.5
			c0.4-1.6,0.7-3.1,1.1-4.6c0.4-1.5,0.9-2.9,1.3-4.3c0.1-0.3,0.2-0.5,0.3-0.8c-0.2,0-0.4-0.1-0.6-0.1c-1.4-0.3-2.6-0.4-3.6-0.7
			c-1.1-0.3-1.9-0.5-2.5-0.8s-1.1-0.6-1.3-0.9c-0.3-0.4-0.3-0.6,0-1c-0.1,0.2-0.2,0.4-0.4,0.5c-0.1,0.1-0.2,0.2-0.2,0.3
			c-0.1,0.1-0.1,0.2-0.2,0.3c-0.7,1.1-1.8,2.7-2.7,4.7c0,0.1-0.1,0.2-0.1,0.3c0,0,0,0.1-0.1,0.1c-0.2,0.4-0.4,0.8-0.6,1.2
			c-0.3,0.6-0.5,1.2-0.8,1.8c-0.1,0.2-0.2,0.4-0.3,0.5c-0.2,0.4-0.4,0.9-0.5,1.4c-0.1,0.4-0.3,0.7-0.4,1c0,0.1-0.1,0.3-0.2,0.4
			c-0.1,0.2-0.1,0.3-0.2,0.4c-0.1,0.3-0.2,0.5-0.2,0.6c-0.1,0.4-0.3,0.9-0.4,1.3c0,0.2-0.1,0.3-0.1,0.4C1.8,36.9,2,36.7,2.6,36.6z"
			/>
		<path fill="#3D6C98" d="M96.6,32.1c0.7,1.8,1.1,3.2,1.4,4C98,36,97.5,34.3,96.6,32.1z"/>
		<path fill="#3D6C98" d="M94.7,27.7c-0.1-0.1-0.1-0.2-0.2-0.3c0.3,0.4,0.4,0.9,0.6,1.3C95,28.4,94.9,28,94.7,27.7z"/>
		<path fill="#3D6C98" d="M89.9,20.1c0.2,0.3,0.4,0.5,0.5,0.7C90.3,20.6,90.1,20.3,89.9,20.1z"/>
		<path fill="#CFE0F4" d="M75.7,19.9c-2.6,0.4-5.5,0.9-8.6,1.2c-3.2,0.4-6.5,0.6-10.2,0.8c-0.5,0-1.1,0.1-1.6,0.1
			c0.1,0.7,0.1,1.4,0.2,2.1c0.1,0.8,0.1,1.7,0.2,2.6c0.7,0,1.3,0,2-0.1c4-0.2,7.8-0.4,11.2-0.8c3.5-0.4,6.8-0.7,9.6-1.1
			c2.9-0.4,5.5-1,7.4-1.5c2-0.5,3.4-1.2,4.1-1.9c0.1-0.1,0.2-0.2,0.2-0.3c0.1-0.1,0.1-0.2,0.1-0.3c0-0.1,0-0.2,0-0.3
			c0-0.1-0.1-0.2-0.2-0.3c-0.4-0.5-1.5-1.1-3.3-1.6c-1-0.3-2.1-0.5-3.4-0.7c-0.4,0.2-0.7,0.3-1.1,0.4C80.5,18.8,78.2,19.4,75.7,19.9
			z"/>
		<path fill="#8FA6C6" d="M68.3,16.4c-4.2-0.2-8.9-0.4-13.8-0.3c0.2,1.2,0.3,2.5,0.4,3.9c0.1,0.7,0.2,1.4,0.2,2.1
			c0.5,0,1.1,0,1.6-0.1c3.6-0.2,7.1-0.4,10.2-0.8c3.2-0.4,6.2-0.8,8.6-1.2c2.6-0.5,4.9-1.1,6.5-1.6c0.4-0.2,0.8-0.3,1.1-0.4
			c-1.1-0.2-2.5-0.4-3.9-0.6C76.3,16.9,72.6,16.5,68.3,16.4z"/>
		<path fill="#C8DAEE" d="M68.3,16.4c-4.2-0.2-8.9-0.4-13.8-0.3c0.2,1.2,0.3,2.5,0.4,3.9c0.1,0.7,0.2,1.4,0.2,2.1
			c0.5,0,1.1,0,1.6-0.1c3.6-0.2,7.1-0.4,10.2-0.8c3.2-0.4,6.2-0.8,8.6-1.2c2.6-0.5,4.9-1.1,6.5-1.6c0.4-0.2,0.8-0.3,1.1-0.4
			c-1.1-0.2-2.5-0.4-3.9-0.6C76.3,16.9,72.6,16.5,68.3,16.4z"/>
		<path fill="#8FA6C6" d="M90.1,20.8c0,0.1,0,0.2-0.1,0.3c-0.1,0.1-0.1,0.2-0.2,0.3c-0.6,0.6-2,1.2-4.1,1.9
			c-1.9,0.5-4.5,1.1-7.4,1.5c-2.8,0.4-6.1,0.8-9.6,1.1c-3.4,0.4-7.2,0.5-11.2,0.8c-0.7,0-1.3,0.1-2,0.1c0.1,0.7,0.1,1.3,0.2,2
			c0.1,1.6,0.2,3.3,0.3,4.9c6.3,0,12.2,0,17.5,0.2c5.2,0.1,9.7,0.3,13.4,0.5c3.6,0.3,6.3,0.4,8.3,0.8c1.9,0.3,2.8,0.6,2.9,0.9
			c-0.3-0.8-0.7-2.2-1.4-4c0-0.1-0.1-0.2-0.1-0.4c-0.1-0.2-0.1-0.3-0.2-0.4c-0.1-0.2-0.2-0.4-0.3-0.7c-0.1-0.2-0.2-0.4-0.3-0.5
			c-0.1-0.1-0.1-0.3-0.2-0.4c-0.1-0.3-0.2-0.4-0.4-0.7c0-0.1-0.1-0.2-0.1-0.3c-0.2-0.4-0.4-0.9-0.6-1.3c-0.2-0.4-0.4-0.7-0.5-1
			c-0.1-0.2-0.2-0.4-0.3-0.4c-0.2-0.3-0.3-0.5-0.4-0.8c0-0.1-0.1-0.2-0.1-0.2c-0.3-0.4-0.5-0.9-0.8-1.2c0-0.1-0.1-0.1-0.1-0.2
			c-0.3-0.4-0.6-0.9-0.9-1.4l0,0c-0.3-0.4-0.5-0.8-0.9-1.2c-0.2-0.3-0.4-0.5-0.5-0.7c0.1,0.1,0.1,0.2,0.2,0.3
			C90.4,20.6,90.1,20.7,90.1,20.8z"/>
		<path fill="#C8DAEE" d="M90.1,20.8c0,0.1,0,0.2-0.1,0.3c-0.1,0.1-0.1,0.2-0.2,0.3c-0.6,0.6-2,1.2-4.1,1.9
			c-1.9,0.5-4.5,1.1-7.4,1.5c-2.8,0.4-6.1,0.8-9.6,1.1c-3.4,0.4-7.2,0.5-11.2,0.8c-0.7,0-1.3,0.1-2,0.1c0.1,0.7,0.1,1.3,0.2,2
			c0.1,1.6,0.2,3.3,0.3,4.9c6.3,0,12.2,0,17.5,0.2c5.2,0.1,9.7,0.3,13.4,0.5c3.6,0.3,6.3,0.4,8.3,0.8c1.9,0.3,2.8,0.6,2.9,0.9
			c-0.3-0.8-0.7-2.2-1.4-4c0-0.1-0.1-0.2-0.1-0.4c-0.1-0.2-0.1-0.3-0.2-0.4c-0.1-0.2-0.2-0.4-0.3-0.7c-0.1-0.2-0.2-0.4-0.3-0.5
			c-0.1-0.1-0.1-0.3-0.2-0.4c-0.1-0.3-0.2-0.4-0.4-0.7c0-0.1-0.1-0.2-0.1-0.3c-0.2-0.4-0.4-0.9-0.6-1.3c-0.2-0.4-0.4-0.7-0.5-1
			c-0.1-0.2-0.2-0.4-0.3-0.4c-0.2-0.3-0.3-0.5-0.4-0.8c0-0.1-0.1-0.2-0.1-0.2c-0.3-0.4-0.5-0.9-0.8-1.2c0-0.1-0.1-0.1-0.1-0.2
			c-0.3-0.4-0.6-0.9-0.9-1.4l0,0c-0.3-0.4-0.5-0.8-0.9-1.2c-0.2-0.3-0.4-0.5-0.5-0.7c0.1,0.1,0.1,0.2,0.2,0.3
			C90.4,20.6,90.1,20.7,90.1,20.8z"/>
		<path fill="#8FA6C6" d="M90.5,20.9c0.3,0.4,0.6,0.8,0.9,1.2C91,21.6,90.7,21.2,90.5,20.9z"/>
		<path fill="#8FA6C6" d="M90.5,20.9c0.3,0.4,0.6,0.8,0.9,1.2C91,21.6,90.7,21.2,90.5,20.9z"/>
		<path fill="#3D6C98" d="M90.5,20.9c0.3,0.4,0.6,0.8,0.9,1.2C91,21.6,90.7,21.2,90.5,20.9z"/>
		<path fill="#8FA6C6" d="M91.4,22.1c0.4,0.4,0.6,0.9,0.9,1.4C92,23,91.6,22.5,91.4,22.1z"/>
		<path fill="#8FA6C6" d="M91.4,22.1c0.4,0.4,0.6,0.9,0.9,1.4C92,23,91.6,22.5,91.4,22.1z"/>
		<path fill="#3D6C98" d="M91.4,22.1c0.4,0.4,0.6,0.9,0.9,1.4C92,23,91.6,22.5,91.4,22.1z"/>
		<path fill="#8FA6C6" d="M92.3,23.7c0.3,0.4,0.5,0.9,0.8,1.2C92.9,24.5,92.6,24,92.3,23.7z"/>
		<path fill="#8FA6C6" d="M92.3,23.7c0.3,0.4,0.5,0.9,0.8,1.2C92.9,24.5,92.6,24,92.3,23.7z"/>
		<path fill="#3D6C98" d="M92.3,23.7c0.3,0.4,0.5,0.9,0.8,1.2C92.9,24.5,92.6,24,92.3,23.7z"/>
	</g>
	<g>
		<path fill="none" d="M34.8,72.5c-3.6,0.2-7.1,0.4-10.1,0.6c-2.9,0.3-5.6,0.6-8,1c0.4,1.1,0.9,2.3,1.3,3.4c0.3,0.5,0.4,1.1,0.7,1.5
			c0.1,0,0.2,0,0.3-0.1c2.2-0.4,4.9-0.9,7.8-1.1c2.8-0.3,6-0.5,9.3-0.7s6.7-0.3,10.2-0.2c3,0,6.1,0.1,9.2,0.2
			c0.1-0.6,0.1-1.2,0.2-1.9c0.1-0.9,0.1-1.8,0.2-2.7c-3.3-0.1-6.5-0.2-9.7-0.2C42.2,72.3,38.4,72.4,34.8,72.5z"/>
		<path fill="#8FA6C6" d="M61.3,98.4c-0.9,0.2-1.9,0.4-2.8,0.5C59.3,98.8,60.2,98.6,61.3,98.4z"/>
		<path fill="#8FA6C6" d="M58.3,99c-0.4,0.1-0.8,0.1-1.2,0.2C57.4,99.1,57.8,99.1,58.3,99z"/>
		<path fill="#8FA6C6" d="M56.7,99.2c-0.5,0.1-1,0.1-1.5,0.2C55.6,99.3,56.1,99.3,56.7,99.2z"/>
		<path fill="#8FA6C6" d="M62.6,98c-0.4,0.1-0.6,0.2-1,0.3C62,98.2,62.3,98.1,62.6,98z"/>
		<path fill="#8FA6C6" d="M66.7,96.8c-0.1,0-0.1,0-0.2,0.1C66.6,96.9,66.7,96.8,66.7,96.8z"/>
		<path fill="#8FA6C6" d="M63.9,97.7L63.9,97.7c0,0-0.1,0-0.2,0.1C63.8,97.7,63.9,97.7,63.9,97.7z"/>
		<path fill="#8FA6C6" d="M65.5,97.2c-0.1,0-0.2,0.1-0.3,0.1C65.3,97.2,65.4,97.2,65.5,97.2z"/>
		<path fill="#8FA6C6" d="M31.9,96.3c1.4,0.5,3.6,1.3,6.6,2c-1.5-0.4-3.9-1-6.8-2.1C31.7,96.2,31.8,96.3,31.9,96.3z"/>
		<path fill="#8FA6C6" d="M25.1,93.1c0.1,0.1,0.3,0.2,0.4,0.3c-0.3-0.2-0.4-0.3-0.7-0.4C24.9,92.9,25,93,25.1,93.1z"/>
		<path fill="#8FA6C6" d="M19.6,89.4c-0.1,0-0.1-0.1-0.2-0.1C19.5,89.3,19.6,89.4,19.6,89.4z"/>
		<path fill="#8FA6C6" d="M26.3,93.7c-0.1-0.1-0.3-0.1-0.4-0.2C26,93.5,26.1,93.6,26.3,93.7z"/>
		<path fill="#8FA6C6" d="M31.2,96c-0.2-0.1-0.4-0.2-0.6-0.3C30.8,95.8,31,95.9,31.2,96z"/>
		<path fill="#8FA6C6" d="M29.5,95.3L29.5,95.3L29.5,95.3z"/>
		<path fill="#8FA6C6" d="M84.6,85.8c-0.2,0.2-0.3,0.3-0.4,0.4C84.2,86.2,84.4,86,84.6,85.8z"/>
		<path fill="#8FA6C6" d="M67.7,96.4L67.7,96.4L67.7,96.4z"/>
		<path fill="#8FA6C6" d="M18.8,88.8c-0.1-0.1-0.1-0.1-0.2-0.2C18.7,88.7,18.8,88.8,18.8,88.8z"/>
		<path fill="#CFE0F4" d="M69,82.9c-4.3,0.3-9.1,0.4-14.1,0.4c0.2-1.2,0.3-2.6,0.4-3.9c0.1-0.8,0.1-1.5,0.2-2.3
			c-3.1-0.1-6.2-0.2-9.2-0.2c-3.5,0-7,0.1-10.2,0.2c-3.3,0.2-6.4,0.4-9.3,0.7c-2.9,0.4-5.6,0.7-7.8,1.1c-0.1,0-0.2,0-0.3,0.1
			c0.4,0.8,0.7,1.5,1.1,2.2c-1.8-0.3-3.3-0.5-4.6-0.8c-0.3-0.1-0.4-0.1-0.7-0.2c-0.4,0.2-0.9,0.4-1.1,0.6c-0.5,0.4-0.9,0.7-1,1.1
			s0,0.8,0.4,1.1c0.3,0.3,0.6,0.6,1.2,0.9c0.5,0.3,1.2,0.6,2.1,0.9c0.9,0.3,1.9,0.6,3,0.9c1.1,0.3,2.5,0.5,4,0.8
			c0.6,0.9,1.2,1.8,1.9,2.6c0.6,0.8,1.3,1.5,2,2.2c0.7,0.7,1.4,1.3,2.1,1.9c0.7,0.6,1.4,1.1,2.2,1.7c0.6,0.4,1.3,0.9,1.9,1.2
			c0.7,0.4,1.3,0.7,2,1.1c0.7,0.3,1.3,0.5,2,0.8c0.7,0.3,1.4,0.4,2,0.5c0.1,0,0.2,0,0.3,0.1c0.1,0,0.2,0,0.3,0.1
			c0.1,0,0.2,0,0.3,0.1c0.1,0,0.2,0,0.3,0.1c-1.2-0.3-2.2-0.5-2.9-0.9s-1.2-0.6-1.4-1c-0.3-0.4-0.2-0.7,0-1c0.3-0.4,0.8-0.6,1.5-0.9
			c0.7-0.3,1.7-0.5,2.7-0.7c1.1-0.2,2.2-0.4,3.5-0.4c1.2-0.1,2.6-0.2,4-0.1c1.4,0,2.8,0.1,4.2,0.2c0.4,0,0.7,0.1,1.1,0.1
			c0.1-0.3,0.1-0.4,0.2-0.7c0.2-0.7,0.3-1.4,0.4-2.2c0.2-0.8,0.3-1.6,0.4-2.5c4.3,0,8.5-0.2,12.2-0.4c3.7-0.3,7-0.5,9.8-1
			c2.7-0.4,5-0.9,6.8-1.4c1.7-0.5,2.8-1.1,3.4-1.7c0.1-0.1,0.2-0.3,0.3-0.4c0.1-0.1,0.1-0.3,0.1-0.4c0-0.1,0-0.3,0-0.4
			s-0.1-0.3-0.2-0.4c-0.4-0.5-1.1-1-2.2-1.5c-1.2,0.3-2.6,0.4-4.1,0.7C76.9,82.3,73.2,82.7,69,82.9z"/>
		<path fill="#8FA6C6" d="M80.8,89.1c-0.2,0.2-0.4,0.3-0.6,0.4C80.3,89.5,80.6,89.3,80.8,89.1z"/>
		<path fill="#8FA6C6" d="M82.7,87.5c-0.2,0.2-0.4,0.3-0.4,0.4C82.4,87.8,82.5,87.7,82.7,87.5z"/>
		<path fill="#8FA6C6" d="M79.2,90.3c-0.4,0.4-0.9,0.6-1.3,0.9C78.3,90.9,78.7,90.6,79.2,90.3z"/>
		<path fill="#8FA6C6" d="M75.6,92.7c-0.3,0.2-0.4,0.3-0.7,0.4C75,93,75.3,92.8,75.6,92.7z"/>
		<path fill="#8FA6C6" d="M77.4,91.5c-0.6,0.4-1.2,0.8-1.9,1.1C76.3,92.3,76.8,91.9,77.4,91.5z"/>
		<path fill="#8FA6C6" d="M73.7,93.7c-0.1,0.1-0.2,0.1-0.3,0.1C73.5,93.8,73.6,93.8,73.7,93.7z"/>
		<path fill="#8FA6C6" d="M95.2,71.3c-0.3,0.6-0.6,1.2-1,1.9C94.6,72.5,94.9,71.9,95.2,71.3z"/>
		<path fill="#8FA6C6" d="M96.1,69.3L96.1,69.3L96.1,69.3z"/>
		<path fill="#8FA6C6" d="M94.2,73.3c-0.7,1.2-1.4,2.6-2.2,3.7C92.6,76.1,93.4,74.7,94.2,73.3z"/>
		<path fill="#8FA6C6" d="M91.9,77.2c-0.4,0.6-0.8,1.1-1.1,1.7C91,78.5,91.4,77.9,91.9,77.2z"/>
		<path fill="#8FA6C6" d="M5.5,72.5c-0.1-0.1-0.1-0.2-0.2-0.4C5.4,72.4,5.4,72.4,5.5,72.5z"/>
		<path fill="#8FA6C6" d="M97.6,65.1c0,0.1-0.1,0.3-0.1,0.4C97.5,65.4,97.6,65.3,97.6,65.1z"/>
		<path fill="#8FA6C6" d="M1.6,62.6C1.8,63,1.9,63.7,2,64.2c-0.1-0.3-0.2-0.5-0.3-0.8C1.8,63.1,1.7,62.7,1.6,62.6z"/>
		<path fill="#8FA6C6" d="M6.3,74.2c0.2,0.3,0.3,0.5,0.4,0.8C6.6,74.7,6.5,74.5,6.3,74.2L6.3,74.2z"/>
		<path fill="#8FA6C6" d="M7.2,75.8c-0.1-0.2-0.2-0.4-0.3-0.5C7.1,75.4,7.1,75.6,7.2,75.8z"/>
		<path fill="#CFE0F4" d="M2.4,63c0.5,0.2,1.2,0.4,2.2,0.5c1.1,0.2,2.3,0.4,3.9,0.5c1.6,0.2,3.4,0.4,5.6,0.4
			c0.3,1.6,0.7,3.1,1.1,4.6c0.4,1.5,0.9,2.9,1.3,4.3c0.1,0.3,0.2,0.4,0.3,0.7c2.4-0.4,5-0.7,8-1c3.2-0.3,6.6-0.5,10.1-0.6
			c3.5-0.2,7.3-0.2,11.1-0.2c3.2,0,6.4,0.1,9.7,0.2c0-0.6,0.1-1.2,0.1-1.9c0.1-1.6,0.2-3.3,0.3-4.9c6.3,0,12.3-0.1,17.5-0.3
			c5.2-0.2,9.8-0.4,13.5-0.6c3.6-0.3,6.4-0.5,8.3-0.9c1.9-0.3,2.8-0.6,2.9-1c0,0,0-0.1,0-0.2l-0.1-0.1c0,0-0.1-0.1-0.2-0.1
			s-0.2-0.1-0.3-0.1c-0.9-0.4-2.7-0.7-5.3-1c-2.5-0.3-5.5-0.5-9-0.8c-3.4-0.2-7.2-0.4-11.4-0.5c-4.1-0.2-8.4-0.3-13-0.4
			c-4.5-0.1-9-0.1-13.4-0.1c-4.3,0-8.6,0.1-12.7,0.1c-4.1,0.1-8,0.2-11.6,0.4c-3.7,0.2-7.1,0.4-10.1,0.5c-1.6,0.1-2.9,0.3-4.1,0.4
			c-1.2,0.2-2.2,0.3-3.1,0.4s-1.5,0.4-1.9,0.4c-0.4,0.2-0.6,0.4-0.6,0.5C1.7,62.7,1.9,62.8,2.4,63z"/>
		<path fill="#8FA6C6" d="M96.9,67.2c0.3-0.6,0.4-1.1,0.5-1.5c-0.2,0.5-0.4,1.1-0.6,1.8C96.9,67.3,96.9,67.2,96.9,67.2z"/>
		<path fill="#8FA6C6" d="M2.6,66.1c0.1,0.3,0.2,0.4,0.2,0.5c0,0,0,0,0,0.1c0,0,0,0,0-0.1C2.8,66.4,2.7,66.3,2.6,66.1z"/>
		<path fill="#8FA6C6" d="M97.7,65c0-0.1,0.1-0.3,0.1-0.4c0.1-0.3,0.2-0.6,0.3-0.9c0-0.1,0.1-0.2,0.1-0.3C98,64.1,97.8,64.6,97.7,65
			z"/>
		<path fill="#8FA6C6" d="M8.6,77.8c-0.3-0.4-0.7-1.1-1.1-1.8C8.1,77.1,8.6,77.8,8.6,77.8z"/>
		<path fill="#3D6C98" d="M39.3,98.5c-0.3-0.1-0.5-0.1-0.9-0.2C38.8,98.4,39.1,98.5,39.3,98.5z"/>
		<path fill="#3D6C98" d="M12.7,83c0.9,1.1,2.8,3.1,5.4,5.2c0.2,0.2,0.4,0.3,0.5,0.4C16.8,87.2,14.7,85.3,12.7,83z"/>
		<path fill="#3D6C98" d="M24.4,92.6c0.1,0.1,0.3,0.2,0.4,0.2c-1.4-0.9-3.2-1.9-5.2-3.4C21.5,90.9,23.1,91.8,24.4,92.6z"/>
		<path fill="#3D6C98" d="M29.5,95.3c-1.3-0.6-2.5-1.1-3.3-1.6C27.3,94.3,28.5,94.8,29.5,95.3z"/>
		<path fill="#3D6C98" d="M30.5,95.7c-0.4-0.2-0.6-0.3-1-0.4C29.9,95.5,30.2,95.6,30.5,95.7z"/>
		<path fill="#3D6C98" d="M19.5,89.3c-0.2-0.2-0.4-0.4-0.6-0.5C19,88.9,19.2,89.1,19.5,89.3z"/>
		<path fill="#3D6C98" d="M25.9,93.5c-0.2-0.1-0.3-0.2-0.4-0.3C25.7,93.3,25.7,93.4,25.9,93.5z"/>
		<path fill="#3D6C98" d="M31.7,96.2c-0.2-0.1-0.4-0.1-0.4-0.2C31.3,96.1,31.5,96.1,31.7,96.2z"/>
		<path fill="#8FA6C6" d="M35.2,97.1c-0.7-0.3-1.3-0.6-2-1.1c-0.7-0.4-1.3-0.8-1.9-1.2c-0.7-0.5-1.5-1.1-2.2-1.7
			c-0.7-0.6-1.4-1.2-2.1-1.9c-0.7-0.7-1.4-1.4-2-2.2c-0.6-0.8-1.3-1.7-1.9-2.6c-1.5-0.3-2.8-0.5-4-0.8c-1.1-0.3-2.1-0.5-3-0.9
			c-0.8-0.3-1.5-0.6-2.1-0.9c-0.5-0.3-1-0.6-1.2-0.9c2,2.3,4.1,4.1,5.9,5.6c0.1,0.1,0.1,0.1,0.2,0.2c0.2,0.2,0.4,0.4,0.6,0.5
			c0.1,0,0.1,0.1,0.2,0.1c1.9,1.5,3.7,2.6,5.2,3.4c0.3,0.2,0.4,0.3,0.7,0.4c0.1,0.1,0.3,0.2,0.4,0.3c0.1,0.1,0.3,0.1,0.4,0.2
			c0.8,0.4,1.9,1,3.3,1.6c0,0,0,0,0.1,0c0.3,0.2,0.6,0.3,1,0.4c0.2,0.1,0.4,0.2,0.6,0.3c0.2,0.1,0.3,0.1,0.4,0.2
			c2.9,1.1,5.4,1.8,6.8,2.1c0.3,0.1,0.5,0.1,0.9,0.2c-0.7-0.2-1.4-0.4-2-0.5C36.6,97.8,35.9,97.5,35.2,97.1z"/>
		<path fill="#C8DAEE" d="M35.2,97.1c-0.7-0.3-1.3-0.6-2-1.1c-0.7-0.4-1.3-0.8-1.9-1.2c-0.7-0.5-1.5-1.1-2.2-1.7
			c-0.7-0.6-1.4-1.2-2.1-1.9c-0.7-0.7-1.4-1.4-2-2.2c-0.6-0.8-1.3-1.7-1.9-2.6c-1.5-0.3-2.8-0.5-4-0.8c-1.1-0.3-2.1-0.5-3-0.9
			c-0.8-0.3-1.5-0.6-2.1-0.9c-0.5-0.3-1-0.6-1.2-0.9c2,2.3,4.1,4.1,5.9,5.6c0.1,0.1,0.1,0.1,0.2,0.2c0.2,0.2,0.4,0.4,0.6,0.5
			c0.1,0,0.1,0.1,0.2,0.1c1.9,1.5,3.7,2.6,5.2,3.4c0.3,0.2,0.4,0.3,0.7,0.4c0.1,0.1,0.3,0.2,0.4,0.3c0.1,0.1,0.3,0.1,0.4,0.2
			c0.8,0.4,1.9,1,3.3,1.6c0,0,0,0,0.1,0c0.3,0.2,0.6,0.3,1,0.4c0.2,0.1,0.4,0.2,0.6,0.3c0.2,0.1,0.3,0.1,0.4,0.2
			c2.9,1.1,5.4,1.8,6.8,2.1c0.3,0.1,0.5,0.1,0.9,0.2c-0.7-0.2-1.4-0.4-2-0.5C36.6,97.8,35.9,97.5,35.2,97.1z"/>
		<path fill="#3D6C98" d="M67.7,96.4c-0.4,0.1-0.7,0.3-1.1,0.4C67.1,96.7,67.5,96.5,67.7,96.4z"/>
		<path fill="#3D6C98" d="M74.9,93.1c-0.4,0.2-0.7,0.4-1.1,0.6C74.1,93.5,74.4,93.3,74.9,93.1z"/>
		<path fill="#3D6C98" d="M82.2,88c-0.5,0.4-1,0.8-1.5,1.1C81.3,88.8,81.7,88.3,82.2,88z"/>
		<path fill="#3D6C98" d="M57.1,99.2c-0.1,0-0.3,0-0.4,0.1C56.8,99.2,57,99.2,57.1,99.2z"/>
		<path fill="#CFE0F4" d="M60.1,98.5c0.6-0.2,1.1-0.4,1.3-0.7c0.3-0.3,0.4-0.5,0.4-0.8c0-0.4-0.3-0.7-0.7-1.1
			c-0.4-0.4-1.1-0.6-2-0.9c-0.9-0.3-1.9-0.5-3.1-0.7c-0.9-0.2-1.9-0.3-2.8-0.4c-0.1,0.4-0.2,0.8-0.3,1.1c-0.2,0.5-0.3,1.1-0.4,1.5
			c-0.2,0.4-0.4,0.9-0.4,1.2c-0.2,0.4-0.4,0.6-0.4,0.9c-0.2,0.3-0.4,0.4-0.4,0.6c-0.2,0.2-0.4,0.3-0.4,0.3c0.4,0,0.9,0,1.2,0
			c0.4,0,0.8,0,1.2-0.1c0.4,0,0.8-0.1,1.1-0.1s0.7-0.1,1.1-0.1c1-0.1,1.9-0.3,2.7-0.4C58.7,98.8,59.4,98.6,60.1,98.5z"/>
		<path fill="#3D6C98" d="M79.8,89.8c0.1-0.1,0.3-0.2,0.4-0.3c-0.4,0.3-0.6,0.4-1,0.7C79.5,90.2,79.6,90,79.8,89.8z"/>
		<path fill="#3D6C98" d="M77.9,91.2c-0.2,0.1-0.3,0.2-0.4,0.3C77.6,91.4,77.8,91.3,77.9,91.2z"/>
		<path fill="#3D6C98" d="M75.7,92.6L75.7,92.6C75.6,92.6,75.7,92.6,75.7,92.6z"/>
		<path fill="#3D6C98" d="M84.1,86.3c-0.4,0.4-0.9,0.9-1.4,1.2C83.2,87.1,83.7,86.7,84.1,86.3z"/>
		<path fill="#3D6C98" d="M67.7,96.4c2.1-0.8,3.7-1.6,4.5-1.9c0.4-0.2,0.8-0.4,1.2-0.6c-0.4,0.3-0.9,0.4-1.2,0.6
			C71.2,95,69.7,95.7,67.7,96.4z"/>
		<path fill="#3D6C98" d="M63.8,97.8c-0.4,0.1-0.8,0.3-1.2,0.4C63.1,97.9,63.4,97.8,63.8,97.8z"/>
		<path fill="#3D6C98" d="M86.2,84.2c-0.5,0.6-1.1,1.1-1.7,1.7C85.4,85.1,85.9,84.5,86.2,84.2z"/>
		<path fill="#3D6C98" d="M61.6,98.3c-0.1,0-0.3,0.1-0.4,0.1C61.4,98.4,61.6,98.3,61.6,98.3z"/>
		<path fill="#3D6C98" d="M58.5,98.9c-0.1,0-0.1,0-0.2,0C58.3,99,58.4,99,58.5,98.9z"/>
		<path fill="#3D6C98" d="M66.6,96.9c-0.4,0.1-0.7,0.3-1.1,0.4C65.9,97,66.2,97,66.6,96.9z"/>
		<path fill="#3D6C98" d="M65.3,97.3c-0.4,0.1-0.8,0.3-1.2,0.4C64.5,97.5,64.9,97.4,65.3,97.3z"/>
		<path fill="#8FA6C6" d="M76.1,87.3c-2.8,0.4-6.1,0.7-9.8,1c-3.7,0.3-7.8,0.4-12.2,0.4c-0.2,0.9-0.3,1.7-0.4,2.5
			c-0.2,0.8-0.3,1.5-0.4,2.2c-0.1,0.3-0.1,0.4-0.2,0.7c1,0.1,1.9,0.3,2.8,0.4c1.2,0.2,2.2,0.4,3.1,0.7c0.9,0.3,1.6,0.6,2,0.9
			c0.5,0.4,0.7,0.7,0.7,1.1c0,0.3-0.2,0.5-0.4,0.8c-0.4,0.3-0.8,0.4-1.3,0.7c-0.6,0.2-1.3,0.4-2.1,0.5c-0.8,0.2-1.8,0.3-2.7,0.4
			c0.5-0.1,1-0.1,1.5-0.2c0.1,0,0.3,0,0.4-0.1c0.4-0.1,0.8-0.1,1.2-0.2c0.1,0,0.1,0,0.2,0c1-0.2,1.9-0.4,2.8-0.5
			c0.1,0,0.3-0.1,0.4-0.1c0.4-0.1,0.6-0.2,1-0.3c0.4-0.1,0.8-0.2,1.2-0.4c0.1,0,0.2,0,0.3-0.1c0.4-0.1,0.8-0.3,1.2-0.4
			c0.1,0,0.2-0.1,0.3-0.1c0.4-0.1,0.7-0.3,1.1-0.4c0.1,0,0.1,0,0.2-0.1c0.4-0.1,0.7-0.3,1.1-0.4l0,0c1.9-0.7,3.4-1.4,4.5-1.9
			c0.4-0.2,0.8-0.4,1.2-0.6c0.1-0.1,0.2-0.1,0.3-0.1c0.4-0.2,0.7-0.4,1.1-0.6c0.3-0.1,0.4-0.3,0.7-0.4l0.1-0.1
			c0.5-0.4,1.1-0.7,1.9-1.1c0.2-0.1,0.3-0.2,0.4-0.3c0.4-0.3,0.9-0.6,1.3-0.9c0.4-0.3,0.6-0.4,1-0.7c0.2-0.2,0.4-0.3,0.6-0.4
			c0.4-0.4,1-0.8,1.5-1.1c0.2-0.2,0.4-0.3,0.4-0.4c0.4-0.4,0.9-0.8,1.4-1.2c0.2-0.2,0.4-0.3,0.4-0.4c0.5-0.5,1.1-1.1,1.7-1.7
			c-0.5,0.6-1.7,1.1-3.4,1.7C81.1,86.4,78.9,86.8,76.1,87.3z"/>
		<path fill="#C8DAEE" d="M76.1,87.3c-2.8,0.4-6.1,0.7-9.8,1c-3.7,0.3-7.8,0.4-12.2,0.4c-0.2,0.9-0.3,1.7-0.4,2.5
			c-0.2,0.8-0.3,1.5-0.4,2.2c-0.1,0.3-0.1,0.4-0.2,0.7c1,0.1,1.9,0.3,2.8,0.4c1.2,0.2,2.2,0.4,3.1,0.7c0.9,0.3,1.6,0.6,2,0.9
			c0.5,0.4,0.7,0.7,0.7,1.1c0,0.3-0.2,0.5-0.4,0.8c-0.4,0.3-0.8,0.4-1.3,0.7c-0.6,0.2-1.3,0.4-2.1,0.5c-0.8,0.2-1.8,0.3-2.7,0.4
			c0.5-0.1,1-0.1,1.5-0.2c0.1,0,0.3,0,0.4-0.1c0.4-0.1,0.8-0.1,1.2-0.2c0.1,0,0.1,0,0.2,0c1-0.2,1.9-0.4,2.8-0.5
			c0.1,0,0.3-0.1,0.4-0.1c0.4-0.1,0.6-0.2,1-0.3c0.4-0.1,0.8-0.2,1.2-0.4c0.1,0,0.2,0,0.3-0.1c0.4-0.1,0.8-0.3,1.2-0.4
			c0.1,0,0.2-0.1,0.3-0.1c0.4-0.1,0.7-0.3,1.1-0.4c0.1,0,0.1,0,0.2-0.1c0.4-0.1,0.7-0.3,1.1-0.4l0,0c1.9-0.7,3.4-1.4,4.5-1.9
			c0.4-0.2,0.8-0.4,1.2-0.6c0.1-0.1,0.2-0.1,0.3-0.1c0.4-0.2,0.7-0.4,1.1-0.6c0.3-0.1,0.4-0.3,0.7-0.4l0.1-0.1
			c0.5-0.4,1.1-0.7,1.9-1.1c0.2-0.1,0.3-0.2,0.4-0.3c0.4-0.3,0.9-0.6,1.3-0.9c0.4-0.3,0.6-0.4,1-0.7c0.2-0.2,0.4-0.3,0.6-0.4
			c0.4-0.4,1-0.8,1.5-1.1c0.2-0.2,0.4-0.3,0.4-0.4c0.4-0.4,0.9-0.8,1.4-1.2c0.2-0.2,0.4-0.3,0.4-0.4c0.5-0.5,1.1-1.1,1.7-1.7
			c-0.5,0.6-1.7,1.1-3.4,1.7C81.1,86.4,78.9,86.8,76.1,87.3z"/>
		<path fill="#3D6C98" d="M6.3,74.2c-0.3-0.5-0.6-1.1-0.9-1.7C5.7,73.1,6.1,73.7,6.3,74.2z"/>
		<path fill="#3D6C98" d="M5.3,72.2C5,71.6,4.8,71,4.5,70.4C4.8,71.1,5,71.6,5.3,72.2z"/>
		<path fill="#3D6C98" d="M7,75.3c-0.1-0.1-0.1-0.2-0.2-0.3C6.9,75.1,6.9,75.2,7,75.3z"/>
		<path fill="#3D6C98" d="M4.4,70.5c-0.6-1.2-1.1-2.6-1.6-3.9C3.6,68.6,4.2,70,4.4,70.5z"/>
		<path fill="#3D6C98" d="M7.4,76.1c-0.1-0.1-0.1-0.2-0.2-0.3C7.3,75.9,7.4,76,7.4,76.1z"/>
		<path fill="#CFE0F4" d="M18.7,79.1c-0.3-0.5-0.4-1.1-0.7-1.5c-0.4-1.1-0.9-2.2-1.3-3.4c-0.2,0-0.4,0.1-0.6,0.1
			c-1.4,0.3-2.6,0.5-3.6,0.8c-1.1,0.3-1.9,0.5-2.6,0.9c-0.6,0.3-1.1,0.6-1.3,1c-0.3,0.4-0.3,0.7,0,1c0.2,0.3,0.5,0.6,1.1,0.9
			c0.5,0.3,1.2,0.6,2.2,0.9c0.8,0.3,1.7,0.4,2.6,0.7c0.4-0.2,0.7-0.3,1.1-0.4C16.5,79.6,17.5,79.3,18.7,79.1z"/>
		<path fill="#3D6C98" d="M2.6,66.1c-0.2-0.4-0.4-1-0.6-1.9C2.3,64.9,2.5,65.4,2.6,66.1z"/>
		<path fill="#8FA6C6" d="M19.8,81.3c-0.4-0.7-0.7-1.4-1.1-2.2c-1.2,0.3-2.3,0.5-3.1,0.8c-0.4,0.1-0.7,0.3-1.1,0.4
			c0.3,0.1,0.4,0.1,0.7,0.2C16.5,80.7,18.1,81,19.8,81.3z"/>
		<path fill="#C8DAEE" d="M19.8,81.3c-0.4-0.7-0.7-1.4-1.1-2.2c-1.2,0.3-2.3,0.5-3.1,0.8c-0.4,0.1-0.7,0.3-1.1,0.4
			c0.3,0.1,0.4,0.1,0.7,0.2C16.5,80.7,18.1,81,19.8,81.3z"/>
		<path fill="#8FA6C6" d="M8.6,76.8c0.3-0.4,0.7-0.6,1.3-1c0.6-0.3,1.5-0.6,2.6-0.9c1.1-0.3,2.2-0.5,3.6-0.8c0.2,0,0.4-0.1,0.6-0.1
			c-0.1-0.3-0.2-0.4-0.3-0.7c-0.4-1.4-0.9-2.8-1.3-4.3c-0.4-1.5-0.8-3-1.1-4.6c-2.1-0.2-4-0.4-5.6-0.4c-1.6-0.2-2.8-0.4-3.9-0.5
			c-1-0.2-1.8-0.4-2.2-0.5c-0.5-0.2-0.8-0.4-0.8-0.5c0.1,0.3,0.2,0.6,0.3,0.8C1.9,63.4,2,63.7,2.1,64c0.3,0.9,0.4,1.5,0.6,1.9
			c0.1,0.2,0.1,0.4,0.2,0.5c0,0,0,0,0,0.1c0.4,1.5,1,2.7,1.5,4.1c0.3,0.6,0.5,1.1,0.8,1.8c0.1,0.1,0.1,0.2,0.2,0.4
			c0.3,0.5,0.6,1.1,0.9,1.7c0.2,0.3,0.4,0.5,0.4,0.8c0.1,0.1,0.1,0.2,0.2,0.3c0.1,0.2,0.2,0.4,0.3,0.5c0.1,0.1,0.1,0.2,0.2,0.3
			c0.4,0.7,0.9,1.3,1.1,1.8C8.4,77.5,8.4,77.1,8.6,76.8z"/>
		<path fill="#C8DAEE" d="M8.6,76.8c0.3-0.4,0.7-0.6,1.3-1c0.6-0.3,1.5-0.6,2.6-0.9c1.1-0.3,2.2-0.5,3.6-0.8c0.2,0,0.4-0.1,0.6-0.1
			c-0.1-0.3-0.2-0.4-0.3-0.7c-0.4-1.4-0.9-2.8-1.3-4.3c-0.4-1.5-0.8-3-1.1-4.6c-2.1-0.2-4-0.4-5.6-0.4c-1.6-0.2-2.8-0.4-3.9-0.5
			c-1-0.2-1.8-0.4-2.2-0.5c-0.5-0.2-0.8-0.4-0.8-0.5c0.1,0.3,0.2,0.6,0.3,0.8C1.9,63.4,2,63.7,2.1,64c0.3,0.9,0.4,1.5,0.6,1.9
			c0.1,0.2,0.1,0.4,0.2,0.5c0,0,0,0,0,0.1c0.4,1.5,1,2.7,1.5,4.1c0.3,0.6,0.5,1.1,0.8,1.8c0.1,0.1,0.1,0.2,0.2,0.4
			c0.3,0.5,0.6,1.1,0.9,1.7c0.2,0.3,0.4,0.5,0.4,0.8c0.1,0.1,0.1,0.2,0.2,0.3c0.1,0.2,0.2,0.4,0.3,0.5c0.1,0.1,0.1,0.2,0.2,0.3
			c0.4,0.7,0.9,1.3,1.1,1.8C8.4,77.5,8.4,77.1,8.6,76.8z"/>
		<path fill="#3D6C98" d="M97.7,65c0,0.1,0,0.1-0.1,0.2C97.7,65.1,97.7,65,97.7,65z"/>
		<path fill="#3D6C98" d="M96.6,68c0.1-0.2,0.2-0.4,0.3-0.6c-0.3,0.6-0.4,1.2-0.7,1.9C96.5,68.5,96.6,68,96.6,68z"/>
		<path fill="#3D6C98" d="M96.1,69.3c-0.3,0.7-0.6,1.3-0.9,2C95.6,70.5,95.9,69.8,96.1,69.3z"/>
		<path fill="#3D6C98" d="M97.5,65.6L97.5,65.6L97.5,65.6z"/>
		<path fill="#3D6C98" d="M98.3,62.9c-0.1,0.2-0.1,0.4-0.2,0.6C98.2,63.4,98.2,63.2,98.3,62.9z"/>
		<path fill="#CFE0F4" d="M90.9,78.3c0-0.1-0.1-0.2-0.1-0.3c-0.1-0.1-0.1-0.2-0.3-0.3c-0.6-0.6-2-1.2-4.1-1.9
			c-1.9-0.5-4.5-1.1-7.5-1.5c-2.9-0.4-6.2-0.8-9.8-1.1c-3.5-0.3-7.3-0.5-11.4-0.7c-0.7,0-1.4,0-2-0.1c-0.1,0.9-0.1,1.9-0.2,2.7
			c-0.1,0.6-0.1,1.3-0.2,1.9c0.5,0,1.1,0,1.7,0.1c3.7,0.2,7.1,0.4,10.4,0.8c3.3,0.4,6.3,0.7,8.8,1.2c2.6,0.4,4.9,1.1,6.7,1.6
			c0.4,0.2,0.9,0.4,1.3,0.5c1.2-0.3,2.3-0.5,3.2-0.7c1.8-0.5,2.8-1.1,3.3-1.7c0.1-0.1,0.1-0.2,0.2-0.3
			C90.9,78.4,90.9,78.4,90.9,78.3z"/>
		<path fill="#3D6C98" d="M92,77c0,0.1-0.1,0.1-0.1,0.2C91.9,77.1,91.9,77.1,92,77z"/>
		<path fill="#3D6C98" d="M94.3,73.1c0,0.1-0.1,0.1-0.1,0.2C94.2,73.2,94.3,73.1,94.3,73.1z"/>
		<path fill="#8FA6C6" d="M76.3,79.1c-2.6-0.4-5.6-0.9-8.8-1.2c-3.2-0.4-6.7-0.6-10.4-0.8c-0.5,0-1.1,0-1.7-0.1
			c-0.1,0.8-0.1,1.6-0.2,2.3c-0.1,1.3-0.3,2.6-0.4,3.9c5,0,9.8-0.2,14.1-0.4c4.2-0.3,8-0.6,11.1-1c1.6-0.2,2.9-0.4,4.1-0.7
			c-0.4-0.2-0.8-0.4-1.3-0.5C81.2,80.2,78.9,79.6,76.3,79.1z"/>
		<path fill="#C8DAEE" d="M76.3,79.1c-2.6-0.4-5.6-0.9-8.8-1.2c-3.2-0.4-6.7-0.6-10.4-0.8c-0.5,0-1.1,0-1.7-0.1
			c-0.1,0.8-0.1,1.6-0.2,2.3c-0.1,1.3-0.3,2.6-0.4,3.9c5,0,9.8-0.2,14.1-0.4c4.2-0.3,8-0.6,11.1-1c1.6-0.2,2.9-0.4,4.1-0.7
			c-0.4-0.2-0.8-0.4-1.3-0.5C81.2,80.2,78.9,79.6,76.3,79.1z"/>
		<path fill="#8FA6C6" d="M98.3,62.9c-0.1,0.4-1.1,0.6-2.9,1c-1.9,0.4-4.7,0.6-8.3,0.9c-3.7,0.3-8.3,0.4-13.5,0.6
			c-5.3,0.2-11.3,0.3-17.5,0.3c-0.1,1.7-0.2,3.4-0.3,4.9c0,0.6-0.1,1.2-0.1,1.9c0.7,0,1.4,0,2,0.1c4.1,0.2,7.8,0.4,11.4,0.7
			c3.6,0.3,6.9,0.7,9.8,1.1c3,0.4,5.6,1,7.5,1.5c2,0.5,3.5,1.2,4.1,1.9c0.1,0.1,0.2,0.2,0.3,0.3c0.1,0.1,0.1,0.2,0.1,0.3
			c0,0.1,0,0.2,0,0.3c0,0.1-0.1,0.2-0.2,0.3c0.4-0.5,0.8-1.1,1.1-1.7c0-0.1,0.1-0.1,0.1-0.2c0.8-1.2,1.5-2.5,2.2-3.7
			c0-0.1,0.1-0.1,0.1-0.2c0.4-0.6,0.6-1.2,1-1.9c0.4-0.7,0.6-1.3,0.9-2l0,0c0.3-0.6,0.5-1.2,0.7-1.9c0.3-0.6,0.4-1.1,0.6-1.8v-0.1
			c0-0.1,0.1-0.3,0.1-0.4c0-0.1,0-0.1,0.1-0.2c0.2-0.4,0.3-0.9,0.4-1.5C98.2,63.4,98.2,63.1,98.3,62.9z"/>
		<path fill="#C8DAEE" d="M98.3,62.9c-0.1,0.4-1.1,0.6-2.9,1c-1.9,0.4-4.7,0.6-8.3,0.9c-3.7,0.3-8.3,0.4-13.5,0.6
			c-5.3,0.2-11.3,0.3-17.5,0.3c-0.1,1.7-0.2,3.4-0.3,4.9c0,0.6-0.1,1.2-0.1,1.9c0.7,0,1.4,0,2,0.1c4.1,0.2,7.8,0.4,11.4,0.7
			c3.6,0.3,6.9,0.7,9.8,1.1c3,0.4,5.6,1,7.5,1.5c2,0.5,3.5,1.2,4.1,1.9c0.1,0.1,0.2,0.2,0.3,0.3c0.1,0.1,0.1,0.2,0.1,0.3
			c0,0.1,0,0.2,0,0.3c0,0.1-0.1,0.2-0.2,0.3c0.4-0.5,0.8-1.1,1.1-1.7c0-0.1,0.1-0.1,0.1-0.2c0.8-1.2,1.5-2.5,2.2-3.7
			c0-0.1,0.1-0.1,0.1-0.2c0.4-0.6,0.6-1.2,1-1.9c0.4-0.7,0.6-1.3,0.9-2l0,0c0.3-0.6,0.5-1.2,0.7-1.9c0.3-0.6,0.4-1.1,0.6-1.8v-0.1
			c0-0.1,0.1-0.3,0.1-0.4c0-0.1,0-0.1,0.1-0.2c0.2-0.4,0.3-0.9,0.4-1.5C98.2,63.4,98.2,63.1,98.3,62.9z"/>
	</g>
	<g>
		<path fill="#8FA6C6" d="M99.3,41.4c0.4,2.7,0.7,5.4,0.7,8C100,46.9,99.7,44.2,99.3,41.4z"/>
		<path fill="#8FA6C6" d="M0.3,55.4c0-0.1,0-0.3,0-0.4C0.3,55.2,0.3,55.2,0.3,55.4z"/>
		<path fill="#8FA6C6" d="M0.1,53L0.1,53L0.1,53z"/>
		<path fill="#8FA6C6" d="M0.2,54.5L0.2,54.5c0,0,0-0.1,0-0.2C0.2,54.5,0.2,54.5,0.2,54.5z"/>
		<path fill="#8FA6C6" d="M0.2,45.5L0.2,45.5C0.2,45.4,0.2,45.4,0.2,45.5z"/>
		<path fill="#8FA6C6" d="M0.4,56.7c0-0.1,0-0.1,0-0.2C0.4,56.7,0.4,56.7,0.4,56.7z"/>
		<path fill="#8FA6C6" d="M0.1,47.2c0-0.3,0-0.4,0-0.6C0.1,46.8,0.1,47,0.1,47.2z"/>
		<path fill="#8FA6C6" d="M0,50c0-0.3,0-0.6,0-0.9C0,49.5,0,49.8,0,50z"/>
		<path fill="#8FA6C6" d="M0.4,56.1c0-0.1,0-0.2,0-0.3C0.4,56,0.4,56,0.4,56.1z"/>
		<path fill="#CFE0F4" d="M56.3,52.4c0-0.8,0-1.6,0-2.3c0-0.9,0-1.7,0-2.6c0-0.9,0-1.7,0-2.6c0-0.5,0-1,0-1.4c-3.7,0-7.3,0-10.8,0
			c-4.4,0-8.7,0-12.9,0s-8.2-0.1-11.8-0.2c-2.8-0.1-5.5-0.1-7.8-0.2c-0.1,0.7-0.1,1.5-0.2,2.2c0,0.8-0.1,1.6-0.1,2.3
			c0,0.8,0,1.6,0,2.4c0,0.7,0,1.4,0,2.1c0,0.7,0.1,1.4,0.1,2.1c0,0.6,0.1,1.1,0.1,1.8c2.4-0.1,5-0.2,7.8-0.3
			c3.7-0.1,7.7-0.2,11.8-0.3s8.5-0.1,12.9-0.1c3.5,0,7.1,0,10.8,0c0-0.3,0-0.6,0-0.9C56.3,54,56.3,53.2,56.3,52.4z"/>
		<path fill="#8FA6C6" d="M0,48.6c0-0.3,0-0.6,0-0.9C0,48.1,0,48.4,0,48.6z"/>
		<path fill="#3D6C98" d="M0.2,54.4c0-0.4-0.1-1-0.1-1.4C0.1,53.5,0.2,53.9,0.2,54.4z"/>
		<path fill="#3D6C98" d="M0,50.2c0,1,0,1.9,0.1,2.8C0,52,0,51,0,50C0,50.1,0,50.1,0,50.2z"/>
		<path fill="#3D6C98" d="M0.5,57.4c0-0.3-0.1-0.4-0.1-0.7C0.5,57,0.5,57.2,0.5,57.4z"/>
		<path fill="#3D6C98" d="M0.4,56.6c0-0.2,0-0.4-0.1-0.4C0.4,56.3,0.4,56.4,0.4,56.6z"/>
		<path fill="#3D6C98" d="M0.4,55.9c0-0.2,0-0.3-0.1-0.4C0.4,55.5,0.4,55.7,0.4,55.9z"/>
		<path fill="#3D6C98" d="M0.3,55.1c0-0.1,0-0.3,0-0.4C0.3,54.8,0.3,54.9,0.3,55.1z"/>
		<path fill="#3D6C98" d="M0,49.2c0-0.2,0-0.4,0-0.5C0,48.8,0,49,0,49.2z"/>
		<path fill="#3D6C98" d="M0.1,47.8c0-0.2,0-0.4,0-0.6C0.1,47.4,0.1,47.6,0.1,47.8z"/>
		<path fill="#CFE0F4" d="M6.3,56.6c-1.2,0.1-2.3,0.2-3.2,0.3S1.7,57,1.2,57.1c-0.4,0.1-0.7,0.2-0.7,0.3c0,0.1,0.3,0.2,0.7,0.3
			c0.5,0.2,1.3,0.3,2.3,0.4c1.1,0.1,2.3,0.2,3.9,0.3c1.6,0.1,3.5,0.2,5.7,0.3c-0.1-0.7-0.2-1.4-0.2-2c0-0.1,0-0.3,0-0.4
			c-0.8,0-1.6,0.1-2.4,0.1C9,56.4,7.6,56.5,6.3,56.6z"/>
		<path fill="#CFE0F4" d="M1.2,42.5c0.4,0.1,1.1,0.2,1.9,0.3c0.9,0.1,1.9,0.2,3.2,0.3c1.2,0.1,2.6,0.2,4.2,0.2
			c0.8,0,1.6,0.1,2.4,0.1v-0.1c0.1-0.8,0.2-1.5,0.3-2.3C11,41,9.1,41.1,7.5,41.3c-1.6,0.1-2.9,0.2-3.9,0.4c-1,0.1-1.8,0.2-2.2,0.4
			c-0.4,0.1-0.7,0.2-0.7,0.3C0.6,42.4,0.8,42.5,1.2,42.5z"/>
		<path fill="#3D6C98" d="M0.1,46.6c0-0.4,0.1-0.8,0.1-1.1C0.2,45.8,0.2,46.2,0.1,46.6z"/>
		<path fill="#3D6C98" d="M0.3,45.4c0.1-1.1,0.3-2,0.4-3.1C0.5,42.8,0.4,43.9,0.3,45.4z"/>
		<path fill="#8FA6C6" d="M12.7,52.3c0-0.7,0-1.4,0-2.1c0-0.8,0-1.6,0-2.4s0.1-1.6,0.1-2.3c0-0.7,0.1-1.5,0.2-2.2
			c-0.8,0-1.6-0.1-2.4-0.1c-1.6-0.1-3-0.1-4.2-0.2s-2.3-0.2-3.2-0.3c-0.9-0.1-1.5-0.2-1.9-0.3c-0.4-0.1-0.7-0.2-0.6-0.3
			c-0.2,1.1-0.3,2.1-0.4,3.1v0.1c0,0.4-0.1,0.8-0.1,1.1c0,0.2,0,0.4,0,0.6c0,0.2,0,0.4,0,0.6s0,0.5,0,0.9c0,0.2,0,0.4,0,0.5
			c0,0.3,0,0.6,0,0.9c0,1,0,1.9,0.1,2.9l0,0c0,0.4,0.1,1,0.1,1.4c0,0.1,0,0.2,0,0.3c0,0.2,0,0.3,0,0.4c0,0.1,0,0.3,0,0.4
			c0,0.2,0,0.3,0.1,0.4c0,0.1,0,0.2,0,0.3c0,0.2,0,0.3,0.1,0.4c0,0.1,0,0.1,0,0.2c0,0.2,0.1,0.4,0.1,0.7c0-0.1,0.2-0.2,0.7-0.3
			c0.4-0.1,1.1-0.2,1.9-0.3c0.9-0.1,1.9-0.2,3.2-0.3c1.2-0.1,2.6-0.2,4.2-0.3c0.8,0,1.6-0.1,2.4-0.1C13,55.8,13,55.2,13,54.6
			C12.8,53.7,12.7,53,12.7,52.3z"/>
		<path fill="#C8DAEE" d="M12.7,52.3c0-0.7,0-1.4,0-2.1c0-0.8,0-1.6,0-2.4s0.1-1.6,0.1-2.3c0-0.7,0.1-1.5,0.2-2.2
			c-0.8,0-1.6-0.1-2.4-0.1c-1.6-0.1-3-0.1-4.2-0.2s-2.3-0.2-3.2-0.3c-0.9-0.1-1.5-0.2-1.9-0.3c-0.4-0.1-0.7-0.2-0.6-0.3
			c-0.2,1.1-0.3,2.1-0.4,3.1v0.1c0,0.4-0.1,0.8-0.1,1.1c0,0.2,0,0.4,0,0.6c0,0.2,0,0.4,0,0.6s0,0.5,0,0.9c0,0.2,0,0.4,0,0.5
			c0,0.3,0,0.6,0,0.9c0,1,0,1.9,0.1,2.9l0,0c0,0.4,0.1,1,0.1,1.4c0,0.1,0,0.2,0,0.3c0,0.2,0,0.3,0,0.4c0,0.1,0,0.3,0,0.4
			c0,0.2,0,0.3,0.1,0.4c0,0.1,0,0.2,0,0.3c0,0.2,0,0.3,0.1,0.4c0,0.1,0,0.1,0,0.2c0,0.2,0.1,0.4,0.1,0.7c0-0.1,0.2-0.2,0.7-0.3
			c0.4-0.1,1.1-0.2,1.9-0.3c0.9-0.1,1.9-0.2,3.2-0.3c1.2-0.1,2.6-0.2,4.2-0.3c0.8,0,1.6-0.1,2.4-0.1C13,55.8,13,55.2,13,54.6
			C12.8,53.7,12.7,53,12.7,52.3z"/>
		<path fill="#3D6C98" d="M99.5,57.5c0.4-2.7,0.6-5.4,0.5-8C100,52.2,99.8,54.8,99.5,57.5z"/>
		<path fill="#CFE0F4" d="M99.3,57.4c-0.1,0-0.1-0.1-0.2-0.1c-0.1,0-0.2-0.1-0.3-0.1c-1-0.2-2.9-0.4-5.5-0.6
			c-2.5-0.2-5.6-0.4-9.3-0.4c-3.4-0.1-7.4-0.3-11.6-0.4c-4.1-0.1-8.6-0.2-13.2-0.2c-1,0-1.9,0-2.8,0c0,0.4,0,0.9,0,1.4
			c0,0.8,0,1.5,0,2.2c6.5,0,12.7-0.1,18.2-0.2c5.4-0.1,10.1-0.3,13.8-0.4c3.7-0.2,6.5-0.4,8.5-0.5c1.9-0.2,2.7-0.4,2.8-0.6v-0.1
			C99.4,57.4,99.4,57.4,99.3,57.4z"/>
		<path fill="#CFE0F4" d="M72.3,43.3c4.2-0.1,8.1-0.3,11.6-0.4c3.6-0.2,6.8-0.4,9.3-0.5c2.6-0.2,4.5-0.4,5.5-0.6
			c0.1,0,0.2-0.1,0.3-0.1c0.1,0,0.2-0.1,0.2-0.1c0.1,0,0.1-0.1,0.1-0.1v-0.1c0-0.2-1-0.4-2.8-0.5c-1.9-0.2-4.8-0.4-8.4-0.4
			c-3.8-0.2-8.5-0.3-13.8-0.3c-5.3-0.1-11.4-0.2-17.9-0.1c0,0.8,0.1,1.7,0.1,2.5c0,0.4,0,0.7,0,1.1c1,0,1.9,0,2.8,0
			C63.8,43.4,68.2,43.3,72.3,43.3z"/>
		<path fill="#8FA6C6" d="M99.3,41.4C99.3,41.5,99.3,41.5,99.3,41.4c-0.1,0.1-0.1,0.1-0.2,0.2c-0.1,0-0.1,0.1-0.2,0.1
			s-0.2,0.1-0.3,0.1c-1,0.2-2.8,0.4-5.5,0.6c-2.5,0.2-5.6,0.4-9.3,0.5c-3.4,0.2-7.4,0.3-11.6,0.4c-4.1,0.1-8.6,0.2-13.2,0.3
			c-1,0-1.9,0-2.8,0c0,0.4,0,1,0,1.4c0,0.9,0,1.7,0,2.6c0,0.9,0,1.7,0,2.6c0,0.8,0,1.6,0,2.3c0,0.8,0,1.5,0,2.3c0,0.3,0,0.6,0,0.9
			c1,0,1.9,0,2.8,0c4.7,0,9.1,0.1,13.2,0.2c4.2,0.1,8.1,0.2,11.6,0.4c3.6,0.1,6.8,0.3,9.3,0.4c2.6,0.2,4.6,0.4,5.5,0.6
			c0.1,0,0.2,0.1,0.3,0.1c0.1,0,0.2,0.1,0.2,0.1c0.1,0,0.1,0.1,0.1,0.1v0.1c0.4-2.7,0.6-5.4,0.5-8C100,46.9,99.7,44.2,99.3,41.4z"/>
		<path fill="#C8DAEE" d="M99.3,41.4C99.3,41.5,99.3,41.5,99.3,41.4c-0.1,0.1-0.1,0.1-0.2,0.2c-0.1,0-0.1,0.1-0.2,0.1
			s-0.2,0.1-0.3,0.1c-1,0.2-2.8,0.4-5.5,0.6c-2.5,0.2-5.6,0.4-9.3,0.5c-3.4,0.2-7.4,0.3-11.6,0.4c-4.1,0.1-8.6,0.2-13.2,0.3
			c-1,0-1.9,0-2.8,0c0,0.4,0,1,0,1.4c0,0.9,0,1.7,0,2.6c0,0.9,0,1.7,0,2.6c0,0.8,0,1.6,0,2.3c0,0.8,0,1.5,0,2.3c0,0.3,0,0.6,0,0.9
			c1,0,1.9,0,2.8,0c4.7,0,9.1,0.1,13.2,0.2c4.2,0.1,8.1,0.2,11.6,0.4c3.6,0.1,6.8,0.3,9.3,0.4c2.6,0.2,4.6,0.4,5.5,0.6
			c0.1,0,0.2,0.1,0.3,0.1c0.1,0,0.2,0.1,0.2,0.1c0.1,0,0.1,0.1,0.1,0.1v0.1c0.4-2.7,0.6-5.4,0.5-8C100,46.9,99.7,44.2,99.3,41.4z"/>
	</g>
	<g>
		<g>
			<path fill="#C8DAEE" d="M41.2,79.9L41.2,79.9c3.1-3.6,5.9-6.7,6.9-11.5c0.7-3.7-0.1-6.9-1.7-9.7l0,0l0,0c-1.8-3-4.6-5.6-7.5-7.8
				c5.3-3.7,10.1-7.3,9.3-15.2c-0.4-4.1-2.6-7.7-5.3-10.8c-0.7-0.9-1.4-1.7-2.1-2.6c4-2.8,7.3-6,7.5-11.6c0.1-1.3-3.5-2.7-3.5-3.5
				c0,1-0.2,1.9-0.4,2.8H39v1.7h4.8c-1.1,2.7-3.3,4.8-5.7,6.7c-0.4-0.9-0.9-1.9-1.2-2.8h2.1v-1.7h-2.6c-0.2-1-0.4-1.9-0.4-3.1
				c0-1.4-3.4-2.6-3.5-3.5c0.1,4.1,1.3,7.8,3.9,11.1c0.2,0.3,0.4,0.5,0.6,0.7c-2.6,1.9-5.6,3.7-8,5.7c-6.6,5.6-5.4,13.6,0,19.5
				c1.4,1.6,3,2.9,4.7,4.1c-1,0.7-1.9,1.3-2.8,2c-6.8,4.9-8.6,12.9-3.1,19.6c2.4,2.8,5.2,5.1,8.2,7.2c0.2,0.1,0.4,0.3,0.5,0.4
				c-2.5,3.3-3.8,6.7-4,11c0,1.3,3.5,2.7,3.5,3.5c0-1.1,0.2-2.1,0.4-3.1H45c0.6,1.2,3.4,2.3,3.4,3.1C48.1,87.2,45,83.2,41.2,79.9z
				 M28,65.2c0-0.1,0-0.3,0-0.4h16.7c-0.2,1-0.4,1.9-0.7,2.8H28.2C28,66.9,28,66.1,28,65.2z M28.9,60.4h15.8c0.1,0.9,0.1,1.9,0,2.7
				H28C28.2,62.2,28.6,61.2,28.9,60.4z M29.9,58.8c0.6-0.9,1.3-1.7,2-2.5h11.6l0,0c0.4,0.8,0.7,1.6,1,2.5H29.9z M42.2,54.6h-8.4l0,0
				c1.3-1.1,2.7-2.1,4.1-3.1C39.4,52.5,40.9,53.4,42.2,54.6z M28.4,41.2c-0.1-0.2-0.1-0.4-0.2-0.5h14.6c-0.5,0.8-1.2,1.6-1.9,2.3
				H29.2C28.8,42.5,28.6,41.9,28.4,41.2z M32,29.1c0.4-0.4,0.9-0.8,1.3-1.1h5.2v-1.7h-3.1c1.6-1.1,3.2-2.2,4.8-3.3
				c1.8,2.2,3.4,4.5,4.1,7.4c0,0.1,0.1,0.3,0.1,0.4h-7.5v1.7h7.8c0.4,2.6-0.1,4.8-1,6.6H27.9c-0.1-0.8-0.1-1.6,0.1-2.4h12.3V35H28.3
				C29,32.8,30.3,30.7,32,29.1z M30.3,44.7h8.7c-1.4,1.2-2.9,2.3-4.5,3.4C33.1,47,31.6,46,30.3,44.7z M28.8,69.3h14.3
				c-0.4,0.9-1,1.7-1.5,2.5H30.4C29.8,70.9,29.3,70.1,28.8,69.3z M36,76.1c-1.3-0.9-2.6-1.8-3.8-2.7h8.1c-0.7,0.9-1.4,1.7-2.1,2.5
				c-0.4,0.4-0.6,0.7-1,1.1C36.9,76.7,36.4,76.3,36,76.1z M43.4,83.7h-4.9c0.6-1.1,1.3-2,2.1-3.1C41.7,81.6,42.7,82.6,43.4,83.7z
				 M37.7,85.4h6.5c0.3,0.7,0.4,1.4,0.5,2.2h-7.8C37.1,86.8,37.4,86.1,37.7,85.4z"/>
		</g>
	</g>
</g>
</svg>
