<?xml version="1.0" encoding="utf-8"?>
<!-- Generator: Adobe Illustrator 18.1.1, SVG Export Plug-In . SVG Version: 6.00 Build 0)  -->
<svg version="1.1" id="Layer_1" xmlns="http://www.w3.org/2000/svg" xmlns:xlink="http://www.w3.org/1999/xlink" x="0px" y="0px"
	 viewBox="0 0 346 112.5" enable-background="new 0 0 346 112.5" xml:space="preserve">
<g>
	<path fill="none" d="M62.4,24.5c-3.5,0.2-6.9,0.3-10.2,0.3c-3.9,0-7.8,0-11.4-0.2c-3.7-0.1-7.2-0.4-10.4-0.7
		c-3.3-0.3-6.2-0.7-8.7-1.2c-0.1,0-0.2,0-0.3-0.1c-0.3,0.6-0.6,1.3-0.9,1.9c-0.5,1.2-1,2.4-1.5,3.7c2.6,0.4,5.7,0.8,9,1
		c3.5,0.3,7.4,0.5,11.4,0.6c4,0.1,8.2,0.2,12.5,0.1c3.6,0,7.2-0.1,10.9-0.3c-0.1-1-0.1-1.9-0.2-2.9C62.5,26.1,62.5,25.3,62.4,24.5z"
		/>
	<path fill="#8FA6C6" d="M89.2,10.2c-0.5-0.3-1.1-0.8-1.6-1.1c0,0-0.1,0-0.1-0.1c0.6,0.4,1.3,0.9,2.1,1.5
		C89.5,10.5,89.4,10.4,89.2,10.2z"/>
	<path fill="#8FA6C6" d="M86.6,8.5c0.3,0.2,0.6,0.4,0.9,0.6C87.2,8.9,86.9,8.7,86.6,8.5z"/>
	<path fill="#8FA6C6" d="M38.5,2.9c0.4-0.1,0.8-0.3,1.1-0.4C39.3,2.7,38.9,2.8,38.5,2.9z"/>
	<path fill="#8FA6C6" d="M93.8,13.8c0.4,0.3,0.7,0.6,1.1,1C94.6,14.5,94.2,14.2,93.8,13.8z"/>
	<path fill="#8FA6C6" d="M92.2,12.5c-0.7-0.5-0.9-0.8-1.7-1.3C91.1,11.6,91.7,12.1,92.2,12.5C92.3,12.6,92.3,12.5,92.2,12.5z"/>
	<path fill="#8FA6C6" d="M34.6,4.4c0.3-0.1,0.6-0.3,1-0.4C35.2,4.1,34.9,4.3,34.6,4.4z"/>
	<path fill="#8FA6C6" d="M85.6,7.9C85.7,8,85.7,8,85.8,8C85.7,8,85.7,8,85.6,7.9z"/>
	<path fill="#8FA6C6" d="M92.7,12.9c0.3,0.3,0.7,0.6,1.1,0.9C93.4,13.5,93.1,13.2,92.7,12.9z"/>
	<path fill="#8FA6C6" d="M36.7,3.6c0.3-0.1,0.6-0.2,1-0.4C37.3,3.4,37,3.5,36.7,3.6z"/>
	<path fill="#8FA6C6" d="M83.3,6.6c0,0,0.1,0,0.1,0.1C83.4,6.7,83.3,6.7,83.3,6.6z"/>
	<path fill="#8FA6C6" d="M71.1,1.9c1.6,0.4,3.3,1,5.1,1.6C74.9,3,73.2,2.4,71.1,1.9z"/>
	<path fill="#8FA6C6" d="M58.1,0c0.1,0,0.2,0,0.4,0C58.3,0,58.2,0,58.1,0z"/>
	<path fill="#8FA6C6" d="M69.5,1.5c0.2,0.1,0.4,0.1,0.7,0.2C69.9,1.6,69.7,1.5,69.5,1.5z"/>
	<path fill="#8FA6C6" d="M56.4,0C56.4,0,56.4,0,56.4,0C56.3,0,56.3,0,56.4,0c-0.1,0-0.1,0-0.1,0c0.1,0,0.3,0,0.4,0
		C56.6,0,56.5,0,56.4,0C56.4,0,56.4,0,56.4,0z"/>
	<path fill="#8FA6C6" d="M65.1,0.6c0.3,0,0.6,0.1,0.9,0.1C65.8,0.7,65.5,0.7,65.1,0.6z"/>
	<path fill="#8FA6C6" d="M76.6,3.6C77,3.8,77.5,4,77.9,4.1C77.5,4,77.1,3.8,76.6,3.6z"/>
	<path fill="#8FA6C6" d="M78.8,4.5c-0.1,0-0.1,0-0.2-0.1c1.3,0.5,2.7,1.2,4,1.9C81.3,5.6,80,5,78.8,4.5z"/>
	<path fill="#8FA6C6" d="M95.6,15.4c0.4,0.3,0.7,0.7,1.1,1C96.2,16.1,95.9,15.7,95.6,15.4z"/>
	<path fill="#8FA6C6" d="M67.6,1.1c-0.4-0.1-0.9-0.2-1.4-0.3C66.7,0.9,67.2,1,67.6,1.1C67.7,1.1,67.6,1.1,67.6,1.1z"/>
	<path fill="#8FA6C6" d="M40.4,2.3c0.4-0.1,0.9-0.3,1.4-0.4C41.3,2.1,40.9,2.2,40.4,2.3z"/>
	<path fill="#8FA6C6" d="M42.4,1.8c0.6-0.2,1.3-0.3,1.9-0.5C43.7,1.5,43,1.6,42.4,1.8z"/>
	<path fill="#8FA6C6" d="M22.8,11.1c0.4-0.3,0.9-0.7,1.4-1C23.6,10.5,23.2,10.8,22.8,11.1z"/>
	<path fill="#8FA6C6" d="M22.2,11.5c0.1-0.1,0.3-0.2,0.4-0.3C22.5,11.3,22.4,11.4,22.2,11.5z"/>
	<path fill="#8FA6C6" d="M25.5,9.2c0.1-0.1,0.2-0.1,0.3-0.2C25.7,9.1,25.6,9.1,25.5,9.2z"/>
	<path fill="#8FA6C6" d="M24.3,10c0.2-0.2,0.4-0.3,0.7-0.5C24.7,9.7,24.5,9.9,24.3,10z"/>
	<path fill="#8FA6C6" d="M21.7,11.9C21.7,11.9,21.7,11.9,21.7,11.9c0.1-0.1,0.2-0.2,0.3-0.3C21.9,11.8,21.8,11.9,21.7,11.9z"/>
	<path fill="#8FA6C6" d="M14.7,18.3c0.5-0.5,0.9-0.9,1.2-1.2C15.6,17.5,15.2,17.9,14.7,18.3z"/>
	<path fill="#8FA6C6" d="M17.6,15.4c0.5-0.5,0.9-0.8,1.3-1.1C18.5,14.6,18.1,15,17.6,15.4z"/>
	<path fill="#8FA6C6" d="M20.2,13.1c0.3-0.3,0.7-0.6,1.2-1C21,12.5,20.6,12.8,20.2,13.1z"/>
	<path fill="#8FA6C6" d="M22.5,20.4c-0.4,0.8-0.8,1.5-1.2,2.3c0.1,0,0.2,0,0.3,0.1c2.5,0.5,5.4,0.9,8.7,1.2
		c3.2,0.3,6.7,0.5,10.4,0.7c3.6,0.1,7.5,0.2,11.4,0.2c3.3,0,6.8-0.1,10.2-0.3c-0.1-0.8-0.2-1.6-0.2-2.4c-0.2-1.5-0.3-3-0.5-4.4
		c5.6,0,10.9,0.1,15.7,0.3c4.7,0.2,8.9,0.6,12.5,1c1.6,0.2,3.1,0.4,4.4,0.7c1.3-0.6,2.2-1.1,2.6-1.7c0.1-0.1,0.2-0.3,0.2-0.4
		c0-0.1,0-0.3,0-0.4c0-0.1-0.1-0.3-0.1-0.4c-0.1-0.1-0.2-0.3-0.3-0.4c-0.6-0.6-1.9-1.2-3.8-1.8c-1.9-0.6-4.5-1.1-7.5-1.5
		c-3.1-0.4-6.8-0.8-10.9-1c-4.1-0.2-8.7-0.4-13.5-0.3c-0.3-2-0.7-3.7-1-5.2c-0.1-0.6-0.3-1.2-0.5-1.7C58.8,4.9,58.3,5,57.7,5
		c-1.3,0.1-2.5,0.2-3.8,0.2c-1.2,0-2.4,0-3.6-0.1c-1.1-0.1-2.2-0.2-3.1-0.3c-0.9-0.2-1.8-0.4-2.4-0.6c-0.7-0.2-1.1-0.5-1.3-0.8
		c-0.2-0.3-0.2-0.6,0-0.9c0.2-0.3,0.7-0.6,1.3-0.9c0.7-0.3,1.5-0.5,2.6-0.8c-0.3,0-0.5,0-0.8,0.1S46.1,1,45.9,1
		c-0.3,0-0.5,0.1-0.8,0.1c-0.3,0-0.5,0.1-0.8,0.2C42.6,1.7,41,2.2,39.5,3c-1.6,0.7-3.2,1.6-4.7,2.7c-1.5,1.1-3,2.4-4.5,3.8
		c-1.4,1.5-2.8,3.1-4.1,4.9c-1.6,0.3-3.1,0.6-4.4,0.9c-1.3,0.3-2.4,0.6-3.4,1c-0.9,0.3-1.7,0.7-2.3,1c-0.6,0.3-1.1,0.6-1.3,1
		c-0.4,0.4-0.5,0.8-0.4,1.3c0.1,0.4,0.5,0.8,1.1,1.2c0.4,0.2,0.9,0.5,1.4,0.7c0.2,0,0.3-0.1,0.5-0.1C18.9,21,20.6,20.7,22.5,20.4z"
		/>
	<path fill="#8FA6C6" d="M28.2,7.6c-0.1,0-0.1,0.1-0.2,0.1c0.3-0.2,0.6-0.3,0.9-0.5C28.7,7.3,28.5,7.4,28.2,7.6z"/>
	<path fill="#8FA6C6" d="M32.3,5.4c0.4-0.2,0.8-0.4,1.1-0.5C33.1,5,32.7,5.2,32.3,5.4z"/>
	<path fill="#8FA6C6" d="M30.2,6.5c0.4-0.2,0.8-0.4,1.3-0.6C31,6.1,30.6,6.3,30.2,6.5z"/>
	<path fill="#3D6C98" d="M22,11.7c0.1,0,0.1-0.1,0.2-0.2C22.2,11.6,22.1,11.6,22,11.7z"/>
	<path fill="#3D6C98" d="M35.5,4c0.4-0.2,0.7-0.3,1.1-0.4C36.3,3.7,35.9,3.9,35.5,4z"/>
	<path fill="#3D6C98" d="M37.6,3.2c0.3-0.1,0.6-0.2,0.9-0.3C38.2,3,37.9,3.1,37.6,3.2z"/>
	<path fill="#3D6C98" d="M31.4,5.9c0.3-0.2,0.6-0.3,0.9-0.5C32,5.6,31.7,5.7,31.4,5.9z"/>
	<path fill="#3D6C98" d="M18.9,14.2c0.5-0.4,0.9-0.8,1.3-1.1C19.7,13.5,19.3,13.9,18.9,14.2z"/>
	<path fill="#3D6C98" d="M21.6,12c-0.1,0.1-0.2,0.1-0.2,0.2C21.5,12.1,21.6,12,21.6,12C21.7,11.9,21.6,12,21.6,12z"/>
	<path fill="#3D6C98" d="M27.9,7.7c-0.7,0.4-1.4,0.9-2.1,1.3c0.7-0.4,1.4-0.9,2.2-1.4C28,7.7,28,7.7,27.9,7.7z"/>
	<path fill="#3D6C98" d="M25,9.6c0.2-0.1,0.4-0.2,0.6-0.4C25.3,9.3,25.1,9.4,25,9.6z"/>
	<path fill="#3D6C98" d="M33.5,4.9c0.4-0.2,0.7-0.3,1.1-0.5C34.2,4.6,33.8,4.7,33.5,4.9z"/>
	<path fill="#3D6C98" d="M24.2,10.1C24.2,10.1,24.3,10,24.2,10.1C24.3,10,24.2,10.1,24.2,10.1z"/>
	<path fill="#3D6C98" d="M22.7,11.2C22.7,11.2,22.7,11.1,22.7,11.2C22.7,11.1,22.7,11.2,22.7,11.2z"/>
	<path fill="#3D6C98" d="M41.8,2c0.2-0.1,0.4-0.1,0.6-0.2C42.2,1.9,42,1.9,41.8,2z"/>
	<path fill="#3D6C98" d="M28.9,7.2c0.4-0.2,0.8-0.5,1.2-0.7C29.8,6.7,29.3,6.9,28.9,7.2z"/>
	<path fill="#3D6C98" d="M39.7,2.6c0.2-0.1,0.5-0.1,0.7-0.2C40.2,2.4,39.9,2.5,39.7,2.6z"/>
	<path fill="#3D6C98" d="M17.6,15.4c0,0-0.1,0.1-0.1,0.1c-0.6,0.5-0.9,0.9-1.6,1.6C16.5,16.4,17.1,15.9,17.6,15.4z"/>
	<path fill="#8FA6C6" d="M18.4,16.4c1-0.3,2.1-0.7,3.4-1c1.3-0.3,2.8-0.6,4.4-0.9c1.3-1.8,2.7-3.4,4.1-4.9c1.4-1.5,2.9-2.7,4.5-3.8
		c1.5-1.1,3.1-2,4.7-2.7c1.6-0.7,3.2-1.3,4.8-1.6c-0.7,0.1-1.3,0.3-1.9,0.5C42.2,1.9,42,1.9,41.8,2c-0.5,0.1-0.9,0.2-1.4,0.4
		c-0.2,0.1-0.5,0.1-0.7,0.2c-0.4,0.1-0.8,0.2-1.1,0.4c-0.3,0.1-0.6,0.2-0.9,0.3c-0.3,0.1-0.6,0.2-1,0.4c-0.4,0.1-0.7,0.3-1.1,0.4
		c-0.3,0.1-0.6,0.3-1,0.4c-0.4,0.1-0.7,0.3-1.1,0.5c-0.4,0.2-0.8,0.3-1.1,0.5c-0.3,0.1-0.6,0.3-0.9,0.5c-0.4,0.2-0.8,0.4-1.3,0.6
		c-0.4,0.2-0.8,0.4-1.2,0.7c-0.3,0.2-0.6,0.3-0.9,0.5c-0.8,0.5-1.5,0.9-2.2,1.4c-0.1,0.1-0.2,0.1-0.3,0.2c-0.2,0.1-0.4,0.3-0.6,0.4
		c-0.2,0.2-0.5,0.3-0.7,0.5c0,0-0.1,0-0.1,0.1c-0.5,0.4-1,0.7-1.4,1c0,0-0.1,0-0.1,0.1c-0.2,0.1-0.3,0.2-0.4,0.3
		c-0.1,0.1-0.1,0.1-0.2,0.2c-0.1,0.1-0.2,0.2-0.3,0.3c-0.1,0.1-0.2,0.2-0.3,0.2c-0.5,0.4-0.9,0.7-1.2,1c-0.4,0.3-0.8,0.7-1.3,1.1
		c-0.4,0.3-0.7,0.7-1.3,1.1c-0.5,0.5-1.1,1.1-1.7,1.7c-0.3,0.3-0.7,0.7-1.2,1.2c0.3-0.3,0.7-0.6,1.3-1C16.7,17,17.5,16.7,18.4,16.4z
		"/>
	<path fill="#234572" d="M18.4,16.4c1-0.3,2.1-0.7,3.4-1c1.3-0.3,2.8-0.6,4.4-0.9c1.3-1.8,2.7-3.4,4.1-4.9c1.4-1.5,2.9-2.7,4.5-3.8
		c1.5-1.1,3.1-2,4.7-2.7c1.6-0.7,3.2-1.3,4.8-1.6c-0.7,0.1-1.3,0.3-1.9,0.5C42.2,1.9,42,1.9,41.8,2c-0.5,0.1-0.9,0.2-1.4,0.4
		c-0.2,0.1-0.5,0.1-0.7,0.2c-0.4,0.1-0.8,0.2-1.1,0.4c-0.3,0.1-0.6,0.2-0.9,0.3c-0.3,0.1-0.6,0.2-1,0.4c-0.4,0.1-0.7,0.3-1.1,0.4
		c-0.3,0.1-0.6,0.3-1,0.4c-0.4,0.1-0.7,0.3-1.1,0.5c-0.4,0.2-0.8,0.3-1.1,0.5c-0.3,0.1-0.6,0.3-0.9,0.5c-0.4,0.2-0.8,0.4-1.3,0.6
		c-0.4,0.2-0.8,0.4-1.2,0.7c-0.3,0.2-0.6,0.3-0.9,0.5c-0.8,0.5-1.5,0.9-2.2,1.4c-0.1,0.1-0.2,0.1-0.3,0.2c-0.2,0.1-0.4,0.3-0.6,0.4
		c-0.2,0.2-0.5,0.3-0.7,0.5c0,0-0.1,0-0.1,0.1c-0.5,0.4-1,0.7-1.4,1c0,0-0.1,0-0.1,0.1c-0.2,0.1-0.3,0.2-0.4,0.3
		c-0.1,0.1-0.1,0.1-0.2,0.2c-0.1,0.1-0.2,0.2-0.3,0.3c-0.1,0.1-0.2,0.2-0.3,0.2c-0.5,0.4-0.9,0.7-1.2,1c-0.4,0.3-0.8,0.7-1.3,1.1
		c-0.4,0.3-0.7,0.7-1.3,1.1c-0.5,0.5-1.1,1.1-1.7,1.7c-0.3,0.3-0.7,0.7-1.2,1.2c0.3-0.3,0.7-0.6,1.3-1C16.7,17,17.5,16.7,18.4,16.4z
		"/>
	<path fill="#3D6C98" d="M89.7,10.6c0.4,0.3,0.7,0.5,0.9,0.7C90.3,11,90,10.8,89.7,10.6z"/>
	<path fill="#3D6C98" d="M92.3,12.6c0.1,0.1,0.2,0.2,0.3,0.3C92.6,12.8,92.4,12.7,92.3,12.6z"/>
	<path fill="#3D6C98" d="M87.5,9.1C87.5,9.1,87.5,9.1,87.5,9.1C87.5,9.1,87.5,9.1,87.5,9.1C87.5,9.1,87.5,9.1,87.5,9.1z"/>
	<path fill="#3D6C98" d="M85.8,8c0.3,0.2,0.5,0.3,0.8,0.5C86.3,8.4,86.1,8.2,85.8,8z"/>
	<path fill="#3D6C98" d="M93.7,13.8c0,0,0.1,0.1,0.1,0.1C93.8,13.8,93.8,13.8,93.7,13.8z"/>
	<path fill="#3D6C98" d="M66.1,0.8c0.1,0,0.1,0,0.2,0C66.2,0.8,66.1,0.8,66.1,0.8z"/>
	<path fill="#3D6C98" d="M95,14.8c0.2,0.2,0.4,0.4,0.6,0.6C95.4,15.2,95.2,15,95,14.8z"/>
	<path fill="#3D6C98" d="M67.7,1.1c0.6,0.1,1.2,0.3,1.8,0.4C68.9,1.3,68.3,1.2,67.7,1.1z"/>
	<path fill="#3D6C98" d="M70.2,1.6c0.3,0.1,0.7,0.2,1,0.2C70.8,1.8,70.5,1.7,70.2,1.6z"/>
	<path fill="#3D6C98" d="M56.4,0c0.6,0,1.1,0,1.7,0C57.5,0,56.9,0,56.4,0z"/>
	<path fill="#3D6C98" d="M58.5,0c2.6,0.1,4.9,0.3,6.7,0.6C62.4,0.2,60.1,0.1,58.5,0z"/>
	<path fill="#3D6C98" d="M63.9,3.9c0.8-0.2,1.4-0.5,1.8-0.8c0.4-0.3,0.6-0.6,0.6-0.9c0-0.3-0.3-0.6-0.8-0.9
		c-0.5-0.3-1.2-0.5-2.1-0.7c-0.9-0.2-2-0.4-3.2-0.5C59.1,0.1,57.9,0,56.6,0c0.3,0.1,0.6,0.3,0.9,0.7c0.4,0.5,0.8,1.2,1.1,2.2
		c0.2,0.6,0.4,1.2,0.6,2c0.7-0.1,1.3-0.2,1.9-0.3C62.3,4.4,63.2,4.2,63.9,3.9z"/>
	<path fill="#3D6C98" d="M82.7,6.3c0.2,0.1,0.4,0.2,0.6,0.3C83.1,6.5,82.9,6.4,82.7,6.3z"/>
	<path fill="#3D6C98" d="M78.3,4.3c-0.1-0.1-0.2-0.1-0.4-0.1c0.3,0.1,0.5,0.2,0.7,0.3C78.6,4.4,78.4,4.3,78.3,4.3z"/>
	<path fill="#3D6C98" d="M83.4,6.7c0.8,0.4,1.5,0.8,2.2,1.2C84.9,7.5,84.2,7.1,83.4,6.7z"/>
	<path fill="#3D6C98" d="M76.3,3.5c0.1,0,0.2,0.1,0.4,0.1C76.5,3.6,76.4,3.5,76.3,3.5z"/>
	<path fill="#8FA6C6" d="M60.8,11.8c4.8,0,9.4,0.1,13.5,0.3c4.1,0.2,7.8,0.6,10.9,1c3.1,0.4,5.6,0.9,7.5,1.5
		c1.9,0.5,3.2,1.2,3.8,1.8c-0.4-0.4-0.7-0.7-1.1-1c-0.2-0.2-0.4-0.4-0.6-0.6c-0.4-0.3-0.8-0.7-1.1-1c0,0-0.1-0.1-0.1-0.1
		c-0.4-0.3-0.7-0.6-1.1-0.9c-0.1-0.1-0.2-0.2-0.3-0.3c-0.6-0.5-1.2-0.9-1.7-1.3c-0.2-0.2-0.5-0.4-0.9-0.7c-0.8-0.6-1.5-1.1-2.1-1.5
		c0,0,0,0-0.1,0c-0.3-0.2-0.6-0.4-0.9-0.6c-0.2-0.2-0.5-0.3-0.8-0.5c-0.1,0-0.1-0.1-0.2-0.1c-0.7-0.4-1.4-0.8-2.2-1.2
		c0,0-0.1,0-0.1-0.1c-0.2-0.1-0.4-0.2-0.6-0.3c-1.3-0.7-2.7-1.3-4-1.9c-0.2-0.1-0.5-0.2-0.7-0.3C77.5,4,77,3.8,76.6,3.6
		c-0.1,0-0.2-0.1-0.4-0.1c-1.8-0.7-3.5-1.2-5.1-1.6c-0.3-0.1-0.6-0.2-1-0.2c-0.2-0.1-0.4-0.1-0.7-0.2c-0.6-0.1-1.2-0.3-1.8-0.4
		c-0.5-0.1-1-0.2-1.4-0.3c-0.1,0-0.1,0-0.2,0c-0.3-0.1-0.6-0.1-0.9-0.1c-1.8-0.3-4.1-0.5-6.7-0.6c-0.1,0-0.2,0-0.4,0
		c-0.5,0-1.1,0-1.7,0c0.1,0,0.1,0,0.2,0c1.3,0,2.5,0.1,3.6,0.2c1.2,0.1,2.3,0.3,3.2,0.5c0.9,0.2,1.6,0.4,2.1,0.7
		c0.5,0.3,0.8,0.6,0.8,0.9c0,0.3-0.2,0.6-0.6,0.9c-0.4,0.3-1,0.6-1.8,0.8c-0.8,0.2-1.7,0.5-2.7,0.7c-0.6,0.1-1.2,0.2-1.9,0.3
		c0.2,0.5,0.3,1.1,0.5,1.7C60.2,8.1,60.5,9.8,60.8,11.8z"/>
	<path fill="#234572" d="M60.8,11.8c4.8,0,9.4,0.1,13.5,0.3c4.1,0.2,7.8,0.6,10.9,1c3.1,0.4,5.6,0.9,7.5,1.5
		c1.9,0.5,3.2,1.2,3.8,1.8c-0.4-0.4-0.7-0.7-1.1-1c-0.2-0.2-0.4-0.4-0.6-0.6c-0.4-0.3-0.8-0.7-1.1-1c0,0-0.1-0.1-0.1-0.1
		c-0.4-0.3-0.7-0.6-1.1-0.9c-0.1-0.1-0.2-0.2-0.3-0.3c-0.6-0.5-1.2-0.9-1.7-1.3c-0.2-0.2-0.5-0.4-0.9-0.7c-0.8-0.6-1.5-1.1-2.1-1.5
		c0,0,0,0-0.1,0c-0.3-0.2-0.6-0.4-0.9-0.6c-0.2-0.2-0.5-0.3-0.8-0.5c-0.1,0-0.1-0.1-0.2-0.1c-0.7-0.4-1.4-0.8-2.2-1.2
		c0,0-0.1,0-0.1-0.1c-0.2-0.1-0.4-0.2-0.6-0.3c-1.3-0.7-2.7-1.3-4-1.9c-0.2-0.1-0.5-0.2-0.7-0.3C77.5,4,77,3.8,76.6,3.6
		c-0.1,0-0.2-0.1-0.4-0.1c-1.8-0.7-3.5-1.2-5.1-1.6c-0.3-0.1-0.6-0.2-1-0.2c-0.2-0.1-0.4-0.1-0.7-0.2c-0.6-0.1-1.2-0.3-1.8-0.4
		c-0.5-0.1-1-0.2-1.4-0.3c-0.1,0-0.1,0-0.2,0c-0.3-0.1-0.6-0.1-0.9-0.1c-1.8-0.3-4.1-0.5-6.7-0.6c-0.1,0-0.2,0-0.4,0
		c-0.5,0-1.1,0-1.7,0c0.1,0,0.1,0,0.2,0c1.3,0,2.5,0.1,3.6,0.2c1.2,0.1,2.3,0.3,3.2,0.5c0.9,0.2,1.6,0.4,2.1,0.7
		c0.5,0.3,0.8,0.6,0.8,0.9c0,0.3-0.2,0.6-0.6,0.9c-0.4,0.3-1,0.6-1.8,0.8c-0.8,0.2-1.7,0.5-2.7,0.7c-0.6,0.1-1.2,0.2-1.9,0.3
		c0.2,0.5,0.3,1.1,0.5,1.7C60.2,8.1,60.5,9.8,60.8,11.8z"/>
	<path fill="#8FA6C6" d="M2.1,40.7c0,0.1-0.1,0.3-0.1,0.4c0.2-0.5,0.3-1.1,0.4-1.5C2.2,40.2,2.2,40.3,2.1,40.7z"/>
	<path fill="#8FA6C6" d="M6,30.8c1.2-2.3,2.3-4.1,3.1-5.3C8.3,26.8,7.2,28.6,6,30.8z"/>
	<path fill="#8FA6C6" d="M104.5,26.2c0,0.1,0.1,0.1,0.1,0.2C104.6,26.3,104.6,26.3,104.5,26.2z"/>
	<path fill="#8FA6C6" d="M107.7,39.4c-2.1-0.3-5.3-0.6-9.4-0.9c-4.2-0.3-9.3-0.5-15.2-0.6c-6-0.1-12.7-0.2-19.8-0.2
		c-0.1-1.9-0.2-3.8-0.3-5.6c-0.1-0.8-0.1-1.6-0.2-2.3c-3.7,0.1-7.3,0.2-10.9,0.3c-4.3,0-8.5,0-12.5-0.1c-4-0.1-7.9-0.3-11.4-0.6
		c-3.3-0.3-6.3-0.6-9-1c-0.1,0.3-0.2,0.6-0.3,0.9c-0.6,1.6-1.1,3.2-1.5,4.9c-0.5,1.7-0.9,3.4-1.2,5.2c-2.4,0.2-4.5,0.4-6.3,0.6
		c-1.7,0.2-3.2,0.4-4.3,0.6c-1.1,0.2-2,0.4-2.5,0.6c-0.6,0.2-0.9,0.4-0.9,0.6C1.8,41.8,2,42,2.5,42.2c0.5,0.2,1.2,0.3,2.1,0.5
		c0.9,0.2,2.1,0.3,3.5,0.5c1.3,0.1,2.9,0.3,4.7,0.4c3.3,0.2,7.2,0.4,11.3,0.6c4.1,0.1,8.5,0.2,13.1,0.3c4.6,0.1,9.4,0.1,14.3,0
		c4.9,0,10-0.1,15.1-0.2c5.2-0.1,10.1-0.3,14.7-0.5c4.7-0.2,9-0.4,12.8-0.7c4-0.3,7.4-0.6,10.2-0.9c2.9-0.3,5-0.7,6-1.1
		c0.1,0,0.2-0.1,0.3-0.1c0.1,0,0.2-0.1,0.2-0.1c0.1,0,0.1-0.1,0.1-0.1c0,0,0-0.1,0-0.1C110.9,40.1,109.8,39.7,107.7,39.4z"/>
	<path fill="#8FA6C6" d="M3.4,36.8c0,0.1-0.1,0.2-0.1,0.2c-0.1,0.1-0.3,0.8-0.5,1.4c0.1-0.2,0.1-0.3,0.2-0.5
		C3.1,37.6,3.3,37.2,3.4,36.8z"/>
	<path fill="#3D6C98" d="M10,25.4c0.2,0.4,0.7,0.7,1.5,1c0.7,0.3,1.7,0.6,2.8,0.9c1.1,0.3,2.5,0.6,4.1,0.8c0.2,0,0.5,0.1,0.7,0.1
		c0.5-1.3,1-2.5,1.5-3.7c0.3-0.6,0.6-1.3,0.9-1.9c-1.3-0.3-2.5-0.6-3.4-0.9c-0.4-0.1-0.7-0.2-1-0.4c-1.2,0.3-2.3,0.6-3.2,0.9
		c-1,0.3-1.8,0.7-2.4,1c-0.6,0.3-1,0.6-1.2,1C9.7,24.6,9.7,25,10,25.4z"/>
	<path fill="#8FA6C6" d="M21.4,22.7c0.4-0.8,0.8-1.6,1.2-2.3c-1.9,0.3-3.6,0.6-5.1,1c-0.2,0-0.3,0.1-0.5,0.1c0.3,0.1,0.7,0.3,1,0.4
		C18.9,22.1,20,22.4,21.4,22.7z"/>
	<path fill="#234572" d="M21.4,22.7c0.4-0.8,0.8-1.6,1.2-2.3c-1.9,0.3-3.6,0.6-5.1,1c-0.2,0-0.3,0.1-0.5,0.1c0.3,0.1,0.7,0.3,1,0.4
		C18.9,22.1,20,22.4,21.4,22.7z"/>
	<path fill="#3D6C98" d="M5.8,31.2c-0.2,0.4-0.4,0.9-0.7,1.4c-0.3,0.6-0.5,1.2-0.8,1.8c0,0.1-0.1,0.2-0.1,0.3c0.3-0.7,0.6-1.3,0.9-2
		C5.4,32.1,5.6,31.7,5.8,31.2z"/>
	<path fill="#3D6C98" d="M2.8,38.4c-0.1,0.3-0.2,0.7-0.4,1.2c0.1-0.2,0.1-0.4,0.2-0.7C2.7,38.7,2.8,38.5,2.8,38.4z"/>
	<path fill="#3D6C98" d="M3.7,36.1c-0.1,0.2-0.2,0.4-0.2,0.7c0.2-0.5,0.4-1,0.6-1.6C3.9,35.5,3.8,35.8,3.7,36.1z"/>
	<path fill="#8FA6C6" d="M2.8,41.1c0.6-0.2,1.4-0.4,2.5-0.6c1.1-0.2,2.6-0.4,4.3-0.6c1.8-0.2,3.9-0.4,6.3-0.6
		c0.4-1.8,0.8-3.5,1.2-5.2c0.5-1.7,1-3.3,1.5-4.9c0.1-0.3,0.2-0.6,0.3-0.9c-0.2,0-0.5-0.1-0.7-0.1c-1.6-0.3-2.9-0.5-4.1-0.8
		c-1.2-0.3-2.1-0.6-2.8-0.9c-0.7-0.3-1.2-0.7-1.5-1c-0.3-0.4-0.3-0.7,0-1.1c-0.1,0.2-0.2,0.4-0.4,0.6c-0.1,0.1-0.2,0.2-0.2,0.3
		c-0.1,0.1-0.1,0.2-0.2,0.3c-0.8,1.2-1.9,3.1-3.1,5.3c0,0.1-0.1,0.2-0.1,0.3c0,0,0,0.1-0.1,0.1c-0.2,0.4-0.4,0.9-0.7,1.4
		c-0.3,0.7-0.6,1.4-0.9,2C4.2,34.8,4.1,35,4,35.2c-0.2,0.5-0.4,1-0.6,1.6c-0.1,0.4-0.3,0.8-0.4,1.1c0,0.1-0.1,0.3-0.2,0.5
		c-0.1,0.2-0.1,0.3-0.2,0.5c-0.1,0.3-0.2,0.6-0.2,0.7c-0.1,0.4-0.3,1-0.4,1.5c-0.1,0.2-0.1,0.4-0.2,0.5C1.9,41.4,2.2,41.3,2.8,41.1z
		"/>
	<path fill="#234572" d="M2.8,41.1c0.6-0.2,1.4-0.4,2.5-0.6c1.2-0.2,2.6-0.4,4.4-0.6c1.8-0.2,3.9-0.4,6.4-0.6
		c0.4-1.8,0.8-3.5,1.2-5.2c0.5-1.7,1-3.3,1.5-4.9c0.1-0.3,0.2-0.6,0.3-0.9c-0.2,0-0.5-0.1-0.7-0.1c-1.6-0.3-2.9-0.5-4.1-0.8
		c-1.2-0.3-2.1-0.6-2.8-0.9c-0.7-0.3-1.2-0.7-1.5-1c-0.3-0.4-0.3-0.7,0-1.1c-0.1,0.2-0.2,0.4-0.4,0.6c-0.1,0.1-0.2,0.2-0.2,0.3
		c-0.1,0.1-0.1,0.2-0.2,0.3c-0.8,1.2-2,3.1-3.1,5.3C6,30.9,6,31,5.9,31.1c0,0,0,0.1-0.1,0.1c-0.2,0.4-0.4,0.9-0.7,1.4
		c-0.3,0.7-0.6,1.4-0.9,2C4.2,34.8,4.1,35,4,35.2c-0.2,0.5-0.4,1-0.6,1.6c-0.1,0.4-0.3,0.8-0.4,1.1c0,0.1-0.1,0.3-0.2,0.5
		c-0.1,0.2-0.1,0.3-0.2,0.5c-0.1,0.3-0.2,0.6-0.2,0.7c-0.1,0.4-0.3,1-0.4,1.5c-0.1,0.2-0.1,0.4-0.2,0.5C1.9,41.4,2.2,41.3,2.8,41.1z
		"/>
	<path fill="#3D6C98" d="M109.5,35.9c0.8,2,1.3,3.6,1.6,4.5C111,40.4,110.5,38.6,109.5,35.9z"/>
	<path fill="#3D6C98" d="M107.3,31c-0.1-0.1-0.1-0.2-0.2-0.3c0.3,0.5,0.5,1,0.7,1.5C107.6,31.7,107.4,31.4,107.3,31z"/>
	<path fill="#3D6C98" d="M101.9,22.4c0.2,0.3,0.4,0.6,0.6,0.8C102.3,23,102.1,22.7,101.9,22.4z"/>
	<path fill="#3D6C98" d="M85.7,22.1c-2.9,0.5-6.2,1-9.8,1.4c-3.6,0.4-7.4,0.7-11.6,0.9c-0.6,0-1.2,0.1-1.8,0.1
		c0.1,0.8,0.1,1.6,0.2,2.4c0.1,0.9,0.1,1.9,0.2,2.9c0.8,0,1.5,0,2.3-0.1c4.5-0.2,8.8-0.5,12.7-0.9c4-0.4,7.7-0.8,10.9-1.3
		c3.3-0.5,6.2-1.1,8.4-1.7c2.3-0.6,3.9-1.4,4.6-2.1c0.1-0.1,0.2-0.2,0.2-0.3c0.1-0.1,0.1-0.2,0.1-0.3c0-0.1,0-0.2,0-0.3
		s-0.1-0.2-0.2-0.3c-0.5-0.6-1.7-1.2-3.7-1.8c-1.1-0.3-2.4-0.6-3.9-0.8c-0.4,0.2-0.8,0.3-1.3,0.5C91.1,20.9,88.6,21.6,85.7,22.1z"/>
	<path fill="#8FA6C6" d="M77.4,18.1c-4.8-0.2-10.1-0.4-15.7-0.3c0.2,1.4,0.3,2.8,0.5,4.4c0.1,0.8,0.2,1.6,0.2,2.4
		c0.6,0,1.2,0,1.8-0.1c4.1-0.2,8-0.5,11.6-0.9c3.6-0.4,7-0.9,9.8-1.4c3-0.6,5.5-1.2,7.4-1.8c0.5-0.2,0.9-0.3,1.3-0.5
		c-1.3-0.2-2.8-0.5-4.4-0.7C86.4,18.7,82.2,18.3,77.4,18.1z"/>
	<path fill="#234572" d="M77.4,18.1c-4.8-0.2-10.1-0.4-15.7-0.3c0.2,1.4,0.3,2.8,0.5,4.4c0.1,0.8,0.2,1.6,0.2,2.4
		c0.6,0,1.2,0,1.8-0.1c4.1-0.2,8-0.5,11.6-0.9c3.6-0.4,7-0.9,9.8-1.4c3-0.6,5.5-1.2,7.4-1.8c0.5-0.2,0.9-0.3,1.3-0.5
		c-1.3-0.2-2.8-0.5-4.4-0.7C86.4,18.7,82.2,18.3,77.4,18.1z"/>
	<path fill="#8FA6C6" d="M102.1,23.1c0,0.1,0,0.2-0.1,0.3c-0.1,0.1-0.1,0.2-0.2,0.3c-0.7,0.7-2.3,1.4-4.6,2.1
		c-2.2,0.6-5.1,1.2-8.4,1.7c-3.2,0.5-6.9,0.9-10.9,1.3c-3.9,0.4-8.2,0.6-12.7,0.9c-0.8,0-1.5,0.1-2.3,0.1c0.1,0.8,0.1,1.5,0.2,2.3
		c0.1,1.8,0.2,3.7,0.3,5.6c7.2,0,13.8,0,19.8,0.2c5.9,0.1,11,0.3,15.2,0.6c4.1,0.3,7.2,0.5,9.4,0.9c2.1,0.3,3.2,0.7,3.3,1
		c-0.3-0.9-0.8-2.5-1.6-4.5c0-0.1-0.1-0.2-0.1-0.4c-0.1-0.2-0.1-0.3-0.2-0.5c-0.1-0.2-0.2-0.5-0.3-0.8c-0.1-0.2-0.2-0.4-0.3-0.6
		c-0.1-0.1-0.1-0.3-0.2-0.4c-0.1-0.3-0.2-0.5-0.4-0.8c0-0.1-0.1-0.2-0.1-0.3c-0.2-0.5-0.5-1-0.7-1.5c-0.2-0.4-0.4-0.8-0.6-1.1
		c-0.1-0.2-0.2-0.4-0.3-0.5c-0.2-0.3-0.3-0.6-0.5-0.9c0-0.1-0.1-0.2-0.1-0.2c-0.3-0.5-0.6-1-0.9-1.4c0-0.1-0.1-0.1-0.1-0.2
		c-0.3-0.5-0.7-1-1-1.6c0,0,0,0,0,0c-0.3-0.5-0.6-0.9-1-1.4c-0.2-0.3-0.4-0.6-0.6-0.8c0.1,0.1,0.1,0.2,0.2,0.3S102.1,23,102.1,23.1z
		"/>
	<path fill="#234572" d="M102.1,23.1c0,0.1,0,0.2-0.1,0.3c-0.1,0.1-0.1,0.2-0.2,0.3c-0.7,0.7-2.3,1.4-4.6,2.1
		c-2.2,0.6-5.1,1.2-8.4,1.7c-3.2,0.5-6.9,0.9-10.9,1.3c-3.9,0.4-8.2,0.6-12.7,0.9c-0.8,0-1.5,0.1-2.3,0.1c0.1,0.8,0.1,1.5,0.2,2.3
		c0.1,1.8,0.2,3.7,0.3,5.6c7.2,0,13.8,0,19.8,0.2c5.9,0.1,11,0.3,15.2,0.6c4.1,0.3,7.2,0.5,9.4,0.9c2.1,0.3,3.2,0.7,3.3,1
		c-0.3-0.9-0.8-2.5-1.6-4.5c0-0.1-0.1-0.2-0.1-0.4c-0.1-0.2-0.1-0.3-0.2-0.5c-0.1-0.2-0.2-0.5-0.3-0.8c-0.1-0.2-0.2-0.4-0.3-0.6
		c-0.1-0.1-0.1-0.3-0.2-0.4c-0.1-0.3-0.2-0.5-0.4-0.8c0-0.1-0.1-0.2-0.1-0.3c-0.2-0.5-0.5-1-0.7-1.5c-0.2-0.4-0.4-0.8-0.6-1.1
		c-0.1-0.2-0.2-0.4-0.3-0.5c-0.2-0.3-0.3-0.6-0.5-0.9c0-0.1-0.1-0.2-0.1-0.2c-0.3-0.5-0.6-1-0.9-1.4c0-0.1-0.1-0.1-0.1-0.2
		c-0.3-0.5-0.7-1-1-1.6c0,0,0,0,0,0c-0.3-0.5-0.6-0.9-1-1.4c-0.2-0.3-0.4-0.6-0.6-0.8c0.1,0.1,0.1,0.2,0.2,0.3S102.1,23,102.1,23.1z
		"/>
	<path fill="#8FA6C6" d="M102.5,23.3c0.3,0.5,0.7,0.9,1,1.4C103.1,24.1,102.8,23.7,102.5,23.3z"/>
	<path fill="#8FA6C6" d="M102.5,23.3c0.3,0.5,0.7,0.9,1,1.4C103.1,24.1,102.8,23.7,102.5,23.3z"/>
	<path fill="#3D6C98" d="M102.5,23.3c0.3,0.5,0.7,0.9,1,1.4C103.1,24.1,102.8,23.7,102.5,23.3z"/>
	<path fill="#8FA6C6" d="M103.5,24.6c0.4,0.5,0.7,1,1,1.6C104.1,25.6,103.8,25.1,103.5,24.6z"/>
	<path fill="#8FA6C6" d="M103.5,24.6c0.4,0.5,0.7,1,1,1.6C104.1,25.6,103.8,25.1,103.5,24.6z"/>
	<path fill="#3D6C98" d="M103.5,24.6c0.4,0.5,0.7,1,1,1.6C104.1,25.6,103.8,25.1,103.5,24.6z"/>
	<path fill="#8FA6C6" d="M104.6,26.4c0.3,0.5,0.6,1,0.9,1.4C105.2,27.3,104.9,26.8,104.6,26.4z"/>
	<path fill="#8FA6C6" d="M104.6,26.4c0.3,0.5,0.6,1,0.9,1.4C105.2,27.3,104.9,26.8,104.6,26.4z"/>
	<path fill="#3D6C98" d="M104.6,26.4c0.3,0.5,0.6,1,0.9,1.4C105.2,27.3,104.9,26.8,104.6,26.4z"/>
</g>
<g>
	<path fill="none" d="M39.4,81.8c-4.1,0.2-8,0.4-11.5,0.7c-3.3,0.3-6.4,0.7-9.1,1.1c0.5,1.3,1,2.6,1.5,3.8c0.3,0.6,0.5,1.2,0.8,1.7
		c0.1,0,0.2,0,0.3-0.1c2.5-0.5,5.5-1,8.8-1.3c3.2-0.3,6.8-0.6,10.5-0.8c3.7-0.2,7.6-0.3,11.6-0.2c3.4,0,6.9,0.1,10.4,0.2
		c0.1-0.7,0.1-1.4,0.2-2.2c0.1-1,0.1-2,0.2-3.1c-3.7-0.1-7.4-0.2-11-0.2C47.7,81.6,43.5,81.6,39.4,81.8z"/>
	<path fill="#8FA6C6" d="M69.4,111.1c-1,0.2-2.1,0.4-3.2,0.6C67.1,111.6,68.2,111.4,69.4,111.1z"/>
	<path fill="#8FA6C6" d="M66,111.8c-0.4,0.1-0.9,0.1-1.4,0.2C65,111.9,65.5,111.9,66,111.8z"/>
	<path fill="#8FA6C6" d="M64.2,112.1c-0.6,0.1-1.1,0.1-1.7,0.2C62.9,112.2,63.5,112.2,64.2,112.1z"/>
	<path fill="#8FA6C6" d="M70.9,110.8c-0.4,0.1-0.7,0.2-1.1,0.3C70.2,110.9,70.5,110.9,70.9,110.8z"/>
	<path fill="#8FA6C6" d="M75.5,109.3c-0.1,0-0.1,0-0.2,0.1C75.4,109.4,75.5,109.4,75.5,109.3z"/>
	<path fill="#8FA6C6" d="M72.4,110.3c0,0,0.1,0,0.1,0c-0.1,0-0.2,0-0.3,0.1C72.3,110.4,72.4,110.4,72.4,110.3z"/>
	<path fill="#8FA6C6" d="M74.2,109.8c-0.1,0-0.2,0.1-0.3,0.1C74,109.9,74.1,109.8,74.2,109.8z"/>
	<path fill="#8FA6C6" d="M36.1,108.7c1.6,0.6,4.1,1.5,7.5,2.3c-1.7-0.4-4.4-1.1-7.7-2.4C35.9,108.7,36,108.7,36.1,108.7z"/>
	<path fill="#8FA6C6" d="M28.4,105.1c0.1,0.1,0.3,0.2,0.5,0.3c-0.3-0.2-0.5-0.3-0.8-0.5C28.1,104.9,28.2,105,28.4,105.1z"/>
	<path fill="#8FA6C6" d="M22.1,101c-0.1,0-0.1-0.1-0.2-0.1C22,100.9,22.1,100.9,22.1,101z"/>
	<path fill="#8FA6C6" d="M29.7,105.8c-0.1-0.1-0.3-0.1-0.4-0.2C29.4,105.7,29.5,105.7,29.7,105.8z"/>
	<path fill="#8FA6C6" d="M35.2,108.4c-0.2-0.1-0.5-0.2-0.7-0.3C34.8,108.2,35,108.3,35.2,108.4z"/>
	<path fill="#8FA6C6" d="M33.4,107.7C33.4,107.6,33.4,107.6,33.4,107.7C33.4,107.6,33.4,107.6,33.4,107.7z"/>
	<path fill="#8FA6C6" d="M95.8,97c-0.2,0.2-0.3,0.3-0.5,0.5C95.4,97.3,95.6,97.1,95.8,97z"/>
	<path fill="#8FA6C6" d="M76.7,108.9C76.7,108.9,76.7,108.9,76.7,108.9C76.7,108.9,76.7,108.9,76.7,108.9z"/>
	<path fill="#8FA6C6" d="M21.2,100.2c-0.1-0.1-0.1-0.1-0.2-0.2C21.1,100.1,21.2,100.2,21.2,100.2z"/>
	<path fill="#8FA6C6" d="M78,93.6c-4.9,0.3-10.3,0.4-16,0.5c0.2-1.4,0.3-2.9,0.4-4.4c0.1-0.9,0.1-1.7,0.2-2.6
		c-3.5-0.1-7-0.2-10.4-0.2c-4,0-7.9,0.1-11.6,0.2c-3.7,0.2-7.3,0.4-10.5,0.8c-3.3,0.4-6.3,0.8-8.8,1.3c-0.1,0-0.2,0-0.3,0.1
		c0.4,0.9,0.8,1.7,1.2,2.5c-2-0.3-3.7-0.6-5.2-0.9c-0.3-0.1-0.5-0.1-0.8-0.2c-0.5,0.2-1,0.4-1.3,0.7c-0.6,0.4-1,0.8-1.1,1.2
		c-0.1,0.4,0,0.9,0.4,1.3c0.3,0.3,0.7,0.7,1.4,1c0.6,0.3,1.4,0.7,2.4,1c1,0.3,2.1,0.7,3.4,1c1.3,0.3,2.8,0.6,4.5,0.9
		c0.7,1,1.4,2,2.2,2.9c0.7,0.9,1.5,1.7,2.3,2.5c0.8,0.8,1.6,1.5,2.4,2.2c0.8,0.7,1.6,1.3,2.5,1.9c0.7,0.5,1.5,1,2.2,1.4
		c0.8,0.4,1.5,0.8,2.3,1.2c0.8,0.3,1.5,0.6,2.3,0.9c0.8,0.3,1.6,0.5,2.3,0.6c0.1,0,0.2,0,0.3,0.1c0.1,0,0.2,0,0.3,0.1
		c0.1,0,0.2,0,0.3,0.1c0.1,0,0.2,0,0.3,0.1c-1.4-0.3-2.5-0.6-3.3-1c-0.8-0.4-1.4-0.7-1.6-1.1c-0.3-0.4-0.2-0.8,0-1.1
		c0.3-0.4,0.9-0.7,1.7-1c0.8-0.3,1.9-0.6,3.1-0.8c1.2-0.2,2.5-0.4,4-0.5c1.4-0.1,3-0.2,4.5-0.1c1.6,0,3.2,0.1,4.8,0.2
		c0.4,0,0.8,0.1,1.3,0.1c0.1-0.3,0.1-0.5,0.2-0.8c0.2-0.8,0.3-1.6,0.5-2.5c0.2-0.9,0.3-1.8,0.5-2.8c4.9,0,9.6-0.2,13.8-0.4
		c4.2-0.3,7.9-0.6,11.1-1.1c3.1-0.5,5.7-1,7.7-1.6c1.9-0.6,3.2-1.2,3.8-1.9c0.1-0.1,0.2-0.3,0.3-0.4c0.1-0.1,0.1-0.3,0.1-0.4
		c0-0.1,0-0.3,0-0.4c0-0.1-0.1-0.3-0.2-0.4c-0.4-0.6-1.2-1.1-2.5-1.7c-1.4,0.3-3,0.5-4.7,0.8C87.1,92.9,82.9,93.3,78,93.6z"/>
	<path fill="#8FA6C6" d="M91.5,100.7c-0.2,0.2-0.4,0.3-0.7,0.5C91,101,91.3,100.8,91.5,100.7z"/>
	<path fill="#8FA6C6" d="M93.7,98.9c-0.2,0.2-0.4,0.3-0.5,0.5C93.3,99.2,93.5,99,93.7,98.9z"/>
	<path fill="#8FA6C6" d="M89.7,102c-0.5,0.4-1,0.7-1.5,1C88.7,102.7,89.2,102.3,89.7,102z"/>
	<path fill="#8FA6C6" d="M85.6,104.7c-0.3,0.2-0.5,0.3-0.8,0.5C85,105,85.3,104.8,85.6,104.7z"/>
	<path fill="#8FA6C6" d="M87.7,103.3c-0.7,0.5-1.4,0.9-2.1,1.3C86.4,104.2,87,103.8,87.7,103.3z"/>
	<path fill="#8FA6C6" d="M83.5,105.8c-0.1,0.1-0.2,0.1-0.3,0.1C83.3,105.9,83.4,105.9,83.5,105.8z"/>
	<path fill="#8FA6C6" d="M107.9,80.4c-0.3,0.7-0.7,1.4-1.1,2.1C107.1,81.8,107.5,81.1,107.9,80.4z"/>
	<path fill="#8FA6C6" d="M108.9,78.1C108.9,78.1,108.9,78.1,108.9,78.1C108.9,78.1,108.9,78.1,108.9,78.1z"/>
	<path fill="#8FA6C6" d="M106.7,82.7c-0.8,1.4-1.6,2.9-2.5,4.2C104.9,85.8,105.8,84.4,106.7,82.7z"/>
	<path fill="#8FA6C6" d="M104,87.1c-0.4,0.7-0.9,1.3-1.3,1.9C103.1,88.6,103.5,87.9,104,87.1z"/>
	<path fill="#8FA6C6" d="M6.1,81.8c-0.1-0.1-0.1-0.2-0.2-0.4C5.9,81.6,6,81.7,6.1,81.8z"/>
	<path fill="#8FA6C6" d="M110.6,73.5c0,0.1-0.1,0.3-0.1,0.4C110.5,73.8,110.6,73.6,110.6,73.5z"/>
	<path fill="#8FA6C6" d="M1.7,70.5c0.1,0.6,0.4,1.3,0.5,1.9C2.2,72.1,2,71.7,2,71.4C1.9,71.1,1.8,70.8,1.7,70.5z"/>
	<path fill="#8FA6C6" d="M7.1,83.8c0.2,0.3,0.3,0.6,0.5,0.9C7.4,84.3,7.3,84,7.1,83.8C7.1,83.7,7.1,83.7,7.1,83.8z"/>
	<path fill="#8FA6C6" d="M8.1,85.5c-0.1-0.2-0.2-0.4-0.3-0.6C7.9,85.1,8,85.3,8.1,85.5z"/>
	<path fill="#8FA6C6" d="M2.6,71c0.6,0.2,1.4,0.4,2.5,0.6c1.2,0.2,2.6,0.4,4.4,0.6c1.8,0.2,3.9,0.4,6.3,0.5c0.3,1.8,0.8,3.5,1.2,5.2
		c0.5,1.7,1,3.3,1.5,4.9c0.1,0.3,0.2,0.5,0.3,0.8c2.7-0.4,5.7-0.8,9.1-1.1c3.6-0.3,7.5-0.6,11.5-0.7c4-0.2,8.3-0.2,12.6-0.2
		c3.6,0,7.3,0.1,11,0.2c0-0.7,0.1-1.4,0.1-2.2c0.1-1.8,0.2-3.7,0.3-5.6c7.2,0,13.9-0.1,19.9-0.3c5.9-0.2,11.1-0.4,15.3-0.7
		c4.1-0.3,7.3-0.6,9.4-1c2.1-0.3,3.2-0.7,3.3-1.1c0,0,0-0.1,0-0.2c0,0-0.1-0.1-0.1-0.1s-0.1-0.1-0.2-0.1c-0.1,0-0.2-0.1-0.3-0.1
		c-1-0.4-3.1-0.8-6-1.1c-2.8-0.3-6.2-0.6-10.2-0.9c-3.8-0.2-8.2-0.4-12.9-0.6c-4.6-0.2-9.5-0.3-14.7-0.4c-5.1-0.1-10.2-0.1-15.2-0.1
		c-4.9,0-9.8,0.1-14.4,0.1c-4.6,0.1-9.1,0.2-13.2,0.4c-4.2,0.2-8.1,0.4-11.4,0.6c-1.8,0.1-3.3,0.3-4.7,0.4c-1.4,0.2-2.5,0.3-3.5,0.5
		c-1,0.2-1.7,0.4-2.1,0.5c-0.5,0.2-0.7,0.4-0.7,0.6C1.8,70.7,2.1,70.9,2.6,71z"/>
	<path fill="#8FA6C6" d="M109.8,75.8c0.3-0.7,0.4-1.2,0.6-1.7c-0.2,0.6-0.4,1.3-0.7,2C109.8,75.9,109.8,75.8,109.8,75.8z"/>
	<path fill="#8FA6C6" d="M2.9,74.5C3,74.8,3.1,75,3.1,75.1c0,0,0,0,0,0.1c0,0,0,0,0-0.1C3.1,74.9,3,74.7,2.9,74.5z"/>
	<path fill="#8FA6C6" d="M110.7,73.3c0-0.1,0.1-0.3,0.1-0.4c0.1-0.3,0.2-0.7,0.3-1c0-0.1,0.1-0.2,0.1-0.3
		C111,72.2,110.8,72.8,110.7,73.3z"/>
	<path fill="#8FA6C6" d="M9.6,87.8c-0.3-0.5-0.8-1.2-1.3-2C9.1,87,9.6,87.8,9.6,87.8z"/>
	<path fill="#3D6C98" d="M44.5,111.3c-0.3-0.1-0.6-0.1-1-0.2C43.9,111.1,44.2,111.2,44.5,111.3z"/>
	<path fill="#3D6C98" d="M14.3,93.7c1,1.2,3.2,3.5,6.1,5.9c0.2,0.2,0.4,0.3,0.6,0.5C18.9,98.4,16.6,96.3,14.3,93.7z"/>
	<path fill="#3D6C98" d="M27.6,104.6c0.1,0.1,0.3,0.2,0.4,0.2c-1.6-1-3.6-2.2-5.9-3.9C24.3,102.6,26.1,103.7,27.6,104.6z"/>
	<path fill="#3D6C98" d="M33.4,107.6c-1.5-0.7-2.8-1.3-3.7-1.8C30.9,106.5,32.2,107.1,33.4,107.6z"/>
	<path fill="#3D6C98" d="M34.5,108.1c-0.4-0.2-0.7-0.3-1.1-0.5C33.8,107.8,34.2,108,34.5,108.1z"/>
	<path fill="#3D6C98" d="M22,100.8c-0.2-0.2-0.5-0.4-0.7-0.6C21.5,100.4,21.7,100.6,22,100.8z"/>
	<path fill="#3D6C98" d="M29.3,105.6c-0.2-0.1-0.3-0.2-0.5-0.3C29,105.4,29.1,105.5,29.3,105.6z"/>
	<path fill="#3D6C98" d="M35.8,108.6c-0.2-0.1-0.4-0.1-0.5-0.2C35.4,108.5,35.6,108.6,35.8,108.6z"/>
	<path fill="#8FA6C6" d="M39.8,109.7c-0.8-0.3-1.5-0.7-2.3-1.2c-0.8-0.4-1.5-0.9-2.2-1.4c-0.8-0.6-1.7-1.2-2.5-1.9
		c-0.8-0.7-1.6-1.4-2.4-2.2c-0.8-0.8-1.6-1.6-2.3-2.5c-0.7-0.9-1.5-1.9-2.2-2.9c-1.7-0.3-3.2-0.6-4.5-0.9c-1.3-0.3-2.4-0.6-3.4-1
		c-0.9-0.3-1.7-0.7-2.4-1c-0.6-0.3-1.1-0.7-1.4-1c2.3,2.6,4.6,4.7,6.7,6.4c0.1,0.1,0.1,0.1,0.2,0.2c0.2,0.2,0.5,0.4,0.7,0.6
		c0.1,0,0.1,0.1,0.2,0.1c2.2,1.7,4.2,2.9,5.9,3.9c0.3,0.2,0.5,0.3,0.8,0.5c0.1,0.1,0.3,0.2,0.5,0.3c0.1,0.1,0.3,0.1,0.4,0.2
		c0.9,0.5,2.2,1.1,3.7,1.8c0,0,0,0,0.1,0c0.3,0.2,0.7,0.3,1.1,0.5c0.2,0.1,0.5,0.2,0.7,0.3c0.2,0.1,0.3,0.1,0.5,0.2
		c3.3,1.3,6.1,2,7.7,2.4c0.3,0.1,0.6,0.1,1,0.2c-0.8-0.2-1.6-0.4-2.3-0.6C41.4,110.4,40.6,110.1,39.8,109.7z"/>
	<path fill="#234572" d="M39.8,109.7c-0.8-0.3-1.5-0.7-2.3-1.2c-0.8-0.4-1.5-0.9-2.2-1.4c-0.8-0.6-1.7-1.2-2.5-1.9
		c-0.8-0.7-1.6-1.4-2.4-2.2c-0.8-0.8-1.6-1.6-2.3-2.5c-0.7-0.9-1.5-1.9-2.2-2.9c-1.7-0.3-3.2-0.6-4.5-0.9c-1.3-0.3-2.4-0.6-3.4-1
		c-0.9-0.3-1.7-0.7-2.4-1c-0.6-0.3-1.1-0.7-1.4-1c2.3,2.6,4.6,4.7,6.7,6.4c0.1,0.1,0.1,0.1,0.2,0.2c0.2,0.2,0.5,0.4,0.7,0.6
		c0.1,0,0.1,0.1,0.2,0.1c2.2,1.7,4.2,2.9,5.9,3.9c0.3,0.2,0.5,0.3,0.8,0.5c0.1,0.1,0.3,0.2,0.5,0.3c0.1,0.1,0.3,0.1,0.4,0.2
		c0.9,0.5,2.2,1.1,3.7,1.8c0,0,0,0,0.1,0c0.3,0.2,0.7,0.3,1.1,0.5c0.2,0.1,0.5,0.2,0.7,0.3c0.2,0.1,0.3,0.1,0.5,0.2
		c3.3,1.3,6.1,2,7.7,2.4c0.3,0.1,0.6,0.1,1,0.2c-0.8-0.2-1.6-0.4-2.3-0.6C41.4,110.4,40.6,110.1,39.8,109.7z"/>
	<path fill="#3D6C98" d="M76.7,108.9c-0.4,0.1-0.8,0.3-1.2,0.4C76,109.2,76.4,109.1,76.7,108.9z"/>
	<path fill="#3D6C98" d="M84.8,105.1c-0.4,0.2-0.8,0.5-1.2,0.7C83.9,105.6,84.3,105.4,84.8,105.1z"/>
	<path fill="#3D6C98" d="M93.1,99.3c-0.6,0.5-1.1,0.9-1.7,1.3C92.1,100.2,92.6,99.8,93.1,99.3z"/>
	<path fill="#3D6C98" d="M64.6,112c-0.1,0-0.3,0-0.4,0.1C64.3,112,64.5,112,64.6,112z"/>
	<path fill="#3D6C98" d="M68,111.2c0.7-0.2,1.2-0.5,1.5-0.8c0.3-0.3,0.5-0.6,0.5-0.9c0-0.4-0.3-0.8-0.8-1.2c-0.5-0.4-1.3-0.7-2.3-1
		c-1-0.3-2.2-0.6-3.5-0.8c-1-0.2-2.1-0.3-3.2-0.4c-0.1,0.5-0.2,0.9-0.3,1.3c-0.2,0.6-0.3,1.2-0.5,1.7c-0.2,0.5-0.4,1-0.5,1.4
		c-0.2,0.4-0.4,0.7-0.5,1c-0.2,0.3-0.4,0.5-0.5,0.7c-0.2,0.2-0.4,0.3-0.5,0.3c0.5,0,1,0,1.4,0c0.5,0,0.9,0,1.4-0.1
		c0.5,0,0.9-0.1,1.3-0.1c0.4,0,0.8-0.1,1.3-0.1c1.1-0.1,2.2-0.3,3.1-0.5C66.5,111.6,67.3,111.4,68,111.2z"/>
	<path fill="#3D6C98" d="M90.4,101.5c0.1-0.1,0.3-0.2,0.4-0.3c-0.4,0.3-0.7,0.5-1.1,0.8C90,101.8,90.2,101.6,90.4,101.5z"/>
	<path fill="#3D6C98" d="M88.2,103c-0.2,0.1-0.3,0.2-0.5,0.3C87.9,103.2,88.1,103.1,88.2,103z"/>
	<path fill="#3D6C98" d="M85.7,104.6c0,0-0.1,0.1-0.1,0.1C85.6,104.6,85.6,104.6,85.7,104.6z"/>
	<path fill="#3D6C98" d="M95.3,97.5c-0.5,0.5-1,1-1.6,1.4C94.3,98.4,94.8,97.9,95.3,97.5z"/>
	<path fill="#3D6C98" d="M76.7,108.9c2.4-0.9,4.2-1.8,5.1-2.2c0.4-0.2,0.9-0.4,1.4-0.7c-0.5,0.3-1,0.5-1.4,0.7
		C80.6,107.3,78.9,108.1,76.7,108.9z"/>
	<path fill="#3D6C98" d="M72.3,110.4c-0.5,0.1-0.9,0.3-1.4,0.4C71.4,110.6,71.8,110.5,72.3,110.4z"/>
	<path fill="#3D6C98" d="M97.7,95.1c-0.6,0.7-1.3,1.3-1.9,1.9C96.7,96.1,97.3,95.5,97.7,95.1z"/>
	<path fill="#3D6C98" d="M69.8,111c-0.1,0-0.3,0.1-0.4,0.1C69.5,111.1,69.7,111.1,69.8,111z"/>
	<path fill="#3D6C98" d="M66.2,111.8c-0.1,0-0.1,0-0.2,0C66,111.8,66.1,111.8,66.2,111.8z"/>
	<path fill="#3D6C98" d="M75.4,109.4c-0.4,0.1-0.8,0.3-1.2,0.4C74.6,109.7,75,109.5,75.4,109.4z"/>
	<path fill="#3D6C98" d="M73.9,109.9c-0.4,0.1-0.9,0.3-1.4,0.4C73,110.2,73.5,110,73.9,109.9z"/>
	<path fill="#8FA6C6" d="M86.2,98.5c-3.2,0.5-6.9,0.8-11.1,1.1c-4.2,0.3-8.9,0.4-13.8,0.4c-0.2,1-0.3,1.9-0.5,2.8
		c-0.2,0.9-0.3,1.7-0.5,2.5c-0.1,0.3-0.1,0.5-0.2,0.8c1.1,0.1,2.2,0.3,3.2,0.4c1.4,0.2,2.5,0.5,3.5,0.8c1,0.3,1.8,0.7,2.3,1
		c0.6,0.4,0.8,0.8,0.8,1.2c0,0.3-0.2,0.6-0.5,0.9c-0.4,0.3-0.9,0.5-1.5,0.8c-0.7,0.2-1.5,0.4-2.4,0.6c-0.9,0.2-2,0.3-3.1,0.5
		c0.6-0.1,1.1-0.1,1.7-0.2c0.1,0,0.3,0,0.4-0.1c0.5-0.1,0.9-0.1,1.4-0.2c0.1,0,0.1,0,0.2,0c1.1-0.2,2.2-0.4,3.2-0.6
		c0.1,0,0.3-0.1,0.4-0.1c0.4-0.1,0.7-0.2,1.1-0.3c0.5-0.1,0.9-0.2,1.4-0.4c0.1,0,0.2,0,0.3-0.1c0.5-0.1,0.9-0.3,1.4-0.4
		c0.1,0,0.2-0.1,0.3-0.1c0.4-0.1,0.8-0.3,1.2-0.4c0.1,0,0.1,0,0.2-0.1c0.4-0.1,0.8-0.3,1.2-0.4c0,0,0,0,0,0c2.1-0.8,3.8-1.6,5.1-2.2
		c0.4-0.2,0.9-0.5,1.4-0.7c0.1-0.1,0.2-0.1,0.3-0.1c0.4-0.2,0.8-0.4,1.2-0.7c0.3-0.1,0.5-0.3,0.8-0.5c0,0,0.1-0.1,0.1-0.1
		c0.6-0.4,1.3-0.8,2.1-1.3c0.2-0.1,0.3-0.2,0.5-0.3c0.5-0.3,1-0.7,1.5-1c0.4-0.3,0.7-0.5,1.1-0.8c0.2-0.2,0.5-0.3,0.7-0.5
		c0.5-0.4,1.1-0.9,1.7-1.3c0.2-0.2,0.4-0.3,0.5-0.5c0.5-0.4,1-0.9,1.6-1.4c0.2-0.2,0.4-0.3,0.5-0.5c0.6-0.6,1.3-1.2,1.9-1.9
		c-0.6,0.7-1.9,1.3-3.8,1.9C91.9,97.5,89.3,98.1,86.2,98.5z"/>
	<path fill="#234572" d="M86.2,98.5c-3.2,0.5-6.9,0.8-11.1,1.1c-4.2,0.3-8.9,0.4-13.8,0.4c-0.2,1-0.3,1.9-0.5,2.8
		c-0.2,0.9-0.3,1.7-0.5,2.5c-0.1,0.3-0.1,0.5-0.2,0.8c1.1,0.1,2.2,0.3,3.2,0.4c1.4,0.2,2.5,0.5,3.5,0.8c1,0.3,1.8,0.7,2.3,1
		c0.6,0.4,0.8,0.8,0.8,1.2c0,0.3-0.2,0.6-0.5,0.9c-0.4,0.3-0.9,0.5-1.5,0.8c-0.7,0.2-1.5,0.4-2.4,0.6c-0.9,0.2-2,0.3-3.1,0.5
		c0.6-0.1,1.1-0.1,1.7-0.2c0.1,0,0.3,0,0.4-0.1c0.5-0.1,0.9-0.1,1.4-0.2c0.1,0,0.1,0,0.2,0c1.1-0.2,2.2-0.4,3.2-0.6
		c0.1,0,0.3-0.1,0.4-0.1c0.4-0.1,0.7-0.2,1.1-0.3c0.5-0.1,0.9-0.2,1.4-0.4c0.1,0,0.2,0,0.3-0.1c0.5-0.1,0.9-0.3,1.4-0.4
		c0.1,0,0.2-0.1,0.3-0.1c0.4-0.1,0.8-0.3,1.2-0.4c0.1,0,0.1,0,0.2-0.1c0.4-0.1,0.8-0.3,1.2-0.4c0,0,0,0,0,0c2.1-0.8,3.8-1.6,5.1-2.2
		c0.4-0.2,0.9-0.5,1.4-0.7c0.1-0.1,0.2-0.1,0.3-0.1c0.4-0.2,0.8-0.4,1.2-0.7c0.3-0.1,0.5-0.3,0.8-0.5c0,0,0.1-0.1,0.1-0.1
		c0.6-0.4,1.3-0.8,2.1-1.3c0.2-0.1,0.3-0.2,0.5-0.3c0.5-0.3,1-0.7,1.5-1c0.4-0.3,0.7-0.5,1.1-0.8c0.2-0.2,0.5-0.3,0.7-0.5
		c0.5-0.4,1.1-0.9,1.7-1.3c0.2-0.2,0.4-0.3,0.5-0.5c0.5-0.4,1-0.9,1.6-1.4c0.2-0.2,0.4-0.3,0.5-0.5c0.6-0.6,1.3-1.2,1.9-1.9
		c-0.6,0.7-1.9,1.3-3.8,1.9C91.9,97.5,89.3,98.1,86.2,98.5z"/>
	<path fill="#3D6C98" d="M7.1,83.7c-0.3-0.6-0.7-1.2-1-1.9C6.4,82.5,6.8,83.1,7.1,83.7z"/>
	<path fill="#3D6C98" d="M5.9,81.5c-0.3-0.7-0.6-1.3-0.9-2C5.3,80.2,5.6,80.8,5.9,81.5z"/>
	<path fill="#3D6C98" d="M7.8,84.9c-0.1-0.1-0.1-0.2-0.2-0.3C7.7,84.7,7.7,84.8,7.8,84.9z"/>
	<path fill="#3D6C98" d="M4.9,79.5c-0.7-1.4-1.3-2.9-1.8-4.4C3.9,77.3,4.7,79,4.9,79.5z"/>
	<path fill="#3D6C98" d="M8.3,85.8c-0.1-0.1-0.1-0.2-0.2-0.3C8.2,85.6,8.3,85.7,8.3,85.8z"/>
	<path fill="#3D6C98" d="M21.1,89.2c-0.3-0.6-0.5-1.2-0.8-1.7c-0.5-1.2-1-2.5-1.5-3.8c-0.2,0-0.5,0.1-0.7,0.1
		c-1.6,0.3-3,0.6-4.1,0.9c-1.2,0.3-2.1,0.6-2.9,1c-0.7,0.3-1.2,0.7-1.5,1.1c-0.3,0.4-0.3,0.8,0,1.1c0.2,0.3,0.6,0.7,1.2,1
		c0.6,0.3,1.4,0.7,2.5,1c0.9,0.3,1.9,0.5,3,0.8c0.4-0.2,0.8-0.3,1.2-0.5C18.6,89.8,19.7,89.5,21.1,89.2z"/>
	<path fill="#3D6C98" d="M2.9,74.5c-0.2-0.5-0.4-1.1-0.7-2.1C2.5,73.2,2.7,73.7,2.9,74.5z"/>
	<path fill="#8FA6C6" d="M22.3,91.7c-0.4-0.8-0.8-1.6-1.2-2.5c-1.4,0.3-2.6,0.6-3.5,0.9c-0.4,0.1-0.8,0.3-1.2,0.5
		c0.3,0.1,0.5,0.1,0.8,0.2C18.6,91.1,20.4,91.4,22.3,91.7z"/>
	<path fill="#234572" d="M22.3,91.7c-0.4-0.8-0.8-1.6-1.2-2.5c-1.4,0.3-2.6,0.6-3.5,0.9c-0.4,0.1-0.8,0.3-1.2,0.5
		c0.3,0.1,0.5,0.1,0.8,0.2C18.6,91.1,20.4,91.4,22.3,91.7z"/>
	<path fill="#8FA6C6" d="M9.6,86.7c0.3-0.4,0.8-0.7,1.5-1.1c0.7-0.3,1.7-0.7,2.9-1c1.2-0.3,2.5-0.6,4.1-0.9c0.2,0,0.5-0.1,0.7-0.1
		c-0.1-0.3-0.2-0.5-0.3-0.8c-0.5-1.6-1-3.2-1.5-4.9c-0.5-1.7-0.9-3.4-1.2-5.2c-2.4-0.2-4.5-0.4-6.3-0.5c-1.8-0.2-3.2-0.4-4.4-0.6
		c-1.1-0.2-2-0.4-2.5-0.6c-0.6-0.2-0.9-0.4-0.9-0.6c0.1,0.3,0.2,0.7,0.3,0.9c0.1,0.3,0.2,0.6,0.3,0.9c0.3,1,0.5,1.7,0.7,2.1
		c0.1,0.2,0.1,0.4,0.2,0.6c0,0,0,0,0,0.1c0.5,1.5,1.1,2.9,1.8,4.4c0.3,0.7,0.6,1.3,0.9,2c0.1,0.1,0.1,0.2,0.2,0.4
		c0.3,0.6,0.7,1.3,1,1.9c0.2,0.3,0.4,0.6,0.5,0.9c0.1,0.1,0.1,0.2,0.2,0.3c0.1,0.2,0.2,0.4,0.3,0.6c0.1,0.1,0.1,0.2,0.2,0.3
		c0.5,0.8,1,1.5,1.3,2C9.4,87.4,9.4,87,9.6,86.7z"/>
	<path fill="#234572" d="M9.6,86.7c0.3-0.4,0.8-0.7,1.5-1.1c0.7-0.3,1.7-0.7,2.9-1c1.2-0.3,2.5-0.6,4.1-0.9c0.2,0,0.5-0.1,0.7-0.1
		c-0.1-0.3-0.2-0.5-0.3-0.8c-0.5-1.6-1-3.2-1.5-4.9c-0.5-1.7-0.9-3.4-1.2-5.2c-2.4-0.2-4.5-0.4-6.3-0.5c-1.8-0.2-3.2-0.4-4.4-0.6
		c-1.1-0.2-2-0.4-2.5-0.6c-0.6-0.2-0.9-0.4-0.9-0.6c0.1,0.3,0.2,0.7,0.3,0.9c0.1,0.3,0.2,0.6,0.3,0.9c0.3,1,0.5,1.7,0.7,2.1
		c0.1,0.2,0.1,0.4,0.2,0.6c0,0,0,0,0,0.1c0.5,1.5,1.1,2.9,1.8,4.4c0.3,0.7,0.6,1.3,0.9,2c0.1,0.1,0.1,0.2,0.2,0.4
		c0.3,0.6,0.7,1.3,1,1.9c0.2,0.3,0.4,0.6,0.5,0.9c0.1,0.1,0.1,0.2,0.2,0.3c0.1,0.2,0.2,0.4,0.3,0.6c0.1,0.1,0.1,0.2,0.2,0.3
		c0.5,0.8,1,1.5,1.3,2C9.4,87.4,9.4,87,9.6,86.7z"/>
	<path fill="#3D6C98" d="M110.7,73.3c0,0.1,0,0.1-0.1,0.2C110.6,73.4,110.7,73.3,110.7,73.3z"/>
	<path fill="#3D6C98" d="M109.5,76.7c0.1-0.2,0.2-0.5,0.3-0.7c-0.3,0.7-0.5,1.4-0.8,2.1C109.3,77.2,109.5,76.7,109.5,76.7z"/>
	<path fill="#3D6C98" d="M108.9,78.1c-0.3,0.8-0.7,1.5-1,2.3C108.3,79.5,108.6,78.7,108.9,78.1z"/>
	<path fill="#3D6C98" d="M110.5,73.9c0,0,0,0.1,0,0.1C110.5,74,110.5,73.9,110.5,73.9z"/>
	<path fill="#3D6C98" d="M111.4,70.9c-0.1,0.2-0.1,0.5-0.2,0.7C111.3,71.4,111.3,71.2,111.4,70.9z"/>
	<path fill="#3D6C98" d="M103,88.3c0-0.1-0.1-0.2-0.1-0.3c-0.1-0.1-0.1-0.2-0.3-0.3c-0.7-0.7-2.3-1.4-4.7-2.1
		c-2.2-0.6-5.1-1.2-8.5-1.7c-3.3-0.5-7-0.9-11.1-1.2c-4-0.3-8.3-0.6-12.9-0.8c-0.8,0-1.6,0-2.3-0.1c-0.1,1-0.1,2.1-0.2,3.1
		c-0.1,0.7-0.1,1.5-0.2,2.2c0.6,0,1.3,0,1.9,0.1c4.2,0.2,8.1,0.5,11.8,0.9c3.7,0.4,7.1,0.8,10,1.4c3,0.5,5.6,1.2,7.6,1.8
		c0.5,0.2,1,0.4,1.5,0.6c1.4-0.3,2.6-0.6,3.6-0.8c2-0.6,3.2-1.2,3.7-1.9c0.1-0.1,0.1-0.2,0.2-0.3C103,88.6,103,88.4,103,88.3z"/>
	<path fill="#3D6C98" d="M104.2,86.9c0,0.1-0.1,0.1-0.1,0.2C104.1,87.1,104.1,87,104.2,86.9z"/>
	<path fill="#3D6C98" d="M106.8,82.5c0,0.1-0.1,0.1-0.1,0.2C106.7,82.6,106.8,82.6,106.8,82.5z"/>
	<path fill="#8FA6C6" d="M86.4,89.3c-2.9-0.5-6.3-1-10-1.4c-3.6-0.4-7.6-0.7-11.8-0.9c-0.6,0-1.3,0-1.9-0.1
		c-0.1,0.9-0.1,1.8-0.2,2.6c-0.1,1.5-0.3,3-0.4,4.4c5.7,0,11.1-0.2,16-0.5c4.8-0.3,9.1-0.7,12.6-1.1c1.8-0.2,3.3-0.5,4.7-0.8
		c-0.4-0.2-0.9-0.4-1.5-0.6C92,90.5,89.4,89.9,86.4,89.3z"/>
	<path fill="#234572" d="M86.4,89.3c-2.9-0.5-6.3-1-10-1.4c-3.6-0.4-7.6-0.7-11.8-0.9c-0.6,0-1.3,0-1.9-0.1
		c-0.1,0.9-0.1,1.8-0.2,2.6c-0.1,1.5-0.3,3-0.4,4.4c5.7,0,11.1-0.2,16-0.5c4.8-0.3,9.1-0.7,12.6-1.1c1.8-0.2,3.3-0.5,4.7-0.8
		c-0.4-0.2-0.9-0.4-1.5-0.6C92,90.5,89.4,89.9,86.4,89.3z"/>
	<path fill="#8FA6C6" d="M111.4,70.9c-0.1,0.4-1.2,0.7-3.3,1.1c-2.2,0.4-5.3,0.7-9.4,1c-4.2,0.3-9.4,0.5-15.3,0.7
		c-6,0.2-12.8,0.3-19.9,0.3c-0.1,1.9-0.2,3.8-0.3,5.6c0,0.7-0.1,1.4-0.1,2.2c0.8,0,1.6,0,2.3,0.1c4.6,0.2,8.9,0.4,12.9,0.8
		c4.1,0.3,7.8,0.8,11.1,1.2c3.4,0.5,6.3,1.1,8.5,1.7c2.3,0.6,4,1.4,4.7,2.1c0.1,0.1,0.2,0.2,0.3,0.3c0.1,0.1,0.1,0.2,0.1,0.3
		c0,0.1,0,0.2,0,0.3c0,0.1-0.1,0.2-0.2,0.3c0.4-0.6,0.9-1.2,1.3-1.9c0-0.1,0.1-0.1,0.1-0.2c0.9-1.4,1.7-2.8,2.5-4.2
		c0-0.1,0.1-0.1,0.1-0.2c0.4-0.7,0.7-1.4,1.1-2.1c0.4-0.8,0.7-1.5,1-2.3c0,0,0,0,0,0c0.3-0.7,0.6-1.4,0.8-2.1c0.3-0.7,0.5-1.3,0.7-2
		c0,0,0-0.1,0-0.1c0-0.1,0.1-0.3,0.1-0.4c0-0.1,0-0.1,0.1-0.2c0.2-0.5,0.3-1,0.5-1.7C111.3,71.4,111.3,71.1,111.4,70.9z"/>
	<path fill="#234572" d="M111.4,70.9c-0.1,0.4-1.2,0.7-3.3,1.1c-2.2,0.4-5.3,0.7-9.4,1c-4.2,0.3-9.4,0.5-15.3,0.7
		c-6,0.2-12.8,0.3-19.9,0.3c-0.1,1.9-0.2,3.8-0.3,5.6c0,0.7-0.1,1.4-0.1,2.2c0.8,0,1.6,0,2.3,0.1c4.6,0.2,8.9,0.4,12.9,0.8
		c4.1,0.3,7.8,0.8,11.1,1.2c3.4,0.5,6.3,1.1,8.5,1.7c2.3,0.6,4,1.4,4.7,2.1c0.1,0.1,0.2,0.2,0.3,0.3c0.1,0.1,0.1,0.2,0.1,0.3
		c0,0.1,0,0.2,0,0.3c0,0.1-0.1,0.2-0.2,0.3c0.4-0.6,0.9-1.2,1.3-1.9c0-0.1,0.1-0.1,0.1-0.2c0.9-1.4,1.7-2.8,2.5-4.2
		c0-0.1,0.1-0.1,0.1-0.2c0.4-0.7,0.7-1.4,1.1-2.1c0.4-0.8,0.7-1.5,1-2.3c0,0,0,0,0,0c0.3-0.7,0.6-1.4,0.8-2.1c0.3-0.7,0.5-1.3,0.7-2
		c0,0,0-0.1,0-0.1c0-0.1,0.1-0.3,0.1-0.4c0-0.1,0-0.1,0.1-0.2c0.2-0.5,0.3-1,0.5-1.7C111.3,71.4,111.3,71.1,111.4,70.9z"/>
</g>
<g>
	<path fill="#8FA6C6" d="M112.5,46.6c0.5,3.1,0.8,6.1,0.8,9.1C113.3,52.7,113,49.7,112.5,46.6z"/>
	<path fill="#8FA6C6" d="M0.2,62.4c0-0.1,0-0.3,0-0.4C0.2,62.1,0.2,62.3,0.2,62.4z"/>
	<path fill="#8FA6C6" d="M0,59.6C0,59.6,0,59.6,0,59.6C0,59.6,0,59.6,0,59.6z"/>
	<path fill="#8FA6C6" d="M0.1,61.4c0,0,0,0.1,0,0.1c0-0.1,0-0.2,0-0.3C0.1,61.3,0.1,61.4,0.1,61.4z"/>
	<path fill="#8FA6C6" d="M0.1,51.1c0,0,0-0.1,0-0.1C0.1,51,0.1,51.1,0.1,51.1z"/>
	<path fill="#8FA6C6" d="M0.4,63.9c0-0.1,0-0.1,0-0.2C0.4,63.8,0.4,63.8,0.4,63.9z"/>
	<path fill="#8FA6C6" d="M0,53.1c0-0.3,0-0.5,0-0.7C0,52.6,0,52.9,0,53.1z"/>
	<path fill="#8FA6C6" d="M-0.1,56.4c0-0.3,0-0.7,0-1C-0.1,55.7-0.1,56-0.1,56.4z"/>
	<path fill="#8FA6C6" d="M0.3,63.2c0-0.1,0-0.2,0-0.3C0.3,63,0.3,63.1,0.3,63.2z"/>
	<path fill="#8FA6C6" d="M63.8,59c0-0.9,0-1.8,0-2.6c0-1,0-1.9,0-2.9c0-1,0-1.9,0-2.9c0-0.6,0-1.1,0-1.6c-4.1,0.1-8.2,0.1-12.2,0.1
		c-5,0-9.9,0-14.6,0c-4.7,0-9.3-0.1-13.4-0.2c-3.2-0.1-6.2-0.1-8.9-0.2c-0.1,0.8-0.1,1.7-0.2,2.5c0,0.9-0.1,1.8-0.1,2.6
		c0,0.9,0,1.8,0,2.7c0,0.8,0,1.6,0,2.4c0,0.8,0.1,1.6,0.1,2.4c0,0.7,0.1,1.3,0.1,2c2.7-0.1,5.7-0.2,8.9-0.3
		c4.2-0.1,8.7-0.2,13.4-0.3c4.7-0.1,9.6-0.1,14.6-0.1c4,0,8.1,0,12.2,0c0-0.3,0-0.7,0-1C63.8,60.8,63.8,59.9,63.8,59z"/>
	<path fill="#8FA6C6" d="M-0.1,54.8c0-0.3,0-0.7,0-1C-0.1,54.1-0.1,54.4-0.1,54.8z"/>
	<path fill="#3D6C98" d="M0.1,61.3c0-0.5-0.1-1.1-0.1-1.6C0,60.2,0.1,60.8,0.1,61.3z"/>
	<path fill="#3D6C98" d="M-0.1,56.5c0,1.1,0,2.2,0.1,3.2c-0.1-1.1-0.1-2.2-0.1-3.3C-0.1,56.4-0.1,56.4-0.1,56.5z"/>
	<path fill="#3D6C98" d="M0.5,64.7c0-0.3-0.1-0.5-0.1-0.8C0.5,64.2,0.5,64.5,0.5,64.7z"/>
	<path fill="#3D6C98" d="M0.4,63.7c0-0.2,0-0.4-0.1-0.5C0.4,63.4,0.4,63.6,0.4,63.7z"/>
	<path fill="#3D6C98" d="M0.3,62.9c0-0.2,0-0.3-0.1-0.5C0.3,62.6,0.3,62.7,0.3,62.9z"/>
	<path fill="#3D6C98" d="M0.2,62c0-0.1,0-0.3,0-0.5C0.2,61.7,0.2,61.8,0.2,62z"/>
	<path fill="#3D6C98" d="M-0.1,55.3c0-0.2,0-0.4,0-0.6C-0.1,55-0.1,55.1-0.1,55.3z"/>
	<path fill="#3D6C98" d="M0,53.8c0-0.2,0-0.4,0-0.7C0,53.3,0,53.6,0,53.8z"/>
	<path fill="#3D6C98" d="M7.1,63.7c-1.4,0.1-2.6,0.2-3.6,0.3c-1,0.1-1.7,0.2-2.2,0.3c-0.5,0.1-0.8,0.2-0.8,0.3
		c0,0.1,0.3,0.2,0.8,0.3c0.6,0.1,1.4,0.2,2.5,0.4c1.2,0.1,2.6,0.2,4.4,0.3c1.8,0.1,4,0.2,6.5,0.3c-0.1-0.8-0.2-1.6-0.2-2.3
		c0-0.1,0-0.3,0-0.4c-0.9,0-1.8,0.1-2.7,0.1C10.1,63.5,8.5,63.6,7.1,63.7z"/>
	<path fill="#3D6C98" d="M1.3,47.8c0.5,0.1,1.2,0.2,2.2,0.3c1,0.1,2.2,0.2,3.6,0.3c1.4,0.1,3,0.2,4.8,0.2c0.9,0,1.8,0.1,2.7,0.1
		c0,0,0-0.1,0-0.1c0.1-0.9,0.2-1.7,0.3-2.6c-2.5,0.1-4.7,0.2-6.5,0.4c-1.8,0.1-3.3,0.2-4.4,0.4c-1.1,0.1-2,0.2-2.5,0.4
		c-0.5,0.1-0.8,0.2-0.8,0.3C0.6,47.6,0.8,47.7,1.3,47.8z"/>
	<path fill="#3D6C98" d="M0,52.4c0-0.4,0.1-0.9,0.1-1.3C0.1,51.5,0.1,51.9,0,52.4z"/>
	<path fill="#3D6C98" d="M0.1,51c0.1-1.2,0.3-2.3,0.4-3.5C0.5,48.1,0.3,49.4,0.1,51z"/>
	<path fill="#8FA6C6" d="M14.3,58.9c0-0.8,0-1.6,0-2.4c0-0.9,0-1.8,0-2.7c0-0.9,0.1-1.8,0.1-2.6c0-0.8,0.1-1.7,0.2-2.5
		c-0.9,0-1.8-0.1-2.7-0.1c-1.8-0.1-3.4-0.1-4.8-0.2c-1.4-0.1-2.6-0.2-3.6-0.3c-1-0.1-1.7-0.2-2.2-0.3c-0.5-0.1-0.8-0.2-0.7-0.3
		c-0.2,1.2-0.3,2.4-0.4,3.5c0,0,0,0.1,0,0.1c0,0.4-0.1,0.9-0.1,1.3c0,0.2,0,0.5,0,0.7c0,0.2,0,0.4,0,0.7c0,0.3,0,0.6,0,1
		c0,0.2,0,0.4,0,0.6c0,0.3,0,0.7,0,1c0,1.1,0,2.2,0.1,3.3c0,0,0,0,0,0c0,0.5,0.1,1.1,0.1,1.6c0,0.1,0,0.2,0,0.3c0,0.2,0,0.3,0,0.5
		c0,0.1,0,0.3,0,0.4c0,0.2,0,0.3,0.1,0.5c0,0.1,0,0.2,0,0.3c0,0.2,0,0.3,0.1,0.5c0,0.1,0,0.1,0,0.2c0,0.2,0.1,0.5,0.1,0.8
		c0-0.1,0.2-0.2,0.8-0.3c0.5-0.1,1.3-0.2,2.2-0.3c1-0.1,2.2-0.2,3.6-0.3c1.4-0.1,3-0.2,4.8-0.3c0.9,0,1.8-0.1,2.7-0.1
		c-0.1-0.7-0.1-1.3-0.1-2C14.4,60.5,14.3,59.7,14.3,58.9z"/>
	<path fill="#234572" d="M14.3,58.9c0-0.8,0-1.6,0-2.4c0-0.9,0-1.8,0-2.7c0-0.9,0.1-1.8,0.1-2.6c0-0.8,0.1-1.7,0.2-2.5
		c-0.9,0-1.8-0.1-2.7-0.1c-1.8-0.1-3.4-0.1-4.8-0.2c-1.4-0.1-2.6-0.2-3.6-0.3c-1-0.1-1.7-0.2-2.2-0.3c-0.5-0.1-0.8-0.2-0.7-0.3
		c-0.2,1.2-0.3,2.4-0.4,3.5c0,0,0,0.1,0,0.1c0,0.4-0.1,0.9-0.1,1.3c0,0.2,0,0.5,0,0.7c0,0.2,0,0.4,0,0.7c0,0.3,0,0.6,0,1
		c0,0.2,0,0.4,0,0.6c0,0.3,0,0.7,0,1c0,1.1,0,2.2,0.1,3.3c0,0,0,0,0,0c0,0.5,0.1,1.1,0.1,1.6c0,0.1,0,0.2,0,0.3c0,0.2,0,0.3,0,0.5
		c0,0.1,0,0.3,0,0.4c0,0.2,0,0.3,0.1,0.5c0,0.1,0,0.2,0,0.3c0,0.2,0,0.3,0.1,0.5c0,0.1,0,0.1,0,0.2c0,0.2,0.1,0.5,0.1,0.8
		c0-0.1,0.2-0.2,0.8-0.3c0.5-0.1,1.3-0.2,2.2-0.3c1-0.1,2.2-0.2,3.6-0.3c1.4-0.1,3-0.2,4.8-0.3c0.9,0,1.8-0.1,2.7-0.1
		c-0.1-0.7-0.1-1.3-0.1-2C14.4,60.5,14.3,59.7,14.3,58.9z"/>
	<path fill="#3D6C98" d="M112.7,64.8c0.5-3.1,0.7-6.1,0.6-9.1C113.3,58.7,113.1,61.7,112.7,64.8z"/>
	<path fill="#3D6C98" d="M112.5,64.6c-0.1,0-0.1-0.1-0.2-0.1c-0.1,0-0.2-0.1-0.3-0.1c-1.1-0.2-3.3-0.5-6.2-0.7
		c-2.8-0.2-6.4-0.4-10.5-0.5c-3.9-0.1-8.4-0.3-13.2-0.4c-4.7-0.1-9.7-0.2-15-0.2c-1.1,0-2.2,0-3.2,0c0,0.5,0,1,0,1.6
		c0,0.9,0,1.7,0,2.5c7.4,0,14.4-0.1,20.6-0.2c6.1-0.1,11.4-0.3,15.7-0.5c4.2-0.2,7.4-0.4,9.6-0.6c2.1-0.2,3.1-0.4,3.2-0.7
		c0,0,0-0.1,0-0.1C112.6,64.6,112.5,64.6,112.5,64.6z"/>
	<path fill="#3D6C98" d="M81.9,48.6c4.8-0.1,9.2-0.3,13.1-0.4c4.1-0.2,7.7-0.4,10.5-0.6c3-0.2,5.1-0.5,6.2-0.7
		c0.1,0,0.2-0.1,0.3-0.1c0.1,0,0.2-0.1,0.2-0.1c0.1,0,0.1-0.1,0.1-0.1c0,0,0-0.1,0-0.1c0-0.2-1.1-0.4-3.2-0.6
		c-2.2-0.2-5.4-0.4-9.5-0.5c-4.3-0.2-9.6-0.3-15.7-0.3C77.9,45,71,45,63.6,45c0,0.9,0.1,1.9,0.1,2.8c0,0.4,0,0.8,0,1.2
		c1.1,0,2.2,0,3.2,0C72.2,48.8,77.2,48.7,81.9,48.6z"/>
	<path fill="#8FA6C6" d="M112.5,46.6C112.5,46.6,112.5,46.6,112.5,46.6c-0.1,0.1-0.1,0.1-0.2,0.2c-0.1,0-0.1,0.1-0.2,0.1
		c-0.1,0-0.2,0.1-0.3,0.1c-1.1,0.2-3.2,0.5-6.2,0.7c-2.8,0.2-6.4,0.4-10.5,0.6c-3.9,0.2-8.4,0.3-13.1,0.4c-4.6,0.1-9.7,0.2-15,0.3
		c-1.1,0-2.2,0-3.2,0c0,0.5,0,1.1,0,1.6c0,1,0,1.9,0,2.9c0,1,0,1.9,0,2.9c0,0.9,0,1.8,0,2.6c0,0.9,0,1.7,0,2.6c0,0.3,0,0.7,0,1
		c1.1,0,2.2,0,3.2,0c5.3,0,10.3,0.1,15,0.2c4.8,0.1,9.2,0.2,13.2,0.4c4.1,0.1,7.7,0.3,10.5,0.5c3,0.2,5.2,0.4,6.2,0.7
		c0.1,0,0.2,0.1,0.3,0.1c0.1,0,0.2,0.1,0.2,0.1c0.1,0,0.1,0.1,0.1,0.1c0,0,0,0.1,0,0.1c0.5-3.1,0.7-6.1,0.6-9.1
		C113.3,52.7,113,49.7,112.5,46.6z"/>
	<path fill="#234572" d="M112.5,46.6C112.5,46.6,112.5,46.6,112.5,46.6c-0.1,0.1-0.1,0.1-0.2,0.2c-0.1,0-0.1,0.1-0.2,0.1
		c-0.1,0-0.2,0.1-0.3,0.1c-1.1,0.2-3.2,0.5-6.2,0.7c-2.8,0.2-6.4,0.4-10.5,0.6c-3.9,0.2-8.4,0.3-13.1,0.4c-4.6,0.1-9.7,0.2-15,0.3
		c-1.1,0-2.2,0-3.2,0c0,0.5,0,1.1,0,1.6c0,1,0,1.9,0,2.9c0,1,0,1.9,0,2.9c0,0.9,0,1.8,0,2.6c0,0.9,0,1.7,0,2.6c0,0.3,0,0.7,0,1
		c1.1,0,2.2,0,3.2,0c5.3,0,10.3,0.1,15,0.2c4.8,0.1,9.2,0.2,13.2,0.4c4.1,0.1,7.7,0.3,10.5,0.5c3,0.2,5.2,0.4,6.2,0.7
		c0.1,0,0.2,0.1,0.3,0.1c0.1,0,0.2,0.1,0.2,0.1c0.1,0,0.1,0.1,0.1,0.1c0,0,0,0.1,0,0.1c0.5-3.1,0.7-6.1,0.6-9.1
		C113.3,52.7,113,49.7,112.5,46.6z"/>
</g>
<g>
	<path fill="#3D6C98" d="M138.9,19.7h3.5v19.8h-3.5V19.7z"/>
	<path fill="#3D6C98" d="M146.4,26.1h3.2v2.2h0.1c0.6-1.3,1.9-2.5,4.1-2.5c3.6,0,4.9,2.5,4.9,5.3v8.5h-3.4v-6.8
		c0-1.5-0.1-3.9-2.5-3.9c-2.2,0-3.1,1.6-3.1,3.4v7.3h-3.4V26.1z"/>
	<path fill="#3D6C98" d="M160.7,29v-2.9h2.8v-3.9h3.4v3.9h3.7V29h-3.7v5.9c0,1.3,0.4,2.2,1.9,2.2c0.6,0,1.4-0.1,1.8-0.4v2.8
		c-0.7,0.3-1.9,0.4-2.7,0.4c-3.6,0-4.4-1.6-4.4-4.8V29H160.7z"/>
	<path fill="#3D6C98" d="M176,34c0.2,2,1.7,3.2,3.6,3.2c1.7,0,2.8-0.8,3.6-1.8l2.4,1.8c-1.6,1.9-3.6,2.7-5.7,2.7
		c-4.1,0-7.3-2.8-7.3-7.1c0-4.2,3.2-7.1,7.3-7.1c3.8,0,6.3,2.6,6.3,7.3V34H176z M182.9,31.5c0-2-1.3-3.2-3.4-3.2
		c-2,0-3.2,1.3-3.5,3.2H182.9z"/>
	<path fill="#3D6C98" d="M189.4,26.1h3.4v2.1h0.1c0.7-1.5,2.2-2.5,4-2.5c0.4,0,0.8,0.1,1.2,0.2v3.2c-0.6-0.1-1.1-0.3-1.6-0.3
		c-3.2,0-3.6,2.7-3.6,3.4v7.2h-3.4V26.1z"/>
	<path fill="#3D6C98" d="M200.2,26.1h3.2v2.2h0.1c0.6-1.3,1.9-2.5,4.1-2.5c3.6,0,4.9,2.5,4.9,5.3v8.5h-3.4v-6.8
		c0-1.5-0.1-3.9-2.5-3.9c-2.2,0-3.1,1.6-3.1,3.4v7.3h-3.4V26.1z"/>
	<path fill="#3D6C98" d="M224.6,37.7L224.6,37.7c-1,1.5-2.6,2.2-4.4,2.2c-2.5,0-4.9-1.4-4.9-4c0-4.4,5.1-4.7,8.5-4.7h0.8v-0.4
		c0-1.7-1.3-2.5-3.1-2.5c-1.4,0-2.7,0.6-3.6,1.4l-1.8-1.8c1.5-1.5,3.6-2.2,5.7-2.2c5.7,0,5.7,4.1,5.7,6v7.7h-3V37.7z M224.4,33.5
		h-0.7c-1.8,0-5,0.1-5,2.1c0,1.2,1.3,1.8,2.4,1.8c2.3,0,3.4-1.2,3.4-3.1V33.5z"/>
	<path fill="#3D6C98" d="M229.6,29v-2.9h2.8v-3.9h3.4v3.9h3.7V29h-3.7v5.9c0,1.3,0.4,2.2,1.9,2.2c0.6,0,1.4-0.1,1.8-0.4v2.8
		c-0.7,0.3-1.9,0.4-2.7,0.4c-3.6,0-4.4-1.6-4.4-4.8V29H229.6z"/>
	<path fill="#3D6C98" d="M244.4,19.5c1.2,0,2.2,0.9,2.2,2c0,1.1-1,2-2.2,2c-1.2,0-2.1-1-2.1-2C242.3,20.5,243.2,19.5,244.4,19.5z
		 M242.8,26.1h3.4v13.4h-3.4V26.1z"/>
	<path fill="#3D6C98" d="M256.5,25.8c4.1,0,7.3,2.8,7.3,7.1c0,4.2-3.2,7.1-7.3,7.1c-4.1,0-7.3-2.8-7.3-7.1
		C249.2,28.6,252.4,25.8,256.5,25.8z M256.5,36.9c2.5,0,3.9-1.9,3.9-4c0-2.1-1.5-4-3.9-4c-2.5,0-3.9,1.9-3.9,4
		C252.5,34.9,254,36.9,256.5,36.9z"/>
	<path fill="#3D6C98" d="M266.8,26.1h3.2v2.2h0.1c0.6-1.3,1.9-2.5,4.1-2.5c3.6,0,4.9,2.5,4.9,5.3v8.5h-3.4v-6.8
		c0-1.5-0.1-3.9-2.5-3.9c-2.2,0-3.1,1.6-3.1,3.4v7.3h-3.4V26.1z"/>
	<path fill="#3D6C98" d="M291.2,37.7L291.2,37.7c-1,1.5-2.6,2.2-4.4,2.2c-2.5,0-4.9-1.4-4.9-4c0-4.4,5.1-4.7,8.5-4.7h0.8v-0.4
		c0-1.7-1.3-2.5-3.1-2.5c-1.4,0-2.7,0.6-3.6,1.4l-1.8-1.8c1.5-1.5,3.6-2.2,5.7-2.2c5.7,0,5.7,4.1,5.7,6v7.7h-3V37.7z M291,33.5h-0.7
		c-1.8,0-5,0.1-5,2.1c0,1.2,1.3,1.8,2.4,1.8c2.3,0,3.4-1.2,3.4-3.1V33.5z"/>
	<path fill="#3D6C98" d="M297.9,18.4h3.4v21.2h-3.4V18.4z"/>
	<path fill="#3D6C98" d="M152.6,50.4c-1.5-1.5-2.8-2-4.2-2c-4.1,0-6.8,3.1-6.8,7.1c0,4.2,2.7,7.4,6.8,7.4c1.6,0,3.1-0.7,4.5-2.4
		l2.9,2.1c-1.8,2.5-4.5,3.5-7.4,3.5c-6.1,0-10.5-4.1-10.5-10.3c0-6.4,4.4-10.5,10.5-10.5c2.7,0,5,0.9,6.9,3.1L152.6,50.4z"/>
	<path fill="#3D6C98" d="M166.7,63.7L166.7,63.7c-1,1.5-2.6,2.2-4.4,2.2c-2.5,0-4.9-1.4-4.9-4c0-4.4,5.1-4.7,8.5-4.7h0.8v-0.4
		c0-1.7-1.3-2.5-3.1-2.5c-1.4,0-2.7,0.6-3.6,1.4l-1.8-1.8c1.5-1.5,3.6-2.2,5.7-2.2c5.7,0,5.7,4.1,5.7,6v7.7h-3V63.7z M166.5,59.5
		h-0.7c-1.8,0-5,0.1-5,2.1c0,1.2,1.3,1.8,2.4,1.8c2.3,0,3.4-1.2,3.4-3.1V59.5z"/>
	<path fill="#3D6C98" d="M173.4,52.1h3.2v2.2h0.1c0.6-1.3,1.9-2.5,4.1-2.5c3.6,0,4.9,2.5,4.9,5.3v8.5h-3.4v-6.8
		c0-1.5-0.1-3.9-2.5-3.9c-2.2,0-3.1,1.6-3.1,3.4v7.3h-3.4V52.1z"/>
	<path fill="#3D6C98" d="M198.5,56.2c-0.8-0.8-1.7-1.3-2.5-1.3c-2.5,0-3.9,1.9-3.9,4c0,2.1,1.5,4,3.9,4c1,0,2-0.4,2.6-1.3l2.2,2.4
		c-1.4,1.4-3.7,1.9-4.8,1.9c-4.1,0-7.3-2.8-7.3-7.1c0-4.2,3.2-7.1,7.3-7.1c1.7,0,3.6,0.6,4.9,2L198.5,56.2z"/>
	<path fill="#3D6C98" d="M205.3,60c0.2,2,1.7,3.2,3.6,3.2c1.7,0,2.8-0.8,3.6-1.8l2.4,1.8c-1.6,1.9-3.6,2.7-5.7,2.7
		c-4.1,0-7.3-2.8-7.3-7.1c0-4.2,3.2-7.1,7.3-7.1c3.8,0,6.3,2.6,6.3,7.3V60H205.3z M212.2,57.5c0-2-1.3-3.2-3.4-3.2
		c-2,0-3.2,1.3-3.5,3.2H212.2z"/>
	<path fill="#3D6C98" d="M218.7,52.1h3.4v2.1h0.1c0.7-1.5,2.2-2.5,4-2.5c0.4,0,0.8,0.1,1.2,0.2v3.2c-0.6-0.1-1.1-0.3-1.6-0.3
		c-3.2,0-3.6,2.7-3.6,3.4v7.2h-3.4V52.1z"/>
	<path fill="#3D6C98" d="M255.8,64.1c-2.4,1.3-5.2,2-8.2,2c-6.1,0-10.5-4.1-10.5-10.3c0-6.4,4.4-10.5,10.5-10.5c3,0,5.7,0.6,7.8,2.5
		l-2.6,2.6c-1.3-1.2-3.2-1.9-5.2-1.9c-4.1,0-6.8,3.1-6.8,7.1c0,4.2,2.7,7.4,6.8,7.4c1.8,0,3.4-0.3,4.6-1v-4.7h-4.1V54h7.6V64.1z"/>
	<path fill="#3D6C98" d="M262.3,60c0.2,2,1.7,3.2,3.6,3.2c1.7,0,2.8-0.8,3.6-1.8l2.4,1.8c-1.6,1.9-3.6,2.7-5.7,2.7
		c-4.1,0-7.3-2.8-7.3-7.1c0-4.2,3.2-7.1,7.3-7.1c3.8,0,6.3,2.6,6.3,7.3V60H262.3z M269.2,57.5c0-2-1.3-3.2-3.4-3.2
		c-2,0-3.2,1.3-3.5,3.2H269.2z"/>
	<path fill="#3D6C98" d="M275.7,52.1h3.2v2.2h0.1c0.6-1.3,1.9-2.5,4.1-2.5c3.6,0,4.9,2.5,4.9,5.3v8.5h-3.4v-6.8
		c0-1.5-0.1-3.9-2.5-3.9c-2.2,0-3.1,1.6-3.1,3.4v7.3h-3.4V52.1z"/>
	<path fill="#3D6C98" d="M298.3,51.8c4.1,0,7.3,2.8,7.3,7.1c0,4.2-3.2,7.1-7.3,7.1c-4.1,0-7.3-2.8-7.3-7.1
		C291,54.6,294.2,51.8,298.3,51.8z M298.3,62.9c2.5,0,3.9-1.9,3.9-4c0-2.1-1.5-4-3.9-4c-2.5,0-3.9,1.9-3.9,4
		C294.3,60.9,295.8,62.9,298.3,62.9z"/>
	<path fill="#3D6C98" d="M308.6,52.1h3.2v2.1h0.1c0.6-1.3,1.9-2.4,4.1-2.4c2.1,0,3.5,0.8,4.2,2.5c1-1.7,2.4-2.5,4.4-2.5
		c3.6,0,4.8,2.5,4.8,5.8v8H326v-7.6c0-1.7-0.5-3.1-2.5-3.1c-2.1,0-2.9,1.7-2.9,3.5v7.3h-3.4v-8c0-1.7-0.7-2.7-2.3-2.7
		c-2.2,0-3.1,1.6-3.1,3.4v7.3h-3.4V52.1z"/>
	<path fill="#3D6C98" d="M335.7,60c0.2,2,1.7,3.2,3.6,3.2c1.7,0,2.8-0.8,3.6-1.8l2.4,1.8c-1.6,1.9-3.6,2.7-5.7,2.7
		c-4.1,0-7.3-2.8-7.3-7.1c0-4.2,3.2-7.1,7.3-7.1c3.8,0,6.3,2.6,6.3,7.3V60H335.7z M342.6,57.5c0-2-1.3-3.2-3.4-3.2
		c-2,0-3.2,1.3-3.5,3.2H342.6z"/>
	<path fill="#3D6C98" d="M152.6,76.4c-1.5-1.5-2.8-2-4.2-2c-4.1,0-6.8,3.1-6.8,7.1c0,4.2,2.7,7.4,6.8,7.4c1.6,0,3.1-0.7,4.5-2.4
		l2.9,2.1c-1.8,2.5-4.5,3.5-7.4,3.5c-6.1,0-10.5-4.1-10.5-10.3c0-6.4,4.4-10.5,10.5-10.5c2.7,0,5,0.9,6.9,3.1L152.6,76.4z"/>
	<path fill="#3D6C98" d="M164.5,77.8c4.1,0,7.3,2.8,7.3,7.1c0,4.2-3.2,7.1-7.3,7.1c-4.1,0-7.3-2.8-7.3-7.1
		C157.2,80.6,160.4,77.8,164.5,77.8z M164.5,88.9c2.5,0,3.9-1.9,3.9-4c0-2.1-1.5-4-3.9-4c-2.5,0-3.9,1.9-3.9,4
		C160.6,86.9,162,88.9,164.5,88.9z"/>
	<path fill="#3D6C98" d="M174.9,78.1h3.2v2.2h0.1c0.6-1.3,1.9-2.5,4.1-2.5c3.6,0,4.9,2.5,4.9,5.3v8.5h-3.4v-6.8
		c0-1.5-0.1-3.9-2.5-3.9c-2.2,0-3.1,1.6-3.1,3.4v7.3h-3.4V78.1z"/>
	<path fill="#3D6C98" d="M198.1,81.8c-0.6-0.9-1.5-1.4-2.6-1.4c-0.9,0-2,0.4-2,1.4c0,2.4,7.3,0.4,7.3,5.7c0,3.2-3.1,4.3-5.8,4.3
		c-2.1,0-3.9-0.5-5.2-2.1l2.2-2.1c0.9,1,1.8,1.7,3.2,1.7c1,0,2.2-0.5,2.2-1.5c0-2.8-7.3-0.6-7.3-5.7c0-3,2.7-4.3,5.4-4.3
		c1.8,0,3.7,0.6,4.8,2L198.1,81.8z"/>
	<path fill="#3D6C98" d="M210,77.8c4.1,0,7.3,2.8,7.3,7.1c0,4.2-3.2,7.1-7.3,7.1c-4.1,0-7.3-2.8-7.3-7.1
		C202.7,80.6,206,77.8,210,77.8z M210,88.9c2.5,0,3.9-1.9,3.9-4c0-2.1-1.5-4-3.9-4c-2.5,0-3.9,1.9-3.9,4
		C206.1,86.9,207.6,88.9,210,88.9z"/>
	<path fill="#3D6C98" d="M220.4,78.1h3.4v2.1h0.1c0.7-1.5,2.2-2.5,4-2.5c0.4,0,0.8,0.1,1.2,0.2v3.2c-0.6-0.1-1.1-0.3-1.6-0.3
		c-3.2,0-3.6,2.7-3.6,3.4v7.2h-3.4V78.1z"/>
	<path fill="#3D6C98" d="M230.4,81v-2.9h2.8v-3.9h3.4v3.9h3.7V81h-3.7v5.9c0,1.3,0.4,2.2,1.9,2.2c0.6,0,1.4-0.1,1.8-0.4v2.8
		c-0.7,0.3-1.9,0.4-2.7,0.4c-3.6,0-4.4-1.6-4.4-4.8V81H230.4z"/>
	<path fill="#3D6C98" d="M245.2,71.5c1.2,0,2.2,0.9,2.2,2s-1,2-2.2,2c-1.2,0-2.1-1-2.1-2C243,72.5,243.9,71.5,245.2,71.5z
		 M243.5,78.1h3.4v13.4h-3.4V78.1z"/>
	<path fill="#3D6C98" d="M263,91.6h-3.2v-2.2h-0.1c-0.6,1.3-1.9,2.5-4.1,2.5c-3.6,0-4.9-2.5-4.9-5.3v-8.5h3.4v6.8
		c0,1.5,0.1,3.9,2.5,3.9c2.2,0,3.1-1.6,3.1-3.4v-7.3h3.4V91.6z"/>
	<path fill="#3D6C98" d="M266.9,78.1h3.2v2.1h0.1c0.6-1.3,1.9-2.4,4.1-2.4c2.1,0,3.5,0.8,4.2,2.5c1-1.7,2.4-2.5,4.4-2.5
		c3.6,0,4.8,2.5,4.8,5.8v8h-3.4v-7.6c0-1.7-0.5-3.1-2.5-3.1c-2.1,0-2.9,1.7-2.9,3.5v7.3h-3.4v-8c0-1.7-0.7-2.7-2.3-2.7
		c-2.2,0-3.1,1.6-3.1,3.4v7.3h-3.4V78.1z"/>
</g>
<g>
	<g>
		<path fill="#BA141A" d="M46.6,90.2C46.6,90.2,46.6,90.2,46.6,90.2c3.5-4.1,6.7-7.6,7.8-13c0.8-4.2-0.1-7.8-1.9-11v0h0
			c-2-3.4-5.2-6.3-8.5-8.8c6-4.2,11.4-8.3,10.6-17.2c-0.4-4.7-3-8.7-6-12.2c-0.8-1-1.6-1.9-2.4-2.9c4.5-3.2,8.3-6.8,8.5-13.2
			c0.1-1.5-4-3.1-4-4c0,1.1-0.2,2.2-0.5,3.2h-6.1V13h5.4c-1.3,3.1-3.7,5.4-6.5,7.6c-0.5-1-1-2.1-1.4-3.2h2.4v-1.9h-2.9
			c-0.2-1.1-0.4-2.2-0.4-3.5c0-1.6-3.9-3-4-4c0.1,4.7,1.5,8.9,4.4,12.6c0.2,0.3,0.4,0.6,0.7,0.8c-3,2.2-6.3,4.2-9.1,6.5
			c-7.5,6.4-6.1,15.4,0,22.1c1.6,1.8,3.4,3.3,5.3,4.7C37.1,55.5,36,56.2,35,57c-7.7,5.6-9.8,14.6-3.5,22.2c2.7,3.2,5.9,5.8,9.3,8.2
			c0.2,0.1,0.4,0.3,0.6,0.4c-2.8,3.7-4.3,7.6-4.5,12.5c0,1.5,4,3.1,4,4c0-1.2,0.2-2.4,0.4-3.5h9.6c0.7,1.4,3.8,2.6,3.8,3.5
			C54.5,98.5,50.9,93.9,46.6,90.2z M31.6,73.5c0-0.1,0-0.3,0-0.4h18.9c-0.2,1.1-0.5,2.2-0.8,3.2H31.9C31.7,75.4,31.6,74.5,31.6,73.5
			z M32.7,68.1h17.9c0.1,1,0.1,2.1,0,3.1H31.7C31.9,70.1,32.3,69.1,32.7,68.1z M33.8,66.2c0.7-1,1.5-1.9,2.3-2.8h13.1c0,0,0,0,0,0
			c0.5,0.9,0.8,1.8,1.1,2.8H33.8z M47.7,61.5h-9.5c0,0,0,0,0,0c1.5-1.2,3.1-2.4,4.7-3.5C44.6,59.1,46.3,60.2,47.7,61.5z M32.1,46.3
			c-0.1-0.2-0.1-0.4-0.2-0.6h16.6c-0.6,0.9-1.4,1.8-2.2,2.6H33C32.6,47.7,32.3,47.1,32.1,46.3z M36.2,32.5c0.5-0.5,1-0.9,1.5-1.3
			h5.9v-1.9h-3.5c1.8-1.3,3.6-2.5,5.4-3.7c2,2.5,3.8,5.1,4.7,8.4c0,0.1,0.1,0.3,0.1,0.4h-8.5v1.9h8.8c0.4,2.9-0.1,5.4-1.1,7.5h-18
			c-0.1-0.9-0.1-1.8,0.1-2.7h13.9v-1.9H32C32.8,36.7,34.3,34.4,36.2,32.5z M34.3,50.2h9.9c-1.6,1.4-3.3,2.6-5.1,3.9
			C37.4,52.9,35.7,51.7,34.3,50.2z M32.6,78.1h16.2c-0.5,1-1.1,1.9-1.7,2.8H34.4C33.7,80.1,33.1,79.1,32.6,78.1z M40.7,85.8
			c-1.5-1-3-2-4.3-3.1h9.2c-0.8,1-1.6,1.9-2.4,2.8c-0.4,0.4-0.7,0.8-1.1,1.3C41.7,86.5,41.2,86.2,40.7,85.8z M49.1,94.5h-5.5
			c0.7-1.2,1.5-2.3,2.4-3.5C47.2,92.1,48.3,93.2,49.1,94.5z M42.6,96.4H50c0.3,0.8,0.5,1.6,0.6,2.5h-8.9C42,98,42.3,97.2,42.6,96.4z
			"/>
	</g>
</g>
</svg>
