<?xml version="1.0" encoding="utf-8"?>
<!-- Generator: Adobe Illustrator 18.1.1, SVG Export Plug-In . SVG Version: 6.00 Build 0)  -->
<svg version="1.1" id="Layer_1" xmlns="http://www.w3.org/2000/svg" xmlns:xlink="http://www.w3.org/1999/xlink" x="0px" y="0px"
	 viewBox="0 0 215.8 147.8" enable-background="new 0 0 215.8 147.8" xml:space="preserve">
<g>
	<defs>
		<rect id="SVGID_1_" x="0" width="215.8" height="147.8"/>
	</defs>
	<clipPath id="SVGID_2_">
		<use xlink:href="#SVGID_1_"  overflow="visible"/>
	</clipPath>
	<path clip-path="url(#SVGID_2_)" fill="#FFFFFF" d="M212.5,66.8l-64-64c-3.9-3.9-10.2-3.9-14.1,0c-3.9,3.9-3.9,10.2,0,14.1
		l46.9,46.9H10.3c-5.5,0-10,4.5-10,10c0,5.5,4.5,10,10,10h170.9l-46.9,46.9c-3.9,3.9-3.9,10.2,0,14.1c2,2,4.5,2.9,7.1,2.9
		c2.6,0,5.1-1,7.1-2.9l64-64C216.4,77.1,216.4,70.8,212.5,66.8L212.5,66.8z M212.1,66.8"/>
</g>
</svg>
