<?xml version="1.0" encoding="utf-8"?>
<!-- Generator: Adobe Illustrator 18.1.1, SVG Export Plug-In . SVG Version: 6.00 Build 0)  -->
<svg version="1.1" id="actions" xmlns="http://www.w3.org/2000/svg" xmlns:xlink="http://www.w3.org/1999/xlink" x="0px" y="0px"
	 viewBox="0 0 105.7 122.4" enable-background="new 0 0 105.7 122.4" xml:space="preserve">
<g id="miu_1_">
	<g id="Artboard-1_1_" transform="translate(-899.000000, -479.000000)">
		<g id="slice_1_" transform="translate(215.000000, 119.000000)">
		</g>
		<path id="editor-trash-delete-recycle-bin-glyph" fill="#8FA24D" d="M901.8,484.6c0,0-2.8,0-2.8,5.6c0,5.6,2.8,5.6,2.8,5.6h100.1
			c0,0,2.8,0,2.8-5.6c0-5.6-2.8-5.6-2.8-5.6H901.8L901.8,484.6z M904.4,501.3H999l-11.1,100.1h-72.3L904.4,501.3z M943.4,479
			c-5.6,0-5.6,5.6-5.6,5.6h27.8c0,0,0-5.6-5.6-5.6H943.4L943.4,479z M932.2,590.3h5.6l-5.6-89.2h-5.6L932.2,590.3z M971.2,501
			l-5.6,89.2h5.6l5.6-89.2H971.2L971.2,501z M948.9,501v89.2h5.6V501H948.9L948.9,501z"/>
	</g>
</g>
</svg>
