<?xml version="1.0" encoding="utf-8"?>
<!-- Generator: Adobe Illustrator 18.1.1, SVG Export Plug-In . SVG Version: 6.00 Build 0)  -->
<svg version="1.1" id="Layer_3" xmlns="http://www.w3.org/2000/svg" xmlns:xlink="http://www.w3.org/1999/xlink" x="0px" y="0px"
	 viewBox="0 0 57.9 57.9" enable-background="new 0 0 57.9 57.9" xml:space="preserve">
<g>
	<circle fill="#C0CE76" cx="29" cy="29" r="29"/>
</g>
<g>
	<path fill="#FFFFFF" d="M40.4,45.6h-25v-31h25V45.6z M16.4,44.6h23v-29h-23V44.6z"/>
	<path fill="#FFFFFF" d="M41.4,45.6h-26v-32h26V45.6z M16.4,44.6v-30h24h-24V44.6z M17.4,43.6h22v-28h-22V43.6z"/>
</g>
<rect x="20.4" y="17.6" fill="#FFFFFF" width="7" height="7"/>
<g>
	<polygon fill="#8FA24D" points="30.1,17.2 29,16.1 24.8,20.3 23.1,18.7 22,19.7 24.8,22.5 	"/>
</g>
<rect x="20.4" y="27.6" fill="#FFFFFF" width="16" height="2"/>
<rect x="20.4" y="32.6" fill="#FFFFFF" width="16" height="2"/>
<rect x="20.4" y="37.6" fill="#FFFFFF" width="16" height="2"/>
</svg>
