<?xml version="1.0" encoding="utf-8"?>
<!-- Generator: Adobe Illustrator 18.1.1, SVG Export Plug-In . SVG Version: 6.00 Build 0)  -->
<svg version="1.1" id="_x34_" xmlns="http://www.w3.org/2000/svg" xmlns:xlink="http://www.w3.org/1999/xlink" x="0px" y="0px"
	 viewBox="0 0 36 36" enable-background="new 0 0 36 36" xml:space="preserve">
<circle fill="#C1CE76" cx="18.1" cy="18.1" r="17.4"/>
<path fill="#FFFFFF" d="M22.6,25.3h-0.7c-2.8,0-5-2-5.6-4.8l0,0l-2.1-9.3C14,10.9,14,10.4,14,10l0,0c0-2.4,1.5-4.6,3.9-5.4l0,0
	l0.4,1.2c-1.8,0.5-3,2.3-3,4.2l0,0c0,0.3,0,0.6,0.1,1l0,0l2.1,9.3c0.5,2.3,2.2,3.8,4.4,3.8l0,0h0.7c2.1,0,3.4-1.4,4-3.8l0,0l2.1-9.3
	c0.1-0.3,0.1-0.7,0.1-1l0,0c0-1.9-1.2-3.6-3-4.2l0,0h0l0.4-1.2c2.3,0.7,3.8,3,3.8,5.4l0,0c0,0.4,0,0.8-0.1,1.2l0,0l-2.1,9.3
	C27.2,23.2,25.4,25.3,22.6,25.3L22.6,25.3C22.6,25.3,22.6,25.3,22.6,25.3L22.6,25.3z"/>
<rect x="18" y="3.7" transform="matrix(0.9622 -0.2725 0.2725 0.9622 -0.6729 5.2888)" fill="#FFFFFF" width="1.5" height="2.7"/>
<rect x="24.6" y="3.7" transform="matrix(-0.9621 -0.2727 0.2727 -0.9621 48.3972 16.8601)" fill="#FFFFFF" width="1.5" height="2.7"/>
<circle fill="#FFFFFF" cx="8.5" cy="13.7" r="2.8"/>
<path fill="#FFFFFF" d="M14.3,33c-3.7,0-6.4-3.6-6.4-7.9l0,0v-9.4h1.3v9.4c0,3.8,2.4,6.6,5.2,6.6l0,0h2.5c2.7,0,5.2-2.9,5.2-6.6l0,0
	v-0.7h1.2v0.7c0,4.2-2.8,7.8-6.4,7.9l0,0H14.3L14.3,33z"/>
</svg>
