<?xml version="1.0" encoding="utf-8"?>
<!-- Generator: Adobe Illustrator 18.1.1, SVG Export Plug-In . SVG Version: 6.00 Build 0)  -->
<svg version="1.1" id="Layer_1" xmlns="http://www.w3.org/2000/svg" xmlns:xlink="http://www.w3.org/1999/xlink" x="0px" y="0px"
	 viewBox="-379.9 297 17.9 20" enable-background="new -379.9 297 17.9 20" xml:space="preserve">
<g transform="translate(0 -1028.4)">
	<path fill="#3365A0" d="M-374.6,1336.1c-2.9,1.3-5,4-5.3,7.3c0,1.1,0.8,2,1.9,2h14c1.1,0,1.9-0.9,1.9-2c-0.4-3.3-2.5-6-5.3-7.3
		c-0.6,1.3-2,2.3-3.6,2.3S-373.9,1337.4-374.6,1336.1z"/>
	<path fill="#3365A0" d="M-366,1330.4c0,2.8-2.2,5-5,5s-5-2.2-5-5s2.2-5,5-5S-366,1327.6-366,1330.4z"/>
	<path fill="#3365A0" d="M-371,1334.4c-1.3,0-2.5,0.3-3.6,0.8c-2.9,1.3-5,4-5.3,7.2c0,1.1,0.8,2,1.9,2h14c1.1,0,1.9-0.9,1.9-2
		c-0.4-3.3-2.5-6-5.3-7.2C-368.5,1334.7-369.7,1334.4-371,1334.4z"/>
</g>
</svg>
