<?xml version="1.0" encoding="utf-8"?>
<!-- Generator: Adobe Illustrator 18.1.1, SVG Export Plug-In . SVG Version: 6.00 Build 0)  -->
<svg version="1.1" id="Layer_1" xmlns="http://www.w3.org/2000/svg" xmlns:xlink="http://www.w3.org/1999/xlink" x="0px" y="0px"
	 viewBox="0 11.3 27.5 27.4" enable-background="new 0 11.3 27.5 27.4" xml:space="preserve">
<circle fill="#FFFFFF" cx="13.8" cy="25" r="13.3"/>
<path fill="#FFAB00" d="M13.8,38.7C6.1,38.7,0,32.5,0,25s6.1-13.7,13.8-13.7S27.5,17.4,27.5,25S21.4,38.7,13.8,38.7z M13.8,12.5
	c-7,0-12.6,5.6-12.6,12.5s5.6,12.5,12.6,12.5S26.3,31.9,26.3,25S20.7,12.5,13.8,12.5z"/>
<g id="Layer_1_copy" display="none">
	<path display="inline" fill="#DFDFE0" d="M13.8,38.7C6.1,38.7,0,32.5,0,25s6.1-13.7,13.8-13.7S27.5,17.4,27.5,25
		S21.4,38.7,13.8,38.7z M13.8,12.5c-7,0-12.6,5.6-12.6,12.5s5.6,12.5,12.6,12.5S26.3,31.9,26.3,25S20.7,12.5,13.8,12.5z"/>
	<path display="inline" fill="#B5B5B5" d="M11.1,28.9l3.6-3.6l-3.6-3.6l1.1-1.1l4.7,4.7l-4.7,4.7L11.1,28.9z"/>
</g>
<g id="Layer_1_copy_2" display="none">
	<path display="inline" fill="#DFDFE0" d="M13.8,38.7C6.1,38.7,0,32.5,0,25s6.1-13.7,13.8-13.7S27.5,17.4,27.5,25
		S21.4,38.7,13.8,38.7z M13.8,12.5c-7,0-12.6,5.6-12.6,12.5s5.6,12.5,12.6,12.5S26.3,31.9,26.3,25S20.7,12.5,13.8,12.5z"/>
	<path display="inline" fill="#B5B5B5" d="M15.3,29.9l-4.7-4.7l4.7-4.7l1.1,1.1l-3.6,3.6l3.6,3.6L15.3,29.9z"/>
</g>
<g>
	<path fill="#FFAB00" d="M18.2,19.9v10.2H9.3V19.9H18.2 M18.5,18.4H9c-0.7,0-1.2,0.5-1.2,1.2v10.8c0,0.6,0.6,1.2,1.2,1.2h9.5
		c0.7,0,1.2-0.5,1.2-1.2V19.6C19.7,19,19.2,18.4,18.5,18.4L18.5,18.4z"/>
	<g>
		<g>
			<rect x="11.1" y="24.3" fill="#FFAB00" width="5.3" height="1.5"/>
		</g>
		<g>
			<rect x="11.1" y="21.4" fill="#FFAB00" width="5.3" height="1.5"/>
		</g>
		<g>
			<rect x="11.1" y="27.1" fill="#FFAB00" width="5.3" height="1.5"/>
		</g>
	</g>
</g>
</svg>
