<?xml version="1.0" encoding="utf-8"?>
<!-- Generator: Adobe Illustrator 18.1.1, SVG Export Plug-In . SVG Version: 6.00 Build 0)  -->
<svg version="1.1" id="_x31_" xmlns="http://www.w3.org/2000/svg" xmlns:xlink="http://www.w3.org/1999/xlink" x="0px" y="0px"
	 viewBox="0 0 32.5 32.5" enable-background="new 0 0 32.5 32.5" xml:space="preserve">
<circle fill="#C1CF76" cx="16.2" cy="16.2" r="16.2"/>
<rect x="8.3" y="15.3" fill="#FFFFFF" width="15.7" height="11.1"/>
<path fill="#FFFFFF" d="M18.9,19.1c0-1.1,0-7.4,0-8.5l0,0c0-1.4-1.1-2.5-2.5-2.5l0,0c-1.4,0-2.5,1.1-2.5,2.5l0,0c0,1.1,0,1.5,0,2.6
	l0,0h-2c0-1.1,0-1.5,0-2.6l0,0c0-2.5,2-4.5,4.5-4.5l0,0c2.5,0,4.5,2,4.5,4.5l0,0c0,1.1,0,7.4,0,8.5l0,0h0H18.9L18.9,19.1z"/>
<path fill="#C1CF76" d="M17.9,18.7c0-0.9-0.7-1.6-1.6-1.6c-0.9,0-1.6,0.7-1.6,1.6c0,0.5,0.3,1,0.7,1.3l-0.5,4.4h2.8L17.2,20
	C17.6,19.7,17.9,19.2,17.9,18.7z"/>
</svg>
