<?xml version="1.0" encoding="utf-8"?>
<!-- Generator: Adobe Illustrator 18.1.1, SVG Export Plug-In . SVG Version: 6.00 Build 0)  -->
<svg version="1.1" id="Layer_1" xmlns="http://www.w3.org/2000/svg" xmlns:xlink="http://www.w3.org/1999/xlink" x="0px" y="0px"
	 viewBox="0 0 100 100" enable-background="new 0 0 100 100" xml:space="preserve">
<path fill="#8FA6C4" d="M53.2,98.5L83,68.8c1.8-1.8,1.8-4.8,0-6.6c-1.8-1.8-4.8-1.8-6.6,0L54.5,84V4.6c0-2.5-2-4.7-4.7-4.7
	c-2.5,0-4.7,2.1-4.7,4.7v79.5L23.5,62.2c-1.8-1.8-4.8-1.8-6.6,0c-0.9,0.9-1.3,2.1-1.3,3.2c0,1.2,0.4,2.4,1.3,3.2l29.8,29.8
	C48.5,100.4,51.4,100.4,53.2,98.5L53.2,98.5z"/>
</svg>
