<?xml version="1.0" encoding="utf-8"?>
<!-- Generator: Adobe Illustrator 18.1.1, SVG Export Plug-In . SVG Version: 6.00 Build 0)  -->
<svg version="1.1" id="_x33_" xmlns="http://www.w3.org/2000/svg" xmlns:xlink="http://www.w3.org/1999/xlink" x="0px" y="0px"
	 viewBox="0 0 36 36" enable-background="new 0 0 36 36" xml:space="preserve">
<circle fill="#C1CE76" cx="18.1" cy="18.1" r="17.4"/>
<rect x="9.9" y="5.4" fill="#8DA14C" width="10.7" height="25.6"/>
<rect x="14.8" y="8.1" transform="matrix(0.9999 -1.140285e-02 1.140285e-02 0.9999 -0.1018 0.1938)" fill="#FFFFFF" width="4.3" height="1.9"/>
<rect x="14.8" y="12.1" fill="#FFFFFF" width="4.3" height="1.9"/>
<rect x="14.8" y="16" fill="#FFFFFF" width="4.3" height="1.9"/>
<path fill="#8DA14C" d="M0.7,18c0,5,2.1,9.5,5.5,12.6V5.4H6.2C2.8,8.6,0.7,13,0.7,18z"/>
<rect x="0.4" y="8.1" transform="matrix(0.9999 -1.140145e-02 1.140145e-02 0.9999 -0.1028 3.018988e-02)" fill="#FFFFFF" width="4.3" height="1.9"/>
<rect x="0.4" y="12.1" fill="#FFFFFF" width="4.3" height="1.9"/>
<rect x="0.4" y="16" fill="#FFFFFF" width="4.3" height="1.9"/>
<path fill="#FFFFFF" d="M35.4,19.4c0-0.4,0.1-0.9,0.1-1.3c0-0.5,0-1.1-0.1-1.6l-5.8-4.1v3.8h-7.2V20h7.2v3.6L35.4,19.4z"/>
<polygon fill="#FFFFFF" points="26.5,13.4 30.6,10.5 26.5,7.6 26.5,9.6 22.7,9.6 22.7,11.5 26.5,11.5 "/>
<polygon fill="#FFFFFF" points="26.5,28.2 30.6,25.3 26.5,22.4 26.5,24.4 22.7,24.4 22.7,26.4 26.5,26.4 "/>
</svg>
