<?xml version="1.0" encoding="utf-8"?>
<!-- Generator: Adobe Illustrator 18.1.1, SVG Export Plug-In . SVG Version: 6.00 Build 0)  -->
<svg version="1.1" id="Layer_1" xmlns="http://www.w3.org/2000/svg" xmlns:xlink="http://www.w3.org/1999/xlink" x="0px" y="0px"
	 viewBox="0 0 98.8 68" enable-background="new 0 0 98.8 68" xml:space="preserve">
<path fill="#8FA6C4" d="M97.4,30.7L68,1.3c-1.8-1.8-4.7-1.8-6.5,0c-1.8,1.8-1.8,4.7,0,6.5l21.5,21.6H4.6C2.1,29.4,0,31.4,0,34
	c0,2.5,2.1,4.6,4.6,4.6h78.5L61.5,60.1c-1.8,1.8-1.8,4.7,0,6.5c0.9,0.9,2.1,1.3,3.2,1.3c1.2,0,2.4-0.4,3.2-1.3l29.4-29.4
	C99.2,35.4,99.2,32.5,97.4,30.7L97.4,30.7z M97.4,30.7"/>
</svg>
