<?xml version="1.0" encoding="utf-8"?>
<!-- Generator: Adobe Illustrator 18.1.1, SVG Export Plug-In . SVG Version: 6.00 Build 0)  -->
<svg version="1.1" id="_x31_4" xmlns="http://www.w3.org/2000/svg" xmlns:xlink="http://www.w3.org/1999/xlink" x="0px" y="0px"
	 viewBox="0 0 30 30" enable-background="new 0 0 30 30" xml:space="preserve">
<circle fill="#C1CF76" cx="15.1" cy="15" r="14.1"/>
<g enable-background="new    ">
	<g>
		<path fill="#FFFFFF" d="M23.2,19.1C23.2,19.1,23.1,19.1,23.2,19.1c-0.1,0-0.1,0.1-0.1,0.1c0,0,0,0-0.1,0c0,0,0,0-0.1,0
			c0,0,0,0,0.1,0c0,0,0,0,0.1,0C23.1,19.2,23.1,19.2,23.2,19.1C23.1,19.1,23.2,19.1,23.2,19.1"/>
	</g>
</g>
<g enable-background="new    ">
	<g>
		<g>
			<path fill="#FFFFFF" d="M19.7,12.3c0,0,0.1,0,0.1,0c0,0,0.1,0,0.1,0c0,0,0.1,0,0.1,0c0,0,0.1,0,0.1,0c0,0-0.1,0-0.1,0
				c0,0-0.1,0-0.1,0c0,0-0.1,0-0.1,0C19.8,12.3,19.8,12.3,19.7,12.3"/>
		</g>
		<g>
			<polyline fill="#D4587D" points="26.2,23.5 26.2,23.5 26.1,23.4 26.1,23.4 26.1,23.4 26.1,22.6 26.2,23.5 			"/>
		</g>
	</g>
</g>
<g enable-background="new    ">
	<g>
		<path fill="#FFFFFF" d="M25,15.6c0.3,0.3,1.1,0.7,1.2,1.1l-0.1-3.2c-0.1-0.4-0.9-0.7-1.1-1c0.3-1.4-0.1-5.1-1.5-6
			c-0.8-0.4-1.5,0-1.8,0.7c-0.5,1.1-0.3,2.3,0.1,3.4c-1.3-0.4-2.6-0.7-3.9-0.9c1-1.8,0.2-4.9-2.9-5.2v0c-3.1,0.3-3.9,3.4-3,5.2
			c-1.3,0.2-2.7,0.4-3.9,0.9c0.4-1.1,0.6-2.4,0-3.4C7.7,6.5,7,6,6.3,6.5c-1.7,1.3-1.6,5.3-1.5,6c-0.2,0.3-1,0.6-1.1,1l-0.1,3.2
			c0.1-0.4,0.9-0.7,1.1-0.9c-0.3,2.8-0.7,7-0.7,7s0.6,0,1,0c0.2,0,0.4-2,0.6-3.1c0.1-0.1,0.3-0.2,0.4-0.2c0.2,0.9,0.5,3.3,0.5,3.3
			h2.1c0,0-0.8-7.9-0.9-8.8c1.4-0.5,2.8-0.8,4.2-0.9c-0.5,2.8-1.5,9.7-1.5,9.7h2.9c0,0,0.8-3.9,1.1-5c0.2,0,0.4,0,0.6,0
			c0.3,1,1.1,5,1.1,5H19c0,0-1-6.9-1.5-9.7c1.5,0.1,2.9,0.4,4.3,0.9c-0.3,2.6-0.9,8.9-0.9,8.9h2.2c0,0,0.4-2.4,0.5-3.4
			c0.2,0.1,0.3,0.2,0.4,0.2c0.2,1.1,0.7,3.1,0.7,3.1h1C25.8,22.7,25.3,18.4,25,15.6"/>
	</g>
</g>
</svg>
