<?xml version="1.0" encoding="utf-8"?>
<!-- Generator: Adobe Illustrator 18.1.1, SVG Export Plug-In . SVG Version: 6.00 Build 0)  -->
<svg version="1.1" id="Layer_1" xmlns="http://www.w3.org/2000/svg" xmlns:xlink="http://www.w3.org/1999/xlink" x="0px" y="0px"
	 viewBox="0 268.2 792 75.6" enable-background="new 0 268.2 792 75.6" xml:space="preserve">
<g transform="translate(-23,-23)">
	<g>
		<path fill="#BB0E3D" d="M183.5,313.8h6.6v29.4h-6.6l-14-18.4v18.4H163v-29.4h6.1l14.4,18.9V313.8z"/>
		<path fill="#BB0E3D" d="M218.2,343.2l-2.7-6.3h-12.3l-2.7,6.3h-7l12.7-29.4h6.3l12.7,29.4H218.2L218.2,343.2z M209.3,322.6
			l-3.7,8.5h7.3L209.3,322.6z"/>
		<path fill="#BB0E3D" d="M238.8,319.5v23.7h-6.6v-23.7H224v-5.7h23.2v5.7H238.8L238.8,319.5z"/>
		<path fill="#BB0E3D" d="M251.9,313.8h6.6v29.4h-6.6V313.8z"/>
		<path fill="#BB0E3D" d="M290.4,339.1c-3,2.9-6.6,4.3-11,4.3c-4.3,0-8-1.4-11-4.3c-3-2.9-4.5-6.5-4.5-10.8c0-4.3,1.5-7.9,4.5-10.8
			c3-2.9,6.6-4.3,11-4.3c4.3,0,8,1.4,11,4.3c3,2.9,4.5,6.5,4.5,10.8C294.9,332.6,293.4,336.2,290.4,339.1z M288.2,328.3
			c0-2.6-0.8-4.9-2.5-6.7s-3.7-2.8-6.2-2.8c-2.5,0-4.5,0.9-6.2,2.8c-1.7,1.8-2.5,4.1-2.5,6.7c0,2.6,0.8,4.8,2.5,6.7
			c1.7,1.8,3.7,2.8,6.2,2.8c2.4,0,4.5-0.9,6.2-2.8C287.3,333.2,288.2,330.9,288.2,328.3z"/>
		<path fill="#BB0E3D" d="M320.9,313.8h6.6v29.4h-6.6l-14-18.4v18.4h-6.6v-29.4h6.1l14.4,18.9V313.8z"/>
		<path fill="#BB0E3D" d="M355.6,343.2l-2.7-6.3h-12.3l-2.7,6.3h-7l12.7-29.4h6.3l12.7,29.4H355.6L355.6,343.2z M346.8,322.6
			l-3.7,8.5h7.3L346.8,322.6z"/>
		<path fill="#BB0E3D" d="M366,343.2v-29.4h6.6v23.5h12.5v5.8H366z"/>
		<path fill="#BB0E3D" d="M414.4,337.4c3.2,0,5.9-1.3,7.9-3.8l4.2,4.3c-3.3,3.8-7.3,5.6-11.8,5.6c-4.5,0-8.2-1.4-11.2-4.3
			c-2.9-2.9-4.4-6.5-4.4-10.8s1.5-8,4.5-10.9c3-2.9,6.6-4.4,10.9-4.4c4.8,0,8.8,1.8,12.1,5.5l-4.1,4.6c-2.1-2.6-4.6-3.9-7.7-3.9
			c-2.5,0-4.6,0.8-6.3,2.4c-1.8,1.6-2.6,3.8-2.6,6.5c0,2.7,0.8,4.9,2.5,6.6C410.1,336.6,412.1,337.4,414.4,337.4z"/>
		<path fill="#BB0E3D" d="M452.4,343.2l-2.7-6.3h-12.3l-2.7,6.3h-7l12.7-29.4h6.3l12.7,29.4H452.4L452.4,343.2z M443.5,322.6
			l-3.7,8.5h7.3L443.5,322.6z"/>
		<path fill="#BB0E3D" d="M483.3,313.8h6.6v29.4h-6.6l-14-18.4v18.4h-6.6v-29.4h6.1l14.4,18.9L483.3,313.8L483.3,313.8z"/>
		<path fill="#BB0E3D" d="M510.5,337.4c3.2,0,5.9-1.3,7.9-3.8l4.2,4.3c-3.3,3.8-7.3,5.6-11.8,5.6c-4.5,0-8.2-1.4-11.2-4.3
			c-2.9-2.9-4.4-6.5-4.4-10.8s1.5-8,4.5-10.9s6.6-4.4,10.9-4.4c4.8,0,8.8,1.8,12.1,5.5l-4.1,4.6c-2.1-2.6-4.6-3.9-7.7-3.9
			c-2.5,0-4.6,0.8-6.3,2.4c-1.8,1.6-2.6,3.8-2.6,6.5c0,2.7,0.8,4.9,2.5,6.6C506.2,336.6,508.2,337.4,510.5,337.4z"/>
		<path fill="#BB0E3D" d="M548.9,313.8v5.8h-14.6v6h13.1v5.6h-13.1v6.1h15.1v5.8h-21.6v-29.4H548.9L548.9,313.8z"/>
		<path fill="#BB0E3D" d="M579.1,323.6c0,4.7-1.9,7.7-5.6,9.1l7.4,10.5h-8.1l-6.5-9.4h-4.5v9.4h-6.6v-29.4h11.1
			c4.6,0,7.8,0.8,9.8,2.3C578.1,317.7,579.1,320.2,579.1,323.6L579.1,323.6z M571.2,327.1c0.8-0.7,1.2-1.9,1.2-3.5
			c0-1.6-0.4-2.7-1.3-3.3c-0.8-0.6-2.3-0.9-4.4-0.9h-4.9v8.7h4.8C568.8,328.1,570.3,327.8,571.2,327.1z"/>
		<path fill="#BB0E3D" d="M596.9,313.8h6.6v29.4h-6.6V313.8z"/>
		<path fill="#BB0E3D" d="M631.2,313.8h6.6v29.4h-6.6l-14-18.4v18.4h-6.6v-29.4h6.1l14.4,18.9L631.2,313.8L631.2,313.8z"/>
		<path fill="#BB0E3D" d="M651.8,319.7c-0.6,0.5-0.9,1.2-0.9,2.1s0.4,1.5,1.2,2s2.5,1.1,5.3,1.8c2.8,0.7,4.9,1.7,6.5,3.1
			c1.5,1.4,2.3,3.4,2.3,6c0,2.6-1,4.8-3,6.4c-2,1.6-4.6,2.5-7.8,2.5c-4.6,0-8.8-1.7-12.6-5.2l3.9-4.8c3.2,2.8,6.1,4.2,8.8,4.2
			c1.2,0,2.1-0.3,2.8-0.8c0.7-0.5,1-1.2,1-2.1c0-0.9-0.4-1.6-1.1-2.1c-0.7-0.5-2.2-1-4.3-1.6c-3.4-0.8-5.9-1.9-7.5-3.2
			c-1.6-1.3-2.4-3.3-2.4-6.1s1-4.9,3-6.4s4.5-2.3,7.5-2.3c2,0,3.9,0.3,5.9,1c2,0.7,3.7,1.6,5.1,2.9l-3.3,4.8
			c-2.5-1.9-5.2-2.9-7.9-2.9C653.3,318.9,652.4,319.2,651.8,319.7L651.8,319.7z"/>
		<path fill="#BB0E3D" d="M683.9,319.5v23.7h-6.6v-23.7H669v-5.7h23.2v5.7H683.9z"/>
		<path fill="#BB0E3D" d="M697,313.8h6.6v29.4H697V313.8z"/>
		<path fill="#BB0E3D" d="M723.2,319.5v23.7h-6.6v-23.7h-8.3v-5.7h23.2v5.7H723.2z"/>
		<path fill="#BB0E3D" d="M744.1,335.6c1.1,1.4,2.6,2,4.4,2c1.8,0,3.3-0.7,4.4-2c1.1-1.4,1.6-3.2,1.6-5.6v-16.2h6.6v16.4
			c0,4.3-1.2,7.5-3.5,9.8c-2.4,2.3-5.4,3.4-9,3.4c-3.7,0-6.7-1.1-9-3.4c-2.4-2.3-3.5-5.6-3.5-9.8v-16.4h6.6V330
			C742.4,332.4,743,334.2,744.1,335.6z"/>
		<path fill="#BB0E3D" d="M780.3,319.5v23.7h-6.6v-23.7h-8.3v-5.7h23.2v5.7H780.3z"/>
		<path fill="#BB0E3D" d="M814.5,313.8v5.8h-14.6v6h13.1v5.6h-13.1v6.1H815v5.8h-21.6v-29.4H814.5z"/>
	</g>
	<g>
		<g>
			<path fill="#606060" d="M128,329l-21-37.8H31.1c-4.5,0-8.1,3.6-8.1,8.1v59.4c0,4.5,3.6,8.1,8.1,8.1H107L128,329z"/>
			<path fill="#BB0E3D" d="M125.9,295.1c-1.5-2.4-4.1-3.9-7-3.9h-6.3l21.3,37.8l-21.3,37.8h6.3c2.9,0,5.5-1.5,7-3.9l18.9-33.9
				L125.9,295.1z"/>
		</g>
		<g>
			<rect x="67.8" y="312.2" fill="#FFFFFF" width="5.6" height="33.6"/>
			<polygon fill="#FFFFFF" points="35.6,312.2 35.6,345.8 41.2,345.8 41.2,321.2 56.6,345.8 62.2,345.8 62.2,312.2 56.6,312.2 
				56.6,336.8 41.2,312.2 			"/>
			<polygon fill="#FFFFFF" points="84.6,312.2 79,312.2 79,345.8 84.6,345.8 84.6,331.8 100,331.8 100,345.8 105.6,345.8 
				105.6,312.2 100,312.2 100,326.2 84.6,326.2 			"/>
		</g>
	</g>
</g>
</svg>
