<?xml version="1.0" encoding="utf-8"?>
<!-- Generator: Adobe Illustrator 18.1.1, SVG Export Plug-In . SVG Version: 6.00 Build 0)  -->
<svg version="1.1" id="Layer_1" xmlns="http://www.w3.org/2000/svg" xmlns:xlink="http://www.w3.org/1999/xlink" x="0px" y="0px"
	 viewBox="0 8.2 100 83.5" enable-background="new 0 8.2 100 83.5" xml:space="preserve">
<path fill="#D0D0D0" d="M90.1,91.8H9.9c-5.4,0-9.9-4.5-9.9-9.9V18.1c0-5.4,4.4-9.9,9.9-9.9h80.3c5.4,0,9.9,4.4,9.9,9.9v63.8
	C100,87.3,95.6,91.8,90.1,91.8z"/>
<g>
	<g>
		<g>
			<defs>
				<rect id="SVGID_1_" x="25.5" y="33.2" width="49" height="33.6"/>
			</defs>
			<clipPath id="SVGID_2_">
				<use xlink:href="#SVGID_1_"  overflow="visible"/>
			</clipPath>
			<path clip-path="url(#SVGID_2_)" fill="#FFFFFF" d="M73.7,48.4L59.1,33.8c-0.9-0.9-2.3-0.9-3.2,0c-0.9,0.9-0.9,2.3,0,3.2
				l10.7,10.7H27.7c-1.2,0-2.3,1-2.3,2.3s1,2.3,2.3,2.3h38.8L55.9,62.9c-0.9,0.9-0.9,2.3,0,3.2c0.5,0.5,1,0.7,1.6,0.7
				c0.6,0,1.2-0.2,1.6-0.7l14.5-14.5C74.5,50.7,74.5,49.3,73.7,48.4L73.7,48.4z"/>
		</g>
	</g>
</g>
</svg>
