<?xml version="1.0" encoding="utf-8"?>
<!-- Generator: Adobe Illustrator 18.1.1, SVG Export Plug-In . SVG Version: 6.00 Build 0)  -->
<svg version="1.1" id="Layer_1" xmlns="http://www.w3.org/2000/svg" xmlns:xlink="http://www.w3.org/1999/xlink" x="0px" y="0px"
	 viewBox="0 0 26.6 96.3" enable-background="new 0 0 26.6 96.3" xml:space="preserve">
<g>
	<g>
		<path fill="#C8DAEE" d="M18.8,82.3C18.8,82.3,18.8,82.3,18.8,82.3c3.5-4.1,6.7-7.6,7.8-13c0.8-4.2-0.1-7.8-1.9-11v0h0
			c-2-3.4-5.2-6.3-8.5-8.8c6-4.2,11.4-8.3,10.6-17.2c-0.4-4.7-3-8.7-6-12.2c-0.8-1-1.6-1.9-2.4-2.9c4.5-3.2,8.3-6.8,8.5-13.2
			c0.1-1.5-4-3.1-4-4c0,1.1-0.2,2.2-0.5,3.2h-6.1V5h5.4c-1.3,3.1-3.7,5.4-6.5,7.6c-0.5-1-1-2.1-1.4-3.2h2.4V7.5h-2.9
			c-0.2-1.1-0.4-2.2-0.4-3.5c0-1.6-3.9-3-4-4c0.1,4.7,1.5,8.9,4.4,12.6c0.2,0.3,0.4,0.6,0.7,0.8c-3,2.2-6.3,4.2-9.1,6.5
			C-2.4,26.4-1,35.4,5.1,42c1.6,1.8,3.4,3.3,5.3,4.7c-1.1,0.8-2.2,1.5-3.2,2.3c-7.7,5.6-9.8,14.6-3.5,22.2c2.7,3.2,5.9,5.8,9.3,8.2
			c0.2,0.1,0.4,0.3,0.6,0.4c-2.8,3.7-4.3,7.6-4.5,12.5c0,1.5,4,3.1,4,4c0-1.2,0.2-2.4,0.4-3.5h9.6c0.7,1.4,3.8,2.6,3.8,3.5
			C26.7,90.5,23.1,86,18.8,82.3z M3.8,65.5c0-0.1,0-0.3,0-0.4h18.9c-0.2,1.1-0.5,2.2-0.8,3.2H4.2C3.9,67.4,3.8,66.5,3.8,65.5z
			 M4.9,60.1h17.9c0.1,1,0.1,2.1,0,3.1H3.9C4.1,62.1,4.5,61.1,4.9,60.1z M6,58.2c0.7-1,1.5-1.9,2.3-2.8h13.1c0,0,0,0,0,0
			c0.5,0.9,0.8,1.8,1.1,2.8H6z M19.9,53.6h-9.5c0,0,0,0,0,0c1.5-1.2,3.1-2.4,4.7-3.5C16.8,51.1,18.5,52.2,19.9,53.6z M4.3,38.4
			c-0.1-0.2-0.1-0.4-0.2-0.6h16.6c-0.6,0.9-1.4,1.8-2.2,2.6H5.2C4.8,39.8,4.5,39.1,4.3,38.4z M8.4,24.5c0.5-0.5,1-0.9,1.5-1.3h5.9
			v-1.9h-3.5c1.8-1.3,3.6-2.5,5.4-3.7c2,2.5,3.8,5.1,4.7,8.4c0,0.1,0.1,0.3,0.1,0.4H14v1.9h8.8c0.4,2.9-0.1,5.4-1.1,7.5h-18
			c-0.1-0.9-0.1-1.8,0.1-2.7h13.9v-1.9H4.2C5,28.8,6.5,26.4,8.4,24.5z M6.6,42.3h9.9c-1.6,1.4-3.3,2.6-5.1,3.9
			C9.6,45,7.9,43.8,6.6,42.3z M4.8,70.1H21c-0.5,1-1.1,1.9-1.7,2.8H6.7C5.9,72.1,5.3,71.2,4.8,70.1z M12.9,77.9c-1.5-1-3-2-4.3-3.1
			h9.2c-0.8,1-1.6,1.9-2.4,2.8c-0.4,0.4-0.7,0.8-1.1,1.3C13.9,78.5,13.4,78.2,12.9,77.9z M21.3,86.6h-5.5c0.7-1.2,1.5-2.3,2.4-3.5
			C19.4,84.1,20.5,85.2,21.3,86.6z M14.8,88.4h7.4c0.3,0.8,0.5,1.6,0.6,2.5h-8.9C14.2,90.1,14.5,89.2,14.8,88.4z"/>
	</g>
</g>
</svg>
