<?xml version="1.0" encoding="utf-8"?>
<!-- Generator: Adobe Illustrator 18.1.1, SVG Export Plug-In . SVG Version: 6.00 Build 0)  -->
<svg version="1.1" id="_x31_" xmlns="http://www.w3.org/2000/svg" xmlns:xlink="http://www.w3.org/1999/xlink" x="0px" y="0px"
	 viewBox="0 0 30 30" enable-background="new 0 0 30 30" xml:space="preserve">
<circle fill="#C1CF76" cx="15.1" cy="15" r="14.1"/>
<rect x="8.1" y="12.5" fill="#FFFFFF" width="13.6" height="9.7"/>
<path fill="none" stroke="#FFFFFF" stroke-width="2" d="M18.3,18.2c0-0.9,0-6.4,0-7.4c0-1.7-1.4-3.1-3.1-3.1c-1.7,0-3.1,1.4-3.1,3.1
	c0,0.9,0,7.9,0,8.8"/>
<path fill="#C1CF76" d="M16.5,15.5c0-0.8-0.6-1.4-1.4-1.4c-0.8,0-1.4,0.6-1.4,1.4c0,0.5,0.2,0.9,0.6,1.1l-0.4,3.8h2.5l-0.4-3.8
	C16.3,16.3,16.5,15.9,16.5,15.5z"/>
</svg>
