<?xml version="1.0" encoding="utf-8"?>
<!-- Generator: Adobe Illustrator 18.1.1, SVG Export Plug-In . SVG Version: 6.00 Build 0)  -->
<svg version="1.1" id="Layer_1" xmlns="http://www.w3.org/2000/svg" xmlns:xlink="http://www.w3.org/1999/xlink" x="0px" y="0px"
	 viewBox="0 0 100 100" enable-background="new 0 0 100 100" xml:space="preserve">
<circle fill="#FFFFFF" cx="50" cy="50" r="47.4"/>
<g>
	<path fill="#E0E0E0" d="M50,99.3C22.6,99.3,0.5,77.1,0.5,50S22.6,0.7,50,0.7S99.5,22.9,99.5,50S77.4,99.3,50,99.3z M50,4.9
		C24.9,4.9,4.8,25.2,4.8,50S25,95.1,50,95.1S95.2,74.8,95.2,50S75.1,4.9,50,4.9z"/>
	<g>
		<path fill="#B5B6B6" d="M61.7,67.4L44.9,50.7l16.9-16.9l4,4L52.7,50.9L65.8,64L61.7,67.4z"/>
		<path fill="#B5B6B6" d="M35.8,33.1L52.7,50L35.8,66.9l-4-4l13.1-13.1L31.8,36.6L35.8,33.1z"/>
	</g>
</g>
</svg>
