<?xml version="1.0" encoding="utf-8"?>
<!-- Generator: Adobe Illustrator 18.1.1, SVG Export Plug-In . SVG Version: 6.00 Build 0)  -->
<svg version="1.1" id="Layer_1" xmlns="http://www.w3.org/2000/svg" xmlns:xlink="http://www.w3.org/1999/xlink" x="0px" y="0px"
	 viewBox="0 0 100 100" enable-background="new 0 0 100 100" xml:space="preserve">
<ellipse fill="#FFFFFF" cx="50" cy="50.2" rx="45.5" ry="46"/>
<g>
	<path fill="#3365A0" d="M49.7,98.9c-27,0-48.6-21.6-48.6-48.6S22.7,1.6,49.7,1.6s48.6,21.6,48.6,48.6S76.8,98.9,49.7,98.9z M49.7,7
		C25.9,7,6.5,26.5,6.5,50.3S26,93.5,49.7,93.5S93,74.1,93,50.3S73.5,7,49.7,7z"/>
	<g>
		<path fill="#3365A0" d="M30.3,46.5H46V30.8h7.6v15.1h15.7V54H53.5v15.1h-7.6v-15H30.3V46.5z"/>
	</g>
</g>
</svg>
