<?xml version="1.0" encoding="utf-8"?>
<!-- Generator: Adobe Illustrator 18.1.1, SVG Export Plug-In . SVG Version: 6.00 Build 0)  -->
<svg version="1.1" id="Layer_1" xmlns="http://www.w3.org/2000/svg" xmlns:xlink="http://www.w3.org/1999/xlink" x="0px" y="0px"
	 viewBox="0 0 100 100" enable-background="new 0 0 100 100" xml:space="preserve">
<circle fill="#FFFFFF" cx="50" cy="50" r="48.5"/>
<g id="Layer_1_1_">
	<path fill="#E38325" d="M50,99.8C22.3,99.8,0,77.4,0,50S22.3,0.2,50,0.2s50,22.3,50,49.8S77.7,99.8,50,99.8z M50,4.5
		C24.7,4.5,4.3,24.9,4.3,50S24.7,95.5,50,95.5S95.7,75.1,95.7,50S75.3,4.5,50,4.5z"/>
	<g>
		<circle fill="#E38325" cx="32.3" cy="50" r="4.3"/>
		<circle fill="#E38325" cx="50" cy="50" r="4.3"/>
		<circle fill="#E38325" cx="67.7" cy="50" r="4.3"/>
	</g>
</g>
<g id="Layer_1_copy" display="none">
	<path display="inline" fill="#DFDFE0" d="M50,99.8C22.3,99.8,0,77.4,0,50S22.3,0.2,50,0.2s50,22.3,50,49.8S77.7,99.8,50,99.8z
		 M50,4.5C24.7,4.5,4.3,24.9,4.3,50S24.7,95.5,50,95.5S95.7,75.1,95.7,50S75.3,4.5,50,4.5z"/>
	<path display="inline" fill="#B5B5B5" d="M40.4,64l13.2-13.2L40.4,37.7l4-4l17,17l-17,17L40.4,64z"/>
</g>
<g id="Layer_1_copy_2" display="none">
	<path display="inline" fill="#DFDFE0" d="M50,99.8C22.3,99.8,0,77.4,0,50S22.3,0.2,50,0.2s50,22.3,50,49.8S77.7,99.8,50,99.8z
		 M50,4.5C24.7,4.5,4.3,24.9,4.3,50S24.7,95.5,50,95.5S95.7,75.1,95.7,50S75.3,4.5,50,4.5z"/>
	<path display="inline" fill="#B5B5B5" d="M55.5,67.9l-17-17l17-17l4,4L46.4,51.1l13.2,13.2L55.5,67.9z"/>
</g>
</svg>
