<?xml version="1.0" encoding="utf-8"?>
<!-- Generator: Adobe Illustrator 18.1.1, SVG Export Plug-In . SVG Version: 6.00 Build 0)  -->
<svg version="1.1" id="_x33_" xmlns="http://www.w3.org/2000/svg" xmlns:xlink="http://www.w3.org/1999/xlink" x="0px" y="0px"
	 viewBox="0 0 36 36" enable-background="new 0 0 36 36" xml:space="preserve">
<circle fill="#C1CE76" cx="18.1" cy="18.1" r="17.4"/>
<path opacity="0.5" fill="#FFFFFF" d="M10.9,25.6c0.7-1.3-1.5-1.3-1.7-1.1c-0.2,0.2-1.2,5-1.2,5s0.2,3,6.6,5.6
	c1.1,0.2,2.3,0.4,3.6,0.4c2.8,0,5.4-0.7,7.7-1.8c-1.3-0.9-3.2-1.7-5.8-2.4C13,29.7,10.2,26.9,10.9,25.6z M27.8,13.9
	c-0.3,1.1,1-1.2,1-1.2L29,5.6c0,0,0-0.5-0.3-1.2c-2.9-2.2-6.6-3.6-10.5-3.6c-2,0-3.9,0.3-5.7,1c1.3,0.7,2.9,1.3,4.9,1.9
	C29.2,6.6,28.1,12.8,27.8,13.9z M20,14.8c-7-1.5-9.9-4.3-9.1-5.7C11.6,7.8,9.4,7.8,9.2,8C9,8.3,8,13.1,8,13.1s0.3,3.9,9.4,6.6
	c11.8,2.9,10.7,9.1,10.4,10.2c-0.3,1.1,1.1-1.2,1.1-1.2l0.1-7.1C29,21.6,29,17.2,20,14.8z"/>
<path fill="#FFFFFF" d="M29,5v6.3c0,0,0.4,1.8-2.1,4.4C23.3,19.3,14,24.9,10.7,27C8.3,28.5,8,30,8,30l0.2-6.4c0,0,0.6-1.3,2-2.2
	c2.2-1.5,14.4-8.7,17.6-12.8C28.9,6.8,28.7,5.8,29,5z"/>
<path fill="#FFFFFF" d="M29,11.3V5c-0.2,0.9,0,1.8-1.2,3.6c-3.2,4.1-15.3,11.3-17.6,12.8c-1.4,0.9-2,2.2-2,2.2L8,30
	c0,0,0.3-1.5,2.6-3c3.3-2.1,12.6-7.7,16.2-11.3C29.3,13.1,29,11.3,29,11.3z M29,21.5c-0.2,0.9,0,1.8-1.2,3.6
	c-2.2,2.8-8.7,7.2-13.3,10c1.2,0.2,2.4,0.4,3.6,0.4c2.2,0,4.3-0.4,6.2-1.2c1-0.8,1.8-1.5,2.5-2.2c2.5-2.6,2.1-4.4,2.1-4.4V21.5z
	 M10.7,10.3c2.6-1.6,8.7-5.3,13-8.6c-1.7-0.6-3.6-0.9-5.5-0.9c-0.7,0-1.3,0-2,0.1c-2.7,1.8-5.1,3.2-5.9,3.8c-1.4,0.9-2,2.2-2,2.2
	L8,13.3C8,13.3,8.3,11.8,10.7,10.3z"/>
<path fill="#FFFFFF" d="M28.6,7.7c0,0.3-0.2,0.5-0.5,0.5H10.9c-0.3,0-0.5-0.2-0.5-0.5l0,0c0-0.3,0.2-0.5,0.5-0.5h17.2
	C28.4,7.2,28.6,7.4,28.6,7.7L28.6,7.7z"/>
<path fill="#FFFFFF" stroke="#FFFFFF" d="M28.4,7.7c0,0.3-0.2,0.5-0.5,0.5H10.9c-0.3,0-0.5-0.2-0.5-0.5l0,0c0-0.3,0.2-0.5,0.5-0.5
	h17.5C28.7,7.2,28.4,7.4,28.4,7.7L28.4,7.7z"/>
<path fill="#FFFFFF" stroke="#FFFFFF" d="M27.9,11.8c0,0.3-0.2,0.5-0.5,0.5H10.8c-0.3,0-0.5-0.2-0.5-0.5l0,0c0-0.3,0.2-0.5,0.5-0.5
	h16.6C27.7,11.3,27.9,11.5,27.9,11.8L27.9,11.8z"/>
<path fill="#FFFFFF" stroke="#FFFFFF" d="M26,15.5c0,0.3-0.2,0.5-0.4,0.5h-13c-0.2,0-0.4-0.2-0.4-0.5l0,0c0-0.3,0.2-0.5,0.4-0.5h13
	C25.8,15,26,15.3,26,15.5L26,15.5z"/>
<path fill="#FFFFFF" stroke="#FFFFFF" d="M28.5,23.7c0,0.3-0.2,0.5-0.5,0.5H10.7c-0.3,0-0.5-0.2-0.5-0.5l0,0c0-0.3,0.2-0.5,0.5-0.5
	H28C28.2,23.2,28.5,23.4,28.5,23.7L28.5,23.7z"/>
<path fill="#FFFFFF" stroke="#FFFFFF" d="M28.3,27.6c0,0.3-0.2,0.5-0.5,0.5h-17c-0.3,0-0.5-0.2-0.5-0.5l0,0c0-0.3,0.2-0.5,0.5-0.5
	h17C28.1,27.1,28.3,27.3,28.3,27.6L28.3,27.6z"/>
<path fill="#FFFFFF" d="M26.1,32.3c0,0.3-0.2,0.5-0.4,0.5H12.6c-0.2,0-0.4-0.2-0.4-0.5l0,0c0-0.3,0.2-0.5,0.4-0.5h13.1
	C25.9,31.8,26.1,32.1,26.1,32.3L26.1,32.3z"/>
</svg>
