<?xml version="1.0" encoding="utf-8"?>
<!-- Generator: Adobe Illustrator 18.1.1, SVG Export Plug-In . SVG Version: 6.00 Build 0)  -->
<svg version="1.1" id="_x37_" xmlns="http://www.w3.org/2000/svg" xmlns:xlink="http://www.w3.org/1999/xlink" x="0px" y="0px"
	 viewBox="0 0 36 36" enable-background="new 0 0 36 36" xml:space="preserve">
<circle fill="#C1CE76" cx="18.1" cy="18.1" r="17.4"/>
<path fill="#FFFFFF" d="M7,25.9c-1.3,0-2.2-1.2-2.2-2.5l0,0l0-13.5c0-1.4,0.9-2.6,2.3-2.6l0,0h0.8c0.2-0.6,0.3-1.2,0.3-1.2l0,0
	l0.1-0.4h5.4l0.8,1.6h16.4v0.5v0.5h-17l-0.8-1.6h-4C9,7.1,8.9,7.6,8.8,8l0,0L8.7,8.4H8.3H7.1C6.5,8.4,5.9,9,5.9,10l0,0l0,13.5
	c0,0.9,0.6,1.5,1.2,1.5l0,0h22.6c0.6,0,1.2-0.6,1.2-1.5l0,0L32.2,10c0-0.9-0.6-1.6-1.3-1.6l0,0V7.9V7.4c1.3,0,2.3,1.2,2.3,2.6l0,0
	l-1.3,13.4c0,1.3-0.9,2.4-2.2,2.5l0,0H7L7,25.9z"/>
<path fill="#FFFFFF" stroke="#C1CE76" d="M29,10.3H12.3l-0.8-1.6H6.8c0,0-0.2,0.9-0.4,1.6H5.2c-1,0-1.8,0.9-1.8,2.1l1.4,13.5
	c0,1.1,0.7,2,1.7,2h22.6c0.9,0,1.7-0.9,1.7-2l0-13.5C30.8,11.2,30,10.3,29,10.3z"/>
<g>
	<path fill="#C1CE76" d="M16.1,28.3c1.9-1.3,3.4-2.6,4-3.9c0.3-0.7,0.9-3.1-0.7-2c-0.6,0.4-1.6,0.2-2.2-0.1c-0.3,0,0.3-1.3,0.1-1.9
		c0.4-0.1,1.6-0.5,1.3-0.5c-0.3,0-2-0.1-1.8-0.2c1-1-1.4-0.7-1-1.4c0.2-0.3,1.3-1.4,1.4-2.5c0.2-1.8,0.7-2.5,2.4-3
		c1.3-0.4,3.9-0.1,4.6,1.5c0.6,1.5-0.1,3.2-0.4,4.8c-0.2,1.1-0.6,4.4,0.4,5.3c0,0,6.3,2.9,6.8,2.6c0.4-0.3-5.5,3.3-6.9,3.6
		C21.1,31.3,10.9,31.6,16.1,28.3z"/>
</g>
</svg>
