<?xml version="1.0" encoding="utf-8"?>
<!-- Generator: Adobe Illustrator 18.1.1, SVG Export Plug-In . SVG Version: 6.00 Build 0)  -->
<svg version="1.1" id="Layer_1" xmlns="http://www.w3.org/2000/svg" xmlns:xlink="http://www.w3.org/1999/xlink" x="0px" y="0px"
	 viewBox="0 0 215.8 147.8" enable-background="new 0 0 215.8 147.8" xml:space="preserve">
<g>
	<defs>
		<rect id="SVGID_1_" x="0" width="215.8" height="147.8"/>
	</defs>
	<clipPath id="SVGID_2_">
		<use xlink:href="#SVGID_1_"  overflow="visible"/>
	</clipPath>
	<path clip-path="url(#SVGID_2_)" fill="#FFFFFF" d="M3.3,81l64,64c3.9,3.9,10.2,3.9,14.1,0c3.9-3.9,3.9-10.2,0-14.1L34.5,83.9
		h170.9c5.5,0,10-4.5,10-10c0-5.5-4.5-10-10-10H34.5L81.4,17c3.9-3.9,3.9-10.2,0-14.1c-2-2-4.5-2.9-7.1-2.9c-2.6,0-5.1,1-7.1,2.9
		l-64,64C-0.6,70.8-0.6,77.1,3.3,81L3.3,81z M212.1,66.8"/>
</g>
</svg>
