<?xml version="1.0" encoding="utf-8"?>
<!-- Generator: Adobe Illustrator 18.1.1, SVG Export Plug-In . SVG Version: 6.00 Build 0)  -->
<svg version="1.1" id="Layer_1" xmlns="http://www.w3.org/2000/svg" xmlns:xlink="http://www.w3.org/1999/xlink" x="0px" y="0px"
	 viewBox="0 0 100 100" enable-background="new 0 0 100 100" xml:space="preserve">
<ellipse fill="#FFFFFF" cx="50" cy="50.2" rx="45.5" ry="46"/>
<g>
	<path fill="#3365A0" d="M15.3,84.7C-3.8,65.6-3.8,35,15.3,15.9S65-3.2,84.1,15.8s19.1,49.6,0,68.7S34.5,103.8,15.3,84.7z
		 M80.3,19.7C63.5,2.8,35.9,2.9,19.1,19.7s-16.8,44.3,0,61.1s44.3,16.9,61.2,0.1S97.1,36.5,80.3,19.7z"/>
	<g>
		<path fill="#3365A0" d="M38.6,33.9L49.7,45l11.1-11.1l5.4,5.4L55.5,49.9L66.6,61l-5.7,5.7L49.7,55.6L39.1,66.3l-5.4-5.4l10.6-10.6
			l-11-11L38.6,33.9z"/>
	</g>
</g>
</svg>
