<?xml version="1.0" encoding="utf-8"?>
<!-- Generator: Adobe Illustrator 18.1.1, SVG Export Plug-In . SVG Version: 6.00 Build 0)  -->
<svg version="1.1" id="_x31_" xmlns="http://www.w3.org/2000/svg" xmlns:xlink="http://www.w3.org/1999/xlink" x="0px" y="0px"
	 viewBox="0 0 30 30" enable-background="new 0 0 30 30" xml:space="preserve">
<circle fill="#8FA6C4" cx="15.1" cy="15" r="14.1"/>
<g>
	<g>
		<path fill="none" stroke="#FFFFFF" stroke-width="2" d="M18.3,18.2c0-0.9,0-6.4,0-7.4c0-1.7-1.4-3.1-3.1-3.1
			c-1.7,0-3.1,1.4-3.1,3.1c0,0.9,0,7.9,0,8.8"/>
	</g>
	<g>
		<rect x="8.2" y="12.5" fill="#FFFFFF" width="13.6" height="9.7"/>
		<path fill="#8FA6C4" d="M16.5,15.5c0-0.8-0.6-1.4-1.4-1.4c-0.8,0-1.4,0.6-1.4,1.4c0,0.5,0.2,0.9,0.6,1.1l-0.4,3.8h2.5L16,16.6
			C16.3,16.4,16.5,16,16.5,15.5z"/>
	</g>
</g>
<circle fill="#8FA6C4" cx="15.1" cy="15.3" r="10.6"/>
<path fill="#FFFFFF" d="M15,23c-3.4,0-6.1-0.9-6.1-2c0-0.6,0-1.3,0-2c0-0.2,0.1-0.3,0.2-0.5c0.7,0.9,3.1,1.5,5.9,1.5
	s5.2-0.7,5.9-1.5c0.1,0.2,0.2,0.3,0.2,0.5c0,0.6,0,1.2,0,2C21.1,22.1,18.4,23,15,23z M15,18.9c-3.4,0-6.1-0.9-6.1-2c0-0.6,0-1.3,0-2
	c0-0.1,0-0.2,0.1-0.3l0,0c0-0.1,0.1-0.1,0.1-0.2c0.7,0.9,3.1,1.5,5.9,1.5s5.2-0.7,5.9-1.5c0,0.1,0.1,0.1,0.1,0.2l0,0
	c0.1,0.1,0.1,0.2,0.1,0.3c0,0.6,0,1.2,0,2C21.1,18,18.4,18.9,15,18.9z M15,14.8c-3.4,0-6.1-0.9-6.1-2c0-0.3,0-0.7,0-1
	c0-0.3,0-0.7,0-1c0-1.1,2.8-2,6.1-2c3.4,0,6.1,0.9,6.1,2c0,0.3,0,0.7,0,1c0,0.3,0,0.6,0,1C21.1,13.9,18.4,14.8,15,14.8z M15,9.7
	c-2.3,0-4.1,0.5-4.1,1c0,0.6,1.8,1,4.1,1s4.1-0.5,4.1-1C19.1,10.1,17.3,9.7,15,9.7z"/>
</svg>
