<?xml version="1.0" encoding="utf-8"?>
<!-- Generator: Adobe Illustrator 18.1.1, SVG Export Plug-In . SVG Version: 6.00 Build 0)  -->
<svg version="1.1" id="Слой_1" xmlns="http://www.w3.org/2000/svg" xmlns:xlink="http://www.w3.org/1999/xlink" x="0px" y="0px"
	 viewBox="0 0 100 100" enable-background="new 0 0 100 100" xml:space="preserve">
<path id="Close" fill="#FFFFFF" d="M57,50L98,9c2-2,2-5,0-7s-5-2-7,0L50,43L8.5,1.5c-2-2-5-2-7,0c-2,2-2,5,0,7L43,50L1.5,91.5
	c-2,2-2,5,0,7c2,2,5,2,7,0L50,57l41.5,41.5c2,2,5,2,7,0c2-2,2-5,0-7L57,50z"/>
</svg>
