<?xml version="1.0" encoding="utf-8"?>
<!-- Generator: Adobe Illustrator 18.1.1, SVG Export Plug-In . SVG Version: 6.00 Build 0)  -->
<svg version="1.1" id="Isolation_Mode" xmlns="http://www.w3.org/2000/svg" xmlns:xlink="http://www.w3.org/1999/xlink" x="0px"
	 y="0px" viewBox="0 0 79.5 79.5" enable-background="new 0 0 79.5 79.5" xml:space="preserve">
<g id="Layer_1">
	<circle fill="#C1D076" cx="39.7" cy="39.7" r="39.7"/>
	<g>
		<path fill="#FFFFFF" d="M35,36.9l0.3-0.3c6.6-0.3,9.1-2,9.1-4.7v-0.1c0-2.3-1.8-3.7-4.8-3.7c-2.9,0-5.4,1.2-7.8,3.6L27,26.5
			c3-3.3,7.1-5.6,12.7-5.6c7.5,0,12.6,3.8,12.6,10.8v0.1c0,6.6-4.6,9.3-10.2,10.5l-0.6,3.2h-5.3L35,36.9z M34.5,49.4h8.4v8.3h-8.4
			V49.4z"/>
	</g>
</g>
</svg>
