<?xml version="1.0" encoding="utf-8"?>
<!-- Generator: Adobe Illustrator 18.1.1, SVG Export Plug-In . SVG Version: 6.00 Build 0)  -->
<svg version="1.1" id="Layer_1" xmlns="http://www.w3.org/2000/svg" xmlns:xlink="http://www.w3.org/1999/xlink" x="0px" y="0px"
	 viewBox="0 0 100 100" enable-background="new 0 0 100 100" xml:space="preserve">
<path fill="#8FA6C4" d="M46.7,1.3L16.9,31.1c-1.8,1.8-1.8,4.8,0,6.6c1.8,1.8,4.8,1.8,6.6,0l21.9-21.8v79.4c0,2.5,2,4.7,4.7,4.7
	c2.5,0,4.7-2.1,4.7-4.7V15.8l21.8,21.9c1.8,1.8,4.8,1.8,6.6,0c0.9-0.9,1.3-2.1,1.3-3.2c0-1.2-0.4-2.4-1.3-3.2L53.3,1.4
	C51.5-0.5,48.5-0.5,46.7,1.3L46.7,1.3z"/>
</svg>
