<?xml version="1.0" encoding="utf-8"?>
<!-- Generator: Adobe Illustrator 18.1.1, SVG Export Plug-In . SVG Version: 6.00 Build 0)  -->
<svg version="1.1" id="_x38_" xmlns="http://www.w3.org/2000/svg" xmlns:xlink="http://www.w3.org/1999/xlink" x="0px" y="0px"
	 viewBox="0 0 30 30" enable-background="new 0 0 30 30" xml:space="preserve">
<circle fill="#C1CF76" cx="15.1" cy="15" r="14.1"/>
<path fill="#FFFFFF" d="M27.8-2.2c-0.3-0.1-4.5,2.6-7.2,5c-0.9,0.8-3.8,4-4.5,4.3C16,7,15,6,14.1,5.3c-2.7-2-10,0.4-10,0.4L3.2,19.1
	c0,0,7.5-1,9.4,0.1c1.9,1,3.1,2.7,3.1,2.7s3.3-4,4.5-5.1c4.1-3.7,8.4-6.5,8.4-6.5S28.1-2.1,27.8-2.2z"/>
<path fill="none" stroke="#FFFFFF" d="M2.6,21.9c0,0,6.4-0.9,8.8,0.2c2.4,1.1,4.4,3.5,4.4,3.5s4.7-3.2,6.4-3.7
	c5-1.5,13.8,1.2,13.8,1.2"/>
<path fill="#FFFFFF" d="M16.6,22.3c0,0,2.1-1.6,4.6-2.4c1.4-0.4,2.2-1,10.8,0.1c8.6,1.2,2-3.8,2-3.8s-6.4,0-11.6,2.3
	C18.2,20.4,16.6,22.3,16.6,22.3z"/>
<path fill="#FFFFFF" d="M16.4,22.1c0,0,2.1-2.1,4.3-3.5c1.3-0.8,3.9-2.4,12-3.5c8.5-1.2-1.3-3.6-1.3-3.6s-3.6-0.1-10.6,6.1
	C17.3,20.5,16.4,22.1,16.4,22.1z"/>
</svg>
