<?xml version="1.0" encoding="utf-8"?>
<!-- Generator: Adobe Illustrator 18.1.1, SVG Export Plug-In . SVG Version: 6.00 Build 0)  -->
<svg version="1.1" id="_x33_" xmlns="http://www.w3.org/2000/svg" xmlns:xlink="http://www.w3.org/1999/xlink" x="0px" y="0px"
	 viewBox="0 0 36 36" enable-background="new 0 0 36 36" xml:space="preserve">
<circle fill="#C1CE76" cx="18.1" cy="18.1" r="17.4"/>
<path fill="#C1CE76" stroke="#C1CE76" stroke-width="3" d="M14.9,27L5,32.3l3.8-10.4L21,7.3c0,0,2.3-0.3,4.1,1.5
	c1.9,1.8,2,3.7,2,3.7L14.9,27z"/>
<path fill="#FFFFFF" d="M14.9,27L5,32.3l3.8-10.4L21,7.3c0,0,2.3-0.3,4.1,1.5c1.9,1.8,2,3.7,2,3.7L14.9,27z"/>
<path fill="none" stroke="#C1CE76" stroke-width="1.5" d="M6.4,19.4c0,0,4.7,2.5,6.4,4c1.6,1.6,4.1,4.8,4.1,4.8"/>
<path fill="#FFFFFF" d="M24.7,2.1l-4,4.7l7.1,6.2l4.4-5C30.2,5.3,27.7,3.3,24.7,2.1z"/>
<path fill="none" stroke="#C1CE76" stroke-width="1.5" d="M18.1,5.6c0,0,4.7,2.5,6.4,4c1.6,1.6,4.1,4.8,4.1,4.8"/>
<path fill="#FFFFFF" d="M31.5,8.5L31.5,8.5L31.5,8.5L31.5,8.5z M32.1,7.8l-0.6,0.7l0.6,0.6l-5.7,6.6L28,17l5.7-6.6
	C33.2,9.5,32.7,8.6,32.1,7.8z"/>
</svg>
