<?xml version="1.0" encoding="utf-8"?>
<!-- Generator: Adobe Illustrator 18.1.1, SVG Export Plug-In . SVG Version: 6.00 Build 0)  -->
<svg version="1.1" id="Capa_1" xmlns="http://www.w3.org/2000/svg" xmlns:xlink="http://www.w3.org/1999/xlink" x="0px" y="0px"
	 viewBox="2 10.6 31.4 31.4" enable-background="new 2 10.6 31.4 31.4" xml:space="preserve">
<g>
	<g>
		<path fill="#C1CF76" d="M30.8,17.6l-0.5,0.1l-2.5,0.2l-0.7,1.1l-0.5-0.2l-2-1.8l-0.3-0.9l-0.4-1L22.6,14l-1.5-0.3l0,0.7l1.4,1.4
			l0.7,0.8l-0.8,0.4l-0.6-0.2l-1-0.4l0-0.8l-1.3-0.5L19.2,17l-1.3,0.3l0.1,1l1.7,0.3L20,17l1.4,0.2l0.6,0.4h1l0.7,1.4l1.9,1.9
			l-0.1,0.7L24,21.5l-2.6,1.3L19.5,25l-0.2,1h-0.7l-1.3-0.6L16.1,26l0.3,1.3l0.5-0.6l0.9,0l-0.1,1.2l0.8,0.2l0.8,0.9l1.3-0.4
			l1.4,0.2l1.7,0.4l0.8,0.1l1.4,1.6l2.7,1.6l-1.8,3.4l-1.9,0.9l-0.7,1.9l-2.7,1.8l-0.3,1c6.9-1.7,12-7.9,12-15.3
			C33.4,23.1,32.4,20,30.8,17.6z"/>
		<path fill="#C1CF76" d="M19.5,34.5l-1.1-2.1l1-2.2l-1-0.3l-1.2-1.2l-2.6-0.6l-0.9-1.8v1.1h-0.4l-2.3-3.1v-2.5l-1.6-2.7l-2.6,0.5H5
			L4.2,19l1.1-0.9l-1.1,0.3c-1.4,2.3-2.2,5-2.2,7.9C2,35,9,42,17.7,42c0.7,0,1.3-0.1,2-0.1L19.5,40c0,0,0.7-2.8,0.7-2.9
			C20.2,36.9,19.5,34.5,19.5,34.5z"/>
		<path fill="#C1CF76" d="M7.8,15.6l2.8-0.4l1.3-0.7l1.4,0.4l2.3-0.1l0.8-1.2l1.2,0.2l2.8-0.3l0.8-0.9l1.1-0.7l1.5,0.2l0.6-0.1
			c-2-1-4.3-1.5-6.7-1.5c-4.9,0-9.2,2.2-12.1,5.7h0L7.8,15.6z M18.4,12.1l1.6-0.9l1,0.6L19.5,13l-1.4,0.1l-0.6-0.4L18.4,12.1z
			 M13.6,12.3l0.7,0.3l0.9-0.3l0.5,0.9l-2.1,0.6l-1-0.6C12.6,13.1,13.6,12.5,13.6,12.3z"/>
	</g>
</g>
</svg>
