<?xml version="1.0" encoding="utf-8"?>
<!-- Generator: Adobe Illustrator 18.1.1, SVG Export Plug-In . SVG Version: 6.00 Build 0)  -->
<svg version="1.1" id="Layer_1" xmlns="http://www.w3.org/2000/svg" xmlns:xlink="http://www.w3.org/1999/xlink" x="0px" y="0px"
	 viewBox="0 0 100 100" enable-background="new 0 0 100 100" xml:space="preserve">
<g>
	<g>
		<defs>
			<rect id="SVGID_1_" x="15.8" width="68.5" height="100"/>
		</defs>
		<clipPath id="SVGID_2_">
			<use xlink:href="#SVGID_1_"  overflow="visible"/>
		</clipPath>
		<path clip-path="url(#SVGID_2_)" fill="#FFFFFF" d="M53.3,98.5l29.7-29.7c1.8-1.8,1.8-4.7,0-6.5c-1.8-1.8-4.7-1.8-6.5,0L54.7,84
			V4.8c0-2.5-2.1-4.6-4.6-4.6s-4.6,2.1-4.6,4.6V84L23.7,62.2c-1.8-1.8-4.7-1.8-6.5,0c-0.9,0.9-1.3,2.1-1.3,3.3
			c0,1.2,0.5,2.4,1.3,3.3l29.7,29.7C48.5,100.3,51.4,100.3,53.3,98.5L53.3,98.5z"/>
	</g>
</g>
</svg>
