<?xml version="1.0" encoding="utf-8"?>
<!-- Generator: Adobe Illustrator 18.1.1, SVG Export Plug-In . SVG Version: 6.00 Build 0)  -->
<svg version="1.1" id="Layer_3" xmlns="http://www.w3.org/2000/svg" xmlns:xlink="http://www.w3.org/1999/xlink" x="0px" y="0px"
	 viewBox="0 0 57.9 57.9" enable-background="new 0 0 57.9 57.9" xml:space="preserve">
<g>
	<circle fill="#C0CE76" cx="29" cy="29" r="29"/>
	<g>
		<g>
			<path fill="#FFFFFF" d="M28.2,45.6c-0.4,0-0.8,0-1.1,0c-5.1-0.3-9.7-2.9-12.6-7.1c-0.5-0.8-0.3-1.8,0.4-2.3
				c0.8-0.5,1.8-0.3,2.3,0.4c2.3,3.3,6,5.4,10.1,5.7c3.6,0.2,7-0.9,9.7-3.3c2.7-2.4,4.3-5.6,4.5-9.2C42,22.5,36.4,16.1,29,15.6
				c-4.7-0.3-9.3,1.9-12,5.9c-0.5,0.8-1.6,1-2.3,0.4c-0.8-0.5-1-1.6-0.4-2.3c3.3-4.9,9-7.7,15-7.4c4.5,0.3,8.5,2.3,11.4,5.7
				c2.9,3.3,4.4,7.7,4.1,12.1s-2.3,8.5-5.7,11.4C36.1,44.2,32.2,45.6,28.2,45.6z"/>
		</g>
		<polygon fill="#FFFFFF" points="34,29.2 26.4,21.3 26.4,25.4 26.4,26.3 6.4,26.3 6.4,31.9 26.4,31.9 26.4,36.9 		"/>
	</g>
</g>
</svg>
