<?xml version="1.0" encoding="utf-8"?>
<!-- Generator: Adobe Illustrator 18.1.1, SVG Export Plug-In . SVG Version: 6.00 Build 0)  -->
<svg version="1.1" id="_x31_" xmlns="http://www.w3.org/2000/svg" xmlns:xlink="http://www.w3.org/1999/xlink" x="0px" y="0px"
	 viewBox="0 0 100 100" enable-background="new 0 0 100 100" xml:space="preserve">
<circle fill="#C0CE75" cx="50.3" cy="50" r="47"/>
<g>
	<g>
		<path fill="none" stroke="#FFFFFF" stroke-width="2" d="M61,60.7c0-3,0-21.3,0-24.7c0-5.7-4.7-10.3-10.3-10.3
			c-5.7,0-10.3,4.7-10.3,10.3c0,3,0,26.3,0,29.3"/>
	</g>
	<g>
		<rect x="27.3" y="41.7" fill="#FFFFFF" width="45.3" height="32.3"/>
		<path fill="#8FA6C4" d="M55,51.7c0-2.7-2-4.7-4.7-4.7s-4.7,2-4.7,4.7c0,1.7,0.7,3,2,3.7L46.3,68h8.3l-1.3-12.7
			C54.3,54.7,55,53.3,55,51.7z"/>
	</g>
</g>
<circle fill="#C0CE75" cx="50.3" cy="51" r="35.3"/>
<path fill="#FFFFFF" d="M50,76.7c-11.3,0-20.3-3-20.3-6.7c0-2,0-4.3,0-6.7c0-0.7,0.3-1,0.7-1.7c2.3,3,10.3,5,19.7,5s17.3-2.3,19.7-5
	c0.3,0.7,0.7,1,0.7,1.7c0,2,0,4,0,6.7C70.3,73.7,61.3,76.7,50,76.7z M50,63c-11.3,0-20.3-3-20.3-6.7c0-2,0-4.3,0-6.7
	c0-0.3,0-0.7,0.3-1l0,0c0-0.3,0.3-0.3,0.3-0.7c2.3,3,10.3,5,19.7,5s17.3-2.3,19.7-5c0,0.3,0.3,0.3,0.3,0.7l0,0
	c0.3,0.3,0.3,0.7,0.3,1c0,2,0,4,0,6.7C70.3,60,61.3,63,50,63z M50,49.3c-11.3,0-20.3-3-20.3-6.7c0-1,0-2.3,0-3.3s0-2.3,0-3.3
	c0-3.7,9.3-6.7,20.3-6.7c11.3,0,20.3,3,20.3,6.7c0,1,0,2.3,0,3.3s0,2,0,3.3C70.3,46.3,61.3,49.3,50,49.3z M50,32.3
	c-7.7,0-13.7,1.7-13.7,3.3c0,2,6,3.3,13.7,3.3s13.7-1.7,13.7-3.3C63.7,33.7,57.7,32.3,50,32.3z"/>
</svg>
