<?xml version="1.0" encoding="utf-8"?>
<!-- Generator: Adobe Illustrator 18.1.1, SVG Export Plug-In . SVG Version: 6.00 Build 0)  -->
<svg version="1.1" id="Layer_1" xmlns="http://www.w3.org/2000/svg" xmlns:xlink="http://www.w3.org/1999/xlink" x="0px" y="0px"
	 viewBox="0 0 48 48" enable-background="new 0 0 48 48" xml:space="preserve">
<path fill="#3365A0" d="M46.7,28H1.3C0.6,28,0,27.4,0,26.7v-5.4C0,20.6,0.6,20,1.3,20h45.5c0.7,0,1.3,0.6,1.3,1.3v5.4
	C48,27.4,47.4,28,46.7,28z"/>
<path fill="#3365A0" d="M46.7,7.9H1.3C0.6,7.9,0,7.4,0,6.7V1.3C0,0.6,0.6,0,1.3,0l45.5,0C47.4,0,48,0.6,48,1.3v5.4
	C48,7.4,47.4,7.9,46.7,7.9z"/>
<path fill="#3365A0" d="M46.7,48H1.3C0.6,48,0,47.4,0,46.7v-5.4c0-0.7,0.6-1.3,1.3-1.3h45.5c0.7,0,1.3,0.6,1.3,1.3v5.4
	C48,47.4,47.4,48,46.7,48z"/>
</svg>
