<?xml version="1.0" encoding="utf-8"?>
<!-- Generator: Adobe Illustrator 18.1.1, SVG Export Plug-In . SVG Version: 6.00 Build 0)  -->
<svg version="1.1" id="_x36_" xmlns="http://www.w3.org/2000/svg" xmlns:xlink="http://www.w3.org/1999/xlink" x="0px" y="0px"
	 viewBox="3.3 3 94 94" enable-background="new 3.3 3 94 94" xml:space="preserve">
<circle fill="#E9AB62" cx="50.3" cy="50" r="47"/>
<path fill="#FFFFFF" d="M91,43.3C85.7,32,80,20.3,78,18c-2.3-2.7-7.3-3.7-12-5c-3-0.7-5.7-1-7.3-1.3v-8c-1-0.3-2.3-0.3-3.3-0.7v11.7
	H57c0,0,4,0.3,8.7,1.3c4.3,0.7,9.3,2.7,10,3.7C77,21,83,33.3,88.3,44.3c3,6.3,6,12.3,7.7,16.3c0.3-1.7,0.7-3.7,1-5.7
	C95.3,52,93.3,47.7,91,43.3z M80,57c1.7-3.3,2.7-5.7,2.7-7c-0.3-1.3-0.3-1-1-2c-2.7-4-13-18-13-18c-0.7-0.7-1.7-1-2.3-0.3
	c-0.7,0.7-1,1.7-0.3,2.3c0,0,3.3,4.7,6.7,9c1.7,2.3,3.3,4.7,4.7,6.3c0.7,1,1,1.7,1.7,2.3l0.3,0.3c-0.7,2.3-4.3,10.3-8,10.7L70,61
	l1.7,30.7c1-0.7,2.3-1.3,3.3-1.7l-1.7-26.3c1.3-0.7,2.3-1.3,3.3-2.3L87.3,79c0.7-1,1.3-2,2-3L79,58.7C79.3,58.3,79.7,57.7,80,57z
	 M59.7,52.3c-1-0.3-1.7,0-2.3,1c0,0.3,0,0.3,0,0.7c0,0.7,0,9.3-10.3,10c-0.3,0-1,0-1.3,0c-10,0-10.7-7.3-11-11.7c0-1.3,0-2.3,0-2.3
	v-0.7l-6.3-13.7L3,50l0,0c0,1.3,0,2.3,0.3,3.7l15.3-8.3c1,3,3.3,11.3,6,21c2.3,9,5,19,6.3,26.7c1.3,0.7,2.3,1,3.7,1.3
	c-2.7-17-11.3-46-13-51l5.3-3l4.3,9.7c0,0.3,0,1.3,0,2.3c0,2.3,0.3,6,2.3,9.3c2,3.3,6,6,12,5.7c0.7,0,1,0,1.7,0
	c6.3-0.3,10-3.7,11.7-6.7c1.7-3,1.7-5.7,1.7-6.7C60.7,53.3,60.3,52.7,59.7,52.3z M36.3,17.3c3-0.7,4-0.7,4-0.7h1.3l1-12.7
	c-1,0.3-2.3,0.3-3.3,0.7l-0.7,8.7C36.3,13.7,31,15,22,18c-3,1-6.3,2.7-10,4.7c-1.3,1.7-2.3,3.7-3.3,5.7c5.3-3,10.3-5.3,14.7-7
	C29.3,19,33.7,18,36.3,17.3z"/>
</svg>
