<?xml version="1.0" encoding="utf-8"?>
<!-- Generator: Adobe Illustrator 18.1.1, SVG Export Plug-In . SVG Version: 6.00 Build 0)  -->
<svg version="1.1" id="_x35_" xmlns="http://www.w3.org/2000/svg" xmlns:xlink="http://www.w3.org/1999/xlink" x="0px" y="0px"
	 viewBox="3.3 3 94 94" enable-background="new 3.3 3 94 94" xml:space="preserve">
<circle fill="#F26122" cx="50.3" cy="50" r="47"/>
<path fill="none" stroke="#FFFFFF" d="M65.7,35c-16.3-0.7-33-1.7-33-1.7S21.7,34,15,47c-6.7,12.7,1.7,28,15,28
	c8.3,0,7.3-11.3,7.3-11.3L63,63c0,0,20.7-3,32.3-13c5-4.3-1.3-13-7-13C86,37,75.7,35.3,65.7,35z"/>
<path fill="none" stroke="#FFFFFF" d="M13.3,61c0,0,1.7-6,15-10c11.7-3.3,23.3-3.3,23.3-3.3l48.3-1"/>
<line fill="none" stroke="#FFFFFF" stroke-width="0.75" x1="36.3" y1="49.7" x2="39.7" y2="45"/>
<line fill="none" stroke="#FFFFFF" stroke-width="0.75" x1="19.7" y1="54" x2="25.3" y2="44.3"/>
<line fill="none" stroke="#FFFFFF" stroke-width="0.75" x1="53.7" y1="47.3" x2="55.3" y2="51"/>
<line fill="none" stroke="#FFFFFF" stroke-width="0.75" x1="48.3" y1="47.7" x2="52.7" y2="44"/>
<line fill="none" stroke="#FFFFFF" stroke-width="0.75" x1="67.3" y1="48" x2="69.7" y2="51"/>
<line fill="none" stroke="#FFFFFF" stroke-width="0.75" x1="73.7" y1="46.7" x2="77" y2="43.7"/>
<line fill="none" stroke="#FFFFFF" stroke-width="0.75" x1="31.7" y1="51" x2="36.7" y2="55.3"/>
</svg>
