<?xml version="1.0" encoding="utf-8"?>
<!-- Generator: Adobe Illustrator 18.1.1, SVG Export Plug-In . SVG Version: 6.00 Build 0)  -->
<svg version="1.1" id="_x31_" xmlns="http://www.w3.org/2000/svg" xmlns:xlink="http://www.w3.org/1999/xlink" x="0px" y="0px"
	 viewBox="3.3 3 94 94" enable-background="new 3.3 3 94 94" xml:space="preserve">
<circle fill="#B75AA2" cx="50.3" cy="50" r="47"/>
<path fill="#FFFFFF" d="M45,67.3c-1,7-3.3,11.3-13,11.3c-17,0-21.7-8.3-20.7-15.3l0,0C12.3,48.7,25.7,20,33.7,21h3.7
	C45.3,21.7,45.7,60.3,45,67.3L45,67.3z"/>
<path fill="#FFFFFF" d="M55.7,66c1,7,3.3,11.3,13,11.3c17,0,21.7-8.3,20.7-15.3l0,0C88.3,47.3,75,18.7,67,19.7h-3.7
	C55.3,20.7,55,59,55.7,66L55.7,66z"/>
<path fill="#FFFFFF" d="M55.7,3.3c-3.7,2.3-7,5.3-8,9.7C47,17.3,47,26.7,47,33.7c0,3.3,0,6,0,7.3c-0.7,0.3-1.3,1.3-2.3,2
	c-1.7,1.3-4.3,3-6.7,3.3l1,5c7-1.7,12-7.7,12.3-7.7L52,43v-1c0,0,0-3.7,0-8.3c0-7,0-16.7,0.7-20c0-1.3,3.3-5,7.3-7.3
	c1-0.7,2-1,2.7-1.7C60.7,4,58.3,3.7,55.7,3.3z"/>
<line fill="none" stroke="#FFFFFF" stroke-width="1.5" x1="58.3" y1="48.3" x2="49.7" y2="42"/>
</svg>
