<?xml version="1.0" encoding="utf-8"?>
<!-- Generator: Adobe Illustrator 18.1.1, SVG Export Plug-In . SVG Version: 6.00 Build 0)  -->
<svg version="1.1" id="_x38_" xmlns="http://www.w3.org/2000/svg" xmlns:xlink="http://www.w3.org/1999/xlink" x="0px" y="0px"
	 viewBox="0 0 28.2 28.2" enable-background="new 0 0 28.2 28.2" xml:space="preserve">
<circle fill="#AA5D6B" cx="14.1" cy="14.1" r="14.1"/>
<polyline fill="#AA5D6B" points="10.8,20.5 13.1,20.4 13.8,21.7 13.2,22.3 10.7,21.9 10.8,20.4 "/>
<path fill="#FFFFFF" d="M12.2,9.2c-0.5,0.2-5.1,0.9-6.5,1.5c-2.7,1.1-3.5,3.1-2.7,4.9c0.7,1.8,2.6,2.8,5.4,1.8
	c5.2-2,5.9-4.6,6.2-4.8c1.9-0.8,3.4-2,3-3.1C17.1,8.4,14.1,8.4,12.2,9.2z"/>
<path fill="#FFFFFF" d="M20.4,8.7c-1.2-1.9-2.5-3.1-3.7-3.8c-0.1-0.5-0.5-2.6-0.3-3.8l-1-0.1c-0.1,0.9,0.1,2.4,0.2,3.3
	c-2.8-1.2-5-0.2-5.1-0.2l0.4,0.9c0,0,4.4-1.9,8.3,3.8c-0.1,0-0.2-0.1-0.3-0.1c-1.6-0.3-2.9,0.9-3,0.9l0.7,0.8c0,0,1.1-0.9,2.2-0.7
	c0.6,0.1,1.2,0.6,1.7,1.3l0,0c3.6,7.8-1.9,12.1-7.7,16.6c-0.4,0.3-0.9,0.7-1.3,1l0.6,0.8c0.4-0.3,0.8-0.7,1.3-1
	C19.5,23.8,26.3,18.5,20.4,8.7z"/>
</svg>
