<?xml version="1.0" encoding="utf-8"?>
<!-- Generator: Adobe Illustrator 18.1.1, SVG Export Plug-In . SVG Version: 6.00 Build 0)  -->
<svg version="1.1" id="_x38__copy" xmlns="http://www.w3.org/2000/svg" xmlns:xlink="http://www.w3.org/1999/xlink" x="0px" y="0px"
	 viewBox="3.3 3 94 94" enable-background="new 3.3 3 94 94" xml:space="preserve">
<circle fill="#B6958C" cx="50.3" cy="50" r="47"/>
<path fill="#FFFFFF" d="M50.3,3c-2.7,0-5.3,0.3-7.7,0.7c-1,11-10,23.3-19,42.3c-7.7,15.7-5.3,28.7,3.7,28c6.3,0,8.7-5,10.3-13.7
	c3-14,8.3-7.7,8.3-7.7S45,73.3,53.3,84s36,0,23.3-27.3c0,0,0.7-9.3,6-7.3c2.7,1,9,3,14.7,3c0-0.7,0-1.3,0-2C97.3,24,76.3,3,50.3,3z"
	/>
<path fill="#FFFFFF" d="M38,65.3c0,0-18-9.7-20.3-8.7c-2.3,1-1.3,3.3-0.3,11.7c0.7,6.3,5,8,10,8S38,65.3,38,65.3z"/>
<path fill="#B6958C" d="M82.7,29.3c0-4.7-4.3-9-12.7-7.7c-4.7,0.7-8.3,5.7-8.3,12.7s3.7,12.3,8.3,12.3c4,0,7-4,8-9.3
	C80.7,37,82.7,33.7,82.7,29.3z"/>
</svg>
