<?xml version="1.0" encoding="utf-8"?>
<!-- Generator: Adobe Illustrator 18.1.1, SVG Export Plug-In . SVG Version: 6.00 Build 0)  -->
<svg version="1.1" id="final" xmlns="http://www.w3.org/2000/svg" xmlns:xlink="http://www.w3.org/1999/xlink" x="0px" y="0px"
	 viewBox="3.3 3 94 94" enable-background="new 3.3 3 94 94" xml:space="preserve">
<circle fill="#9C9DA3" cx="50.3" cy="50" r="47"/>
<path fill="#FFFFFF" d="M92.3,38c0,0-3.7-4.3-7.3-4.3c-3.7,0-21.7,2-26.7-1.3c-5-3-23.7-5.7-23.7-5.7s-15-2-17.7,7.7
	c-3.7,13,0,29.7,0.3,35.7c0,4,4,10.7,11,9c7.3-1.7,13.3-9,18.7-11c5.7-2,16.7-2.3,22.7-7c6.3-4.3,9.3-8.7,12.7-12.7
	C85.7,45,90.3,41.3,92.3,38z"/>
</svg>
