<?xml version="1.0" encoding="utf-8"?>
<!-- Generator: Adobe Illustrator 18.1.1, SVG Export Plug-In . SVG Version: 6.00 Build 0)  -->
<svg version="1.1" id="_x37_" xmlns="http://www.w3.org/2000/svg" xmlns:xlink="http://www.w3.org/1999/xlink" x="0px" y="0px"
	 viewBox="4 4 92.6 93" enable-background="new 4 4 92.6 93" xml:space="preserve">
<circle fill="#DC5371" cx="50.3" cy="50.3" r="46.3"/>
<circle fill="#DC5371" cx="50.3" cy="50.3" r="46.3"/>
<path fill="#FFFFFF" d="M70.7,84.3C64,78.7,66.7,59,68,52c2-9.7,6-20.3,2.3-29.7c-4-10-19.7-11.7-28-9.3c-10.3,3.3-13.7,7.7-15,18.7
	C26.7,38.3,20.3,45,19,47c-2.7,4.3,12.3,2.3,6,8.7c-1,0.7,9.3,1.3,11.3,1c1.3-0.3-6,2.3-8.3,3C29.3,63,25.3,71,27,71
	c3.7,2,10,3.3,13.7,0.7c10-6.3,6,8.3,4.3,12.7c-1.7,3.7-4.3,7-7.7,10.7c4,1.3,8.3,2,13,2c16.7,0,31-8.7,39.3-21.7
	C79,80.3,70.7,84.3,70.7,84.3z"/>
<path fill="#DC5371" d="M41.3,54c-10,0-21.7,3.7-25,3.7c-0.3,0-0.3,0-0.3,0l-0.7,2L11.7,61c1.3,2.7,3.7,2.7,4.7,2.7
	c5.3,0,16-3.7,25-3.7c7.7,0.3,12,1.7,13,9.7c0,1.3,0,2.7,0,4.7c0,5.3-0.3,13.3-1.3,22.7c2,0,4-0.3,6-0.7c0.7-8.7,1.3-16.3,1.3-22
	c0-2,0-3.7-0.3-5C59.7,57.3,50,53.7,41.3,54z"/>
</svg>
