<?xml version="1.0" encoding="utf-8"?>
<!-- Generator: Adobe Illustrator 18.1.1, SVG Export Plug-In . SVG Version: 6.00 Build 0)  -->
<svg version="1.1" id="_x31_" xmlns="http://www.w3.org/2000/svg" xmlns:xlink="http://www.w3.org/1999/xlink" x="0px" y="0px"
	 viewBox="3.3 3 94 94" enable-background="new 3.3 3 94 94" xml:space="preserve">
<circle fill="#FAAD19" cx="50.3" cy="50" r="47"/>
<g>
	<path fill="#FFFFFF" d="M44.3,88.3c0,0-2.7-8.3-2.7-16l0,0c0-1.3,0-2.3,0.3-3.3l0,0c0-1.3,2.7-3.7,3.7-4l0,0c1-0.7,3.3-1,4.3-1.3
		l0,0c3.3,0,5.3,3,9,4.3l0,0c3.7,1.3,7.3,2.3,8.7,2.3l0,0c0.3,0,0.3,0,0.7,0l0,0c1.3,0,2.3-0.7,3-1.3l0,0c0.7-0.7,1-1.7,1-2.3l0,0
		v-0.3l0,0C72,65,69,46.7,69,45l-0.3-1.7c0-6.7,0-3.7,1.3-9.7l1.3-2.3c0-1-1.7,2-5.3,4l0,0c-6.3,3.3-15.3,3.3-20.3,4l0,0
		c-0.3,0-1,0-1.3,0l0,0c-4,0-8.3-1.7-12-3l0,0C29,35,26,34,24.3,33.7l0,0l0,0l0,0c0,0.7,0,1.7,0,2.7l0,0c0,9.3,5.7,25,5.7,25l0,0
		l0,0c0.3,2-4.3,6.3-6,6.7l-4,0.7c-2,0.3-3.7-1-4-3l0,0c0,0-0.7-19.3,1.3-29.3l0,0c0-2.7-0.7-7.3,0.3-9.7l0,0c1.3-2.3,4-3,5.7-3l0,0
		c3.7,0,7.7,4.3,11.7,6l0,0c3.7,1.3,7.7,2.7,9.7,2.7l0,0c0.3,0,0.3,0,0.7,0l0,0c2.7-0.3,9-2.7,14.7-5.7l0,0c5.7-3,11-6.7,12-8.3l0,0
		c0.3-0.7,1-1.7,3.3-2l0,0c1.7,0,2.7,1,3,1.7l0,0c0.3,0.7,0.7,1,0.7,1.7l0,0c0.3,1,0.3,1.7,0.7,2.7l0,0c0.3,2,0.3,4.3,0.3,7.3l0,0
		c0,10.7-2,15.3-2,21.7l0,0c0,1,1,13.3,1,13.3l0,0h-0.3H79c0,0.7,0.3,1.3,0.3,2l0,0c0,5.3-4.7,10.3-11,10.7l0,0c-0.3,0-0.7,0-1.3,0
		l0,0c-3-0.3-6.3-1.7-10-2.7l0,0c-2.7-1-5.3-1.7-7-2l0,0c0,0,0,0,0,0.3l0,0c3.7,6,1,14.3,1,14.3l0,0c0.3,2,0,6.3-2,6.7l0,0
		c-0.3,0-0.3,0-0.7,0l0,0C47,94,44.7,90,44.3,88.3L44.3,88.3z"/>
</g>
</svg>
