<?xml version="1.0" encoding="utf-8"?>
<!-- Generator: Adobe Illustrator 18.1.1, SVG Export Plug-In . SVG Version: 6.00 Build 0)  -->
<svg version="1.1" id="_x36_" xmlns="http://www.w3.org/2000/svg" xmlns:xlink="http://www.w3.org/1999/xlink" x="0px" y="0px"
	 viewBox="3.3 3 94 94" enable-background="new 3.3 3 94 94" xml:space="preserve">
<circle fill="#CA776F" cx="50.3" cy="50" r="47"/>
<path fill="#FFFFFF" d="M43.3,11c-13,4-17,9.3-18.7,23c-1,8-9,16.7-10.7,19.3c-3.3,5.3,15.7,3,7.7,10.7c-1.3,0.7,11.7,1.7,14,1.3
	C37.3,65,28.3,68,25.3,69c1.7,4-3.3,14.3-1,14.3c4.7,2.3,12.3,4,17,1C52,77.7,49.7,90,47.7,97c0.7,0,1.7,0,2.3,0
	c8.7,0,17-2.3,24-6.7c-2-10.3,0-24.7,1.3-30.7c2.3-12.3,7.7-25.3,3-37C73,10.3,53.3,8,43.3,11z"/>
<path fill="#CA776F" stroke="#FFFFFF" d="M30.3,34c0,0-0.7,3,1.7,4c2.3,1,21.7,0.7,22,1.7c0.3,0.7,3.3,3.3,6.7,7.3c2,1,4,1.3,7,0.7
	c9.3-2,9.3-13.3,9-16.7c-0.3-3-6-16.3-16-16c-10.3,0.3-16.3,0.3-24.7,7C29.3,27,30.3,34,30.3,34z"/>
</svg>
