<?xml version="1.0" encoding="utf-8"?>
<!-- Generator: Adobe Illustrator 18.1.1, SVG Export Plug-In . SVG Version: 6.00 Build 0)  -->
<svg version="1.1" id="_x32_" xmlns="http://www.w3.org/2000/svg" xmlns:xlink="http://www.w3.org/1999/xlink" x="0px" y="0px"
	 viewBox="3.4 3 94 94.3" enable-background="new 3.4 3 94 94.3" xml:space="preserve">
<circle fill="#8F56A3" cx="50.3" cy="50" r="47"/>
<path fill="#FFFFFF" d="M49.3,42.3c-8,0-14.3,4.3-14.3,23.7c0,10.7,2.3,22.3,5.3,30.3c3,0.7,6.3,1,9.7,1c2.7,0,5-0.3,7.7-0.7
	c3.3-8,5.7-19.7,5.7-30.7C63.3,46.7,57,42.3,49.3,42.3z"/>
<path fill="#FFFFFF" d="M38.3,48.7c-3.7,0-9.7-0.3-14.7-1.3c-2.7-0.7-5.3-1.3-7-2.3c-0.7-0.3-1.3-1-1.7-1.3c-0.3-0.3-0.7-1-0.7-1.3
	c-0.7-6-1.7-11.7-1.7-11.7c0-1,1.3-5.3,4.3-4.7c3,0,4.3,1.3,4.7,2.7c-1.3,1.3-2.3,3.7-1.7,6.7c1,4.7,5.7,9.3,10.7,8.7
	c4-0.7,1.7-4-0.7-8.3c-1.7-2.7-2.3-5.3-3.3-7c-0.3-4.3-1.3-13-9.3-13c-9.7,0-9.7,11.7-9.7,13c0,3.7,1,8,1.7,13.7c0,1.7,0.7,3,1.7,4
	c1.7,2,3.7,3.3,6,4c3.7,1.3,8,2,12,2.7c2.7,0.3,5.3,0.3,7.3,0.3C37.7,53.7,38.7,48.7,38.3,48.7z"/>
<path fill="#FFFFFF" d="M60.3,48.7c3.7,0,9.7-0.3,14.7-1.3c2.7-0.7,5.3-1.3,7-2.3c0.7-0.3,1.3-1,1.7-1.3c0.3-0.3,0.7-1,0.7-1.3
	c0.7-6,1.7-11.7,1.7-11.7c0-1-1.3-5.3-4.3-4.7c-3,0.3-4,1.7-4.3,3c1.3,1.3,2,3.7,1.7,6.7c-1,4.7-5.7,9.3-10.7,8.7
	c-3.7-0.7-1.7-4,0.7-8c1.7-2.7,2.3-5.3,3.3-7c0.3-4.3,1.3-13,9.3-13c9.7,0,9.7,11.7,9.7,13c0,3.7-1,8-1.7,13.7c0,1.7-0.7,3-1.7,4
	c-1.7,2-3.7,3.3-6,4c-3.7,1.3-8,2-12,2.7C67.3,54,64.7,54,62.7,54C60.7,53.7,59.7,48.7,60.3,48.7z"/>
<path fill="#93509F" d="M50.3,81c0-13.7,3.3-25,7.7-27.7c-2-3.7-5.3-4.7-8.7-4.7c-3.3,0-6.7,1-8.7,4.7c4.3,2.3,7.7,14,7.7,27.7
	c0,7.3,0.7,14.3,0,19.3c0.3,0,0.7,0,1,0c0.3,0,0.7,0,1-0.3C49.3,95,50.3,88.3,50.3,81z"/>
</svg>
