<?xml version="1.0" encoding="utf-8"?>
<!-- Generator: Adobe Illustrator 18.1.1, SVG Export Plug-In . SVG Version: 6.00 Build 0)  -->
<svg version="1.1" id="final" xmlns="http://www.w3.org/2000/svg" xmlns:xlink="http://www.w3.org/1999/xlink" x="0px" y="0px"
	 viewBox="3.3 3 94 94" enable-background="new 3.3 3 94 94" xml:space="preserve">
<circle fill="#A78A9E" cx="50.3" cy="50" r="47"/>
<path fill="#FFFFFF" d="M46,93c-3.3,0-5-5.7-3-8.7c1.7-2.3,4.3-1.7,5.3-2.3c1-0.3,0.7-1.7,1.3-4.3c1-5.3,9-40.3-1.3-53.3
	c-2.3-5.7-7.7-2-7-10.3C44,6,48,8,48,8l7.3,5.7c0,0,5.3-5.3,7.7-3.3c7,6.7,1.7,10.3,1.7,10.3s-3.3-1-4.7,7.3c1.7,19,0,54.7,0,54.7
	s6,5,1,9c-3.7,3-7-1-7-1S50,93.3,46,93z"/>
</svg>
