<?xml version="1.0" encoding="utf-8"?>
<!-- Generator: Adobe Illustrator 18.1.1, SVG Export Plug-In . SVG Version: 6.00 Build 0)  -->
<svg version="1.1" id="_x31_" xmlns="http://www.w3.org/2000/svg" xmlns:xlink="http://www.w3.org/1999/xlink" x="0px" y="0px"
	 viewBox="3.5 3 93.8 93.9" enable-background="new 3.5 3 93.8 93.9" xml:space="preserve">
<circle fill="#3D67B1" cx="50.3" cy="50" r="47"/>
<path fill="#FFFFFF" d="M87,42.3C83.3,31,75,28,70,27.3c-5.3-0.7-12-9-12-13.3c0-3.3,1.3-7.3,2.7-10c-2-0.3-4-0.7-6-1
	c-2.3,3.3-5.3,9-5.3,14.7c0,8.7,7,7.7,10.3,21.7c3.7,14-11.7,19-15,19.7c-3.3,0.7-7-3.7-11-5.7c-4.3-2-9.7-1.7-19,5.7
	c-3.3,2.7-5,8.3-5,14.7c2.3,4,5,7.7,8.3,10.7c-0.7-4-1-8-0.7-9.7c0.7-4.3,1-9,6-7.7c5,1.7,4,6.3,12.3,15.7
	c8.7,9.3,25.7,7.7,41.7-3.7C93,68,90.3,52.3,87,42.3z"/>
</svg>
