<?xml version="1.0" encoding="utf-8"?>
<!-- Generator: Adobe Illustrator 18.1.1, SVG Export Plug-In . SVG Version: 6.00 Build 0)  -->
<svg version="1.1" id="_x37_" xmlns="http://www.w3.org/2000/svg" xmlns:xlink="http://www.w3.org/1999/xlink" x="0px" y="0px"
	 viewBox="0 0 100 100" enable-background="new 0 0 100 100" xml:space="preserve">
<circle fill="#FFFFFF" cx="49.9" cy="50" r="48.1"/>
<circle fill="none" stroke="#EC4343" cx="50" cy="50" r="48.1"/>
<g>
	<path fill="#EC4343" d="M85.3,57.9c-2.3-11.3-6.8-14.7-17.7-28.9c-7.1-9.4-12-21.4-15-28.6c-1.1,0-1.9,0-3,0c-0.8,0-1.1,0-1.9,0
		C44.4,9,38,24.1,34.2,29.3c-5.6,7.5-16.9,18.8-18.4,28.9c-2.6,16.5,13.2,35,34.6,35C72.6,92.9,89.1,74.4,85.3,57.9z"/>
	<path fill="#FFFFFF" d="M87.2,57.5c-2.6-11.7-7.1-15.8-18-29.7C62.8,19.2,57.5,7.9,54.9,0.4c-1.5,0-2.6,0-4.1-0.4
		c2.6,7.5,7.9,19.9,15.4,30.1c10.9,14.3,15,17.7,17.3,28.2c0.4,1.5,0.4,2.6,0.4,4.1c0,13.9-14.7,28.2-33.5,28.6l0,0
		c-19.2,0-33.1-15-33.1-29.3c0-1.1,0-2.3,0.4-3.4c1.5-9.4,12.4-20.7,18.4-28.2C40.2,24.4,47,8.6,50.4,0c0,0,0,0-0.4,0
		c-1.5,0-2.6,0-3.8,0.4c-0.8,2.3-1.9,4.9-3,7.5c-3.4,7.9-7.5,16.5-10.2,19.9c-5.6,7.5-16.9,18.4-18.8,29.7c-0.4,1.1-0.4,2.6-0.4,3.8
		c0,16.9,15.8,33.1,36.8,33.1l0,0C71.4,94.4,87.6,78.6,88,62C87.6,60.9,87.6,59,87.2,57.5z"/>
</g>
<path fill="#FFFFFF" d="M46.6,28.9c0,0-4.5,7.5-7.1,11.3C36.8,44,28.2,54.1,28.9,57.1c2.3,9,13.5,0.8,13.5,0.8
	C44.4,46.2,45.1,40.6,46.6,28.9z"/>
</svg>
