<?xml version="1.0" encoding="utf-8"?>
<!-- Generator: Adobe Illustrator 18.1.1, SVG Export Plug-In . SVG Version: 6.00 Build 0)  -->
<svg version="1.1" id="_x36_" xmlns="http://www.w3.org/2000/svg" xmlns:xlink="http://www.w3.org/1999/xlink" x="0px" y="0px"
	 viewBox="3.3 3 94 93.9" enable-background="new 3.3 3 94 93.9" xml:space="preserve">
<circle fill="#D93A67" cx="50.3" cy="50" r="47"/>
<path fill="#D93A67" d="M61,43C61,43,61.3,43,61,43c0.7,0,1,0,1.3,0c0-0.7,0-0.7,0.3-1.3c0.7-3.3,1-6,1.3-8c0.7-4.3,0.3-6.7,0.3-6.7
	c0-0.7,0-0.7,0-1.3c-0.7,0-0.7,0-1.3,0c0,0-0.3,0-1.3-0.3C57.3,24.7,42,22,31.7,6.7C29.3,7.7,27,9,25,10.3c-1,4-1.7,8-2.3,13.3
	c0,0.3,0,0.3,0.3,0.7C23,25,30,41.7,61,43z M66.7,82.7c-0.3-0.3-0.3-0.7-0.7-1.3c-0.3,0-0.7,0.3-1.3,0.3c0,0-0.3,0-1.3,0.3
	c-4.7,1-21.7,5.3-38.7-7.3c-1-0.7-1.7-1.3-2.7-2c0.3,1.7,0.3,2.3,0.7,4c0.7,5.3,1.3,9,2.3,13c7.3,4.7,15.7,7.3,25,7.3
	c3.3,0,7-0.3,10-1c3-2.3,6-5,8.3-7.7C67.7,84.7,66.7,82.7,66.7,82.7z M62.7,71.7C62.7,71.7,63,71.7,62.7,71.7c0.7,0,1,0,1.3-0.3
	c0-0.7,0-0.7,0-1.3c0-3.3-0.3-6-0.3-8.3c-0.3-4.3-1-6.7-1-6.7c0-0.3-0.3-0.7-0.3-1.3c-0.7,0-0.7,0-1.3,0c0,0-0.3,0-1.3,0
	c-4.7,0-22.3,1-36.3-15c-1-1-1.3-1.7-2.3-2.7c0,1.7-0.3,2.3-0.3,4c-0.3,8-0.3,12,0,20.3c0,0.3,0.3,0.3,0.3,0.3
	C21.7,62,32,76.7,62.7,71.7z"/>
<path fill="#FFFFFF" d="M63.7,29.3C67.3,28,74,23.7,75.3,22c1.3-1,3-5.3,4.3-8.7c-1.3-1-2.3-2-3.7-2.7c-2,2.7-4.7,6.3-5,6.3
	c-0.3,0.3-11,5-11,5c-1.3-1-0.7-4-0.7-5.3c0-2,0.3-4.3,0-6c-0.7-2-2.7-2-4.3-1.3c-2,0.7-2.7,1.3-2.7,3.3c0,1.3-0.3,2.3-1.3,3
	c0.3,0.3,0.7,1,1.3,1C52,16.7,52,17,51.7,17c0.3,0.3,0.3,0.7,0.7,0.7c-0.3,0-0.3,0-0.3,0.3c0.3,0.7,0.3,1.3,0,1.7
	c0.7,0.3,1.7,0.7,2.7,0.3c0,0,0,0,0.3,0c-0.3,0.7-0.3,1.3-0.3,1.7C54.3,28,29,36.3,26,37.3c-0.3,0.3-1.7-0.7-2.7-1.3
	c-0.3-0.3-0.7-0.3-1-0.3c-1.3,0.7-2.3,1-3,1.3c-0.3,0,1,0.7,0.7,0.7c-1.7,0.3-4.3,1-4.7,2.7c-0.3,3,4,3,5.3,2.7c2,0,3-0.3,4.7-0.7
	c4.3-0.3,18.7-3.7,22.3-4.7l0,0C47.3,38.3,47,39.3,47,40c-0.7,2-8.7,21-9.3,23c-0.7,2.3-4.3,13.7-4.3,13.7l4.3,15l-3.3,1.7
	c0,0,3.3,1,6-0.7c1.7-1.3,0.3-2.3,0.3-2.3S39.3,79.7,39.3,79c0-0.3-1.3-2.7-1.3-2.7s6.7-13,16-16l2,16L68.3,89L64,91c0,0,6,1,7-0.7
	s0.3-2.3,0.3-2.3L64,76l-3.3-1.7C60.7,74.3,59.3,39,63.7,29.3C63.7,29.7,63.7,29.7,63.7,29.3z"/>
</svg>
