<?xml version="1.0" encoding="utf-8"?>
<!-- Generator: Adobe Illustrator 18.1.1, SVG Export Plug-In . SVG Version: 6.00 Build 0)  -->
<svg version="1.1" id="_x38_" xmlns="http://www.w3.org/2000/svg" xmlns:xlink="http://www.w3.org/1999/xlink" x="0px" y="0px"
	 viewBox="3.4 3 94 94" enable-background="new 3.4 3 94 94" xml:space="preserve">
<circle fill="#B5C8E7" cx="50.3" cy="50" r="47"/>
<path fill="#FFFFFF" d="M59,9.3C77.3,17,78.7,44.3,84,51c-2.3,4.3-4.3,39.3-33.7,39.3S19,56.3,16.7,51C24,41.7,23.3,18.3,41,10
	c3-1.3,9.3,4,9.3,4S56.3,8,59,9.3z"/>
<path fill="#B5C8E7" d="M78,50.7c0,0-8.3,27.7-27.3,27.7c-21.3,0-28.3-27.7-28.3-27.7s12.3-32.7,28-23.3C65,18,78,50.7,78,50.7z"/>
<path fill="#FFFFFF" d="M33.7,53c-4.3,1.7-5.3,4-5.3,4s5.7,17,22,17c15,0,21.3-17,21.3-17s1.7-2.3-6-4.3s-10,4.7-16,4.7
	S38,51.3,33.7,53z"/>
</svg>
