<?xml version="1.0" encoding="utf-8"?>
<!-- Generator: Adobe Illustrator 18.1.1, SVG Export Plug-In . SVG Version: 6.00 Build 0)  -->
<svg version="1.1" id="_x34_" xmlns="http://www.w3.org/2000/svg" xmlns:xlink="http://www.w3.org/1999/xlink" x="0px" y="0px"
	 viewBox="3.3 3.1 94 93.9" enable-background="new 3.3 3.1 94 93.9" xml:space="preserve">
<circle fill="#E0CA63" cx="50.3" cy="50" r="47"/>
<circle fill="#E0CA63" cx="50.3" cy="50" r="47"/>
<path fill="#FFFFFF" d="M97.3,50c0-17.7-9.7-33-24-41c-0.3,2-1,4-2.7,6c-4.3,5-8,8.3-8,8.3s-18.7-2-24,3.3
	C34.3,31,13.3,51.3,4.3,60.3c2,9,6.7,17,12.7,23L47.7,57c0,0,9.3,14.7,10,18C58,77.3,61,88.7,63,95.3C82.7,89.7,97.3,71.7,97.3,50z"
	/>
<path fill="#E0CA63" d="M64.7,29.7c0,0-13-5.7-20.7-0.3s-15.3,15-15.3,15S44,47,55,44.3C65.7,41.7,64.7,29.7,64.7,29.7z"/>
<path fill="#E0CA63" d="M64.7,42.7C60.3,49.3,50,50,50,50s26.7,17.3,41.3,22.7C95,66,97,58.3,97,50c0-6.3-1.3-12.3-3.7-18l-25-1.7
	C69,30.7,69,36.3,64.7,42.7z"/>
<path fill="#E0CA63" d="M17,64.7c-1,1.3-4.7,3.7-9,6.3c0.3,1,1,2,1.7,3c4.7-2.7,8.7-5.3,10-7.3c2-3.3,18.7-14.7,23-17.7H36
	C34.7,49.7,19.7,60,17,64.7z"/>
<path fill="#E0CA63" d="M81,73.7c-1.7,0.7-2.7,5,0,9.7c0.3,0.3,0.7,0.7,1,1c2.7-2.7,5.3-5.3,7.3-8.7C86.3,74.7,82,73.3,81,73.7z"/>
</svg>
