<?xml version="1.0" encoding="utf-8"?>
<!-- Generator: Adobe Illustrator 18.1.1, SVG Export Plug-In . SVG Version: 6.00 Build 0)  -->
<svg version="1.1" id="_x32_" xmlns="http://www.w3.org/2000/svg" xmlns:xlink="http://www.w3.org/1999/xlink" x="0px" y="0px"
	 viewBox="3.3 3 94 94" enable-background="new 3.3 3 94 94" xml:space="preserve">
<circle fill="#C86D57" cx="50.3" cy="50" r="47"/>
<path fill="#FFFFFF" d="M93.3,42.3C89.7,21.7,71.7,6,50.3,6C28.7,6,10.7,21.7,7,42.3H93.3z"/>
<path fill="#FFFFFF" d="M93.3,42.3C89.7,21.7,71.7,6,50.3,6C28.7,6,10.7,21.7,7,42.3H93.3z"/>
<path fill="#C86D57" stroke="#FFFFFF" stroke-width="2" d="M54.7,11c0,0-34.3,35.7-31.3,64.7c0.7,5-1.3,6.7,2.3,6.7s2.3-6.7,2.3-6.7
	S23.3,53.3,54.7,11z"/>
<path fill="none" stroke="#FFFFFF" d="M66,39.3C60.3,49.3,55.7,61,55.7,72c0,1.3,0,2.7,0.3,4c0,0.7,0,1.3,0,2c0,1,0,1.7,0,2.3
	c0,0.7,0,1.7,1,2.7c1,0.7,2,1,3,1l0,0c1.7,0,3-1.3,3.7-2.3c0.7-1.3,0.7-2.3,0.7-3.7c0-1.3-0.3-2.7-0.3-2.7s-0.3-1-0.3-3.3
	c0-5,1-15.7,8.7-31.3"/>
<path fill="#C86D57" d="M54.7,11c0,0-34.3,35.7-31.3,64.7c0.7,5-1.3,6.7,2.3,6.7s2.3-6.7,2.3-6.7S23.3,53.3,54.7,11z"/>
<path fill="#C86D57" d="M29.3,24.7c0,0-21.3,22-19.3,40c0.3,3-0.7,4,1.3,4c2.3,0,1.3-4,1.3-4S10,50.7,29.3,24.7z"/>
<path fill="#C86D57" d="M65,24.7c0,0-21.3,22-19.3,40c0.3,3-0.7,4,1.3,4c2.3,0,1.3-4,1.3-4S45.7,50.7,65,24.7z"/>
<path fill="#C86D57" d="M83.7,17c-9.7,11.3-28.3,37-26,58.7c0.7,5-1.3,6.7,2.3,6.7s2.3-6.7,2.3-6.7s-4.3-20,22-58
	C84,17.3,84,17,83.7,17z"/>
</svg>
