<?xml version="1.0" encoding="utf-8"?>
<!-- Generator: Adobe Illustrator 18.1.1, SVG Export Plug-In . SVG Version: 6.00 Build 0)  -->
<svg version="1.1" id="_x34_" xmlns="http://www.w3.org/2000/svg" xmlns:xlink="http://www.w3.org/1999/xlink" x="0px" y="0px"
	 viewBox="0 0 28.2 28.2" enable-background="new 0 0 28.2 28.2" xml:space="preserve">
<circle fill="#685BA8" cx="14.1" cy="14.1" r="14.1"/>
<path fill="#FFFFFF" d="M24,9.5c0,4.6-9.8,8.2-9.8,8.2s-9.8-3.6-9.8-8.2c0-4.6,4.4-6.8,9.8-6.8C19.6,2.7,24,4.9,24,9.5z"/>
<path fill="#FFFFFF" d="M15.3,26.6c3.2,0.4,3-1.4,2.3-2.5c-0.7-1.1-1.9,0.3-1.9,0.3s0-4.6,0-6.1c0-1.5,3.7-3.5,3.7-3.5H8.6
	c0,0,3.7,2,3.7,3.5c0,1.5,0,6.1,0,6.1S11,23,10.4,24.1c-0.7,1.1-0.9,2.9,2.3,2.5H15.3z"/>
<path fill="#685BA8" d="M21.2,10.5c0-3.3-3.2-4.9-7.1-4.9c-3.9,0-7.1,1.6-7.1,4.9c0,2.7,4.8,4.9,6.5,5.6l0,8.4
	c0,0.2-0.1,0.5-0.2,0.6c-0.1,0-0.2-0.1-0.2-0.1c-0.4-0.3-1.3-0.8-2.3,0.1c-0.8,0.7-0.4,1.7-0.1,2.3l0.8-0.5c0,0-0.4-0.7-0.1-1
	c0.5-0.4,0.7-0.3,1.1,0c0.2,0.1,0.4,0.2,0.6,0.3c0.2,0.1,0.5,0,0.7-0.1c0.2-0.1,0.3-0.3,0.4-0.5c0.2,0.1,0.4,0.3,0.6,0.3
	c0.6,0.2,1.3,0.2,1.8,0.2c0,0.2,0,0.6,0,0.9l1,0.1c0.1-0.7,0.1-1.5-0.2-1.9c-0.2-0.2-0.4-0.2-0.6-0.2c-0.4,0.1-1.1,0-1.6-0.2
	c-0.3-0.1-0.5-0.4-0.6-0.5v-8.2C16,15.6,21.2,13.3,21.2,10.5z"/>
</svg>
