<?xml version="1.0" encoding="utf-8"?>
<!-- Generator: Adobe Illustrator 18.1.1, SVG Export Plug-In . SVG Version: 6.00 Build 0)  -->
<svg version="1.1" id="_x34_" xmlns="http://www.w3.org/2000/svg" xmlns:xlink="http://www.w3.org/1999/xlink" x="0px" y="0px"
	 viewBox="3.4 3 94 94" enable-background="new 3.4 3 94 94" xml:space="preserve">
<circle fill="#CBB87B" cx="50.3" cy="50" r="47"/>
<path fill="#FFFFFF" d="M82.7,28.7c-8.3-8-20.3-2.3-24,5.3c-2.7,5.3,2.7,12.7,6,16.7c-1.7,0.3-3.3,1-5.7,1.7c-2.7,1-3.7,3.3-4.7,6
	c-2.7,8-3,22-3,31.7c0,3,0,5.3,0,7c1.7,0,3.3-0.3,5-0.3c0-1.7,0-4,0-6.7c0-6.3,0.3-14.7,1-21.7c0.3-3.3,1-6.3,1.7-8.7
	c0.3-1,0.7-2,1-2.3c0.3-0.7,0.7-0.7,0.7-0.7c1.3-0.3,2.7-1,3.7-1c-1,1.3-2,3.3-2.3,5.7c-1,6-0.3,13,10,13s17.3-11.3,18.7-22
	C92,42.3,91.3,36.7,82.7,28.7z M47.3,58.3c-1-2.7-2-5-4.7-6c-2-0.7-4-1.3-5.7-1.7c3.3-4,8.7-11.3,6-16.7c-3.7-7.7-15.7-13.3-24-5.3
	s-9.3,13.3-8,24s8,22,18.7,22s11-7,10-13c-0.3-2.7-1.3-4.3-2.3-5.7c1,0.3,2.3,0.7,3.7,1c0,0,0.3,0,0.7,0.7c1.3,1.7,2.7,7.3,3,13.7
	c0.7,6.3,0.7,13.3,0.7,19c0,2.7,0,5,0,7c1.7,0.3,3.3,0.3,5,0.3c0-1.7,0-4.3,0-7.3c0-6.3-0.3-15-1-22C48.7,64.3,48,61,47.3,58.3z"/>
</svg>
